<?xml version="1.0" encoding="utf-8"?>
<!-- Generator: Adobe Illustrator 19.2.1, SVG Export Plug-In . SVG Version: 6.00 Build 0)  -->
<svg version="1.1" id="Layer_1" xmlns="http://www.w3.org/2000/svg" xmlns:xlink="http://www.w3.org/1999/xlink" x="0px" y="0px"
	 width="300.5px" height="300.1px" viewBox="0 0 300.5 300.1" style="enable-background:new 0 0 300.5 300.1;" xml:space="preserve"
	>
<style type="text/css">
	.st0{fill:#808080;}
	.st1{fill:#909090;}
</style>
<title>avocode-icon</title>
<path class="st0" d="M149.2,0c37.9,0.4,70.8,12.2,98.9,36.5c32,27.6,49.8,63,52.1,105c2.4,44.5-12.5,83.4-44.4,115.1
	c-23.8,23.7-52.6,38.4-85.9,42.3c-50.4,6-93.9-9.2-129.1-46c-23-23.6-37.1-54.4-40-87.3C-3.3,123.8,7.9,86,35,53.8
	C64.9,18.3,103.7,0.8,149.2,0z M200.2,167c-0.1-2.1,0-4.2-0.3-6.2c-2.2-17.3-7.5-34-15.7-49.4c-4.4-8.3-9.6-16-16.8-22.2
	c-11.1-9.6-23.1-9.6-34.2-0.1c-3.6,3.1-6.8,6.6-9.5,10.5c-10.1,14.2-16.5,30-20.5,46.8c-2.7,10.9-4.1,21.9-1.5,33.1
	c6.2,26.7,32.8,43.5,59.6,37.6C184.2,211.9,200.4,191.2,200.2,167L200.2,167z"/>
<path class="st1" d="M122.5,166.8c1.3-14.6,5.3-28.3,15.6-39.3c7.7-8.1,16.8-8,24.7-0.1c7.2,7.3,10.9,16.4,13.4,26.1
	c1.8,6.8,2.7,13.7,1.2,20.7c-2.7,13-11.7,20.7-25,21.2c-10.7,0.4-19.9-2.7-25.8-12.4C123.5,178.1,122.5,172.6,122.5,166.8z"/>
</svg>
