<svg xmlns="http://www.w3.org/2000/svg" width="200" height="100" viewBox="0 0 200.03468 99.984217">
  <path fill="#29a829" d="M6.5 37.8l20-3.5 74.8-.5-14.5-13.6c8-6.6 14-14 24-19.8l83.3 38.4-74 57-23.3-20 10-13-99 6.2z"/>
  <path fill="#3e3231" d="M175 50.7c-3-1.8-5.4-4.4-7.5-6.6-.4-.3-1.2 0-1 .4 2.4 2.5 5 4.8 8 6.7l-9 6.4-8-5c-.2-.3-.7 0-.4.3 2.4 2 5 3.5 8 5L147.8 70c-2-2-3.8-4-5.3-6.3-.2-.2-1 0-.7.3.8 2.4 3 4.6 5.4 6.6-5.8 4.3-11.4 8.3-17 12.8-5-3.5-10-7.2-14-11.4-.6-.4-1.8 0-1.3.6 4 4.2 9 8 14 11.5l-10.8 9.2c-5.4-4-10-8.8-14.5-13.3l.6-1.3c1.4-5.3 4.7-9.3 9.2-13.5 1.7-1.7-.2-3.5-2.5-3.2-.2-.3-.7-.6-1.3-.6-.8 0-1.6.3-2.5.6-.2-.3-.5-.5-1-.6.5-.2.4-1 0-1-1 0-1.3.4-1.8.8h-2.2c1-.8 1.7-1.7 3-2.5.7-.6 0-1.4-1.3-1.3-1 0-1.8.2-2.6.6-.8.2-3.6 2-3.7 1 0-1.6-.8-3-2.2-4.4-.3-.2-.8-.2-1.3 0-3 1.2-5 3.2-7.8 4.7v-2.7c0-.5-.8-1-1.4-1-5.3 1.8-10 3.7-14.2 6.5 0-1.3 1.7-3 .3-4.2-.4-.7-1.6-.7-2 0-1.8 1.7-4.3 3.3-6.8 4.6-5.5-7.8-8-17-8-25.8 8 0 15.7.2 23.5 0C78 43.2 80.2 50 85 55.4c0 .3.7 0 .5-.5-4.2-6-6.7-12-7.5-18.4l8.3-.5c2.2 0 5.4-.2 8.4-.7 2 1.6 4 2.5 7.2 3.5 3.5.8 7.7-.7 9.5-3 2.5-3.4.5-6.5-3.2-8.5-2.6-1.7-3-1.4-4.7-3.4-2-2.2-6.7-3.4-10-2.5l-.3-1.5c0-1-.8-1.4-1.5-1.7 2.3-2.3 4.2-5 6.7-7.2 3.6-3.4 7.5-7 11.7-10 1.4 0 3 1 4 1.2l-1.5 2.5c-1.6 3.4-4.5 7-5.2 10.8-.2.6.8 1 1.2.5 2.5-2.7 3.5-6 5-8.8l1.6-3.5.4-.8c2.6 1 5.2 2.2 8 3.6l5.7 2.5c-1 4.7-2.2 9.2-2.8 13.6 0 .4 1 .4 1 0 1.5-4 2.8-8.3 3.2-12.7l13 6-.2 1c-.5 2.4-1.5 4.8-1.8 7 0 .4.7.6.8.3 1.7-2.3 2.2-5 2.5-7.8l4 2 7.2 3.5c-1.6 4.3-2.5 9-3 13.4 0 .5.7.5 1 0 2.3-4 2-8.7 3.3-13 6 3 12.3 6 18.3 9.4l1.7 1c-1 1.5-1.2 3.7-1.3 5.5 0 .5.6.5.6 0 0-1.7.5-3.4 1.2-5 4 2 8 4 11.5 6.4l-14.4 11zM86.2 61.5c3-1.5 5-3.5 8-5 1 1.5 1 4 2.5 4.5 1.5 0 2.5-.3 3.4-.6l-.4.8c-4.4 0-9 0-13.4.3zm-12.3 1c3-2 6.2-3.5 10-4.5v3c0 .2 0 .5.2.5l-10.2 1zm-58.2-25c-.2 7.7-1.2 15.6 0 23.5 0 .5 1.4.5 1.4 0 1.3-8 .3-15.8 0-23.6l4-.4c4.5-.3 9-.5 14-.5-.7 8.7-1.8 18 2.5 26.2-3.7 1.5-7.5 2.5-11.2 4.3.8-2.5 1.3-5 2.5-7 .7-1-1-2-2-.8L21 65.4c1.4-2 2.5-4.2 3.5-6 0-.5.3-.8.4-1 0-.6-.7-.8-1-.4-2 2-3.4 4-4.8 6.3-1 .8-1.8 1.5-2.4 2.3.6-.8 1.3-1.4 2-2l-1.5 3.2h-5.3v-.6C10 62.2 9.7 57 8.3 52c-.4-2.7-.8-5.3-1-7.7-.2-.8-.3-1.6 0-2.6v-1.3L9.8 39c1.6-.7 3.7-.8 5.7-1.2zm36 27.4l-7 .7c2.4-1.8 5-3 8-4.2-.5 1-.7 2-1 3.4zm-12.7.4c.3.3 1 0 1-.3l-.5-1c.2-.3.5-.4.8-.5 0 1-.2 1.7 0 2.3l-8.5.8c2.3-1 4.5-1.6 6.7-2.5l.6 1.2zm-17.8 2L25 64l-1 3.4H21zm47-4.4c-1.3 0-2.8.3-4.2.5 1.8-1 3.6-2 5.2-3.4-.2 1-1 1.8-1 3zM53.8 36.8c-.4 9.2 1.5 18 7.3 26.2l-1.7.8-5 .7c0-1.5.5-3 1.4-4.4.4-.7-.5-1.5-1.7-1.2-4.2 1.7-8 3.5-11.5 5.8 0-.8.2-1.6.5-2.3l1-.8c1-.6 0-1.7-1.2-1.5-.6 0-1 .4-1.5.8L38.8 62c-3.3-8.2-3-17-3-25.4h18zm145 1c-5-4.3-11.3-7.4-17.3-10.5.8-1 .5-1-.3 0l-.8-.6c-9.5-4.7-19-9.2-29-13.3-1.6-.8-3.3-1.7-5-2.3v-.3h-.2v.2c-5-2-10-4-15-5.8-2-.8 1.8.5 0 0-.7-.3-.5-.5-.5-.2 0 .8.8.2-.2 0-2.2-1-4.4-1.7-6.7-2.5-3.3-.8-9.6-3.2-13.6-2.3h-.6c-5 2.5-9.5 5.4-13.7 8.7-4 3-9 6.8-11.2 11-1.5.3-2.5 1.6-1.7 2.7 1 1.2 1.5 2 2 3.3.2.4 1.7 2 2 2.4.5 1.3 1.5 2.3 3 3h.5l1.2 1.3c-3.3.2-6.4 0-9.5 0-9.2 0-18.5-.4-27.8-1l.4-1.5-.3 1.8-6.6-.4c-5.7-.3-53.4-1.8-46 9C0 44.6 0 49 0 53.4c0 5 1 10.4 2.5 15.6.3 1.7 2.3 2.5 4.4 2.5.2 1.3 1.6 2.5 3.8 2.5 14-.3 27.8-1.8 41.2-3.8.6.2 1.2 0 1.5-.3 15.7-2.3 31.3-5 47.3-6h.4c1.7 1 2.4.4 3-.3h.5c-1.3 1-2.3 2.2-3.3 3.3l-4.7 5.3C94.3 70.6 90 73 92 75l1 .8c-.7 1.2.6 2.5 2 2.3 6 6.5 12.8 13.4 21.8 17.6-.8 3 4.4 6 8 3.3 23.3-20 50-37.2 74-56.4 1.8-1.4 1.6-3.3 0-4.7"/>
</svg>
