<?xml version="1.0" encoding="UTF-8" standalone="no"?>
<!-- Created with Inkscape (http://www.inkscape.org/) -->

<svg
   xmlns:dc="http://purl.org/dc/elements/1.1/"
   xmlns:cc="http://creativecommons.org/ns#"
   xmlns:rdf="http://www.w3.org/1999/02/22-rdf-syntax-ns#"
   xmlns:svg="http://www.w3.org/2000/svg"
   xmlns="http://www.w3.org/2000/svg"
   xmlns:sodipodi="http://sodipodi.sourceforge.net/DTD/sodipodi-0.dtd"
   xmlns:inkscape="http://www.inkscape.org/namespaces/inkscape"
   width="41.435146mm"
   height="42.610123mm"
   viewBox="0 0 146.81745 150.98075"
   id="svg18057"
   version="1.1"
   inkscape:version="0.91 r13725"
   sodipodi:docname="marker.svg">
  <defs
     id="defs18059" />
  <sodipodi:namedview
     id="base"
     pagecolor="#ffffff"
     bordercolor="#666666"
     borderopacity="1.0"
     inkscape:pageopacity="0.0"
     inkscape:pageshadow="2"
     inkscape:zoom="3.959798"
     inkscape:cx="64.575747"
     inkscape:cy="87.171261"
     inkscape:document-units="px"
     inkscape:current-layer="layer1"
     showgrid="false"
     fit-margin-top="0"
     fit-margin-left="0"
     fit-margin-right="0"
     fit-margin-bottom="0"
     inkscape:window-width="1366"
     inkscape:window-height="705"
     inkscape:window-x="-8"
     inkscape:window-y="-8"
     inkscape:window-maximized="1" />
  <metadata
     id="metadata18062">
    <rdf:RDF>
      <cc:Work
         rdf:about="">
        <dc:format>image/svg+xml</dc:format>
        <dc:type
           rdf:resource="http://purl.org/dc/dcmitype/StillImage" />
        <dc:title></dc:title>
      </cc:Work>
    </rdf:RDF>
  </metadata>
  <g
     inkscape:groupmode="layer"
     id="layer3"
     inkscape:label="circle-fill"
     style="display:inline" />
  <g
     inkscape:groupmode="layer"
     id="layer4"
     inkscape:label="arrow-fill" />
  <g
     inkscape:label="Layer 1"
     inkscape:groupmode="layer"
     id="layer1"
     transform="translate(-138.01981,-274.01466)"
     sodipodi:insensitive="true">
    <g
       id="g18896"
       transform="matrix(-1,0,0,1,422.85706,-6.576647e-5)">
      <path
         transform="translate(138.01981,274.01466)"
         sodipodi:nodetypes="ccccc"
         inkscape:connector-curvature="0"
         id="path18089"
         d="M 1.767767,79.512451 C 14.856447,2.1385221 57.591597,2.1126799 73.741136,2.2357809 111.40124,6.6619403 136.4084,26.616704 144.45181,67.39062 138.49353,117.96382 108.38108,135.18126 74.49875,147.19267 28.831934,143.91344 7.0599681,119.12884 1.767767,79.512451 Z"
         style="display:inline;fill:#000000;fill-opacity:1;stroke:#000000;stroke-width:1px;stroke-linecap:butt;stroke-linejoin:miter;stroke-opacity:1" />
      <path
         transform="translate(138.01981,274.01466)"
         sodipodi:nodetypes="ccccccccccccc"
         inkscape:connector-curvature="0"
         id="path18892"
         d="m 31.819805,78.502298 43.689098,-49.497475 19.192898,18.687823 -12.12183,9.091372 8.838834,2.525382 21.465745,-1.262691 1.01015,23.738585 -31.819806,0.757614 3.788072,6.313454 8.838835,1.767767 1.262691,5.555839 L 82.327433,115.6254 C 65.273153,103.37389 39.138424,96.230122 31.819805,78.502298 Z"
         style="fill:#ffffff;fill-opacity:1;stroke:#000000;stroke-width:1px;stroke-linecap:butt;stroke-linejoin:miter;stroke-opacity:1" />
      <g
         id="g14168"
         transform="matrix(0.13262375,0,0,-0.13262375,-1876.2548,1977.9033)">
        <path
           d="m 16068,11930.4 c -30.5,-3.5 -60.5,1.7 -91,22.1 -3.7,2.5 -6.8,-3.3 -3.4,-5.8 24.8,-18.3 53,-27.9 81.6,-29 -29.8,-28.8 -62.2,-54.7 -97,-76.9 -8.9,-2.5 -18.4,-4 -29,-3.7 -29.4,1.2 -54.7,20.4 -72.8,42.1 -2.5,2.9 -7.7,-1.1 -5.3,-4.1 18.3,-24.2 50.3,-44.8 82.3,-49.3 -17.9,-10.4 -36.4,-19.7 -55.3,-28 1.2,0.9 2.5,1.9 3.6,2.7 4,3.3 -0.4,9.1 -4.7,8.2 -41,-9 -76.8,-29.3 -119,-11.1 -39.6,17.1 -48,65.1 -48.2,103.4 0,1.6 -2.5,2 -2.8,0.4 -8.3,-43.7 0,-87.3 39.8,-112.2 19,-11.9 44.5,-15.8 69.3,-13.3 -93.9,-25.1 -188.4,-12 -276.4,34.3 -16.7,8.7 -33,18.5 -48.8,28.8 -6.8,11.8 -11.9,24.6 -16.1,37.5 -12.6,38.9 -11.7,81.4 -7.2,121.6 0.2,2.2 -3.4,2.7 -3.8,0.6 -6.8,-44.2 -8.2,-88.5 3.8,-131.8 1.4,-5 3.1,-10.3 5.2,-15.7 -9.7,6.8 -19.2,13.7 -28.6,20.8 3.1,1.6 4.7,5.7 1.3,8.9 -68.1,63.9 -95.7,151.2 -51,237.6 1.2,2.2 -2,4.1 -3.3,2 -41.3,-72.4 -33.1,-160.7 19.5,-222.2 l -14.2,11.8 c -27.5,22.8 -52.8,46.8 -80,68.4 -14.5,16.5 -27.3,34.1 -38.3,52.7 -13.4,35.8 -23.9,72.3 -31.4,109.2 1.7,-0.1 3.5,0.7 3.7,2.4 6.9,34.2 6.6,69 15.9,103.2 9.3,34.6 26.3,68.1 54.1,91.5 0.3,0.4 -0.2,1.1 -0.6,0.8 -25.4,-19.1 -43.1,-46.2 -54.6,-75.6 -11.5,-28.9 -22.8,-64.4 -23.1,-97.4 -21.9,133.1 -3.8,270 66.5,392.9 92.4,161.6 269,270.9 457.5,256.8 104.4,-7.8 201.9,-56.4 281.2,-123 93.6,-78.7 183.3,-187.7 199.4,-312.3 13.5,-103.7 -17.4,-207.4 -67.2,-298.1 -2.8,-1.1 -5.6,-2.1 -8.6,-2.9 -16.1,-4.1 -33.5,-3.7 -50,-3.9 -5,-0.1 -5,-7.7 0,-7.7 16.7,-0.2 35.1,0 52.4,3.3 -7.2,-12.5 -14.6,-24.7 -22.4,-36.5 -24.1,-36.9 -52.1,-71.7 -83,-103.5 z m -771.8,63.5 c -3,5.5 -6.1,11.1 -9.2,16.6 6.9,-9.1 14.4,-17.9 22.3,-26.4 -4.2,3.3 -8.7,6.5 -13.1,9.8 z m 842.5,665.1 c -74.8,78.8 -168,141.5 -273.1,171.3 -178.4,50.5 -367.4,-13.6 -494.1,-144.7 -87.4,-90.2 -142.3,-209.8 -156.5,-334.2 -0.6,-3.9 -0.7,-7.8 -1.1,-11.7 -3,-6.2 -5.6,-12.2 -7.8,-18.4 -5.1,5.2 -16.6,3.1 -17.7,-4.8 -1.9,-13.4 1.9,-23.8 4.6,-37 0.3,-1.2 0.4,-2.4 0.6,-3.7 -6.9,-41.9 -2.6,-83 8.6,-123.4 0.2,-6.6 0.5,-13 1,-19.6 3,-42.9 11.6,-84.3 32.9,-120.2 -0.6,-2.6 -0.3,-5.4 1.1,-8.3 31.7,-62.4 86.7,-105.1 140.3,-148.8 49.8,-40.6 102.7,-77.8 160.9,-105.4 116.1,-55 241.9,-53.3 359.3,-2.9 222.3,95.8 402.3,344.5 397.1,590.6 -2.9,128.1 -70.6,231.1 -156.1,321.2"
           style="fill:#000000;fill-opacity:1;fill-rule:nonzero;stroke:none"
           id="path14170"
           inkscape:connector-curvature="0" />
      </g>
      <path
         d="m 158.69523,354.45337 c -4.875,7.7375 -9.8625,20.85 -3.55,29.225 0.3,0.4 0.95,0.1875 0.8375,-0.35 -0.4625,-1.95 -1.2375,-3.8 -1.6625,-5.7875 -0.55,-2.5875 -0.4875,-5.375 -0.3125,-8.0125 0.35,-5.2625 2.35,-10.4 4.8125,-15.0125 0.0375,-0.0625 -0.075,-0.125 -0.125,-0.0625"
         style="fill:#000000;fill-opacity:1;fill-rule:nonzero;stroke:none"
         id="path14172"
         inkscape:connector-curvature="0" />
      <g
         id="g14174"
         transform="matrix(0.12745875,0,0,-0.12745875,-1876.2548,1977.9033)">
        <path
           d="m 16294.3,12286.3 c -47,3.2 -86.6,9.3 -120.8,44.3 -32.6,33.6 -37.5,84.2 -29.2,128 0.4,1.9 -2.4,2.7 -2.9,0.8 -12.9,-47.5 -9.1,-97.2 20.9,-137.4 29.5,-39.8 86.6,-55.5 133.1,-43.7 4.6,1.1 3.3,7.7 -1.1,8"
           style="fill:#000000;fill-opacity:1;fill-rule:nonzero;stroke:none"
           id="path14176"
           inkscape:connector-curvature="0" />
      </g>
      <g
         id="g14178"
         transform="matrix(0.1309175,0,0,-0.1309175,-1876.2548,1977.9033)">
        <path
           d="m 16283.1,12405 c -0.9,62 -3.1,124.2 -15.8,185.1 -2.3,11.7 -14.5,15.5 -24.6,14 -43,-6.2 -85.4,-15.1 -128.5,-19.7 -20.3,-2.1 -40.1,-4.1 -60.6,-3.6 -4.8,0.2 -9.6,0.6 -14.3,1.2 29.6,17.1 52.7,43.6 81.3,63 8.8,5.9 11.5,21.9 0,27 -59,26.6 -100.5,80 -124.8,139.1 -5.7,13.9 -19.8,17.8 -31.7,8.3 -71.3,-56.8 -135.3,-122.1 -196.2,-189.6 -31.5,-35 -61.7,-70.9 -91.3,-107.5 -24.7,-30.7 -56.6,-63.6 -73.5,-99.3 -7.5,-15.8 5.8,-32.6 20.3,-31.1 40.2,-58.2 102.4,-101.1 159.1,-141.6 70.7,-50.7 147.3,-93.1 221.7,-137.9 10.3,-6.2 21.1,-1.5 27.7,7.3 20.5,27.1 40.7,54.4 59,83.1 17.8,27.5 38.1,56.3 33.3,90.1 -1,7.1 -11.7,11.2 -17.3,7 -25.4,-18.9 -35.2,-50 -51.4,-76.4 -14.1,-23.2 -30.2,-45.2 -46.3,-66.9 -4.2,2.4 -8.5,4.9 -12.9,7.4 1.1,14.4 1.9,28.9 4.4,43.4 3.5,19.4 9.1,38.5 14.7,57.5 0.4,1.2 -1.5,1.7 -1.9,0.5 -11.1,-29.2 -24.6,-62.4 -28,-95 -29.1,17.1 -58.7,34.1 -88,51.5 0.8,5.9 2,11.2 2.4,13.1 5.3,28.3 22.4,57.6 41.1,78.9 0.4,0.5 -0.2,1.2 -0.7,0.7 -26.1,-24.1 -46.3,-51.8 -52,-87.3 -13.8,8.1 -27.5,16.5 -41,24.9 2.1,36.6 -3,75.2 -4,111.3 -0.1,1.2 -2,1.2 -2,0 -1,-34.1 -5.3,-70.4 -4.1,-105.1 -26.8,16.6 -53,33.7 -78.5,51.7 18,40 20.1,83.5 11.7,127.6 -0.4,2.5 -4.1,1.4 -3.7,-1 7.3,-42.7 4.4,-84.5 -13.3,-122.8 -19.3,13.7 -38.2,28 -56.5,42.9 -1.1,10.3 -1.7,20.5 0.3,31.6 3.5,17.5 13.4,32.8 25.3,45.7 3.9,4.1 -2.3,10.4 -6.3,6.3 -17.4,-18.2 -32.1,-46.2 -32.2,-73.1 -14.3,12.2 -28.3,24.7 -41.8,37.7 24,26.3 43.1,59.2 64.7,86.9 29,37.1 59.2,73.3 90.1,108.7 54.2,61.9 111.3,121.7 173.9,175.1 25.5,-50.3 64,-93.8 113.6,-120.8 -23.2,-21.2 -45,-45.7 -73.6,-57.3 -5.7,-2.3 -8.5,-7.4 -8.9,-12.4 -5.9,0.1 -10.9,0.1 -11.9,0.5 -1.1,0.4 -1.7,-1.2 -0.8,-1.8 8.2,-5.1 10.5,-14.2 18.1,-18.6 7.7,-4.6 17.8,-6.5 26.3,-8.8 20.3,-5.5 41.8,-7 62.7,-7.7 44.7,-1.6 90.1,7.7 134.7,13.8 5.9,-43.3 6.7,-87 6.5,-130.7 -2.8,14.4 -9.2,27.4 -23.7,34.3 -22.6,10.9 -54,2 -77,-2.9 -1.7,-0.4 -1,-3.3 0.9,-3 21,3.9 43.4,8.2 64.7,3.8 23.5,-4.8 28.7,-27.2 29.2,-47.8 -23.2,-0.1 -47.5,-4.4 -67.5,-7.3 l -1.8,52.8 c 0,0.7 -0.9,0.7 -0.9,0 -0.6,-17.8 -1.3,-35.6 -1.8,-53.5 -0.4,0 -0.8,-0.1 -1.2,-0.1 -11.7,-1.8 -23.2,-3.8 -34.7,-6.1 -8.4,0.8 -16.6,1.6 -24.9,2.3 -0.4,1.9 -0.8,3.7 -1,5.6 -2.1,18 7.6,36.1 15.2,51.6 0.3,0.5 -0.3,1.1 -0.7,0.6 -13.6,-16.9 -21.6,-37.2 -20.8,-57.2 -14,1 -27.8,1.7 -41.8,1.7 2.4,13 1.2,27.5 -2,37.6 -4.6,14.9 -19.3,18.4 -33.3,18 -0.8,0 -0.8,-0.9 0,-1 15.3,-1.6 23.8,-10.2 26.9,-25.2 2.1,-10.3 -0.6,-19.8 -3.1,-29.5 -13.5,-0.2 -27,-1 -40.4,-2.9 -11.5,-1.5 -13.5,-15.5 -9.8,-23.9 25,-56.8 66.1,-65.5 122.6,-73.1 9.9,-1.3 13.9,11.7 4.1,15.2 -26.7,9.5 -50.9,17.3 -69.8,32.9 21.9,1.4 43.6,3.8 65.5,6.1 1.5,-1.3 3.9,-0.8 5,0.6 9.6,1 19,1.9 28.6,2.8 0.5,0 0.9,-0.1 1.3,-0.2 24.7,-2.8 62,-9.2 86.3,4.3 6.1,-0.2 12.2,-0.4 18.1,-0.5 8.1,-3.5 18.2,-2.7 25.2,2.5 5.6,1.4 10.9,3.5 16.3,6.6 7,4.1 8.7,14.5 2.5,20.1 -3.2,3.1 -6.8,5.6 -10.7,7.9"
           style="fill:#000000;fill-opacity:1;fill-rule:nonzero;stroke:none"
           id="path14180"
           inkscape:connector-curvature="0" />
      </g>
    </g>
  </g>
</svg>
