<?xml version="1.0" encoding="UTF-8" standalone="no"?>
<svg
   xmlns:dc="http://purl.org/dc/elements/1.1/"
   xmlns:cc="http://creativecommons.org/ns#"
   xmlns:rdf="http://www.w3.org/1999/02/22-rdf-syntax-ns#"
   xmlns:svg="http://www.w3.org/2000/svg"
   xmlns="http://www.w3.org/2000/svg"
   version="1.1"
   id="svg9636"
   viewBox="0 0 144.52313 112.21311"
   height="31.669033mm"
   width="40.78764mm">
  <defs
     id="defs9638" />
  <metadata
     id="metadata9641">
    <rdf:RDF>
      <cc:Work
         rdf:about="">
        <dc:format>image/svg+xml</dc:format>
        <dc:type
           rdf:resource="http://purl.org/dc/dcmitype/StillImage" />
        <dc:title></dc:title>
      </cc:Work>
    </rdf:RDF>
  </metadata>
  <g
     transform="translate(-350.59552,-304.8271)"
     id="layer1">
    <g
       id="g3050"
       transform="matrix(0.14139875,0,0,-0.14139875,-1809.0099,2377.4556)">
      <path
         d="m 16043.7,13911.9 c -81.6,-1.8 -163.2,-5.3 -244.8,-8.5 -81.9,-3.3 -164,-5.9 -246,-6.2 -41.1,-0.1 -82,-0.5 -123,-0.3 -16,0.1 -31.8,0.5 -47.7,0.6 -3.4,3.6 -7.1,6.7 -11,9 9.9,12.6 19.8,25.1 30,37.5 3.3,-3.9 5.2,-9.1 5.2,-15.8 0,-2.7 4.4,-2.7 4.2,0 -0.4,7.1 -2.2,13.8 -7.1,18.7 7.9,9.9 16,19.8 24.1,29.6 7,-13.8 16.4,-26.2 27.7,-37.6 1.8,-2 4.9,1 3,3 -11.4,11.6 -20.8,24 -27.7,38 0.9,0.8 1.9,1.6 2.8,2.4 14.4,12.3 29.9,25 44.9,38.2 8.5,-12.9 16.9,-25.8 25.3,-38.8 1.2,-1.9 4.3,-0.1 3,1.8 -8.7,12.9 -17.5,25.8 -26.3,38.6 15.9,14.1 31.3,28.8 44.5,44.7 5,-5.9 9.6,-12.7 15,-19.2 1.7,-1.9 4.4,0.5 3.4,2.6 -3.9,7.4 -9,14.6 -15.2,20.5 6.4,7.8 12.3,16 17.3,24.4 2.4,4.2 -2.3,8.3 -6.3,6.3 l -3.3,-1.8 c 6,6.4 11.9,12.7 18.1,19.1 3.4,-3.7 6.8,-7.2 10.2,-10.7 7.9,-8.2 15.3,-18 24.7,-24.5 1.6,-1.2 4,1.2 2.8,2.9 -6,8.4 -14.7,15.2 -22.1,22.4 -4.5,4.1 -8.8,8.2 -13.1,12.5 11.1,11.5 22.3,22.8 33.7,34.1 5.3,-5.8 10.7,-11.6 16.1,-17.4 5.7,-6.1 11.2,-14.3 18.8,-18.2 1.9,-1 3.9,1 2.8,2.8 -3.5,6.8 -10.6,11.6 -16.2,16.8 -6.5,6 -13,12 -19.4,18.1 16.4,16.2 32.9,32.1 49.8,47.6 4.5,-11.2 10.3,-21.5 18.7,-30.6 1.9,-2 5,1 3,2.9 -8.9,8.6 -15.1,18.4 -20.1,29.2 22.8,21 46.1,41.3 69.8,61 20,-14.9 40.5,-28.8 62.2,-41 26.3,-14.7 63.7,-38.3 94.3,-22.7 12.4,6.4 22.2,19.5 31.7,29.5 14.5,15.3 30.1,29.5 45.8,43.6 9.6,-10.8 19,-21.6 28.2,-32.6 -0.3,-0.1 -0.9,-0.3 -1.1,-1 -3.2,-6.1 -6.5,-12.1 -10.1,-18 -4.2,-6.5 -10.3,-11.6 -14.1,-18.3 -1.1,-1.7 1,-4 2.9,-2.8 12,7.5 19,24.7 25,37 0.1,0 0,0.1 0.1,0.2 9.5,-11.2 19.1,-22.6 28.5,-34 -5.1,-16 -9.4,-32.8 -8.4,-49.7 0.1,-2.7 4,-2.7 4.1,0 1.5,15.9 3.9,30.5 7.8,45.4 16.2,-19.4 32.1,-39 48,-58.6 -0.2,-3 -0.4,-6 -0.9,-9.1 -1.5,-9.2 -6.2,-16.8 -10.5,-25 -1.3,-2.5 2,-4.2 3.7,-2.1 7.4,9.6 10.4,20.2 11.6,31.5 11.5,-14.2 23,-28.4 34.6,-42.4 -0.6,-11.5 -7.5,-20.1 -12.7,-29.8 -0.7,-1.2 1.2,-2.2 1.8,-1 4.9,9.8 11.1,18.7 11.5,29.9 5.6,-6.9 11.3,-13.9 17,-20.8 5,-6 9.7,-12.3 14.4,-18.6 -7.1,-8.4 -12,-18.2 -16.8,-28 -36.8,35.2 -76.8,67.2 -111.3,104.7 -0.3,0.3 -0.8,-0.1 -0.4,-0.5 34.3,-37.9 74.2,-70.3 110.9,-105.9 -1.2,-2.6 -2.5,-5 -3.9,-7.6 -1.2,-2.4 2.7,-4.5 3.7,-2.1 1.1,2.3 2.1,4.7 3,7 1.2,-1.2 2.3,-2.3 3.4,-3.4 8.9,-8.7 18.1,-18 27.1,-27.5 -0.8,-3.7 -1,-7.5 -1.2,-11.3 -0.1,-2.7 4.2,-2.7 4.2,0 0,2.5 0.1,5.1 0.4,7.7 13.5,-14.9 26.6,-30.8 37.5,-47.8 -2.1,-5.1 -7.2,-9.6 -10.8,-13.2 -1.3,-1.3 0.7,-3.3 2,-2 3.6,3.6 8.1,7.7 10.5,12.5 5.2,-8.4 9.7,-17.1 13.4,-26.1 -11.9,-0.2 -23.8,-0.5 -35.2,-0.4 -40.6,0.1 -81,-0.6 -121.5,-1.4 z m -679.5,-14.4 c 1.5,1.8 2.8,3.5 4.1,5.2 2.2,-1.6 4.4,-3.4 6.5,-5.2 -3.5,0 -7,0 -10.6,0 z m -13.5,13.6 c -4.9,-0.8 -9.9,-2.8 -15.1,-6.4 -0.7,-0.5 -0.1,-1.6 0.7,-1.2 4.1,2.2 8,3.9 12.2,4.6 -2.7,-3.3 -5.3,-6.5 -7.9,-9.8 -0.3,-0.4 -0.6,-0.9 -0.9,-1.3 -9.6,-0.5 -19.5,-1 -29.2,-2 1.4,1.4 2.4,3.4 2.9,5.7 0.2,0 0.3,0 0.4,0.1 18.4,8.7 35.8,18.8 52.4,29.8 -5.2,-6.4 -10.4,-12.9 -15.5,-19.5 z m 195.5,505 c 52.8,-48.1 104.3,-100.5 161.6,-144.2 -24,-16.7 -47,-34.6 -69.2,-53.5 -0.3,0.8 -1.6,0.5 -1.3,-0.4 0,-0.2 0.1,-0.4 0.2,-0.6 -31.9,-27.2 -62.3,-56.1 -92,-85.9 -1,1 -2.1,2.1 -3.2,3.2 -1.3,1.2 -3.2,-0.8 -1.9,-2.1 1,-1.1 2,-2.2 3,-3.2 -7.6,-7.7 -15.3,-15.5 -22.8,-23.2 -6.6,-6.8 -13.2,-13.7 -19.7,-20.6 -2.5,0.5 -5.2,0.8 -7.8,0.8 -1.5,0 -1.5,-2 0,-2.1 1.9,-0.1 4,-0.4 5.8,-0.8 -24.6,-26 -48.6,-52.5 -71.9,-79.7 -1.3,-1.2 -2.7,-2.5 -4,-3.7 -0.1,0.4 -0.3,0.8 -0.4,1.2 -0.7,2.6 -4.8,1.5 -4.1,-1.1 0.3,-1.2 0.8,-2.3 1.1,-3.4 -33,-31.2 -67.6,-62 -105.7,-86.7 0.8,121.7 -2.4,243.1 -5.8,364.7 -3.4,114.7 -6.4,229.8 -13.6,344.5 78.9,-73.5 172,-130.7 251.7,-203.2 z m -183.3,208.4 c 3.2,-15.3 5.8,-30.5 6.9,-46.2 -17.2,11.7 -34.4,23.6 -51.3,35.9 -8,6 -16.5,11.7 -24.8,17.3 l 0,0.4 c 22.9,-3.5 46,-5.8 69.2,-7.4 z m 107.6,-4.5 c 1.1,-10.1 2.8,-26.2 2.9,-28 0.8,-12.3 0.3,-25.3 5.7,-36.7 1,-1.9 4,-0.9 4,1.1 -0.4,18.5 -4.6,37.5 -7.3,55.9 0,0.6 -0.4,3.9 -1,7.6 16.9,-0.7 33.8,-1.2 50.6,-2 2.6,-0.3 5.4,-0.3 7.9,-0.5 2.5,-4.9 4.4,-10 5.8,-15.4 2.8,-11.1 0.5,-22.4 0.1,-33.5 -0.1,-2 3.1,-3 4,-1 7.1,16.6 3.1,34.2 -4.9,49.7 45.1,-2.2 90.1,-3.8 135.2,-5.3 -0.1,-14.4 -0.3,-28.9 -0.4,-43.4 0,-1.3 2.1,-1.3 2.1,0 -0.1,14.5 -0.1,29 -0.2,43.4 23.6,-0.8 47.1,-1.5 70.6,-2.3 l 0,-29 c 0,-1.3 2.1,-1.3 2.1,0 l 0,28.9 c 10.5,-0.3 21,-0.7 31.4,-1.1 53.9,-2 107.7,-3.2 161.5,-4.2 -15,-22.4 -28,-47.4 -37.5,-71.7 -0.4,-0.8 1,-1.3 1.2,-0.6 11.6,25.9 29.5,47.8 43.4,72.2 24.2,-0.5 48.6,-0.9 72.9,-1.2 -11.3,-15.1 -20.7,-31.4 -33.6,-45.3 -1.5,-1.6 0.9,-4 2.5,-2.4 14.2,13.9 26.4,30.5 36.3,47.6 l 5.9,0 c 40.5,-0.7 80.9,-1.3 121.4,-1.8 20.1,-0.3 40.3,-0.5 60.3,-0.7 4.2,0 8.5,-0.3 12.9,-0.4 -6,-6.4 -11.8,-12.9 -17.5,-19.6 -15.2,-11.2 -31.7,-20.1 -51.5,-23.7 -0.2,-0.1 -0.1,-0.4 0.2,-0.4 15.7,3.2 30.8,8.9 45,16.4 -15.1,-18.4 -29.2,-37.7 -43.4,-56.9 -34.7,-46.9 -69.9,-88.7 -116.6,-123.9 -47.6,-35.6 -91.9,-73.2 -136.4,-112.4 -15.3,-13.4 -28.5,-28.6 -42.9,-42.9 -10.8,-10.7 -19.1,-8.6 -32.8,-3.5 -44.6,16.7 -85,46.5 -121.9,75.9 -40.7,32.3 -79,67.5 -117.6,102.4 -39,35.3 -79.2,67.8 -121.8,98.9 -31,22.5 -63,43.6 -94.8,65 0.3,16.8 -3.8,33.1 -8.5,49.1 17.7,-1.2 35.5,-2 53.1,-2.7 -0.2,-18.6 0.5,-38.8 11.9,-54.1 1.6,-2.2 4.9,-0.4 3.6,2.1 -8.9,17.3 -11.5,33.3 -12.2,51.9 16.1,-0.5 32.2,-1 48.3,-1.5 z m 685.3,-602.5 c -5.7,-5.7 -9.2,-13.3 -11.1,-21.6 -6.1,6.5 -12.2,12.9 -18.2,18.9 -4,3.9 -7.9,7.7 -11.9,11.7 4.3,10.1 8.5,20.4 15.2,29.2 9.1,-12.4 17.7,-25.2 26,-38.2 z m -201.1,266.3 c 3.5,3 6.8,6 10.2,9 44.3,39.7 97.4,69.8 140.1,111 37.7,36.3 67.6,80 98.8,121.7 13.5,17.8 27.3,35.4 42.6,51.6 -2.4,-41.9 -1.4,-84.3 -0.5,-126 1,-57.5 2.4,-115.1 5.1,-172.5 4.7,-94.7 9,-189.3 10.2,-284.1 -11.4,-16.9 -11.7,-43.1 -12.1,-66.8 -5.5,5.7 -10.8,11.4 -15.7,17.6 -12.1,15.8 -22.8,32.8 -33.3,49.7 -21.5,34.1 -42.6,67.3 -68.6,98.1 -55.2,65.6 -109.1,137.1 -176.8,190.7 z m 231.5,-337.4 c 0,-0.3 -0.1,-0.6 -0.1,-0.9 -11.2,16.7 -24.4,32.4 -38,47 1,8.5 3.8,16.6 9.2,22.7 9.1,-14.3 17.8,-28.9 26.9,-43.3 11,-18 23.8,-39.4 38.9,-57.8 -6.7,0 -13.3,-0.1 -19.8,-0.3 -4.2,9.8 -9.4,19.2 -15.2,28.4 0.5,1.3 0.9,2.7 0.9,4.2 0.1,1.8 -2.7,1.8 -2.8,0 z m 96.6,-37.7 c -4.3,1 -8.7,1.7 -13.2,2.4 0.3,1 0.6,2 0.8,2.9 10,-4.6 24.5,0.2 24.4,14.2 -0.7,114.5 -7,228.6 -13.5,342.9 -3.4,57.5 -8.1,115 -11.6,172.6 -2.9,49.2 -4.2,98.8 -8.8,148 5.1,4.9 10.4,9.8 16,14.4 12.7,10.7 -0.9,27.6 -14.5,24.8 -12.9,4.5 -27.8,2.6 -41.3,2.7 -20.2,0.2 -40.3,0.5 -60.5,0.8 -40.4,0.7 -80.9,1.7 -121.3,3.4 -84.2,3.4 -168.3,8.2 -252.5,11.3 -84.5,3.1 -169.1,7.6 -253.7,7.9 -79.7,0.3 -161.6,4.7 -240.7,-7.2 -0.1,1.1 -0.1,2.2 -0.2,3.2 -0.3,6 -8.8,6 -9.1,0 -0.2,-1.8 -0.3,-3.6 -0.4,-5.4 -2,-1.4 -3,-3.9 -3,-6.4 -1,0.6 -1.9,1.3 -2.9,1.9 -2.2,1.7 -5,-1.9 -2.9,-3.8 2.5,-2.7 5.1,-5.2 7.8,-7.8 -7,-116 -4.7,-232.9 -2.3,-349.1 2.5,-126 5.2,-252.2 6.1,-378.3 0.1,-8.8 6.7,-13.3 13.4,-13.6 0.1,-0.1 0.2,-0.1 0.4,-0.2 38.1,-12.2 75.6,-15.7 115.3,-19 40.9,-3.2 81.9,-5.7 122.9,-6.4 84.6,-1.3 169.2,0.4 253.8,2.5 81.5,2.1 163.2,4.9 244.8,6.6 40.5,0.9 81,1.3 121.4,1.3 41,-0.1 84.8,-5.8 125.3,0 17.2,2.6 16,29.9 0,33.4"
         style="fill:#000000;fill-opacity:1;fill-rule:nonzero;stroke:none"
         id="path3052" />
    </g>
  </g>
</svg>
