<?xml version="1.0" encoding="UTF-8" standalone="no"?>
<svg
   xmlns:dc="http://purl.org/dc/elements/1.1/"
   xmlns:cc="http://creativecommons.org/ns#"
   xmlns:rdf="http://www.w3.org/1999/02/22-rdf-syntax-ns#"
   xmlns:svg="http://www.w3.org/2000/svg"
   xmlns="http://www.w3.org/2000/svg"
   version="1.1"
   id="svg9568"
   viewBox="0 0 161.28361 179.53548"
   height="50.668903mm"
   width="45.517818mm">
  <defs
     id="defs9570" />
  <metadata
     id="metadata9573">
    <rdf:RDF>
      <cc:Work
         rdf:about="">
        <dc:format>image/svg+xml</dc:format>
        <dc:type
           rdf:resource="http://purl.org/dc/dcmitype/StillImage" />
        <dc:title></dc:title>
      </cc:Work>
    </rdf:RDF>
  </metadata>
  <g
     transform="translate(-560.12737,-33.273071)"
     id="layer1">
    <g
       transform="matrix(0.12631667,-0.99198997,0.99198997,0.12631667,438.85436,745.86178)"
       id="g9615">
      <path
         id="path2522"
         style="fill:#000000;fill-opacity:1;fill-rule:nonzero;stroke:none"
         d="m 660.03545,105.27722 c 1.2375,0.2375 2.4875,0.3875 3.7375,0.45 0,0.15 0,0.3125 0.0125,0.4625 0,0.0125 0.0125,0.0125 0.0125,0.025 -1.0125,0.175 -2.0125,0.3375 -3.025,0.475 -0.25,-0.45 -0.5,-0.925 -0.7375,-1.4125 z m -4.1875,-24.737496 c -0.275,-0.175 -0.7375,-0.1375 -0.95,0.125 -0.4625,0.55 -0.35,1.0875 -0.0375,1.5625 l 0,0.0875 c -5.7,0.425 -11.175,2.725 -16.3,5.125 -6.86,3.225 -13.17375,7.3875 -19.11625,12.0875 -5.78125,4.574996 -11.08875,9.799996 -15.435,15.774996 -1.87,2.5625 -3.48625,5.3375 -4.6875,8.275 -0.7175,1.7625 -1.48875,3.7125 -1.48375,5.6125 -0.81625,-0.275 -1.63125,-0.5125 -2.45125,-0.6875 -0.65,-0.1375 -1.265,0.6875 -0.69375,1.1875 2.55875,2.2375 5.59625,3.925 8.4325,5.825 0.26375,0.4 0.5175,0.8 0.77625,1.2 -0.24375,0.5375 -0.23875,1.17501 0.0438,1.82501 0.425,0.9625 0.9675,1.75 1.76375,2.45 0.3075,0.275 0.56125,0.5875 0.825,0.9 -0.3175,-0.375 0.14125,0.425 0.1075,0.2875 0.0588,0.175 0.14125,0.6625 0.175,0.7625 0.015,0.3125 0.005,0.6375 -0.0137,0.95 l 0,0.0125 c -0.045,0.25 -0.1025,0.5 -0.16125,0.75 -0.1375,0.55 -0.3325,1.1 -0.5475,1.6375 -0.58625,1.4625 -1.50375,2.9625 -2.6025,4.45 -3.135,3.1375 -6.09375,6.475 -9.12125,9.5 -3.8475,3.3875 -8.06625,6.4625 -12.48,9.0125 -1.3375,0.775 -2.725,1.4375 -4.13625,2.05 2.96,-3.65 5.9675,-7.275 9.11125,-10.7375 0.035,-0.05 -0.0187,-0.1 -0.0575,-0.0625 -3.98,3.6625 -7.6525,7.5875 -11.1675,11.675 -0.0688,0.025 -0.14125,0.05 -0.21,0.075 -0.2,0.0875 -0.41,0.1625 -0.62,0.225 -0.3125,0.075 -0.625,0.125 -0.9375,0.1875 -0.77625,-1.1375 -1.45,-2.3625 -2.14375,-3.55 0.15125,-0.4125 0.2875,-0.8375 0.45375,-1.2125 0.615,-1.4375 1.30375,-2.8375 2.06125,-4.2 1.5725,-2.8625 3.45625,-5.6375 6.45,-7.1375 0.25375,-0.125 0.0725,-0.5625 -0.195,-0.45 -2.88125,1.1 -4.98625,3.275 -6.73375,5.75 -1.025,1.45 -1.80125,3.1125 -2.55875,4.7125 -0.1275,0.275 -0.2875,0.575 -0.45375,0.9 -1.30375,-2.15 -2.46125,-4.4625 -3.37,-6.7875 1.5825,-5.45 5.7325,-10.1 9.23875,-14.55 0.26375,-0.325 -0.18,-0.8 -0.47375,-0.475 -3.49625,3.925 -7.465,7.95 -9.60375,12.6875 -0.79625,-2.4125 -1.40625,-4.9125 -1.87125,-7.425 0.83125,-2.0375 1.89,-3.9875 3.00375,-5.875 2.76375,-4.6875 6.1525,-8.95001 8.75,-13.76251 0.0238,-0.05 -0.0437,-0.075 -0.0788,-0.0375 -3.525,4.8 -7.4025,9.27501 -10.55625,14.35001 -0.55625,0.8875 -1.06,1.8125 -1.5425,2.7375 -0.235,-1.625 -0.41,-3.2625 -0.5275,-4.8625 -0.0488,-0.7125 -0.0888,-1.425 -0.1225,-2.1375 2.8225,-6.75001 9.0475,-12.73751 12.96875,-18.32501 0.13625,-0.1875 -0.17625,-0.4375 -0.3275,-0.25 -3.96375,4.825 -9.36,9.7375 -12.71375,15.36251 -0.025,-2.96251 0.0825,-5.93751 0.2725,-8.88751 0.5475,-1.1375 1.21125,-2.225 1.915,-3.275 2.11375,-3.15 4.6825,-5.975 6.70875,-9.2 0.175,-0.275 -0.245,-0.5 -0.43,-0.25 -2.52,3.4125 -5.65375,6.3 -7.99375,9.85 0.04,-0.4875 0.0788,-0.975 0.1175,-1.4625 0.23,-2.8 0.88875,-5.6625 1.60125,-8.375 0.7325,-2.7875 2.0175,-5.3625 2.8325,-8.1 0.1025,-0.35 -0.1225,-0.6 -0.405,-0.65 2.8275,-3.55 6.045,-6.8125 9.2625,-9.824996 7.84125,-7.325 16.62125,-13.55 25.04375,-20.1875 8.2625,-6.5 16.41625,-13.1375 25.01,-19.2125 9.17375,-6.5 19.02375,-12.8125 29.86125,-16.15 4.975,-1.525 9.7125,-1.9 14.775,-0.5375 5.3375,1.425 10.1875,4.5875 14.4,8.1 7.5375,6.275 13.8875,14.6 18,23.6125 -0.075,0.0875 -0.1375,0.1875 -0.2,0.3 -1.825,3.6625 -3.825,7.25 -6.5375,10.35 -3.275,3.75 -7.25,6.8375 -11.4625,9.4625 -3.45,2.1375 -7.4875,4.2125 -11.7125,5.6375 0.0875,-0.4875 0.15,-0.9875 0.15,-1.5 0,-0.15 -0.2375,-0.15 -0.25,0 -0.025,0.5625 -0.125,1.0875 -0.25,1.6125 -2.6625,0.874996 -5.3875,1.487496 -8.0875,1.699996 1.1125,-2.737496 2.6,-5.387496 4.3125,-7.449996 0.0375,-0.05 -0.0125,-0.1 -0.0625,-0.0625 -1.9375,1.775 -3.575,4.0625 -4.75,6.412496 -0.1875,0.3625 -0.375,0.7625 -0.575,1.1625 -1.175,0.0375 -2.3375,0.0125 -3.5,-0.1125 -0.275,-0.75 -0.5625,-1.499996 -0.85,-2.249996 1.2,-3.8 4.7875,-7.3375 7.6375,-9.325 0.05,-0.0375 0.0125,-0.1 -0.0375,-0.075 -2.4375,1.3625 -6.5125,4.4 -8.2375,7.775 -0.4875,-1.2625 -0.975,-2.5125 -1.4125,-3.775 -0.0875,-0.2375 -0.1375,-0.4625 -0.2125,-0.6875 0.5375,-1.65 1.6375,-3.2 2.6,-4.4875 1.7625,-2.3625 3.7625,-4.5625 5.45,-7 0.1875,-0.275 -0.25,-0.6125 -0.4625,-0.3625 -2.2375,2.625 -4.7875,4.9125 -6.875,7.675 -0.4375,0.575 -0.875,1.2 -1.25,1.85 -0.2375,-1.5125 -0.2625,-3.0125 -0.1,-4.55 0.275,0.025 0.5625,-0.0875 0.675,-0.4125 1.1375,-3.2375 3.675,-5.775 6.025,-8.175 0.45,-0.4625 -0.25,-1.1625 -0.7125,-0.7125 -2.0375,2 -4.125,4.075 -5.5625,6.55 -0.0625,-0.3 -0.4875,-0.425 -0.675,-0.1125 -0.275,0.45 -0.5125,0.9 -0.725,1.35 0.35,-1.0625 0.8125,-2.0875 1.4125,-3.0375 0.25,-0.4125 -0.3375,-0.85 -0.6625,-0.5125 -0.3625,0.375 -0.675,0.7625 -0.975,1.1625 -0.1,-0.575 -0.2875,-1.1375 -0.775,-1.4375 z m 10.425,25.199996 c -0.5625,0.125 -1.125,0.2375 -1.7,0.3375 0.025,-0.1 0.05,-0.2125 0.075,-0.325 0.55,0.0125 1.0875,0.0125 1.625,-0.0125 z m 34.9,-16.599996 c 1.6625,-1.9625 3.15,-4.0625 4.5125,-6.225 0.875,-1.4 1.475,-2.7375 1.9375,-4.1375 1.375,0.2875 3.0125,-0.7375 2.3625,-2.375 -3.95,-10.125 -10.4625,-19.3 -18.425,-26.6625 -7.2375,-6.7 -17.6125,-13.175 -27.9375,-11.9875 -10.4375,1.1875 -20.225,6.625 -28.97375,12.1 -9.4775,5.925 -18.30625,12.825 -27.05625,19.7625 -7.92,6.275 -16.02,12.35 -23.88125,18.7 -8.31,6.725 -16.39125,14.112496 -21.9825,23.324996 -4.11125,6.775 -5.78625,13.975 -5.55125,21.6125 -0.48375,3.5625 -0.57125,7.18751 -0.3475,10.82501 0.43,6.975 2.03125,13.525 5.1125,19.8125 1.39125,2.85 3.15875,5.4 5.3325,7.7 0.9475,1.0125 1.99125,1.7875 3.105,2.4625 -0.79125,0.4875 -0.80125,1.8375 0.0638,2.2625 0.7025,0.35 1.445,0.575 2.2075,0.7125 -0.19625,0.5875 0.55625,1.225 1,0.6625 0.1375,-0.1625 0.27375,-0.3375 0.41,-0.5125 3.59375,0.125 7.49625,-1.5 10.5375,-2.9 4.4925,-2.075 8.4525,-5.25 12.105,-8.5375 0.415,-0.375 0.825,-0.75 1.23,-1.1375 1.24,-0.9375 2.45625,-1.9125 3.6475,-2.925 3.28125,-2.8 6.48,-5.975 8.8725,-9.625 2.43125,-2.275 4.995,-4.3875 7.83125,-6.2 1.31875,-0.8375 1.53875,-2.5625 0.47875,-3.7125 -3.0225,-3.2625 -6.68,-5.93751 -10.48375,-8.22501 -1.42,-0.85 -2.92375,-1.7375 -4.4675,-2.55 -0.22375,-0.25 -0.44375,-0.5125 -0.66875,-0.775 -0.3025,-0.35 -0.7325,-0.35 -1.07875,-0.175 0.7325,-1.7125 1.015,-3.65 1.68375,-5.4125 1.07,-2.8 2.71,-5.4 4.42875,-7.85 4.04875,-5.775 9.3075,-10.7125 14.75125,-15.1375 9.61875,-7.824996 21.11875,-15.062496 33.38125,-17.724996 -1.25,2.975 -1.325,6.425 -1.05,9.6875 0.4375,5.2125 2.0125,10.424996 4.45,15.049996 0.225,0.425 0.7875,0.775 1.275,0.7375 10.5875,-0.8625 20.975,-4.45 29.8,-10.362496 4.2625,-2.8625 8.0875,-6.3375 11.3875,-10.2625" />
      <path
         id="path2524"
         style="fill:#000000;fill-opacity:1;fill-rule:nonzero;stroke:none"
         d="m 661.94795,74.402224 c -3.15,0.5 -6.05,1.875 -8.975,3.125 -3.3375,1.425 -6.6375,2.9625 -9.8875,4.575 -6.97625,3.45 -13.73875,7.3375 -20.20875,11.65 -12.0025,7.987496 -23.6525,17.874996 -29.985,31.124996 -0.1425,0.2875 0.2775,0.5375 0.43375,0.25 6.87,-12.75 19.04875,-22.525 30.9325,-30.387496 6.30375,-4.1625 12.915,-7.8375 19.6775,-11.1875 3.075,-1.5125 6.1875,-2.9375 9.3375,-4.2875 3.0375,-1.3 6.2,-2.3125 9.0375,-4.025 0.4625,-0.2875 0.1375,-0.9125 -0.3625,-0.8375" />
      <path
         id="path2526"
         style="fill:#000000;fill-opacity:1;fill-rule:nonzero;stroke:none"
         d="m 638.87295,58.527224 c 4.1625,-1.95 8.3,-3.9375 12.325,-6.1625 3.0375,-1.675 7.225,-3.55 9.075,-6.6125 0.15,-0.2375 -0.1,-0.5875 -0.375,-0.4875 -1.65,0.5625 -2.9375,1.5875 -4.375,2.55 -1.675,1.1125 -3.4125,2.125 -5.175,3.1125 -4,2.2375 -8.1625,4.2 -12.3125,6.1625 -8.1225,3.8125 -16.41375,7.4625 -23.89875,12.475 -7.98375,5.3375 -14.96125,12.4 -21.81125,19.0875 -7.08,6.9125 -14.25375,13.687496 -22.25125,19.562496 -0.0838,0.0625 -0.01,0.2 0.0825,0.1375 16.9775,-9.712496 28.78,-26.362496 44.825,-37.349996 7.41625,-5.075 15.79,-8.675 23.89125,-12.475" />
      <path
         id="path2528"
         style="fill:#000000;fill-opacity:1;fill-rule:nonzero;stroke:none"
         d="m 701.54795,94.902224 c -1.9875,0.75 -3.0625,3.1375 -4.2625,4.7625 -1.8125,2.487496 -4.2125,4.599996 -6.7,6.374996 -4.925,3.525 -10.2375,4.9875 -16.125,5.8625 -0.6125,0.0875 -0.5,0.9625 0,1.125 5.6625,1.825 12.3625,-0.85 17.2,-3.7875 2.8375,-1.725 5.4,-3.925 7.6125,-6.375 1.5875,-1.7625 4.275,-4.774996 3.35,-7.349996 -0.1375,-0.425 -0.6,-0.8 -1.075,-0.6125" />
      <path
         id="path2530"
         style="fill:#000000;fill-opacity:1;fill-rule:nonzero;stroke:none"
         d="m 707.92295,106.43972 c 1.6,-1.7 3.125,-3.475 4.575,-5.3125 1.2,-1.487496 2.725,-3.449996 2.95,-5.387496 0.1125,-0.8875 -1.025,-1.3375 -1.7,-0.975 -1.3875,0.7625 -2.6125,2.5625 -3.5625,3.8125 -1.325,1.737496 -2.725,3.399996 -4.175,5.024996 -3.2,3.5875 -6.7375,6.9 -10.5,9.9 -7.375,5.8875 -15.7,9.825 -25.075,11.0375 -0.475,0.0625 -0.675,0.775 -0.125,0.9125 9.1375,2.1125 18.9,-3.4375 25.9875,-8.6375 4.2,-3.075 8.05,-6.5875 11.625,-10.375" />
      <path
         id="path2532"
         style="fill:#000000;fill-opacity:1;fill-rule:nonzero;stroke:none"
         d="m 728.42295,90.664724 c -1.9,1.3 -3.025,3.5875 -4.2125,5.525 -1.4,2.3 -2.9625,4.524996 -4.6,6.687496 -3.5875,4.75 -7.775,9.1 -12.1875,13.075 -4.4,3.95 -9.2375,7.4 -14.3875,10.2875 -4.6875,2.6375 -9.7125,4.35 -14.575,6.55 -0.6375,0.275 -0.3,1.25 0.3375,1.2375 5.3,-0.025 10.55,-2.3 15.2125,-4.675 5.275,-2.7 10.15,-6.15 14.725,-9.9125 4.7375,-3.9125 9.025,-8.3375 12.875,-13.125 1.8,-2.25 3.4875,-4.6 5.0625,-7.012496 1.4625,-2.2375 3.4125,-4.9375 3.325,-7.7375 -0.025,-0.7375 -0.8875,-1.375 -1.575,-0.9" />
      <path
         id="path2534"
         style="fill:#000000;fill-opacity:1;fill-rule:nonzero;stroke:none"
         d="m 589.18045,183.95223 c 5.645,-2.7125 10.77625,-6.025 15.58125,-10.0625 2.6175,-2.1875 5.04375,-4.6125 7.27,-7.2125 1.91,-2.225 4.4725,-5.025 5.07375,-7.9625 0.205,-1.0125 -0.9625,-1.75 -1.74875,-1.0125 -2.24125,2.1 -3.67625,5.3125 -5.615,7.725 -1.9925,2.475 -4.2375,4.725 -6.58125,6.8625 -4.42875,4.0375 -9.45375,7.5625 -14.4875,10.8 -0.5475,0.35 -0.0738,1.15 0.5075,0.8625" />
      <path
         id="path2536"
         style="fill:#000000;fill-opacity:1;fill-rule:nonzero;stroke:none"
         d="m 580.4692,196.42723 c 4.99,1.2875 10.2975,-0.45 14.8975,-2.4 6.1425,-2.6 11.7,-6.2 16.82625,-10.45 5.04875,-4.1875 9.595,-9.0875 13.17875,-14.5875 1.5625,-2.4125 2.8375,-5 3.81375,-7.7 0.98625,-2.6875 0.96125,-4.5375 0.13625,-7.2125 -0.21,-0.7 -1.1475,-0.675 -1.37125,0 -0.3125,0.9375 -0.865,1.7625 -1.25,2.6875 -0.47875,1.1125 -0.64,2.4 -1.01625,3.5625 -0.80125,2.425 -2.03125,4.7 -3.36875,6.875 -3.18375,5.175 -7.44125,9.6625 -11.9875,13.65 -8.555,7.5125 -18.555,13.05 -29.85875,14.85 -0.38,0.05 -0.34125,0.6375 0,0.725" />
      <path
         id="path2538"
         style="fill:#000000;fill-opacity:1;fill-rule:nonzero;stroke:none"
         d="m 644.56045,148.57723 c -2.0125,2.9125 -3.9,5.8375 -5.05,9.2125 -1.025,2.975 -1.925,5.9875 -2.9375,8.975 -2.1,6.1375 -5.26375,11.3875 -9.9025,15.9625 -3.12,3.0625 -6.71875,5.6125 -10.0825,8.4 -3.51625,2.9 -7.095,5.7125 -10.87875,8.2625 -7.515,5.0375 -15.9625,8.6 -25.1425,8.4625 -0.84375,-0.025 -1.035,1.2875 -0.2,1.475 8.96,2.025 17.6325,-0.975 25.3225,-5.5375 3.99875,-2.375 7.72,-5.1875 11.3775,-8.05 3.69125,-2.875 7.495,-5.675 11.04375,-8.7375 11.2375,-9.6875 14.4,-24.0125 18.125,-37.725 0.2875,-1.05 -1.1,-1.5375 -1.675,-0.7" />
    </g>
  </g>
</svg>
