<?xml version="1.0" encoding="UTF-8" standalone="no"?>
<svg
   xmlns:dc="http://purl.org/dc/elements/1.1/"
   xmlns:cc="http://creativecommons.org/ns#"
   xmlns:rdf="http://www.w3.org/1999/02/22-rdf-syntax-ns#"
   xmlns:svg="http://www.w3.org/2000/svg"
   xmlns="http://www.w3.org/2000/svg"
   id="svg2"
   version="1.1"
   xml:space="preserve"
   width="88.072304"
   height="40.772919"
   viewBox="0 0 88.072301 40.772919"><metadata
     id="metadata8"><rdf:RDF><cc:Work
         rdf:about=""><dc:format>image/svg+xml</dc:format><dc:type
           rdf:resource="http://purl.org/dc/dcmitype/StillImage" /><dc:title></dc:title></cc:Work></rdf:RDF></metadata><defs
     id="defs6"><clipPath
       clipPathUnits="userSpaceOnUse"
       id="clipPath18"><path
         d="m 0,0 799.56,0 0,800 L 0,800 0,0 Z"
         id="path20" /></clipPath><clipPath
       clipPathUnits="userSpaceOnUse"
       id="clipPath206"><path
         d="M 0,800 800,800 800,0 0,0 0,800 Z"
         id="path208" /></clipPath><clipPath
       clipPathUnits="userSpaceOnUse"
       id="clipPath338"><path
         d="M 0,800 800,800 800,0 0,0 0,800 Z"
         id="path340" /></clipPath></defs><g
     id="g10"
     transform="matrix(-1.25,0,0,-1.25,801.26138,559.3263)"><g
       id="g342"
       transform="matrix(-0.00711832,-0.9999299,0.60114015,-0.01184053,597.66962,426.25487)"><path
         d="M 0,0 C -0.449,9.48 -0.937,18.957 -1.463,28.432 -1.522,29.847 -1.58,31.262 -1.64,32.676 -0.975,21.791 -0.429,10.897 0,0 m 1.296,-40.509 c -0.011,-0.449 -0.063,-0.845 -0.196,-1.115 0.003,-0.261 0.007,-0.522 0.01,-0.784 -0.519,0.431 -1.037,0.861 -1.556,1.291 -0.374,0.672 -0.236,2.204 -0.303,2.989 -0.037,0.427 -0.066,0.856 -0.098,1.284 0.167,-1.201 0.33,-2.402 0.505,-3.601 0.125,-0.853 1.381,-0.763 1.638,-0.064 m -3.745,34.018 c -0.141,4.138 -0.261,8.277 -0.339,12.417 -0.085,4.487 -0.118,8.973 -0.125,13.46 0.529,-12.745 1.061,-25.49 1.608,-38.235 -0.429,4.115 -0.811,8.235 -1.144,12.358 m -1.129,-14.228 c 0.241,-4.519 0.517,-9.035 0.827,-13.55 0.01,-0.136 0.018,-0.3 0.026,-0.482 -0.358,4.675 -0.639,9.353 -0.853,14.032 m 14.42,61.673 c -2.339,5.576 -4.875,11.065 -7.54,16.491 -1.558,4.629 -3.143,9.249 -4.768,13.856 -0.467,1.325 -2.345,0.797 -2.093,-0.577 0.072,-0.391 0.161,-0.776 0.238,-1.166 -0.018,-0.052 -0.024,-0.109 -0.022,-0.171 -0.084,-0.117 -0.14,-0.259 -0.155,-0.431 -0.101,-0.198 -0.2,-0.397 -0.302,-0.596 -0.101,0.063 -0.214,0.105 -0.329,0.138 -0.031,0.066 -0.062,0.133 -0.093,0.2 0.019,0.039 0.038,0.078 0.058,0.117 0.573,1.166 -1.143,2.194 -1.756,1.027 -0.032,-0.06 -0.062,-0.12 -0.094,-0.18 -0.284,-0.216 -0.49,-0.553 -0.489,-0.94 -0.831,-1.587 -1.661,-3.174 -2.479,-4.767 -1.736,-2.893 -3.329,-5.857 -4.766,-8.895 -2.982,-5.527 -5.709,-11.179 -7.849,-17.118 -0.39,-1.083 1.359,-1.828 1.87,-0.788 0.229,0.467 0.459,0.934 0.689,1.402 0.001,-0.004 0.001,-0.007 0.002,-0.01 -0.07,-0.295 -0.148,-0.586 -0.213,-0.883 -0.238,-1.104 1.408,-1.965 1.935,-0.816 0.415,0.903 0.829,1.806 1.243,2.709 0.169,0.078 0.321,0.22 0.431,0.44 0.39,0.786 0.781,1.572 1.171,2.359 0.034,-0.077 0.057,-0.159 0.098,-0.232 0.151,-0.267 0.474,-0.38 0.764,-0.31 0.12,0.029 0.241,0.058 0.362,0.086 0.843,0.203 0.477,1.432 -0.353,1.283 0.963,0.173 2.322,5.134 2.737,6.082 0.503,1.148 1.012,2.294 1.527,3.437 1.267,2.555 2.522,5.116 3.783,7.673 -0.096,-2.323 -0.181,-4.646 -0.25,-6.969 -2.293,-32.502 -1.359,-65.103 2.252,-97.514 0.114,-1.028 1.736,-1.05 1.632,0 -0.12,1.2 -0.218,2.4 -0.327,3.6 0.543,-2.999 1.768,-5.58 4.683,-4.217 0.268,0.125 0.434,0.467 0.431,0.751 -0.377,33.987 -1.999,67.935 -4.602,101.819 3.018,-6.7 6.052,-13.392 9.095,-20.08 0.422,-0.927 1.708,-0.6 2.043,0.177 0.577,0.176 1.041,0.712 0.779,1.388 -0.034,0.088 -0.068,0.177 -0.102,0.265 0.59,0.158 1.053,0.658 0.759,1.36"
         style="fill:#3c3c3b;fill-opacity:1;fill-rule:nonzero;stroke:none"
         id="path344" /></g></g></svg>