<?xml version="1.0" encoding="UTF-8" standalone="no"?>
<!-- Created with Inkscape (http://www.inkscape.org/) -->

<svg
   xmlns:dc="http://purl.org/dc/elements/1.1/"
   xmlns:cc="http://creativecommons.org/ns#"
   xmlns:rdf="http://www.w3.org/1999/02/22-rdf-syntax-ns#"
   xmlns:svg="http://www.w3.org/2000/svg"
   xmlns="http://www.w3.org/2000/svg"
   xmlns:sodipodi="http://sodipodi.sourceforge.net/DTD/sodipodi-0.dtd"
   xmlns:inkscape="http://www.inkscape.org/namespaces/inkscape"
   id="svg2"
   version="1.1"
   inkscape:version="0.91 r13725"
   xml:space="preserve"
   width="68.357071"
   height="55.924381"
   viewBox="0 0 68.357071 55.924381"
   sodipodi:docname="sheets-scrollbar-arrow-down.svg"><metadata
     id="metadata8"><rdf:RDF><cc:Work
         rdf:about=""><dc:format>image/svg+xml</dc:format><dc:type
           rdf:resource="http://purl.org/dc/dcmitype/StillImage" /><dc:title></dc:title></cc:Work></rdf:RDF></metadata><defs
     id="defs6" /><sodipodi:namedview
     pagecolor="#ffffff"
     bordercolor="#666666"
     borderopacity="1"
     objecttolerance="10"
     gridtolerance="10"
     guidetolerance="10"
     inkscape:pageopacity="0"
     inkscape:pageshadow="2"
     inkscape:window-width="1920"
     inkscape:window-height="1017"
     id="namedview4"
     showgrid="false"
     inkscape:zoom="2.6700352"
     inkscape:cx="10.763548"
     inkscape:cy="22.481343"
     inkscape:window-x="1358"
     inkscape:window-y="-8"
     inkscape:window-maximized="1"
     inkscape:current-layer="g10"
     fit-margin-top="0"
     fit-margin-left="0"
     fit-margin-right="0"
     fit-margin-bottom="0" /><g
     id="g10"
     inkscape:groupmode="layer"
     inkscape:label="ink_ext_XXXXXX"
     transform="matrix(1.25,0,0,-1.25,-888.00867,940.17494)"><path
       inkscape:connector-curvature="0"
       id="path210"
       style="fill:#2f3031;fill-opacity:1;fill-rule:nonzero;stroke:none"
       d="m 711.00661,745.16624 c 0.22292,-0.23003 0.44584,-0.46005 0.66976,-0.69009 -0.55384,-0.42958 -0.80337,-1.28329 -0.22124,-2.0192 0.83485,-1.05535 1.68081,-2.10285 2.52982,-3.14639 -0.49689,-0.43434 -0.69631,-1.20572 -0.107,-1.85472 4.28774,-4.72222 8.5755,-9.44344 12.86325,-14.16466 0.55665,-0.69757 1.10422,-1.40101 1.6538,-2.10348 3.35391,-4.3326 6.56116,-8.78723 9.75324,-13.25466 0.89716,-1.25521 2.97213,-0.15908 2.24724,1.11581 0.1958,0.28039 0.38664,0.56384 0.58244,0.84423 0.0883,0.0938 0.16269,0.19882 0.21624,0.31311 4.55591,6.56619 8.87676,13.27757 12.89899,20.16798 3.25275,4.55957 6.34869,9.20827 8.80667,14.2356 0.64588,1.02538 1.28879,2.05281 1.93565,3.07719 0.30454,0.48294 0.23184,0.95096 -0.0225,1.29742 0.15952,0.40888 0.32995,0.81062 0.48056,1.22563 0.51943,1.43813 -1.53818,2.14893 -2.33147,1.01952 -0.21412,-0.30414 -0.42825,-0.60929 -0.64339,-0.91441 -0.45846,0.71024 -1.58613,0.96546 -2.19088,0.0235 -6.72167,-10.46636 -13.44335,-20.93271 -20.16503,-31.39907 -6.21496,6.42535 -12.41775,12.86354 -18.61449,19.30564 -2.71667,3.00989 -5.5214,5.94296 -8.44054,8.77156 -1.2251,1.18762 -3.09464,-0.62035 -1.90111,-1.85054" /></g></svg>