<?xml version="1.0" encoding="UTF-8" standalone="no"?>
<!-- Created with Inkscape (http://www.inkscape.org/) -->

<svg
   xmlns:dc="http://purl.org/dc/elements/1.1/"
   xmlns:cc="http://creativecommons.org/ns#"
   xmlns:rdf="http://www.w3.org/1999/02/22-rdf-syntax-ns#"
   xmlns:svg="http://www.w3.org/2000/svg"
   xmlns="http://www.w3.org/2000/svg"
   xmlns:sodipodi="http://sodipodi.sourceforge.net/DTD/sodipodi-0.dtd"
   xmlns:inkscape="http://www.inkscape.org/namespaces/inkscape"
   id="svg2"
   version="1.1"
   inkscape:version="0.91 r13725"
   xml:space="preserve"
   width="68.357071"
   height="55.924381"
   viewBox="0 0 68.357071 55.924381"
   sodipodi:docname="sheets-scrollbar-arrow-up.svg"><metadata
     id="metadata8"><rdf:RDF><cc:Work
         rdf:about=""><dc:format>image/svg+xml</dc:format><dc:type
           rdf:resource="http://purl.org/dc/dcmitype/StillImage" /><dc:title></dc:title></cc:Work></rdf:RDF></metadata><defs
     id="defs6" /><sodipodi:namedview
     pagecolor="#ffffff"
     bordercolor="#666666"
     borderopacity="1"
     objecttolerance="10"
     gridtolerance="10"
     guidetolerance="10"
     inkscape:pageopacity="0"
     inkscape:pageshadow="2"
     inkscape:window-width="1920"
     inkscape:window-height="1017"
     id="namedview4"
     showgrid="false"
     inkscape:zoom="0.472"
     inkscape:cx="-147.09653"
     inkscape:cy="-1.8292715"
     inkscape:window-x="1358"
     inkscape:window-y="-8"
     inkscape:window-maximized="1"
     inkscape:current-layer="g10"
     fit-margin-top="0"
     fit-margin-left="0"
     fit-margin-right="0"
     fit-margin-bottom="0" /><g
     id="g10"
     inkscape:groupmode="layer"
     inkscape:label="ink_ext_XXXXXX"
     transform="matrix(1.25,0,0,-1.25,-888.00867,940.17494)"><path
       inkscape:connector-curvature="0"
       id="path210"
       style="fill:#2f3031;fill-opacity:1;fill-rule:nonzero;stroke:none"
       d="m 764.698,714.736 c -0.226,0.227 -0.452,0.454 -0.679,0.681 0.548,0.437 0.786,1.294 0.194,2.022 -0.849,1.044 -1.709,2.08 -2.572,3.112 0.491,0.441 0.68,1.215 0.082,1.856 -4.351,4.664 -8.702,9.327 -13.053,13.99 -0.566,0.69 -1.123,1.386 -1.682,2.081 -3.412,4.287 -6.679,8.698 -9.931,13.122 -0.914,1.243 -2.974,0.119 -2.232,-1.146 -0.192,-0.283 -0.379,-0.569 -0.571,-0.852 -0.087,-0.095 -0.16,-0.201 -0.212,-0.316 -4.467,-6.627 -8.697,-13.396 -12.626,-20.34 -3.191,-4.603 -6.224,-9.293 -8.614,-14.353 -0.632,-1.034 -1.261,-2.07 -1.894,-3.103 -0.298,-0.487 -0.219,-0.954 0.04,-1.297 -0.154,-0.411 -0.319,-0.815 -0.464,-1.232 -0.5,-1.445 1.567,-2.128 2.345,-0.988 0.21,0.307 0.42,0.615 0.631,0.923 0.468,-0.704 1.599,-0.944 2.191,0.006 6.58,10.556 13.16,21.112 19.74,31.668 6.301,-6.341 12.59,-12.695 18.873,-19.053 2.757,-2.973 5.601,-5.868 8.558,-8.657 1.241,-1.171 3.086,0.662 1.876,1.876" /></g></svg>