<?xml version="1.0" encoding="UTF-8" standalone="no"?>
<!-- Created with Inkscape (http://www.inkscape.org/) -->

<svg
   xmlns:dc="http://purl.org/dc/elements/1.1/"
   xmlns:cc="http://creativecommons.org/ns#"
   xmlns:rdf="http://www.w3.org/1999/02/22-rdf-syntax-ns#"
   xmlns:svg="http://www.w3.org/2000/svg"
   xmlns="http://www.w3.org/2000/svg"
   xmlns:sodipodi="http://sodipodi.sourceforge.net/DTD/sodipodi-0.dtd"
   xmlns:inkscape="http://www.inkscape.org/namespaces/inkscape"
   width="199.37708mm"
   height="53.843758mm"
   viewBox="0 0 706.45421 190.78497"
   id="svg2"
   version="1.1"
   inkscape:version="0.91 r13725"
   sodipodi:docname="animated-button.svg">
  <defs
     id="defs4" />
  <sodipodi:namedview
     id="base"
     pagecolor="#ffffff"
     bordercolor="#666666"
     borderopacity="1.0"
     inkscape:pageopacity="0.0"
     inkscape:pageshadow="2"
     inkscape:zoom="0.98994949"
     inkscape:cx="79.685635"
     inkscape:cy="27.206275"
     inkscape:document-units="px"
     inkscape:current-layer="layer2"
     showgrid="false"
     inkscape:window-width="1920"
     inkscape:window-height="1017"
     inkscape:window-x="1358"
     inkscape:window-y="-8"
     inkscape:window-maximized="1"
     fit-margin-top="0"
     fit-margin-left="0"
     fit-margin-right="0"
     fit-margin-bottom="0" />
  <metadata
     id="metadata7">
    <rdf:RDF>
      <cc:Work
         rdf:about="">
        <dc:format>image/svg+xml</dc:format>
        <dc:type
           rdf:resource="http://purl.org/dc/dcmitype/StillImage" />
        <dc:title></dc:title>
      </cc:Work>
    </rdf:RDF>
  </metadata>
  <g
     inkscape:groupmode="layer"
     id="layer2"
     inkscape:label="scribbles"
     transform="translate(-5.640037,-392.87915)">
    <path
       style="fill:none;stroke:#3e3231;stroke-width:3.5999999;stroke-linecap:round;stroke-linejoin:round;stroke-miterlimit:4;stroke-dasharray:none;stroke-opacity:1"
       d="M 23.817288,480.1279 45.222867,457.68267 23.474006,484.15845 59.541969,447.10143 20.945303,487.09599 65.265531,445.29485 13.858819,498.95998 65.941888,443.29855 20.425271,496.17424 77.878423,448.8016 7.4384908,514.89249 65.775346,442.28143 l -51.427121,65.79476 67.578154,-65.1876 -68.597793,71.21444 66.24584,-73.32459 c 0,0 -66.41238,72.30748 -62.374621,72.45927 4.037756,0.15178 68.087976,-68.20103 68.087976,-68.20103 L 15.68054,516.2132 81.583097,446.91915 17.855762,523.37102 c 0,0 85.809288,-100.89342 82.770758,-94.94243 -3.038516,5.95095 -71.656724,89.29504 -71.656724,89.29504 l 67.24508,-67.22185 c 0,0 -75.850827,82.06133 -70.62688,77.20338 5.223938,-4.85796 91.199764,-104.73425 91.199764,-104.73425 L 40.583455,515.12762 88.992456,443.15422 20.873871,529.54968 121.99128,430.2426 34.672951,528.04668 116.60081,434.08342 56.744688,509.66997 138.31907,425.80207 43.747699,534.45303 148.76695,416.08617 66.485595,520.14481 156.49918,420.42031 66.308854,525.19249 153.6272,427.3884 64.11323,530.16429 151.0883,436.39075 c 0,0 -83.800612,107.03413 -78.410137,103.1933 C 78.068647,535.74324 187.81222,409.46704 187.81222,409.46704 L 95.269932,512.12909 157.67516,421.47537 72.65776,551.71368 198.54216,432.10947 96.561431,544.52536 185.25291,430.59902 97.445144,519.28693 193.51535,419.7901 124.70002,520.31151 233.08067,404.09272 113.7219,545.17046 193.99457,434.9711 c 0,0 -94.102354,129.89679 -89.72132,126.01802 4.38105,-3.87877 148.66311,-158.17169 148.66311,-158.17169 L 139.32158,529.95896 c 0,0 118.65179,-120.88699 113.59438,-115.01191 -5.05739,5.87508 -100.6382,114.4881 -100.6382,114.4881 L 211.66488,432.60278 127.83365,557.83134 246.66219,431.89668 141.80947,551.28067 254.91444,427.15257 172.2796,541.30658 277.16292,403.72816 l -75.03855,99.2766 c 0,0 85.43542,-78.66843 88.80702,-82.58515 3.37159,-3.91672 -134.12648,118.28351 -134.12648,118.28351 L 283.71917,407.00723 c 0,0 -115.8206,138.17813 -108.24472,135.43033 7.5759,-2.7478 143.07549,-137.15356 143.07549,-137.15356 L 186.39133,553.96747 305.42723,404.79069 222.08542,539.13545 319.53898,417.45157 184.39287,541.76195 349.48909,416.55573 212.50084,535.74254 333.68134,411.91802 187.72365,562.10449 360.93622,412.9426 208.26594,552.76806 340.07105,414.17996 216.17492,552.05451 354.05707,401.56448 222.56463,554.31645 371.0612,395.12764 219.19303,558.23317 380.12575,407.59879 243.28365,539.93233 372.7164,411.36372 221.71153,561.36044 408.73335,404.63075 244.42901,559.18185 386.69222,404.81304 c 0,0 -146.62384,146.11795 -149.99543,150.03467 -3.37162,3.91673 183.46327,-141.70047 183.46327,-141.70047 L 275.06569,550.2249 418.32813,401.95884 c 0,0 -150.36933,172.25968 -144.46903,165.40543 C 279.75939,560.51 442.87754,410.96864 442.87754,410.96864 L 255.02303,562.61271 472.51499,395.90893 314.95386,542.62659 429.05806,424.60126 295.08795,549.96671 435.80127,416.76783 319.82431,547.86403 448.07088,424.30512 327.03651,561.2764 448.58069,421.2917 c 0,0 -88.18166,110.9129 -93.23905,116.78798 -5.0574,5.87508 107.69407,-108.15766 107.69407,-108.15766 L 344.87335,559.9252 493.38013,394.67156 363.06367,548.47862 471.47493,414.06542 314.05994,573.92984 457.74035,477.23367 504.97338,404.20518 365.05194,566.74896 c 0,0 96.7772,-119.68756 100.1488,-123.60428 3.37159,-3.91672 -105.03967,130.49649 -105.03967,130.49649 L 514.02772,422.74114 377.84157,565.20803 531.87476,415.32512 398.36346,568.00121 554.92533,415.18079 432.715,551.09699 562.32449,417.48068 445.32789,554.60374 576.79992,413.98138 459.12696,553.10075 596.4891,411.68895 c 0,0 -130.98263,149.73856 -131.64877,145.67004 -0.66617,-4.0685 80.49022,-139.50629 80.49022,-139.50629 L 446.71122,532.41669 542.99901,403.61292 430.56019,531.80953 531.20862,411.25662 397.21808,548.75171 511.17617,417.57963 427.53186,531.69569 578.81879,414.05728 417.68893,581.86897 582.66962,425.32156 479.82558,550.84626 576.92566,439.25777 492.11559,546.25395 592.56686,442.87834 500.20132,540.4927 594.7727,431.84174 492.93809,557.40439 607.8954,432.33506 524.61482,530.29093 619.85235,425.70849 518.68389,555.33964 620.83116,443.94087 519.85988,556.39471 l 114.44749,-122.0559 -89.02456,111.89208 86.14237,-98.85918 -82.28135,104.05866 98.92179,-94.33529 -83.08344,80.77857 80.75191,-95.01836 c 0,0 -90.8667,106.76851 -87.4951,102.85179 3.3716,-3.91671 96.92332,-106.54081 96.92332,-106.54081 L 587.3768,527.59599 673.15548,444.897 c 0,0 -67.58835,71.25241 -71.96939,75.13118 -4.38104,3.87878 55.80815,-69.67351 55.80815,-69.67351 l -50.59441,70.88037 68.59777,-71.21444 -69.78396,76.22419 61.52151,-65.41529 -44.86065,63.00901 65.56948,-71.32832 -70.47056,84.28535 64.54984,-65.30146 c 0,0 -53.27946,66.73598 -48.22207,60.86092 5.05741,-5.87509 57.65031,-64.54994 57.65031,-64.54994 0,0 -59.84591,69.52172 -55.46488,65.64295 4.38105,-3.87876 53.26927,-60.67117 53.26927,-60.67117 l -28.16919,42.40829 39.6061,-39.95661 -28.49208,34.30923 37.08761,-43.0839 -32.88332,44.25282 29.66806,-33.25416 -19.72999,26.55168 24.26736,-23.34852 -21.07251,24.47949 21.23906,-23.46236"
       id="path4145"
       inkscape:connector-curvature="0" />
  </g>
</svg>
