<?xml version="1.0" encoding="UTF-8" standalone="no"?>
<!-- Created with Inkscape (http://www.inkscape.org/) -->

<svg
   xmlns:dc="http://purl.org/dc/elements/1.1/"
   xmlns:cc="http://creativecommons.org/ns#"
   xmlns:rdf="http://www.w3.org/1999/02/22-rdf-syntax-ns#"
   xmlns:svg="http://www.w3.org/2000/svg"
   xmlns="http://www.w3.org/2000/svg"
   xmlns:sodipodi="http://sodipodi.sourceforge.net/DTD/sodipodi-0.dtd"
   xmlns:inkscape="http://www.inkscape.org/namespaces/inkscape"
   width="49.938293mm"
   height="49.679928mm"
   viewBox="0 0 176.94671 176.03124"
   id="svg18949"
   version="1.1"
   inkscape:version="0.91 r13725"
   sodipodi:docname="clock.svg">
  <defs
     id="defs18951" />
  <sodipodi:namedview
     id="base"
     pagecolor="#ffffff"
     bordercolor="#666666"
     borderopacity="1.0"
     inkscape:pageopacity="0.0"
     inkscape:pageshadow="2"
     inkscape:zoom="0.98994949"
     inkscape:cx="-112.84814"
     inkscape:cy="14.569959"
     inkscape:document-units="px"
     inkscape:current-layer="layer1"
     showgrid="false"
     inkscape:window-width="1366"
     inkscape:window-height="705"
     inkscape:window-x="-8"
     inkscape:window-y="-8"
     inkscape:window-maximized="1"
     fit-margin-top="0"
     fit-margin-left="0"
     fit-margin-right="0"
     fit-margin-bottom="0" />
  <metadata
     id="metadata18954">
    <rdf:RDF>
      <cc:Work
         rdf:about="">
        <dc:format>image/svg+xml</dc:format>
        <dc:type
           rdf:resource="http://purl.org/dc/dcmitype/StillImage" />
        <dc:title></dc:title>
      </cc:Work>
    </rdf:RDF>
  </metadata>
  <g
     inkscape:label="Layer 1"
     inkscape:groupmode="layer"
     id="layer1"
     transform="translate(-229.70242,-179.49262)">
    <g
       id="g19029"
       transform="matrix(0.99623447,-0.08669994,0.08669994,0.99623447,-21.92196,28.724189)">
      <g
         id="g15758"
         transform="matrix(0.15236125,0,0,-0.15236125,-1491.272,2661.1762)">
        <path
           d="m 12395.1,15476 c 7,58.1 14.3,116.1 23.2,173.9 -5.7,-58.3 -13.7,-116.1 -23.2,-173.9 z m -863,-295.1 c -2.8,0.7 -5.7,1.3 -8.5,2 0.3,0 0.7,0.2 1,0.5 2.9,3.5 5.7,7 8.6,10.5 45.4,-5.5 90.5,-11.2 135.9,-19.1 42,-7.3 83.7,-15.2 125.6,-22.2 -88.3,1.1 -176.3,8.9 -262.6,28.3 z m -83.9,22.9 c 9,-0.9 17.4,-1.6 24.8,-2.6 18.1,-2.2 36.2,-4.4 54.2,-6.5 -1.8,-3.1 -3.6,-6.2 -5.2,-9.3 -0.6,-1.1 0.3,-2.2 1.3,-2.4 -25.1,5.8 -50.3,12.6 -75.1,20.8 z m -136.6,355 c 0.8,-0.6 2,-0.7 2.8,0.2 2.4,2.4 4.6,4.9 6.8,7.3 -2.8,-72.9 -0.5,-144.9 3.9,-218.3 0,-0.9 0.1,-1.8 0.1,-2.8 -7.6,42.8 -10.1,86.8 -11.7,130.1 -1.1,27.6 -1.7,55.5 -1.9,83.5 z m 12.7,206.1 c 2.3,15.6 5,31.2 7.7,46.8 -1.3,-48.6 -2.3,-97.2 -4.9,-145.8 -6.5,-11.1 -11.6,-22.5 -14.4,-34.2 1.6,44.8 5.1,89.5 11.6,133.2 z m 26.4,302.9 c -0.4,-11.3 -0.9,-22.5 -2.1,-33.6 -1.2,-12.5 -2.9,-25 -5,-37.3 1.7,23.7 4,47.4 7.1,70.9 z m 40.7,182.5 c 0,0.1 0,0.2 0.1,0.3 1.5,0.2 3,0.5 4.5,0.6 -12.1,-28.7 -21.9,-58.3 -29.6,-88.5 2.3,30.5 8.8,60.1 25,87.6 z m 434.3,-1081.8 c 0.2,0.3 0.4,0.6 0.4,1 -0.8,39.8 38.6,66.3 73.6,73.9 0.8,0.2 1.1,0.8 0.9,1.4 3.2,-0.3 6.5,-0.5 9.7,-0.8 18.8,-1.8 37.9,-3.2 57.3,-4.3 -10,-10.3 -18.9,-21.4 -27.4,-33 -10.2,-13.9 -22,-31.8 -27.3,-48.7 -29,2.4 -58,5.9 -87.2,10.5 z m -485.6,119.6 c -6.3,29.8 -8.4,61.5 -9.8,92.8 9.4,15.2 15.9,32.1 25.8,47.3 7.4,11.3 15.8,21.8 24.8,32 0.5,-23.3 2.9,-46.3 7.8,-68.7 0.9,-3.8 2,-7.4 3.2,-10.9 -22,-20.9 -38.9,-45.9 -51.1,-74.5 -1.4,-3.3 3.2,-5.2 4.5,-1.9 11.2,27.9 26.9,52.6 47.6,73.5 8.1,-21.3 22.9,-37.6 41.4,-50.3 -17.4,-11.7 -33.5,-25.3 -47.4,-41.2 -9.2,-10.4 -19.4,-25 -16.1,-39.7 -14.1,8.6 -22.8,20.6 -29.2,35.6 -0.5,2 -1.1,3.9 -1.5,6 z m -12,140.8 c -0.7,13.6 -1.1,27 -1.4,40.5 0.7,-1 2.5,-1.1 2.8,0.5 6,29.7 31.2,57.2 56.3,76.9 -3.4,-27.6 -5.4,-55.2 -5,-82.3 -20.3,-21 -41.3,-45.9 -51,-72.5 -0.5,12.4 -1,24.8 -1.7,36.9 z m -15.9,189.8 c 1.1,-0.3 2.4,0.1 2.8,1.4 3,9.3 6.8,18.2 11.1,26.9 -0.5,-8.8 -1.2,-17.6 -1.9,-26.3 -1,-14.7 -1.8,-29.2 -2.5,-43.7 -3.5,-4.8 -6.9,-9.7 -10.1,-14.5 -0.1,18.7 0,37.4 0.6,56.2 z m 90.3,47.7 c -24.8,-24.4 -50.9,-50.9 -73,-79.1 0.8,13.8 1.7,27.6 2.7,41.4 0.7,11 1.4,22.1 2,33.2 22.2,37.6 54.8,69.5 85.1,100.5 1.5,1.5 -0.8,3.8 -2.3,2.3 -24.4,-23.9 -59,-53.5 -82.1,-86.7 2.3,55.4 2.5,111.8 3.2,168.4 5.3,29.1 10.8,58.3 15.8,87.5 31.2,48.1 59.4,97.9 99.2,140.5 -5.1,-57.8 -11.5,-115.4 -17,-173.1 -1.3,-12.7 -2.4,-25.5 -3.6,-38.2 -0.2,0 -0.5,-0.2 -0.6,-0.5 -29.5,-35.6 -61.9,-68.6 -91.2,-104.3 -2.8,-3.2 2,-7.9 4.6,-4.6 27.9,35.2 58.6,68.1 86.7,103.1 -4.2,-47.5 -8.4,-94.7 -16.7,-142 -9.1,-52.2 -21.7,-108.1 -29,-164.2 -14.1,-10.3 -26.9,-22.2 -38.3,-35.4 -9.3,-10.7 -19.7,-23.6 -21.5,-38 -0.4,32.6 0.6,65 2.3,97.5 25.6,29.4 47.9,62.2 74.9,90.5 0.7,0.8 -0.4,1.9 -1.2,1.2 z m 375.7,-435.3 c -11.7,-7.1 -24.1,-15.2 -33.6,-25.3 -5,-5.3 -12.7,-12.9 -12.5,-20.9 -31.8,5.8 -63.5,11.7 -95.3,16.9 15.8,10 29.6,26.4 37.4,42.7 0.4,0.6 -0.5,1.1 -0.9,0.5 -9.6,-16.8 -26.5,-32.2 -43.4,-42.1 -21.6,3.4 -43.2,6.6 -64.9,9.1 -5.5,0.7 -11.1,1.3 -16.8,1.9 11.4,15.5 22.7,31.1 36.1,45.1 1,1 -0.5,2.5 -1.5,1.5 -13.8,-13.7 -28.9,-29.3 -41.7,-45.8 -29.2,3.1 -58.5,6 -87.6,10.4 10,27.3 29.5,50 55.3,64 0.9,0.5 0.1,1.9 -0.9,1.4 -26.8,-13.8 -47.2,-37 -58,-64.9 -18.3,2.9 -36.7,6.4 -54.8,11 -7.9,2.1 -14.7,4.7 -20.6,7.8 0,0.3 0.1,0.5 0.1,0.8 -2.6,17.3 15.8,36.9 26.1,48.5 10.8,12 23.1,22.6 36.1,32.1 46.9,-30.7 116.3,-39.3 164.4,-47 97,-15.4 196.1,-24.5 294.1,-33.5 -32,-6.7 -88.5,-36.5 -73,-76.3 l 0.1,0 c -5.8,0.9 -11.7,1.8 -17.6,2.8 -22.9,3.9 -46,8.2 -69,12.4 1.9,6.9 10.7,13.9 15.7,18.6 9.3,8.8 18.1,17.7 28.4,25.5 1.6,1.2 0.2,3.9 -1.7,2.8 z m -327.9,1027.4 c -36.2,-29.9 -91.8,-80.7 -79.4,-127.1 0.7,-2.4 4.3,-1.9 4.3,0.5 0.4,49.7 45.3,94.8 81.2,127.4 51,6.5 102,12 154,14 49.6,1.9 99.1,1.4 148.7,-0.4 -15.7,-15.4 -30.9,-31.7 -41.6,-49.9 -0.9,-1.6 1.4,-3.5 2.6,-2 14.3,18 29.3,35 45,51.7 30.4,-1.3 60.9,-3 91.3,-5.1 l 19.2,-1.5 c -10.5,-3.7 -20.1,-8.6 -28.9,-15.2 -9.2,-6.8 -21.5,-16.7 -24.6,-28.2 -0.5,-1.7 1.5,-3.6 3.2,-2.4 8.5,6.2 14.3,15.9 22.4,22.9 10.6,9.4 23.4,16.8 36.4,22.2 16.9,-1.3 33.7,-2.7 50.5,-4.2 -21.9,-15.7 -46.7,-39.3 -51.8,-65 -5.8,0.7 -11.7,1.6 -17.7,2.3 -85.7,10.8 -173,20 -259.2,10.6 -44.6,-4.9 -108.9,-14.3 -130.6,-60.3 -2,-4.1 3.8,-7.7 6.1,-3.6 26,48.6 102.3,49.3 149.6,49.5 86,0.5 172.2,-10.3 257.1,-22.9 87.9,-13.2 175.4,-28.5 263,-43.6 51.2,-8.8 104,-20 156.4,-22.8 -1.1,-0.9 -2.1,-1.7 -3.1,-2.6 -1.2,-1 0.3,-3 1.6,-2.1 2.3,1.5 4.5,3 6.7,4.4 1.5,0 3.1,-0.2 4.7,-0.2 3.8,-23.9 5.9,-47.8 6.6,-71.7 l -4.8,-5.4 c -1.3,-1.6 0.7,-3.6 2.3,-2.3 0.9,0.7 1.8,1.5 2.7,2.2 0.7,-29.3 -0.4,-58.5 -2.7,-87.8 -5.9,-5.8 -11.6,-11.6 -17.3,-17.3 -1.3,-1.3 0.4,-3.7 2,-2.6 5,3.5 9.8,7.3 14.7,11.1 -2.6,-30.9 -6.3,-61.8 -10.2,-92.5 -10.2,-82 -15.2,-162.7 -19.4,-245.1 -3.2,-62.3 -9.5,-124.4 -13.7,-186.7 -1.8,-25.8 -10.5,-67.9 -2.2,-98 -0.5,-1 -1.2,-1.9 -1.8,-3 -1,-1.9 1.4,-3.6 3.1,-2.3 0,0.1 0.2,0.3 0.3,0.4 2.4,-6.6 5.7,-12.4 10.3,-17.1 2.8,-3 7.1,-0.5 7.4,3 1,11.3 1.8,22.6 2.5,34 9.9,10.9 19.3,22.3 29.6,32.4 13,12.9 26.4,25.5 39.5,38.2 -7.8,-62.6 -15.6,-125.2 -24.9,-187.6 -3.8,-5.8 -8.1,-11.2 -13.3,-16 -0.2,-0.3 -0.6,-0.6 -1,-0.9 -14.3,1.3 -28.6,0.4 -43,-1.5 15.6,15.8 31.5,31.2 51.5,41 0.3,0.2 0.1,0.7 -0.3,0.5 -21.3,-11.8 -43,-26.3 -62,-43.1 -10.3,-1.7 -20.5,-3.6 -30.7,-5.5 9.3,14.4 13.6,31.9 17.9,48.3 0.1,0.4 -0.4,0.5 -0.5,0.2 -7.1,-17.3 -14.2,-34.4 -24.5,-49.8 -3,-0.5 -6,-1 -9,-1.4 -12.6,-2 -25.2,-4 -37.9,-5.9 5.9,11.7 9.6,24.2 17.2,35.3 9.8,14.5 24.1,28.5 39.5,36.5 0.4,0.1 0.1,0.7 -0.2,0.5 -17.1,-9.2 -30.8,-18.9 -42.7,-34.3 -8,-10.3 -17.5,-25.1 -18.8,-38.7 -32.9,-4.9 -65.8,-9.4 -99,-12.8 l -12.3,0 c -25.2,0.1 -50.4,-0.5 -75.6,-1.3 18.4,18.3 36.3,36.9 54,55.8 1.2,1.3 -0.6,3.1 -1.9,1.9 -20.4,-19 -40.4,-38.2 -59.9,-58 -15.3,-0.5 -30.6,-1.1 -45.8,-1.7 -7.9,0.4 -15.8,1 -23.7,1.6 7.7,11.1 13.4,24 20.5,35.5 9.8,16.1 19.9,32 32.1,46.4 102.3,-5.6 208,-1 306.3,24.4 14.4,3.6 8.3,25.8 -6.1,22.1 -135.9,-35.1 -284.1,-29.6 -422.2,-11.9 -107.4,13.8 -216.1,17.4 -321.7,43.7 -37.4,9.4 -87.7,22.1 -107.9,58.6 -22.4,40.7 -13,101.6 -8.9,145.4 10.9,116.4 39.3,229.5 46.1,346.5 5.6,96.6 11.9,192.5 9.2,289.3 6.3,5.2 12.7,10.2 19.4,14.9 -6.7,-4.3 -13.1,-9.3 -19.4,-14.7 -0.1,6.4 -0.3,12.9 -0.5,19.4 -0.2,3.8 -5.9,3.8 -6,0 -0.4,-8.9 -1,-17.8 -1.5,-26.7 -20.4,-18.1 -38.5,-38.6 -55.1,-60.5 -11.7,-15.4 -46.1,-57.2 -32.1,-79.1 1,-1.5 3.7,-0.5 3,1.3 -8.8,23.6 25,63.6 37.3,81.1 13.2,18.9 28.9,39.6 46.9,57 -1.5,-23.8 -3.3,-47.6 -5.4,-71.3 -27.2,-27.8 -50.2,-59.4 -72.5,-91.1 -7.3,-10.3 -15.5,-21.1 -23.5,-32.4 2.5,15.5 4.8,31.1 6.9,46.6 6.3,48.8 -0.8,100.3 1.5,149.8 7.8,33.9 17.9,67.1 31,99.6 17.9,2.4 35.7,4.8 53.5,7.1 z m 897,-47.5 c 18.3,-2.3 36.6,-4.6 55,-6.9 4.2,-0.5 21,-0.8 33.4,-2.4 l 0,-89.9 c -30.3,-15.6 -61.6,-33.9 -88.1,-56.2 -1.4,21.6 -3.9,43.1 -7.8,64.6 -0.1,0.9 -0.5,1.8 -0.9,2.6 30.6,20.9 61.3,42.9 87.3,68.7 0.8,0.8 -0.4,1.9 -1.1,1.2 -27.4,-25.6 -59.9,-44.1 -90.2,-65.7 -2.1,1.4 -4.6,2.2 -7,2.3 -28.3,0.1 -56.8,3.2 -85.2,7.5 13.2,7.9 25.6,17.8 38.6,25.8 17.6,10.7 36.1,19.9 54.9,28.1 1.8,0.7 0.5,3.6 -1.2,3 -33.1,-13.1 -74.9,-29.8 -101.2,-55.6 -31.3,5 -62.6,11.3 -93.3,16.6 -83.9,14.4 -167.8,29.4 -252.2,40.7 6.4,13.7 12,26.4 21.7,38.6 7.9,10 17.2,19 27.2,27 137.1,-12.7 273.5,-32.3 410.1,-50 z m 102.9,-13.8 c 13.5,-26.8 17.4,-58.5 19.1,-88.1 3.9,-67.2 -7.9,-135.2 -20.3,-200.9 -2.3,-12.1 -4.8,-24.2 -7.3,-36.3 2.8,80.7 3.6,161.5 3.8,242.3 1.1,0.5 2.1,1.2 3.3,1.8 1.2,0.6 0.2,2.5 -1.2,1.8 -0.6,-0.3 -1.4,-0.7 -2.1,-1 0.1,27.7 0.1,55.4 0.1,83.1 2.4,-0.8 4.1,-1.6 4.6,-2.7 z m -15.1,-171.7 c -31.3,-14.9 -60.4,-36.9 -87.1,-60.8 1.4,27.5 1.5,55 0,82.5 28,22.5 56,43.6 87.7,61.5 -0.2,-27.7 -0.4,-55.5 -0.6,-83.2 z m -12.2,-242.6 c -35.2,-15.5 -69.1,-37.3 -88.6,-71.3 -0.9,-1.6 1.4,-2.8 2.3,-1.4 22.2,32.3 51.1,53.8 85.7,69.9 -4.4,-21.1 -8.7,-42.1 -12.6,-63.3 -13.7,-73.3 -21.7,-147.9 -31.1,-221.9 -3.9,-31.9 -7.7,-64 -11.8,-96 -14.2,-13.3 -28.8,-26.3 -43.1,-39.6 -8.1,-7.5 -17.3,-15.3 -25.9,-23.5 1.3,22.3 2.3,44.7 3.8,67.2 23.6,22.2 42.8,50.3 65.2,73.5 1.8,1.7 -0.9,4.4 -2.7,2.7 -16.5,-16.3 -32.2,-33.5 -48,-50.6 -4.6,-5.1 -9.2,-10 -13.8,-15.1 0.2,2.7 0.4,5.3 0.6,8 2,24.1 4.2,48.3 6.3,72.5 18.7,24.5 39.6,46.4 64.6,65.7 1,0.8 -0.3,2.5 -1.3,1.7 -22.7,-17 -44.6,-36.8 -62.5,-59.3 3.1,34.7 5.9,69.5 7.4,104.4 0.5,9.6 0.9,19.2 1.4,28.8 0.4,-1.1 1.8,-1.8 2.7,-0.8 21.8,25.9 44.4,45 74.5,60.6 0.9,0.5 0.1,1.9 -0.9,1.5 -29.3,-14.5 -57.1,-32.8 -76.1,-60.1 -0.2,-0.2 -0.2,-0.5 -0.2,-0.7 3.7,71.5 9.6,142 18.4,213.6 1.2,9.2 2.2,18.4 3.3,27.6 30.8,15.3 58.5,37.8 85.7,58.5 1.1,0.8 0,2.7 -1.1,1.9 -27.4,-20.1 -54.8,-38.9 -84,-55.9 2.6,24.2 4.9,48.3 6.3,72.5 27.5,25 53.6,51 87.6,68.3 -0.6,-59.5 -2,-119.1 -4.3,-178.6 -33,-14.7 -67.3,-38.5 -81.9,-71.7 -0.8,-1.8 1.5,-4.1 3,-2.3 12.7,15.1 22.7,31 37.8,44.2 12.2,10.8 26.3,19 40.9,26 -0.3,-8.7 -0.6,-17.4 -1,-26.1 l -6.6,-30.9 z m 65.9,304.6 c 0.1,25.9 -2.4,51.8 -7.8,77.1 -2.6,12.1 -9.6,50.2 -25.2,51.9 -77.4,8.8 -154.6,19.2 -231.8,29.2 -147.3,19.1 -294.9,37 -443.4,43.2 2.4,2.4 4.7,4.9 7.1,7.3 1.5,1.5 -0.8,3.8 -2.3,2.3 -3.1,-3.1 -6.3,-6.3 -9.6,-9.4 -16.2,0.6 -32.4,1.2 -48.6,1.6 -105.4,2.3 -221,1.7 -324.8,-25.7 0.4,0.7 0.6,1.4 0.9,2.1 0.2,0.4 -0.3,0.6 -0.5,0.3 -0.3,-0.8 -0.6,-1.7 -1,-2.5 -10,-2.7 -20,-5.5 -29.9,-8.7 -5.2,-1.7 -2.9,-8.6 2.2,-7.9 2.6,0.3 5.1,0.7 7.7,1 -30.2,-49.4 -29.6,-104.5 -30.6,-160.1 -6.4,-40.3 -10.5,-81.1 -13.1,-121.9 -4.5,-22.4 -9.8,-44.6 -15,-66.8 -10.1,-42.9 -15.5,-85.7 -22.6,-129.1 -15.1,-92.3 -14.6,-189.1 -11.6,-282.3 1.6,-52.3 5.5,-104.9 15.1,-156.3 6.1,-32.9 14.8,-71 38.5,-96 12.6,-13.1 31.8,-20.6 52.6,-25.4 30.6,-13.6 66.7,-21.3 93.1,-28.9 120,-34.4 244.7,-40.9 369.1,-39.4 50.5,-6.8 101.3,-10.9 152.7,-9.6 53.4,1.5 106.6,8.1 159.4,15.6 l 2.1,0.3 c 23.7,0.4 48.2,1.1 72.3,4 0.6,-0.8 1.7,-1.1 2.8,-0.2 0.2,0.2 0.5,0.4 0.7,0.6 20.8,2.6 41.1,6.9 60.4,14.1 5.1,1.9 9.8,4.2 14.2,6.8 5.3,1.8 10.6,3.7 15.7,6.1 2.7,1.2 2.7,5.1 0.8,7 1.9,1.7 3.6,3.6 5.2,5.5 5.1,-5.3 15.3,-5.5 16.6,3.6 1.6,11 3.2,21.9 4.7,32.8 19.3,47.8 20.9,110.4 25.8,151.9 6.6,56 18.5,111.1 25.8,166.9 8.9,67 14.9,134.3 19.2,201.7 22.3,111.8 52.7,222.8 53.1,337.3"
           style="fill:#000000;fill-opacity:1;fill-rule:nonzero;stroke:none"
           id="path15760"
           inkscape:connector-curvature="0" />
      </g>
      <g
         id="g15762"
         transform="matrix(0.1494325,0,0,-0.1494325,-1491.272,2661.1762)">
        <path
           d="m 11899.7,16213.3 c 43.6,-25.6 73.4,-77.4 100.2,-118.4 15.5,-23.4 32,-50.6 52.5,-72.7 -1.2,-8.7 0.4,-17.4 6.5,-25.6 0.9,-12.1 2.6,-24 5.7,-35.9 -0.1,-1 -0.2,-2.1 -0.2,-3.2 -0.2,-2.1 1.2,-4.6 3.3,-5.9 3.8,-7.2 13.8,-9.4 20.2,-3.2 0.5,0.5 1.2,1 1.6,1.5 3.4,0.2 6.8,0.6 10.1,1.1 0.6,-0.5 1.3,-1 1.8,-1.5 5.6,-4.5 13.8,-4.6 17.9,2.3 1.4,2.4 3.1,5.3 4.9,8.4 11,6.7 19.9,17 25.3,31.2 0.9,2.1 1.5,4.4 2.1,6.7 2.9,2.3 3.1,6.1 1.6,8.8 10.7,10.3 20.5,20.6 28.4,28.3 33.5,32.1 64.4,66.7 96.3,100.5 30.3,32.6 60.9,64.9 95.2,93.5 27.3,22.6 50.8,47.5 83,62.7 3.2,1.5 1.4,6.1 -1.7,6.2 -80.9,1.9 -137.8,-57.5 -191,-111 -32.9,-33 -64.2,-67.7 -97,-100.8 -10.8,-10.9 -22,-21.3 -33.3,-31.6 -2.2,0.9 -4.4,1.7 -6.9,2.2 -2.1,0.4 -4.1,0.6 -6.4,0.7 -5.7,6.8 -12.4,12.9 -19.6,17.6 -4.5,3 -10.8,1.6 -14.5,-1.9 -3.4,-3.1 -6.8,-6.6 -10.3,-10.3 -54.1,59.3 -87,145.9 -171.5,160.5 -5.9,1 -10,-6.8 -4.2,-10.2"
           style="fill:#000000;fill-opacity:1;fill-rule:nonzero;stroke:none"
           id="path15764"
           inkscape:connector-curvature="0" />
      </g>
      <g
         id="g15766"
         transform="matrix(0.15082625,0,0,-0.15082625,-1491.272,2661.1762)">
        <path
           d="m 12046.9,16276.8 c -2.4,-26.4 4.7,-55.7 11.2,-81.6 -11,-1.9 -21,-5.8 -31,-10.5 1.9,31.7 9.9,62.1 19.8,92.1 z m -23.4,-107.4 c 13.9,6.8 26.9,12.9 42.5,14 4.3,0.3 7.2,3.9 6.2,8.2 -6.8,29.5 -6.6,62.3 -17.9,90.3 -1,2.5 -3.3,3.1 -5,2.2 l 3.9,11.4 c 0.9,2.7 -3.3,4.5 -4.5,1.9 -18.1,-39.9 -33.1,-78.4 -34.4,-122.7 -0.1,-5 5.2,-7.3 9.2,-5.3"
           style="fill:#000000;fill-opacity:1;fill-rule:nonzero;stroke:none"
           id="path15768"
           inkscape:connector-curvature="0" />
      </g>
      <g
         id="g15770"
         transform="matrix(0.14419625,0,0,-0.14419625,-1491.272,2661.1762)">
        <path
           d="m 12535.5,16242.6 c 0.3,9.6 -1.8,17.9 -6.6,26.3 -2.6,4.5 -9.6,0.4 -6.9,-4.1 7.2,-12.3 4.5,-23.9 6.1,-37.2 1.1,-8.3 5.7,-14.9 11.5,-20.5 -6.1,0 -12.1,0.2 -18.2,0.7 -7.6,0.6 -14.7,2.2 -21.9,4.3 -6.7,2 -1.3,17.9 -0.4,22.4 5,25.6 22,48.2 42.6,63.4 0.9,0.6 0.1,2.1 -0.8,1.5 -30.1,-20.2 -48.4,-51.9 -50.3,-88.2 0,-0.9 0.6,-2.2 1.5,-2.6 18.2,-8.3 37.5,-8.8 57.2,-9 2.9,0 5.1,4.2 2.6,6.3 -13,10.8 -17,20.4 -16.4,36.7"
           style="fill:#000000;fill-opacity:1;fill-rule:nonzero;stroke:none"
           id="path15772"
           inkscape:connector-curvature="0" />
      </g>
      <g
         id="g15774"
         transform="matrix(0.1480175,0,0,-0.1480175,-1491.272,2661.1762)">
        <path
           d="m 11864.8,16279.4 c 0.1,0.3 0.2,0.7 0.2,1 26.6,-17.5 52.3,-37.3 66.2,-66.4 -25.9,-9.4 -52.2,-24.4 -79.5,-27.4 -4.6,33.2 2.2,61.3 13.1,92.8 z m -24.9,-101.4 c 0.3,-2.7 3.5,-4.9 6.2,-4.8 33.1,1.9 63.9,20.5 94.4,31.9 3.6,1.4 5,4.9 3.4,8.4 -19.2,40.9 -58.8,63.2 -96.5,84.7 -3.1,1.8 -5.8,-2.9 -2.7,-4.9 5.1,-3.2 10.4,-6.5 15.6,-9.9 -0.1,-0.1 -0.4,-0.1 -0.5,-0.2 -30.8,-16 -24.7,-78 -19.9,-105.2"
           style="fill:#000000;fill-opacity:1;fill-rule:nonzero;stroke:none"
           id="path15776"
           inkscape:connector-curvature="0" />
      </g>
      <g
         id="g15778"
         transform="matrix(0.14742125,0,0,-0.14742125,-1491.272,2661.1762)">
        <path
           d="m 12548.1,16273.5 c -4.2,0.7 -7,-2.3 -6.4,-6.4 5.4,-37.1 5.6,-68.9 -0.6,-105.9 -0.6,-3.5 1.5,-7.5 5.6,-7.3 56,2.1 88.8,46 128.9,78.9 6.5,5.3 -2.8,14.5 -9.1,9.2 -35.3,-29.4 -65,-70.1 -113,-75.8 4.5,32.8 4.5,63.6 -0.6,96.4 44.1,-4.1 86.6,3.7 118.3,36.7 0.4,0.3 0,0.7 -0.4,0.5 -35,-28.9 -79.3,-33.8 -122.7,-26.3"
           style="fill:#000000;fill-opacity:1;fill-rule:nonzero;stroke:none"
           id="path15780"
           inkscape:connector-curvature="0" />
      </g>
      <g
         id="g15782"
         transform="matrix(0.15206875,0,0,-0.15206875,-1491.272,2661.1762)">
        <path
           d="m 11517,16221.8 c 9.6,10.3 15.8,23.1 22.6,35.2 7.7,13.7 15.3,27 21.8,41.3 0.4,0.8 -0.6,1.7 -1.3,1 -9.6,-10.6 -16.3,-22 -23.5,-34.3 -7.8,-13.4 -16.8,-26.4 -23,-40.6 -0.9,-2.1 1.6,-4.6 3.4,-2.6"
           style="fill:#000000;fill-opacity:1;fill-rule:nonzero;stroke:none"
           id="path15784"
           inkscape:connector-curvature="0" />
      </g>
      <g
         id="g15786"
         transform="matrix(0.15209875,0,0,-0.15209875,-1491.272,2661.1762)">
        <path
           d="m 11632.4,16248.1 c 2.2,-1.6 4.4,1.4 3.4,3.4 -2.3,4.7 10.2,15.6 13,18.4 9.2,9.2 20.4,16.4 31.7,22.7 3.8,2.1 0.5,7.4 -3.3,5.6 -8.6,-4 -66.3,-34.4 -44.8,-50.1"
           style="fill:#000000;fill-opacity:1;fill-rule:nonzero;stroke:none"
           id="path15788"
           inkscape:connector-curvature="0" />
      </g>
      <g
         id="g15790"
         transform="matrix(0.15181,0,0,-0.15181,-1491.272,2661.1762)">
        <path
           d="m 12019.6,16249.4 c 3.2,3.3 4.1,7.6 6.2,11.7 2.4,4.9 5.5,9.3 8.9,13.4 7.8,9.1 18.2,15.1 29.4,19.1 3.1,1.1 1.8,6.4 -1.5,5.3 -11.6,-4 -21.9,-9.8 -30.6,-18.4 -6.8,-6.7 -17.1,-19.5 -16.1,-29.6 0.1,-1.8 2.3,-3 3.7,-1.5"
           style="fill:#000000;fill-opacity:1;fill-rule:nonzero;stroke:none"
           id="path15792"
           inkscape:connector-curvature="0" />
      </g>
      <g
         id="g15794"
         transform="matrix(0.15178125,0,0,-0.15178125,-1491.272,2661.1762)">
        <path
           d="m 12081.9,16237.7 c 9.8,8.8 16.4,22.6 24.8,32.9 9.4,11.5 20.6,22.5 34.5,28.1 0.6,0.3 0.3,1.3 -0.3,1.1 -13.6,-4.7 -24.1,-13.9 -34.1,-23.9 -9.8,-9.9 -23,-23.3 -27.7,-36.6 -0.7,-1.7 1.5,-2.6 2.8,-1.6"
           style="fill:#000000;fill-opacity:1;fill-rule:nonzero;stroke:none"
           id="path15796"
           inkscape:connector-curvature="0" />
      </g>
      <g
         id="g15798"
         transform="matrix(0.15165,0,0,-0.15165,-1491.272,2661.1762)">
        <path
           d="m 12182.6,16236.4 c 24.8,15.8 40.7,39.8 60.4,61.1 1,1 -0.6,2.5 -1.6,1.5 -20.3,-19.5 -37.8,-42.8 -60.5,-59.8 -1.6,-1.2 -0.2,-4 1.7,-2.8"
           style="fill:#000000;fill-opacity:1;fill-rule:nonzero;stroke:none"
           id="path15800"
           inkscape:connector-curvature="0" />
      </g>
      <g
         id="g15802"
         transform="matrix(0.151515,0,0,-0.151515,-1491.272,2661.1762)">
        <path
           d="m 12254,16243.7 c 24.4,19.1 48,38 75.5,52.5 1.9,1 0.3,3.8 -1.6,2.9 -26.7,-13.4 -56.6,-30.1 -75.8,-53.4 -1.1,-1.4 0.5,-3 1.9,-2"
           style="fill:#000000;fill-opacity:1;fill-rule:nonzero;stroke:none"
           id="path15804"
           inkscape:connector-curvature="0" />
      </g>
      <g
         id="g15806"
         transform="matrix(0.14622625,0,0,-0.14622625,-1491.272,2661.1762)">
        <path
           d="m 12836.1,16222.4 c -1.6,-1.9 1.2,-4 2.6,-2 22.2,29.9 47.7,56.1 77.1,79 0.3,0.2 -0.1,0.6 -0.3,0.4 -30.1,-22.2 -56.4,-47.8 -79.4,-77.4"
           style="fill:#000000;fill-opacity:1;fill-rule:nonzero;stroke:none"
           id="path15808"
           inkscape:connector-curvature="0" />
      </g>
      <g
         id="g15810"
         transform="matrix(0.14308,0,0,-0.14308,-1491.272,2661.1762)">
        <path
           d="m 13022,16186.5 c -0.8,-1.7 1.3,-3.6 2.7,-2.1 17.7,18.7 33.1,38.6 52.4,55.8 23.1,21 49.4,38.5 75.2,56.3 1.5,1 0.1,3.5 -1.5,2.5 -45,-29.3 -104,-62.3 -128.8,-112.5"
           style="fill:#000000;fill-opacity:1;fill-rule:nonzero;stroke:none"
           id="path15812"
           inkscape:connector-curvature="0" />
      </g>
      <g
         id="g15814"
         transform="matrix(0.15121625,0,0,-0.15121625,-1491.272,2661.1762)">
        <path
           d="m 11580.1,16299.8 c -2.4,-1.6 -4.7,-3.3 -7,-4.9 2.4,1.5 4.9,3 7.4,4.4 0.3,0.2 0,0.7 -0.4,0.5"
           style="fill:#000000;fill-opacity:1;fill-rule:nonzero;stroke:none"
           id="path15816"
           inkscape:connector-curvature="0" />
      </g>
      <g
         id="g15818"
         transform="matrix(0.1491175,0,0,-0.1491175,-1491.272,2661.1762)">
        <path
           d="m 11591.2,16174.8 c 11.1,22.2 21.7,41.3 37.6,60.7 17.4,21.3 36.7,40.9 53.7,62.5 0.7,0.8 -0.5,2 -1.1,1.2 -19.4,-22.9 -41,-43.7 -60.8,-66.2 -13.8,-15.6 -31.9,-35.5 -32.5,-57.3 0,-1.7 2.3,-2.4 3.1,-0.9"
           style="fill:#000000;fill-opacity:1;fill-rule:nonzero;stroke:none"
           id="path15820"
           inkscape:connector-curvature="0" />
      </g>
      <g
         id="g15822"
         transform="matrix(0.14224125,0,0,-0.14224125,-1491.272,2661.1762)">
        <path
           d="m 13003,16299.1 c -23,-8.2 -38.8,-28 -49.7,-49.1 -1.4,-2.7 2.6,-5.1 4,-2.4 10.1,20.2 25,39.5 46.9,47.6 2.4,0.9 1.4,4.8 -1.2,3.9"
           style="fill:#000000;fill-opacity:1;fill-rule:nonzero;stroke:none"
           id="path15824"
           inkscape:connector-curvature="0" />
      </g>
    </g>
  </g>
</svg>
