<?xml version="1.0" encoding="UTF-8" standalone="no"?>
<svg
   xmlns:dc="http://purl.org/dc/elements/1.1/"
   xmlns:cc="http://creativecommons.org/ns#"
   xmlns:rdf="http://www.w3.org/1999/02/22-rdf-syntax-ns#"
   xmlns:svg="http://www.w3.org/2000/svg"
   xmlns="http://www.w3.org/2000/svg"
   version="1.1"
   id="svg17938"
   viewBox="0 0 246.13233 143.29483"
   height="40.440987mm"
   width="69.464012mm">
  <defs
     id="defs17940" />
  <metadata
     id="metadata17943">
    <rdf:RDF>
      <cc:Work
         rdf:about="">
        <dc:format>image/svg+xml</dc:format>
        <dc:type
           rdf:resource="http://purl.org/dc/dcmitype/StillImage" />
        <dc:title></dc:title>
      </cc:Work>
    </rdf:RDF>
  </metadata>
  <g
     transform="translate(-334.07669,-115.00051)"
     id="layer1">
    <g
       id="g14470"
       transform="matrix(0.15051,0,0,-0.15051,-108.38343,2567.4965)">
      <path
         d="m 4260.12,15843.5 c -0.07,1.8 -0.1,3.6 -0.12,5.3 0.7,0.4 1.45,0.7 2.16,1.1 -0.68,-2.2 -1.39,-4.3 -2.04,-6.4 z m -641.96,-469.3 c -41.75,3.1 -84.18,10 -123.63,23.6 86.39,-11.9 172.75,-20.5 260.41,-19.5 2.92,0 5.81,0.2 8.73,0.2 -0.13,-1.5 0.45,-3.1 1.75,-4.3 -48.99,-3.3 -98.2,-3.7 -147.26,0 z m 620.77,121.5 c -0.28,-0.1 -0.54,-0.2 -0.83,-0.4 -14.12,-9.4 -29.3,-17.9 -45.23,-25.6 -2.88,-0.5 -5.52,-0.9 -7.82,-1.3 -7.98,-1.4 -16.19,-2.4 -24.46,-3.1 8.05,3.7 16,7.4 23.88,11.3 16.61,8.2 37.66,17.7 54.37,29.8 0.06,-3.5 0.06,-7.1 0.09,-10.7 z m 0.17,-14.2 c -3.76,-1.8 -7.95,-3.3 -12.33,-4.6 4.22,3.3 8.28,6.8 12.26,10.5 0.04,-2 0.07,-4 0.07,-5.9 z m -218.89,-54.9 c 19.04,2 38.03,5.2 57.07,9.8 1.04,-2.7 3.28,-5.1 5.97,-6.8 -36.4,-10.1 -73.25,-18.2 -107.87,-25.4 -4.08,-0.9 -8.17,-1.7 -12.27,-2.5 20.93,5.3 40.92,12.7 56.1,23.9 0.42,0.3 0.75,0.7 1,1 z m -621.32,33.1 c -1.24,1.7 -2.36,3.6 -3.47,5.6 23.23,-16.5 54.63,-27.7 76.21,-33.4 60.63,-16 125.51,-11.9 187.44,-4.6 24.14,-1.3 48.31,-2.2 72.51,-2.3 83.47,-0.6 183.42,0.9 259.08,37 6.65,3.2 2.01,12.5 -5.03,10.8 -41.97,-10.3 -82.17,-21.3 -125.58,-26.3 -46.13,-5.4 -92.95,-6 -139.4,-5.5 -75.82,0.8 -151.73,3.9 -227.55,3.8 -23.52,5.1 -46.13,13 -66.76,24.6 -22.84,12.8 -31.63,33.7 -49.61,49.5 27.74,-17.3 68.68,-23.5 97.13,-24.6 58.95,-2.2 119.45,18.1 176.72,-2.3 0.61,-0.2 1.03,0.8 0.44,1 -41.81,20 -90.7,17.2 -136.5,17.8 -28.46,0.3 -56.85,0.9 -84.45,7.7 -31.38,7.6 -44.57,29.7 -69.76,44.1 -1.62,1 -3.3,1.3 -4.86,1.1 -3.24,14.8 -6.23,29.7 -8.99,44.6 28.98,-30.6 83.41,-47.3 123.57,-57.4 54.58,-13.7 113.16,-10.6 166.82,4.7 0.71,0.2 0.42,1.2 -0.32,1.1 -51.62,-10.2 -102.03,-6.9 -153.26,3.7 -25.3,5.3 -49.57,14.1 -72.74,24.7 -23.55,10.6 -42.72,27.9 -66.34,37.9 l -0.25,0 c -1.86,10.9 -3.57,21.7 -5.07,32.6 80,-39.7 181.32,-51.4 270.08,-36.9 1.36,0.2 0.94,2 -0.32,2.1 -94.02,3.7 -189.27,10.9 -272.28,54.8 -3.32,28.3 -5.23,56.6 -5.49,84.8 18.98,-24 61.6,-42.9 86.88,-54.4 37.21,-16.9 78.93,-28.1 120.75,-24.3 2.24,0.2 2.3,3.3 0,3.2 -44.74,-1.1 -85.48,15.2 -123.21,35.5 -19.37,10.5 -37.87,22.3 -55.38,35.1 -10.06,7.4 -17.33,15.4 -29.01,19.8 0.13,9.8 0.46,19.6 1.04,29.4 5.54,-2.1 11.09,-4.1 16.61,-6.1 67.09,-24.9 131.29,-59.6 192.73,-94.2 73.52,-41.3 144.73,-87.8 206.4,-143 4.84,-4.3 11.59,-3.7 16.48,0 147.29,111.6 313.32,200.1 483.55,281.5 -0.39,-14.1 -0.79,-28.2 -1.14,-42.3 -38.18,-23.7 -88.72,-34.8 -133.01,-40.7 -0.39,-0.1 -0.29,-0.6 0.07,-0.6 46.45,4.9 93.23,9.4 132.68,31.1 -0.1,-4.8 -0.25,-9.6 -0.36,-14.3 -1.61,-11.6 -2.91,-23.2 -4.01,-34.7 -2.83,0.6 -5.91,0.2 -8.34,-1.5 -41.07,-30 -79.48,-43.1 -132.27,-47.3 -33.41,-2.7 -67.16,-2.7 -100.24,-8.3 -1.31,-0.2 -0.98,-2.1 0.32,-2.1 75.65,1.9 181.09,-18 238.81,39.9 -0.63,-7.3 -1.18,-14.7 -1.72,-22 -0.39,-5.2 -0.59,-10.5 -0.88,-15.8 -10.32,-6.6 -20.73,-13.2 -33.03,-17.9 -26.15,-9.9 -54.47,-15 -82.31,-19.2 -58.62,-8.7 -117.66,-11.4 -176.96,-13.2 -2.3,0 -2.3,-3.1 0,-3.2 60.08,-1.7 121.07,-3.7 180.77,4 28.22,3.6 76.36,10.8 110.62,27.6 -0.49,-17.6 -0.56,-35.3 -0.32,-52.9 -50.09,-15.5 -96.87,-27.4 -151.15,-31.7 -55.8,-4.4 -112.06,-5.5 -167.99,-7.9 -1.52,0 -1.52,-2 0,-2.1 59.86,-2.7 119.26,-6.7 179.18,-3.1 45.49,2.6 97.33,8.1 140.28,25.6 0.19,-8.7 0.42,-17.4 0.65,-26.2 -1.43,-0.3 -2.82,-0.9 -4.16,-1.9 -72.66,-55.5 -196.66,-67.1 -287.56,-55.9 -1.53,0.2 -2.11,-1.6 -0.64,-2.1 49.43,-16.7 103.55,-13.2 154.97,-6.6 48.57,6.1 98.36,19.3 137.97,46.3 0.1,-3.8 0.23,-7.5 0.29,-11.3 -20.14,-8.1 -39.25,-23.4 -57.06,-33.6 -25.6,-14.8 -52.66,-27.4 -80.71,-37.7 -57.46,-21.1 -121.73,-28.3 -183.21,-31.2 -1.26,-0.1 -1.71,-2 -0.32,-2.1 18.62,-2.3 36.88,-3.4 54.89,-3.6 -25.4,-7.1 -50.74,-15.9 -76.62,-20.3 -49.58,-8.5 -100.31,-11 -150.67,-11.7 -89.79,-1.2 -180.17,4.7 -269.52,12.7 -2.01,0.8 -4.05,1.6 -6.06,2.4 -18.69,8.2 -35.89,18.8 -50.94,31.7 -7.2,6.2 -13.46,13.2 -19.11,20.5 z m -33.42,60.9 c -0.71,2.9 -1.39,5.7 -2.07,8.6 2.43,-2.4 5.1,-4.6 7.95,-6.7 -2.24,0.5 -4.81,-0.1 -5.88,-1.9 z m -329.77,442.5 c 67.07,23.8 134.8,47 202.5,70.6 -23.12,-26.9 -43.47,-55.7 -52.13,-89.3 -0.52,-2 2.95,-2.9 3.44,-0.8 8.02,34 28.16,63.4 51.06,90.9 27.42,9.5 54.83,19.1 82.15,28.9 -41.4,-49.7 -81.2,-101.3 -95.67,-163.2 -0.81,-3.4 4.92,-4.8 5.67,-1.4 14.11,63.4 54.96,116 96.75,167 73.54,26.3 146.6,53.7 218.3,83.5 -47.72,-92.4 -109.92,-178.6 -155.66,-272 -3.7,-7.5 8.43,-14.1 12.23,-6.5 47.82,94.9 107.61,185.2 151.24,281.7 83.16,34.8 164.42,72.9 242.28,116.6 11,-4.8 21.97,-9.6 33,-14.5 -56.88,-68.7 -94.09,-149.4 -128.44,-228.9 -20.05,-46.5 -37.02,-94.1 -54.7,-141.4 -8.47,-22.5 -16.93,-45.1 -25.63,-67.6 -6.87,-17.8 -19.86,-38.1 -18.78,-57.1 0.23,-4 5.71,-6.6 9.08,-3.4 11.58,10.9 14.72,26 20.18,40.2 8.53,22.1 16.7,44.4 24.85,66.6 17.26,47.2 34.29,94.4 52.46,141.4 33.25,85.9 65.92,173.5 123.21,249.2 221.9,-98.4 442.93,-216.4 686.67,-259.6 -77.44,-35.8 -155.6,-71.3 -233.23,-107.9 0.46,4.2 -6.43,7.4 -8.63,2.8 -1.49,-2.9 -2.86,-5.9 -4.22,-8.9 -181.57,-86.1 -359.61,-178.8 -517.15,-297 -105.83,92.3 -237.93,166.4 -370.23,222.8 -112.67,48 -271.28,61.4 -350.6,157.3 z m 1520.85,47.9 c -1.27,0.8 -2.79,1.3 -4.61,1.6 -267.16,40.5 -496.36,180.1 -747.78,262.5 5.28,10.4 -7.08,24.9 -20.64,17.4 -68.68,-37.8 -139.66,-71 -211.78,-101.9 3.47,8.8 6.82,17.6 10,26.5 0.45,1.3 -1.79,1.9 -2.31,0.6 -3.96,-9.9 -8.24,-19.6 -12.65,-29.3 -181.35,-77.4 -370.17,-140.1 -550.28,-220.7 -6.01,-2.7 -1.72,-12 4.54,-9.8 3.73,1.3 7.46,2.6 11.22,4 30.99,-42.4 79.94,-69.1 129.06,-91.5 52.43,-23.8 107.67,-42.9 162.24,-62.7 -19.24,-119.3 3.63,-240.2 34.62,-356.3 1.85,-6.9 8.6,-9 14.53,-7.6 5.81,-6.9 12.26,-13.2 16.91,-17.9 28.41,-28.9 68.87,-46.5 108.68,-58.7 130.63,-39.7 282.43,-24.8 415.02,-2.1 10.19,1.8 20.34,3.7 30.49,5.7 28.46,2.5 56.84,5.7 85.03,10 68.19,10.4 138.14,34.5 194.98,71.9 2.95,1.8 5.74,3.7 8.44,5.7 4.73,3.3 9.37,6.7 13.91,10.2 8.76,-4.3 22.55,-0.6 22.51,11.3 -0.15,68.1 -3.11,136.3 -2.26,204.4 2.4,2.9 4.5,6 6.12,9.3 1.92,4 -1.46,7.9 -5.8,7 1.17,53 4.93,105.8 14.43,158.2 95.75,45.2 192.45,88.5 287.6,132.7 14.18,6.6 1.89,25.8 -12.22,19.5"
         style="fill:#000000;fill-opacity:1;fill-rule:nonzero;stroke:none"
         id="path14472" />
    </g>
    <g
       id="g14474"
       transform="matrix(0.14861125,0,0,-0.14861125,-108.38343,2567.4965)">
      <path
         d="m 3485.75,16293.5 c 3.16,1.9 0.33,6.5 -3.01,4.7 -71.2,-39.5 -99.95,-128.4 -130.38,-194.6 -1.68,-3.5 4.3,-6.3 7,-3.6 57.27,56.7 51.52,146.9 126.39,193.5"
         style="fill:#000000;fill-opacity:1;fill-rule:nonzero;stroke:none"
         id="path14476" />
    </g>
    <g
       id="g14478"
       transform="matrix(0.1497625,0,0,-0.1497625,-108.38343,2567.4965)">
      <path
         d="m 3535.12,15898.3 c 70.42,130.8 93.41,289.4 205.15,399.2 1.01,1 -0.59,2.5 -1.7,1.5 -120.17,-106.1 -146.13,-261.6 -217.83,-393.1 -4.72,-8.7 9.69,-16.3 14.38,-7.6"
         style="fill:#000000;fill-opacity:1;fill-rule:nonzero;stroke:none"
         id="path14480" />
    </g>
    <g
       id="g14482"
       transform="matrix(0.14951125,0,0,-0.14951125,-108.38343,2567.4965)">
      <path
         d="m 3709,15810.7 c 53.85,65.1 85.92,149.5 119.33,224.5 38.31,86 73.91,173.1 118.68,256.6 2.35,4.4 -4.77,8.2 -7.19,3.8 -41.34,-74.2 -75.53,-151.4 -110.57,-228.3 -20.32,-44.5 -41.19,-88.8 -63.75,-132.4 -20.87,-40.2 -47,-78.1 -67.81,-118.2 -3.62,-7 6.27,-12.1 11.31,-6"
         style="fill:#000000;fill-opacity:1;fill-rule:nonzero;stroke:none"
         id="path14484" />
    </g>
    <g
       id="g14486"
       transform="matrix(0.1489575,0,0,-0.1489575,-108.38343,2567.4965)">
      <path
         d="m 3880.23,15919.9 c 65.29,124.8 130.43,249.6 193.26,375.4 1.24,2.5 -2.72,4.7 -4.09,2.2 -67.6,-123.5 -138.43,-245.4 -203.6,-369.9 -4.62,-8.8 9.8,-16.5 14.43,-7.7"
         style="fill:#000000;fill-opacity:1;fill-rule:nonzero;stroke:none"
         id="path14488" />
    </g>
    <g
       id="g14490"
       transform="matrix(0.1485975,0,0,-0.1485975,-108.38343,2567.4965)">
      <path
         d="m 4005.09,15963.7 c -2.1,-4.7 5.46,-8 9.01,-4.7 41.17,38 62.95,99.6 84.41,148.4 27.76,63.1 52.01,127.5 83.83,189.1 0.95,1.8 -2.05,3.5 -3.13,1.6 -31.18,-54.6 -56.55,-111.6 -83.46,-168 -14.49,-30.3 -30.03,-60.2 -45.93,-89.9 -13.81,-25.9 -32.96,-49.9 -44.73,-76.5"
         style="fill:#000000;fill-opacity:1;fill-rule:nonzero;stroke:none"
         id="path14492" />
    </g>
    <g
       id="g14494"
       transform="matrix(0.14804,0,0,-0.14804,-108.38343,2567.4965)">
      <path
         d="m 4243.53,16173.8 c 15.57,15.3 22.6,39 32.33,57.8 10.95,21.1 23.28,41.5 38.36,60.4 2.8,3.5 -3.56,8 -6.6,4.7 -14.74,-16.3 -27.15,-33.8 -38.69,-52.1 -12.53,-19.7 -30.97,-43.1 -35.42,-65.5 -0.99,-5 5.64,-9.7 10.02,-5.3"
         style="fill:#000000;fill-opacity:1;fill-rule:nonzero;stroke:none"
         id="path14496" />
    </g>
    <g
       id="g14498"
       transform="matrix(0.1479,0,0,-0.1479,-108.38343,2567.4965)">
      <path
         d="m 4373.07,16214.6 c 33.91,7.9 46.75,54.7 44.53,81.8 -0.26,3.6 -5.58,3.5 -6.01,0 -1.87,-15.1 -5.67,-29.3 -13.96,-42.7 -7.89,-12.8 -22.48,-20.1 -30.01,-32.7 -2.01,-3.4 1.26,-7.4 5.45,-6.4"
         style="fill:#000000;fill-opacity:1;fill-rule:nonzero;stroke:none"
         id="path14500" />
    </g>
    <g
       id="g14502"
       transform="matrix(0.14348125,0,0,-0.14348125,-108.38343,2567.4965)">
      <path
         d="m 4219.5,16295.4 c -47.68,4.6 -97.7,-1.2 -145.55,-2.9 -47.13,-1.7 -94.26,-3.9 -141.4,-5.3 -95.76,-2.8 -191.56,-1.2 -286.94,7.1 -4.02,0.3 -3.88,-5.2 0,-5.6 95.31,-10.3 191.01,-13.5 286.94,-12.9 47.17,0.3 94.31,1.4 141.4,3.4 48.4,2.1 99.03,0.5 146.68,8.5 5.21,0.8 3.37,7.3 -1.13,7.7"
         style="fill:#000000;fill-opacity:1;fill-rule:nonzero;stroke:none"
         id="path14504" />
    </g>
    <g
       id="g14506"
       transform="matrix(0.1470875,0,0,-0.1470875,-108.38343,2567.4965)">
      <path
         d="m 3063.43,16260 c 1.88,4 5.24,8.9 10.68,7.8 1.2,-0.3 2.29,-0.6 3.25,-1.1 l 0.04,0 c 12.11,-5.5 11.09,-25.5 8.7,-38.4 -11.93,-0.5 -23.68,1 -32.84,8.9 3.55,7.6 6.65,15.2 10.17,22.8 z m 1.22,-53.2 c 16.14,-8.6 35.99,-12.5 53.78,-12 4.24,0.1 9.52,2.8 10.19,7 4.64,29.5 -4.68,54.4 -23.43,70.9 -5.19,7.9 -12.96,14.3 -24.17,17.8 -2.03,0.6 -4.08,0.9 -6.15,1 0.8,0.4 1.57,0.8 2.33,1.1 3.68,1.6 1.06,7.4 -2.79,6 -4.94,-1.7 -9.59,-3.8 -13.94,-6.1 -8.8,1.3 -18.2,1.7 -28.15,0.9 -7.24,-0.6 -11.16,-4.6 -12.05,-10.9 -2.92,-19.9 -2.26,-42.7 12.75,-58.9 8.59,-9.2 19.61,-14.3 31.63,-16.8"
         style="fill:#000000;fill-opacity:1;fill-rule:nonzero;stroke:none"
         id="path14508" />
    </g>
    <g
       id="g14510"
       transform="matrix(0.14625375,0,0,-0.14625375,-108.38343,2567.4965)">
      <path
         d="m 3051.03,16168.5 c 7.82,42.9 19.14,85.2 29.79,127.6 0.7,2.8 -3.74,3.9 -4.71,1.2 -16.96,-47.3 -35.32,-93.9 -44.1,-143.2 -5.71,-32.2 -16.73,-97.7 13.72,-122.6 3.57,-3 9.12,-0.9 9.35,3.5 0.94,17.9 -8.59,36.5 -10.25,54.7 -2.37,26.2 1.54,53 6.2,78.8"
         style="fill:#000000;fill-opacity:1;fill-rule:nonzero;stroke:none"
         id="path14512" />
    </g>
    <g
       id="g14514"
       transform="matrix(0.14611375,0,0,-0.14611375,-108.38343,2567.4965)">
      <path
         d="m 3085.94,16176.4 c -5.55,41.1 -1.77,82.8 10.49,122.6 0.21,0.7 -0.93,1 -1.16,0.3 -15.15,-40 -20.16,-80.7 -18.42,-122.9 1.54,-37.1 6.82,-83.5 29.24,-115.2 3.11,-4.4 9.8,-1.5 8.92,3.4 -7.01,37.8 -23.86,73.1 -29.07,111.8"
         style="fill:#000000;fill-opacity:1;fill-rule:nonzero;stroke:none"
         id="path14516" />
    </g>
    <g
       id="g14518"
       transform="matrix(0.1460225,0,0,-0.1460225,-108.38343,2567.4965)">
      <path
         d="m 3114.36,16297.4 c -1.47,2.6 -5.45,0.3 -4.22,-2.2 20.77,-42.9 30.87,-86.8 34.41,-133.4 2.64,-34.8 -5.62,-76.2 5.79,-109.3 1.63,-4.7 8.96,-4.7 10.59,0 12.34,35.9 2.31,84.6 -3.17,121.5 -6.46,43.3 -21.21,84.7 -43.4,123.4"
         style="fill:#000000;fill-opacity:1;fill-rule:nonzero;stroke:none"
         id="path14520" />
    </g>
    <g
       id="g14522"
       transform="matrix(0.146005,0,0,-0.146005,-108.38343,2567.4965)">
      <path
         d="m 3142.42,16299 c -0.91,1 -2.65,-0.3 -1.95,-1.3 22.28,-32.6 31.81,-68.6 41.24,-105.4 10.13,-39.5 3.78,-79.6 11.78,-118.4 1.23,-5.8 9.96,-4.7 11.8,0 13.81,35.8 0.5,86.1 -8.13,122.2 -8.86,37.1 -28.43,73.5 -54.74,102.9"
         style="fill:#000000;fill-opacity:1;fill-rule:nonzero;stroke:none"
         id="path14524" />
    </g>
  </g>
</svg>
