<?xml version="1.0" encoding="UTF-8" standalone="no"?>
<!-- Created with Inkscape (http://www.inkscape.org/) -->

<svg
   xmlns:dc="http://purl.org/dc/elements/1.1/"
   xmlns:cc="http://creativecommons.org/ns#"
   xmlns:rdf="http://www.w3.org/1999/02/22-rdf-syntax-ns#"
   xmlns:svg="http://www.w3.org/2000/svg"
   xmlns="http://www.w3.org/2000/svg"
   xmlns:sodipodi="http://sodipodi.sourceforge.net/DTD/sodipodi-0.dtd"
   xmlns:inkscape="http://www.inkscape.org/namespaces/inkscape"
   width="49.88802mm"
   height="39.605915mm"
   viewBox="0 0 176.76857 140.33592"
   id="svg18006"
   version="1.1"
   inkscape:version="0.91 r13725"
   sodipodi:docname="globe.svg">
  <defs
     id="defs18008" />
  <sodipodi:namedview
     id="base"
     pagecolor="#ffffff"
     bordercolor="#666666"
     borderopacity="1.0"
     inkscape:pageopacity="0.0"
     inkscape:pageshadow="2"
     inkscape:zoom="0.35"
     inkscape:cx="-479.47288"
     inkscape:cy="-115.5463"
     inkscape:document-units="px"
     inkscape:current-layer="layer1"
     showgrid="false"
     fit-margin-top="0"
     fit-margin-left="0"
     fit-margin-right="0"
     fit-margin-bottom="0"
     inkscape:window-width="1366"
     inkscape:window-height="705"
     inkscape:window-x="-8"
     inkscape:window-y="-8"
     inkscape:window-maximized="1" />
  <metadata
     id="metadata18011">
    <rdf:RDF>
      <cc:Work
         rdf:about="">
        <dc:format>image/svg+xml</dc:format>
        <dc:type
           rdf:resource="http://purl.org/dc/dcmitype/StillImage" />
        <dc:title></dc:title>
      </cc:Work>
    </rdf:RDF>
  </metadata>
  <g
     inkscape:label="Layer 1"
     inkscape:groupmode="layer"
     id="layer1"
     transform="translate(-340.18717,-276.48)">
    <g
       transform="matrix(0.131985,0,0,-0.131985,-1633.9709,2368.5289)"
       id="g14726">
      <path
         inkscape:connector-curvature="0"
         id="path14728"
         style="fill:#000000;fill-opacity:1;fill-rule:nonzero;stroke:none"
         d="m 16070,15074.1 c -10.4,-22.4 -22.7,-43.7 -36.8,-63.8 -0.6,0.8 -1.7,1.2 -2.8,0.8 -14,-5.2 -27.3,-11.8 -40.7,-18.4 22.5,40.4 35.6,86.2 43.6,132.8 17.5,11.8 33.2,25.5 45.5,41.5 8.1,3.2 16,6.5 24.1,9.9 -6.8,-35.3 -17.5,-69.6 -32.9,-102.8 z m -152.9,-178.4 c -16.3,-11 -33.1,-20.9 -50.5,-29.8 8.9,6.4 17.8,12.9 26.4,19.7 30.7,23.6 58.5,50.1 80.6,81.6 18.1,8.8 36,18.8 51.2,31.4 -29.9,-39.9 -66.5,-74.7 -107.7,-102.9 z m -415.3,-60.9 c -13.7,9.3 -29.5,15.5 -45,21.6 -13.7,9.1 -26.4,19.3 -38,32.8 -8.5,10 -15.7,20.7 -22.2,32 14,-3.3 28.3,-6.4 42.2,-9.4 48.2,-10 97.1,-15.7 146.3,-17.7 5.6,-9.1 11.6,-18.2 18.2,-26.9 14.4,-19.2 32.4,-38.1 53.2,-52.5 -52.1,-1 -104.5,5.7 -154.7,20.1 z m -203.1,117.2 c 8.2,-3.5 16.5,-6.7 25,-9.7 7.6,-11.4 15.8,-22.3 24.9,-32.7 -17.6,13 -34.2,27.2 -49.9,42.4 z m -100.5,141.6 c -3,6.6 -5.9,13.3 -8.6,20.2 3.5,-1.2 7.2,-2.3 10.9,-3.3 3.4,-3.2 6.9,-6.2 10.3,-8.8 13.3,-10 28.4,-17.7 43.9,-24 3.8,-9.6 7.8,-19 12.1,-28.4 13.8,-29.6 28.1,-59.9 45,-88.3 -10,2.8 -19.9,5.5 -29.8,8.2 -34,36.7 -62.4,78.6 -83.8,124.4 z m -79.4,105 c -0.8,18.4 -0.4,36.8 1.1,54.3 2.9,34.5 9.2,68.7 17.7,102.4 -6.2,-56.1 -2.7,-113 9.7,-168.1 -9.6,3.5 -19.2,7.3 -28.5,11.4 z m 61.6,292.7 c 3.8,9.6 7.6,19.2 11.4,28.7 8.6,-26.2 29.3,-44.7 53.1,-58.5 -3.9,-16.5 -7.4,-33.1 -10.1,-49.8 l 0,0.7 c -0.1,0.8 -1.3,0.8 -1.3,0 0,-3.4 -0.1,-6.8 -0.2,-10.2 -4.4,-30.3 -6.3,-60.9 -5.6,-91.1 -36.2,14.6 -63.5,27.9 -60.6,33.7 0,0.3 -0.2,0.6 -0.4,0.5 -11.6,-3.7 1.9,-16.5 6.3,-19.7 16.6,-12.5 36.1,-21.6 55.4,-30.1 l 0,-1.3 c -1.1,-22.1 -1.9,-44.2 -1.7,-66.4 0.2,-21.1 1.9,-41.7 4.9,-62.1 -21.5,3.7 -42.8,8.5 -63.7,14.8 -7.1,29 -11.6,58.5 -13.8,88.2 -5.5,74.6 9.7,150.1 26.3,222.6 z m 261.7,305.6 c 20.8,8.4 42.2,15.1 63.9,20.6 -25.4,-10.2 -49.3,-24.1 -71.4,-40.9 -6.8,2.5 -13.7,4.8 -20.7,6.9 -0.7,0.2 -1,-0.8 -0.4,-1.2 5,-3.4 10.3,-6.6 15.8,-9.7 -41.9,-33 -77.4,-76 -105.6,-122.2 -1.9,-3 -3.7,-6.3 -5.5,-9.4 -4.7,3.8 -9.2,8 -13.4,12.3 -7.7,7.9 -14.7,16.7 -20.5,26.1 41.5,50.4 93,91.7 157.8,117.5 z m 467.8,-59.5 c 36.4,-29.3 67.5,-63.8 93.8,-101.8 -1.3,-17.1 -6.4,-32.8 -14,-47.1 -23,52.1 -52.5,101.5 -90.5,142.5 -28.3,30.4 -62.7,53.2 -100.2,70 39.6,-15.4 77.1,-36.5 110.9,-63.6 z m 127.4,-586.8 c 1.8,0.8 3.7,1.5 5.6,2.2 -2,-1.7 -4,-3.4 -6,-5 0.1,1 0.2,1.9 0.4,2.8 z m -89.9,-50.6 c 0.3,5.1 0.7,10.4 0.9,15.5 8.9,3.4 17.9,6.8 26.6,10.6 14.3,5.8 28.9,11.5 43.6,17.4 -0.3,-3.3 -0.8,-6.6 -1.4,-9.9 -21.5,-13.8 -45.6,-24.6 -69.7,-33.6 z m -3.8,-129 c -7.2,-3.1 -14.4,-5.8 -21.8,-8.5 2,5.6 3.8,11 5.3,16 10.4,33.8 16.1,69 19.2,104.5 21.8,7.8 44.9,17.7 66.8,30.1 -9.8,-47.8 -25.7,-94 -52,-134.4 -5.8,-2.7 -11.6,-5.3 -17.5,-7.7 z m -30.3,-29.9 c 9.7,3.7 19.4,7.6 29,11.8 -3.2,-4 -6.6,-8 -10.3,-11.9 -11.5,-12.4 -24.1,-23.9 -37.2,-34.6 7.1,11 13.3,22.8 18.5,34.7 z m -265.2,-47.7 c 9.3,0.1 18.5,0.5 28,0.9 2.7,-25.6 5.4,-51.4 8.1,-77.1 -12.7,6.1 -24.7,13.6 -36.2,23.6 -17.4,15.1 -31.9,33.3 -44.5,52.7 14.9,-0.3 29.7,-0.4 44.6,-0.1 z m -59.5,25 c -19.6,35.3 -34.5,73.1 -46.6,111.9 25.9,-0.6 51.7,-0.4 77.5,0.2 13.5,0.3 27.3,0.8 41,1.5 4.5,-39.5 9,-79 13.5,-118.5 -8.7,-0.5 -17.2,-0.7 -25.9,-0.9 -18.9,-0.4 -37.7,-0.2 -56.5,0.5 -1,1.8 -2,3.6 -3,5.3 z m -217.6,60.5 c -7.9,23.2 -14.2,47.1 -18.9,71.1 56.9,-11.7 115.3,-17.4 173.6,-19.3 0,-0.1 0,-0.2 0.1,-0.3 12.4,-39.8 27.4,-79.5 47.6,-116.4 -43.6,2.4 -86.9,7.7 -129.9,14.8 -19.3,3.3 -38.2,7.5 -57.1,12.1 -5.8,12.5 -11,25.2 -15.4,38 z m -132.5,297 c 0.1,0.6 0.2,1.1 0.1,1.7 -0.1,4.5 -0.3,9.1 -0.4,13.6 2.1,-0.9 4.2,-1.8 6.3,-2.7 23.5,-10.5 47.7,-20.1 72.4,-29 1.1,-26.2 2.5,-52.4 4.1,-78.3 0.6,-8.7 1.1,-17.3 1.7,-26 -10.1,1.1 -20.4,1.9 -30.6,2.9 -14.9,1.3 -30,3 -45.2,5.2 -6,37 -7.7,74.7 -8.4,112.6 z m 42,168.7 c 13.1,-5.2 26.4,-9.6 40.1,-13.4 -1.2,-11 -2.2,-22.1 -2.9,-33.2 -2.8,-39.6 -2.7,-79.5 -1.5,-119.6 -25,8.7 -53.1,18.8 -78,28.6 -0.2,1 -0.2,2 -0.2,3 0.3,48.2 7.2,97.2 19.4,144.9 7.6,-3.9 15.4,-7.2 23.1,-10.3 z m 172.1,316.1 c -29.6,-33.2 -54.4,-70.6 -73.9,-111.4 -5.6,-11.7 -10.6,-23.5 -15.4,-35.5 -11.8,5.3 -23.3,11.7 -33.9,19 0.6,1 1.2,2.1 1.8,3.2 28.7,49.5 66.2,95.6 111.3,129.6 3.4,-1.7 6.8,-3.4 10.1,-4.9 z m 5.9,6.5 c -2.9,1.2 -5.9,2.4 -8.9,3.6 10.5,7.5 21.4,14.4 32.8,20.4 -8.4,-7.7 -16.2,-15.7 -23.9,-24 z m 301.9,1.3 c -1.3,-1.9 -2.6,-3.9 -3.9,-5.7 -9.4,-13.7 -23,-24.1 -37.9,-31.5 -6.4,-3.2 -13.1,-5.8 -20,-7.8 -6.1,10.7 -12.5,21.4 -18.8,32 -3.2,5.5 -26,46.1 -46.4,69.8 0.7,2.3 0,5.1 -1.8,7 4.7,0 9.3,-0.1 13.9,-0.3 42.7,-13.2 81.6,-34.8 114.9,-63.5 z m 6.6,10.8 c -19.3,15.6 -40.3,28.3 -62.8,38.4 20.4,-5.6 40.8,-11 60.6,-18.2 3.1,-1.2 6.1,-2.4 9.2,-3.7 -1.3,-3.6 -2.5,-7.2 -4,-10.6 -1,-2 -2,-3.9 -3,-5.9 z m 78,-94 c -13.3,22.7 -28.7,44.2 -46.2,63.8 -6.4,7.1 -13.2,13.8 -20.2,20.2 3.7,6.5 7,13.9 8.8,20.8 30.1,-13.6 57.9,-31.8 82.5,-53.9 -8.5,-17.2 -14.5,-34.8 -24.9,-50.9 z m 70.4,-169 c -2.3,-1.3 -4.5,-2.6 -6.8,-3.8 -5.1,23 -10.9,46 -18.1,68.6 -9.6,30.4 -21.7,60.2 -36.8,88.5 13.4,17.2 24.3,38.2 24,59.2 3.3,-3.1 6.6,-6.2 9.7,-9.5 39.6,-41 69.4,-93.1 91.8,-147.5 -16.2,-22.1 -38.9,-40.5 -63.8,-55.5 z m 81,56.4 c 8.8,14.4 14.8,30.1 17.5,47.3 36.9,-57.7 62.9,-122.8 78.8,-189.9 -1.7,-18.6 -2.6,-36 -12.3,-54.1 -8.3,-15.4 -20.2,-28.4 -33.6,-39.7 -1.7,54.5 -8.5,108.5 -24.2,161.6 -7.3,25.1 -16,50.2 -26.2,74.8 z m 15.9,-100 c 12.9,-48.3 18,-98.5 18.7,-148.8 -2,-1.4 -3.9,-2.8 -5.9,-4.1 -25.2,-17.2 -53,-30.7 -81.7,-41.9 -2.7,29 -6.1,57.9 -10,86.6 -6.1,44.7 -12.4,89.2 -21.4,133.1 28.4,16 54.3,35.5 73.2,59.2 10.7,-28 19.8,-56.4 27.1,-84.1 z m -197.2,-330.4 c 0.5,26.5 0.1,53.1 -1,79.5 18.5,3.9 37,8.4 55.3,13.2 19.4,5.1 39.1,10.9 58.7,17.6 2.1,-29.3 3.2,-58.6 3.4,-87.9 -38.3,-9.6 -77.2,-16.9 -116.4,-22.4 z m 114.5,-44.2 c -0.1,-1.5 -0.3,-3 -0.3,-4.5 -38.5,-13.1 -78.1,-22.8 -118.3,-29.7 0.3,4 0.7,8.2 1,12.3 40,7.9 79.4,18.9 118.2,32.7 -0.3,-3.5 -0.3,-7.2 -0.6,-10.8 z m -139.2,-53.4 c -3.2,-31.4 -8,-62.7 -15,-93.3 -2.1,-9.6 -4.6,-19.2 -7.3,-28.6 -25.9,-4 -52.2,-6.8 -78.6,-8.3 -4.3,39.5 -8.8,78.9 -13.3,118.4 38.1,2.2 76.3,6 114.2,11.8 z m -117.3,16.1 c 40.5,0.9 80.5,4.9 119.8,11.8 -0.3,-3.9 -0.7,-7.9 -1,-11.9 -39,-6 -78.3,-9.8 -117.5,-11.9 -0.5,4.1 -1,8 -1.3,12 z m -141.6,5.7 c 40.2,-3.6 80.4,-5.7 120.6,-5.9 1.7,0 3.4,0.1 5.1,0.1 0.5,-4.2 1,-8.5 1.4,-12.7 -16.5,-0.8 -33.1,-1.3 -49.6,-1.6 -23.9,-0.4 -47.9,-0.4 -71.9,0.2 -1.9,6.7 -3.8,13.3 -5.6,19.9 z m -55.6,6 c 13,-1.7 25.9,-3.1 38.8,-4.4 2.1,-7 4.1,-14.1 6.1,-21 -57.4,2 -115.2,7.6 -171.5,18.2 -1.1,6.9 -2.2,13.6 -3.2,20.4 43.2,-4.2 86.7,-7.8 129.8,-13.2 z m -102.6,523.5 c 30.4,-13.5 63.2,-21.7 96.4,-26.8 -6,-46.4 -7.8,-93.1 -7.6,-137.1 0,-2.5 0.1,-5.1 0.1,-7.6 -24.5,1.3 -49.2,3.7 -74,7.2 -14.9,2.1 -31.9,4.6 -49.9,8.1 6,53.2 16.8,105.5 35,156.2 z m 132.7,142.1 c 3.5,-1.4 7,-2.7 10.7,-4.1 -23.2,-45.9 -37,-97.4 -44.8,-149.7 -10.9,1.6 -21.6,3.4 -32.3,5.6 -20.5,4.3 -41.6,10 -61.9,17.8 8.6,22.6 18.9,44.8 30.8,66.6 16,29 34.5,56.2 55.4,81.2 14.1,-6.1 28.4,-11.8 42.1,-17.4 z m 106.2,-16.9 c -2,33.6 -3.8,67.2 -5.5,100.8 5.8,-0.1 11.4,-0.4 17.3,-0.9 19.2,-26.9 46.6,-76.5 59.8,-100.8 -23.7,-3.9 -48.6,-2.3 -71.6,0.9 z m 78.7,-14.3 c 13,-24.9 27.3,-49.6 37.1,-76 2.6,-7.2 5.1,-14.6 7.5,-21.9 -36.7,-13.7 -76,-21.5 -114.3,-26.1 -3.2,41.9 -5.9,83.8 -8.3,125.6 4.2,-0.6 8.3,-1.2 12.7,-1.7 21.4,-2.6 43.6,-2.7 64.8,1.2 0.2,-0.4 0.5,-0.8 0.5,-1.1 z m 97.9,-243.7 c -6.3,37.6 -14.1,75 -23.9,111.5 -2.1,8.1 -4.5,16.1 -7.1,23.8 30.4,13.6 58.4,31.6 81.7,55 1.4,1.4 2.8,2.9 4.2,4.4 24,-48.2 39.2,-101.1 50.5,-153.3 -33.3,-17.7 -69,-30.7 -105.4,-41.4 z m 20.5,-168.2 c -4.3,51.3 -9.9,103 -18.2,154.2 3.1,0.9 6,1.8 9,2.6 30.2,9.2 64.7,21.5 97.2,38.1 12.6,-61.7 20.1,-124.5 26.4,-187 1,-10.4 2,-20.8 2.8,-31.2 -25.3,-8.9 -51.4,-16.2 -77.2,-22.7 -12,-3 -24.1,-5.8 -36.2,-8.4 -0.9,18.2 -2.1,36.3 -3.8,54.4 z m -128,-73.9 c -8.7,-0.7 -17.7,-1.2 -26.5,-1.6 -3.4,31.1 -6.8,62.2 -10,93.2 -3.7,34.6 -6.9,69.2 -10.2,103.7 46.6,5.9 92.7,15.2 138,27.6 11,-68.5 18.1,-138 21.3,-207.2 -37.3,-7.2 -74.9,-12.6 -112.6,-15.7 z m -62.3,193.4 c 3.1,-34 6.5,-67.9 10,-101.8 3.2,-31.3 6.6,-62.5 10.1,-93.8 -47.7,-1 -95.3,2.8 -142.3,10.7 -9.9,59.6 -16.6,120 -18.6,180.3 47.1,-2.1 94.2,-0.4 140.8,4.6 z m 3.5,150.6 c 40.3,3.8 81,12.2 118.5,26.4 10.2,-34.6 18.1,-70 24.5,-105.4 1.7,-9.3 3.3,-18.7 4.8,-28 -13.9,-3.7 -28,-7.3 -42.1,-10.5 -31.5,-7.2 -63.1,-12.8 -94.8,-16.9 -4.1,44.8 -7.6,89.5 -10.9,134.4 z m -21.2,145.5 c 0.6,-43.2 2.3,-86.2 4.7,-129.2 -39.8,-3.8 -80.3,-3.6 -120,1 7,50.3 19.5,101.5 40.9,147.8 24.2,-8.5 49.1,-15.2 74.4,-19.6 z m 1.3,111.5 c -1.1,-33 -1.7,-66.1 -1.4,-99.2 -23.6,4.1 -46.6,10.5 -69.4,17.7 14.8,29.9 33.7,57.6 57.4,81.2 4.4,0.2 8.9,0.4 13.4,0.3 z m -121,-278.5 c 0.5,7.8 1.5,15.8 2.4,23.7 13.8,-1.7 27.4,-2.9 41.1,-3.7 26.2,-1.6 53.8,-1.7 82,0.2 2.7,-45.1 6.3,-90 10.6,-135 -46.5,-5.2 -93.2,-7 -139.8,-5.1 -1.1,40 0,80 3.7,119.9 z m 33.3,-407.4 c -5.5,24.5 -10.4,49 -14.7,73.7 46.7,-7.3 93.8,-10.1 140.9,-8.9 2.7,-23.5 5.3,-47.2 8,-70.7 -29.3,-0.2 -58.4,0.6 -87.5,2.4 -15.6,1 -31.2,2.2 -46.7,3.5 z m 279.8,80.2 c 1,-25.4 1.4,-51.1 1,-76.9 -43.3,-5.3 -87,-8.4 -130.8,-9.1 -2.7,23.7 -5.3,47.3 -8,71.1 46.1,2 92.2,7.7 137.8,16.5 l 0,-1.6 z m -23,541.8 c 15.9,-15.3 30.5,-32.2 43.3,-50.9 7.5,-10.9 14.5,-22.4 20.9,-34.2 -14.1,-16.5 -32.1,-29.7 -50.7,-40.7 -10.6,-6.3 -21.9,-12 -33.5,-16.9 -12.6,33.5 -28.6,64.9 -46.2,96 8.9,2.7 17.9,6.1 26.2,10.5 15.2,7.9 27.6,19.7 37.8,33.3 0.7,0.8 1.4,1.8 2.2,2.9 z m -260.7,46.4 c 21.9,8.6 45.1,14.3 69.3,16.6 -23.9,-22.7 -43.1,-48.9 -58.5,-77.5 -5.7,1.9 -11.1,3.7 -16.7,5.6 -12,3.9 -23.7,8.5 -35.3,13.3 12.9,14.8 26.6,28.8 41.2,42 z m -174,-377.6 c 41.1,-9.7 83.7,-14 125.5,-16.4 1.4,-58.9 7.1,-118.7 16.4,-177.8 -31.2,5.8 -62.1,13.5 -92.8,22.4 -6.8,2.1 -27.4,8.7 -53.3,17.5 -1.4,51.7 -0.7,103.4 4.2,154.3 z m -0.8,-233.2 c -1.1,20 -2.2,39.9 -2.8,59.9 33.1,-11.5 66.8,-21.5 100,-30.1 16.2,-4.1 32.5,-7.6 48.7,-10.6 4.4,-25.3 9.4,-50.4 15.1,-75.3 -52.9,4.7 -105.5,10.7 -158.4,15.9 -1.1,13.5 -1.9,26.9 -2.6,40.2 z m 564.9,-238.5 c -16.8,-5.6 -33.7,-10.7 -50.7,-15.3 -21,-5.6 -42.2,-10.3 -63.6,-14.1 10.3,36.1 16.6,73.5 21.1,110.2 0.5,3.8 1,7.7 1.4,11.6 40.3,7 80,16.4 118.6,29.1 -3.6,-40.5 -11,-80.8 -25.6,-118.7 -0.4,-0.9 -0.8,-1.9 -1.2,-2.8 z m 123.7,237.1 c -24.9,-8.6 -50.2,-16.2 -75.8,-23.1 0,4.9 -0.2,9.8 -0.2,14.8 -0.3,24.8 -1.7,49.8 -3.7,74.6 30.2,11.4 59.5,25.4 85.9,43.4 -0.4,-33.1 -2.5,-66.2 -5.2,-98.7 -0.4,-3.6 -0.7,-7.3 -1,-11 z m -777.8,277.5 c -23.7,13.2 -43.1,30.8 -53.1,55.1 23.1,54.7 51.7,106.6 88.1,151.6 6.7,-17.1 18,-31.5 31.5,-43.6 -28.6,-50.3 -51.5,-105.7 -66.5,-163.1 z m 77.4,154.2 c 11,-8.2 22.8,-15.2 34.7,-21.4 -18.9,-51.3 -30.6,-105.1 -37.2,-159.4 -21.2,4.8 -42.9,11.2 -62.4,20.3 15.1,56.4 37.5,110.9 64.9,160.5 z m -75.4,-530.5 c -7,2.9 -14,6.2 -20.9,9.8 6.3,-1.4 12.6,-2.8 19,-4 0.7,-2 1.2,-3.9 1.9,-5.8 z m 14.5,2.7 c 17.6,-3 35.3,-5.5 53.1,-7.6 4.4,-0.4 8.9,-0.9 13.3,-1.3 0.9,-6.3 1.8,-12.5 2.8,-18.7 -4.7,0.9 -9.5,1.9 -14.2,3.1 -17.4,4 -34.7,8.7 -51.4,14.6 -1.2,3.4 -2.5,6.6 -3.6,9.9 z m 69.6,-141.2 c -20.7,32.2 -36.3,68.4 -53.1,101.9 -2.3,4.6 -4.3,9.2 -6.4,13.8 11.2,-3.8 22.6,-7.1 33.7,-10.1 9.3,-2.5 18.6,-4.9 28.1,-7 5.1,-28.1 12.1,-55.9 21.3,-82.9 2.8,-8.1 6.1,-16.3 9.7,-24.8 -11.2,2.9 -22.3,6 -33.3,9.1 z m 36,-44.8 c -7.9,7.6 -15,15.6 -21.5,24.2 9.1,-2.8 18.6,-5.6 27.8,-8 7.3,-14.3 15.7,-28.4 25.4,-41.6 -11.1,7.4 -21.6,15.8 -31.7,25.4 z m 330.8,-92.8 c -2.6,25.9 -5.4,51.9 -8.2,77.8 23.5,1.7 46.9,4.2 70.3,7.7 -9.9,-29 -22.9,-56.8 -40.3,-81.8 -0.3,-0.3 -0.6,-0.7 -0.7,-1 -7,-1.1 -13.9,-2 -21.1,-2.7 z m 41.5,6.1 c 17,25.5 29.6,53.3 39.3,82.3 25.1,4.3 50,9.7 74.6,16.2 11.9,3.2 23.7,6.8 35.1,10.7 -5.8,-10.8 -12.7,-21.2 -20.7,-30.6 -12.4,-14.4 -28.7,-25.1 -43.2,-37.4 -2.2,-1.8 -0.7,-6.2 2.4,-6.1 -9.6,-6.3 -18.9,-12.8 -27.7,-19.7 -19.5,-6.3 -39.5,-11.5 -59.8,-15.4 z m 368.2,402.5 c -1.8,-0.8 -3.4,-1.6 -5.2,-2.3 0,0.7 0.2,1.5 0.3,2.2 1,6.1 1,11.9 0.4,17.9 -0.7,8.6 -12.2,8.5 -13.1,0 -1,-9.8 -3.1,-19.2 -5.9,-27.9 -14.4,-6.1 -28.9,-11.7 -43.6,-17.1 1.1,13.5 2,26.8 2.7,39.9 1.4,25.1 2.3,50.2 2.1,75.2 21.2,16.7 39.8,36.8 50.9,61.5 1.4,2.9 2.6,5.8 3.7,8.9 3.7,-21.4 6.3,-42.9 8,-64.3 2.4,-31.5 2.5,-63 -0.3,-94 z m 182.2,170.4 c -4.5,15 -12.3,29.3 -21.1,42.4 -11.6,17.6 -34,27 -52.8,35.9 -9.5,4.4 -18.9,7.4 -28.8,10.3 -6.1,1.8 -9.3,-5.3 -5.7,-9.3 24.9,-27.8 54.9,-50.6 66.8,-86.4 7.8,-23.8 4.1,-47.4 -8.8,-68.7 -23.8,-39.3 -69.3,-65.7 -113.6,-86.3 4.7,64.1 -1.4,129.7 -15.8,193.5 -17.6,78.8 -50.1,155.7 -96.7,221.9 -0.3,3.1 -0.6,6.3 -1,9.6 -0.6,4.9 -6.3,6.4 -9.3,4.4 -38.8,51.5 -86.9,95.8 -143.8,128.5 -136.3,78.4 -318.9,75 -458.6,6.6 -131.9,-64.7 -204.2,-197.7 -247.9,-331.8 -22.3,-68.2 -40.5,-138.3 -46.2,-209.8 -1.5,-17.2 -2,-35.3 -1.2,-53.3 -15.9,7.9 -31.1,16.8 -45.2,27.2 -42.8,31.3 -77.1,78 -82.9,129.7 -2.5,22.5 2,44.7 14.9,63.8 17.1,25 49.7,35.9 79.1,41.3 3.1,0.5 2.4,5.3 -0.7,5.2 -65.3,-3.9 -113.2,-39.7 -115,-103.4 -1.7,-62.5 34.6,-125.2 79.8,-168.6 24.1,-23.3 51.2,-41.8 80.3,-56.6 7.2,-22.9 18.6,-43.9 36.3,-61.3 7,-6.9 15.2,-12.6 23.6,-17.8 1.1,-0.7 2,1 0.9,1.7 -24.6,18.5 -39.9,43.6 -48.9,71.4 12.1,-5.7 24.6,-10.8 37.3,-15.4 14.2,-38.3 32.9,-75 56.3,-109.2 69.1,-101.3 173.9,-169.1 290.2,-199 0.1,0 0.3,0 0.3,0 0.1,-0.1 0.4,-0.1 0.5,-0.1 33.1,-8.5 67.2,-13.9 101.7,-16 23.6,-1.5 47.1,-1.3 70.4,0.5 l 0.3,-2.4 c 0.9,-9.3 14.2,-10.1 15.7,-2.3 8.4,-2.3 17,-3.7 25.9,-4 7,-0.2 8.3,10.5 1.7,12.3 -1.4,0.3 -2.6,0.7 -3.9,1 18.7,3 37.3,6.9 55.6,12 1.3,-1 3.1,-1.4 5.1,-0.5 3.1,1.4 6.3,3.1 9.4,4.7 91,28 173.6,81.7 234.2,157.2 50.2,62.7 79.2,134.5 91.7,209.7 8.5,3.8 16.8,7.7 24.9,11.6 54,26.3 114.1,62.6 139.1,117.2 12.1,26.5 14.1,54.8 5.9,82.6" />
    </g>
  </g>
</svg>
