<?xml version="1.0" encoding="UTF-8" standalone="no"?>
<!-- Created with Inkscape (http://www.inkscape.org/) -->

<svg
   xmlns:dc="http://purl.org/dc/elements/1.1/"
   xmlns:cc="http://creativecommons.org/ns#"
   xmlns:rdf="http://www.w3.org/1999/02/22-rdf-syntax-ns#"
   xmlns:svg="http://www.w3.org/2000/svg"
   xmlns="http://www.w3.org/2000/svg"
   xmlns:sodipodi="http://sodipodi.sourceforge.net/DTD/sodipodi-0.dtd"
   xmlns:inkscape="http://www.inkscape.org/namespaces/inkscape"
   id="svg2"
   version="1.1"
   inkscape:version="0.91 r13725"
   xml:space="preserve"
   width="115.36333"
   height="159.19154"
   viewBox="0 0 115.36333 159.19154"
   sodipodi:docname="home.svg"><metadata
     id="metadata8"><rdf:RDF><cc:Work
         rdf:about=""><dc:format>image/svg+xml</dc:format><dc:type
           rdf:resource="http://purl.org/dc/dcmitype/StillImage" /><dc:title></dc:title></cc:Work></rdf:RDF></metadata><defs
     id="defs6" /><sodipodi:namedview
     pagecolor="#ffffff"
     bordercolor="#666666"
     borderopacity="1"
     objecttolerance="10"
     gridtolerance="10"
     guidetolerance="10"
     inkscape:pageopacity="0"
     inkscape:pageshadow="2"
     inkscape:window-width="1920"
     inkscape:window-height="1017"
     id="namedview4"
     showgrid="false"
     inkscape:zoom="0.3776"
     inkscape:cx="361.9222"
     inkscape:cy="-273.32311"
     inkscape:window-x="1358"
     inkscape:window-y="-8"
     inkscape:window-maximized="1"
     inkscape:current-layer="g10"
     fit-margin-top="0"
     fit-margin-left="0"
     fit-margin-right="0"
     fit-margin-bottom="0" /><g
     id="g10"
     inkscape:groupmode="layer"
     inkscape:label="ink_ext_XXXXXX"
     transform="matrix(1.25,0,0,-1.25,-1020.1785,2018.1551)"><path
       inkscape:connector-curvature="0"
       id="path3212"
       style="fill:#000000;fill-opacity:1;fill-rule:nonzero;stroke:none"
       d="m 859.57727,1547.2662 c -6.351,-0.26 -12.712,-0.52 -19.041,-1.09 -4.542,-0.41 -9.367,-0.57 -13.986,-1.29 1.867,2.59 3.183,5.72 4.552,8.27 2.851,5.3 5.568,10.66 8.403,15.97 2.2,4.12 4.516,8.19 7.095,12.12 3.04,3.98 6.292,7.83 9.871,11.38 1.464,-1.61 3.156,-2.98 4.94,-4.25 0.942,-1.38 2.024,-2.69 3.132,-3.94 3.887,-4.39 8.726,-7.89 12.935,-12 6.473,-6.31 10.35,-14.83 16.269,-21.57 0.029,-1.04 0.587,-2.06 1.325,-3.01 -11.788,0.44 -23.74,-0.1 -35.495,-0.59 z m -33.648,11.4 c -0.453,3.44 -0.656,6.92 -0.812,10.38 -0.099,2.18 -0.123,4.37 -0.061,6.56 0.281,-0.01 0.555,-0.01 0.832,0.11 1.124,0.47 2.22,0.99 3.312,1.53 1.762,0.86 3.538,1.65 5.35,2.4 -0.007,-2.72 0.065,-5.42 0.306,-8.13 -1.584,-2.74 -3.116,-5.52 -4.629,-8.3 -1.37,-2.16 -2.722,-4.33 -4.034,-6.52 -0.098,0.67 -0.179,1.33 -0.264,1.97 z m 4.188,27.11 c 1.308,0.64 3.151,1.23 4.554,2.1 -0.073,-0.83 -0.034,-1.68 -0.056,-2.53 -0.027,-1.02 -0.04,-2.03 -0.051,-3.05 -1.843,-0.62 -3.503,-1.52 -5.186,-2.49 -1.075,-0.61 -2.136,-1.25 -3.219,-1.85 -0.411,-0.23 -0.735,-0.47 -1.042,-0.71 0.035,0.67 0.07,1.34 0.125,2.01 0.102,1.27 0.271,2.53 0.554,3.78 0.075,0.33 0.217,0.68 0.344,1.03 0.16,0.04 0.345,0.09 0.576,0.19 1.16,0.46 2.282,0.98 3.401,1.52 z m 27.314,-93.9 c 0.15,1.54 -0.076,3.17 -0.154,4.69 -0.113,2.19 -0.303,4.38 -0.553,6.57 -0.512,4.49 -0.793,9 -1.477,13.46 -0.013,0.08 -0.038,0.15 -0.068,0.21 0.708,-0.33 1.477,-0.54 2.272,-0.65 0.573,-1.03 0.692,-2.52 0.908,-3.62 0.445,-2.26 0.499,-4.58 0.668,-6.88 0.301,-4.08 0.343,-8.17 0.343,-12.26 0,-1.13 1.862,-1.13 1.862,0 0,4.43 -0.028,8.88 -0.427,13.29 -0.2,2.21 -0.578,4.45 -1.148,6.6 -0.263,0.99 -0.68,2.12 -1.543,2.79 1.114,-0.09 2.257,-0.05 3.339,-0.02 -0.994,-4.35 -0.529,-9.17 -0.214,-13.57 0.16,-2.23 0.467,-4.44 0.871,-6.64 0.203,-1.11 0.419,-2.27 0.835,-3.34 -1.558,-0.17 -3.115,-0.35 -4.669,-0.53 -0.282,-0.03 -0.563,-0.07 -0.845,-0.1 z m 8.16,24.42 c -1.451,-7.57 0.354,-16.29 3.871,-23.1 -1.467,-0.14 -2.93,-0.3 -4.393,-0.45 -0.21,1.22 -0.64,2.44 -0.922,3.63 -0.542,2.27 -0.859,4.6 -1.108,6.92 -0.45,4.21 -0.047,8.63 -1,12.79 1.185,0.04 2.369,0.12 3.552,0.21 z m 5.683,-22.44 c -3.662,7.15 -4.228,14.77 -4.892,22.5 0.756,0.06 1.513,0.12 2.269,0.17 -0.651,-3.78 -0.25,-7.47 0.397,-11.29 0.413,-2.43 0.958,-4.85 1.625,-7.23 0.404,-1.45 0.689,-3.1 1.282,-4.57 -0.195,-0.01 -0.388,-0.03 -0.582,-0.05 0.01,0.15 -0.015,0.31 -0.099,0.47 z m 1.346,9.81 c 0.207,-2.36 0.52,-4.73 1.082,-7.05 0.242,-1 0.473,-2.14 1.134,-2.91 -0.329,-0.03 -0.659,-0.06 -0.989,-0.09 -0.181,1.38 -0.71,2.77 -1.052,4.09 -0.552,2.12 -1.129,4.24 -1.657,6.36 -1.017,4.1 -1.545,8.31 -1.953,12.49 1,0.07 1.999,0.12 3,0.14 -0.054,-4.35 0.058,-8.7 0.435,-13.03 z m 32.73,34.57 c 1.686,-1.47 4.204,0.87 2.535,2.37 -0.722,0.72 -1.451,1.42 -2.182,2.13 -0.653,0.68 -1.293,1.37 -1.934,2.06 0.715,0.75 0.935,1.96 0.033,2.82 -0.514,0.49 -1.01,1 -1.496,1.51 -0.042,0.15 -0.113,0.3 -0.234,0.45 -1.289,1.61 -2.635,3.17 -4.013,4.7 -1.732,2.33 -3.356,4.73 -5.005,7.04 -3.289,4.61 -6.541,9.34 -10.627,13.38 -1.924,1.91 -4.059,3.69 -6.265,5.4 -0.007,0.3 -0.111,0.61 -0.356,0.9 -0.45,0.54 -0.929,1.05 -1.43,1.54 -3.626,5.05 -7.719,10.16 -13.661,12.07 -0.359,0.34 -0.718,0.67 -1.075,1.01 0.883,0.87 -0.505,2.17 -1.474,1.41 -0.114,0.1 -0.227,0.21 -0.341,0.32 -0.005,0.01 -0.01,0.01 -0.016,0.01 0.298,0.46 -0.308,1.04 -0.761,0.61 -0.058,-0.05 -0.114,-0.11 -0.171,-0.16 -0.089,0.01 -0.176,0.01 -0.263,0 -0.156,0.36 -0.702,0.59 -1.134,0.27 -3.946,-2.9 -7.157,-6.55 -9.996,-10.51 -0.058,-0.06 -0.118,-0.12 -0.175,-0.18 -3.665,-4.03 -6.457,-8.97 -9.168,-13.64 0.001,1.79 0.063,3.57 0.159,5.36 0.023,0.44 0.055,0.89 0.083,1.34 0.667,0.5 0.643,1.44 0.115,1.89 0.046,0.74 0.093,1.47 0.124,2.21 0.073,1.69 0.351,3.52 -0.314,5.12 -0.122,0.3 -0.382,0.43 -0.639,0.42 -1.844,0.42 -3.894,-0.91 -5.377,-1.83 -1.039,-0.64 -2.059,-1.31 -3.11,-1.94 -0.299,-0.18 -0.605,-0.35 -0.914,-0.51 -0.175,0.29 -0.56,0.48 -0.918,0.37 -1.887,-0.58 -1.908,-4.2 -2.082,-5.69 -0.423,-3.62 -0.369,-7.29 -0.224,-10.92 0.149,-3.73 0.556,-7.43 1.23,-11.11 0.218,-1.2 0.441,-2.46 0.774,-3.69 -1.306,-2.24 -2.558,-4.5 -3.727,-6.81 -0.234,0.04 -0.505,-0.05 -0.548,-0.3 -0.072,-0.39 -0.133,-0.79 -0.197,-1.19 -1.668,-3.42 -3.148,-6.92 -4.331,-10.57 -0.637,-1.97 1.847,-3.05 3.297,-2.2 -0.094,-5.41 0.136,-10.84 0.313,-16.22 0.171,-5.14 0.321,-10.28 0.4,-15.42 0.033,-2.21 -0.228,-5.3 0.573,-7.4 0.409,-1.07 0.867,-2.07 2.264,-1.83 0.561,0.1 0.939,0.58 1.113,1.04 1.501,4.01 0.666,9.17 0.512,13.35 -0.168,4.56 -0.387,9.12 -0.603,13.68 -0.274,5.79 -0.55,11.62 -1.144,17.41 0.572,0.96 1.023,1.96 1.381,2.78 0.262,0.6 0.525,1.22 0.783,1.85 4.809,-0.17 9.739,0.29 14.49,0.39 6.352,0.14 12.698,0.41 19.048,0.58 12.957,0.34 25.997,0.07 38.936,0.73 0.586,-8.09 2.423,-16.13 3.631,-24.15 1.294,-8.61 2.186,-17.32 2.379,-26.02 -0.285,0.35 -0.729,0.59 -1.342,0.59 -8.496,-0.03 -17.004,-0.48 -25.486,-1.19 -0.021,1.15 -0.571,2.16 -0.872,3.32 -0.599,2.31 -0.824,4.69 -1.02,7.05 -0.373,4.5 -0.357,9.02 -0.442,13.53 -0.011,0.56 -0.506,1.07 -1.129,1.05 -3.18,-0.09 -6.338,-0.53 -9.498,-0.84 -2.607,-0.26 -6.615,-0.98 -9.061,0.2 -0.488,0.23 -1.083,-0.39 -0.615,-0.75 0.149,-0.11 0.302,-0.22 0.458,-0.31 -0.384,-0.02 -0.805,-0.31 -0.861,-0.71 -0.627,-4.39 -0.182,-8.85 0.068,-13.27 0.123,-2.19 0.302,-4.38 0.447,-6.57 0.109,-1.64 -0.025,-3.39 0.245,-5.03 -5.018,-0.59 -10.04,-1.14 -15.083,-1.49 -6.214,-0.44 -12.056,0.43 -18.206,0.88 -0.281,0.02 -0.305,-0.32 -0.127,-0.44 4.519,-3.24 11.363,-3.25 16.804,-3.31 6.603,-0.08 13.134,0.75 19.672,1.51 14.804,1.73 29.778,3.04 44.706,3.05 0.814,0 1.333,0.42 1.569,0.96 0.668,-1.09 2.835,-0.86 2.85,0.7 0.078,8.81 -0.761,17.51 -2.108,26.22 -1.229,7.94 -2.613,16.09 -5.206,23.79 1.92,-1.79 3.99,-3.44 5.969,-5.17" /><path
       inkscape:connector-curvature="0"
       id="path3214"
       style="fill:#000000;fill-opacity:1;fill-rule:nonzero;stroke:none"
       d="m 822.66927,1599.0862 c 1.869,-0.19 3.341,-1.47 5.197,-1.81 -0.641,-1.83 -1.81,-2.73 -3.829,-3.44 -0.351,-0.12 -0.212,-0.64 0.159,-0.53 2.493,0.74 3.906,1.84 4.707,4.21 0.099,0.29 -0.162,0.52 -0.444,0.55 -1.723,0.19 -3.01,1.3 -4.536,1.87 3.059,2.51 6.484,4.63 9.957,6.6 0.661,0.38 0.228,1.47 -0.542,1.21 -1.196,-0.41 -2.507,-0.28 -3.798,-0.14 2.029,1.72 3.256,3.89 5.186,5.82 0.597,0.6 -0.356,1.5 -0.957,0.9 -2.251,-2.24 -3.529,-4.94 -6.384,-6.66 -0.584,-0.35 -0.349,-1.18 0.351,-1.21 0.955,-0.03 1.927,-0.18 2.893,-0.25 -3.005,-1.79 -5.896,-3.74 -8.397,-6.13 -0.408,-0.39 -0.079,-0.94 0.437,-0.99" /><path
       inkscape:connector-curvature="0"
       id="path3216"
       style="fill:#000000;fill-opacity:1;fill-rule:nonzero;stroke:none"
       d="m 857.15327,1562.7262 c -3.597,-0.59 -7.124,-1.38 -10.652,-2.21 0.369,1.06 0.708,2.15 1.2,3.13 0.709,1.43 1.542,2.8 2.403,4.15 0.153,-1.84 0.561,-3.63 1.024,-5.49 0.147,-0.59 1.148,-0.34 0.979,0.26 -0.56,1.96 -1.139,3.95 -1.531,5.97 0.301,0.46 0.602,0.93 0.901,1.4 0.34,0.53 0.676,1.06 1.004,1.59 0.092,-2.95 0.998,-6 3.059,-8.13 0.464,-0.48 1.247,0.13 0.93,0.67 -1.75,2.98 -3.083,5.63 -3.113,8.91 1.199,2.08 2.207,4.2 2.742,6.51 1.418,-1.71 2.968,-3.31 4.546,-4.87 0,-0.06 0.01,-0.12 0.051,-0.18 1.508,-2.15 2.252,-4.65 3.215,-7.05 0.406,-1 0.826,-2.27 1.442,-3.37 -1.556,-0.15 -3.124,-0.4 -4.657,-0.67 0.23,0.16 0.35,0.44 0.153,0.74 -2.688,4.13 -3.782,8.6 -4.686,13.29 -0.042,0.22 -0.441,0.17 -0.415,-0.05 0.547,-4.79 1.1,-9.73 4.006,-13.84 0.094,-0.13 0.216,-0.21 0.345,-0.24 -1.005,-0.18 -1.993,-0.36 -2.946,-0.52 z m 8.726,6.61 0,-2.59 c -0.344,0.76 -0.659,1.53 -0.982,2.29 -0.39,0.92 -0.832,1.82 -1.331,2.69 0.786,-0.78 1.56,-1.58 2.313,-2.39 z m 1.434,-5.18 c -0.17,0.26 -0.347,0.52 -0.512,0.8 -0.261,0.43 -0.492,0.89 -0.712,1.35 0.107,0 0.213,0.06 0.213,0.19 l 0,2.38 c 1.357,-1.5 2.624,-3.07 3.725,-4.78 -0.886,0.08 -1.793,0.09 -2.714,0.06 z m -11.074,16 c 0.076,0.41 0.142,0.82 0.186,1.23 0.053,0.5 -0.777,0.58 -0.915,0.12 -1.343,-4.49 -4.332,-8.39 -7.075,-12.21 -2.148,-2.99 -5.716,-7.36 -5.116,-11.19 0.143,-0.92 1.578,-0.96 2.011,-0.25 0.291,0.47 0.529,0.99 0.742,1.51 3.85,-0.12 7.618,0.22 11.475,0.64 4.429,0.49 8.956,0.31 13.347,0.86 1.055,0.14 1.378,0.88 1.218,1.62 0.863,0.19 1.6,1.07 1.01,1.98 -3.922,6.11 -10.133,12.25 -16.883,15.69" /><path
       inkscape:connector-curvature="0"
       id="path3218"
       style="fill:#000000;fill-opacity:1;fill-rule:nonzero;stroke:none"
       d="m 833.74827,1532.1862 c 3.505,-1.1 7.165,-0.97 10.593,0.27 -0.169,-5.77 -2.374,-11.31 -0.877,-16.94 -1.334,0.16 -2.668,0.32 -3.992,0.53 -1.432,0.23 -2.537,0.57 -3.368,1.74 -3.141,4.41 -2.323,9.42 -2.356,14.4 z m -2.994,-8.79 c 0.18,-2.42 1.324,-5.02 2.609,-7.11 2.387,-3.89 7.917,-3.49 12.033,-4.05 1.443,-0.2 2.471,0.95 1.832,2.23 -3.204,6.43 0.709,13.51 0.133,20.22 -0.091,1.06 -1.238,1.81 -2.308,1.24 -3.557,-1.9 -7.723,-2.33 -11.505,-0.72 -1.623,0.69 -3.054,-1.38 -1.759,-2.25 -0.423,-3.2 -1.279,-6.3 -1.035,-9.56" /><path
       inkscape:connector-curvature="0"
       id="path3220"
       style="fill:#000000;fill-opacity:1;fill-rule:nonzero;stroke:none"
       d="m 881.90127,1534.8462 c 3.431,0.58 7.076,0.44 8.608,-3.03 1.514,-3.43 1.391,-7.55 1.523,-11.3 -3.642,0.02 -7.333,0.04 -10.946,-0.4 0.874,4.85 -0.891,10.08 0.815,14.73 z m -4.055,-15.71 c -0.393,-0.83 0.036,-2.21 1.271,-2.07 4.827,0.51 9.618,0.64 14.474,0.65 0.775,0.01 1.545,0.64 1.494,1.4 -0.324,4.8 -0.053,10.31 -2.58,14.66 -2.76,4.76 -9.052,4 -13.692,2.62 -1.398,-0.42 -0.825,-2.41 0.609,-2.07 0.51,0.13 1.042,0.25 1.583,0.36 -1.233,-1.37 -1.389,-3.66 -1.608,-5.31 -0.446,-3.36 -0.058,-7.07 -1.551,-10.24" /></g></svg>