<?xml version="1.0" encoding="UTF-8" standalone="no"?>
<!-- Created with Inkscape (http://www.inkscape.org/) -->

<svg
   xmlns:dc="http://purl.org/dc/elements/1.1/"
   xmlns:cc="http://creativecommons.org/ns#"
   xmlns:rdf="http://www.w3.org/1999/02/22-rdf-syntax-ns#"
   xmlns:svg="http://www.w3.org/2000/svg"
   xmlns="http://www.w3.org/2000/svg"
   xmlns:sodipodi="http://sodipodi.sourceforge.net/DTD/sodipodi-0.dtd"
   xmlns:inkscape="http://www.inkscape.org/namespaces/inkscape"
   id="svg2"
   version="1.1"
   inkscape:version="0.91 r13725"
   xml:space="preserve"
   width="125.83098"
   height="187.25659"
   viewBox="0 0 125.83098 187.25659"
   sodipodi:docname="map-marker.svg"><metadata
     id="metadata8"><rdf:RDF><cc:Work
         rdf:about=""><dc:format>image/svg+xml</dc:format><dc:type
           rdf:resource="http://purl.org/dc/dcmitype/StillImage" /><dc:title></dc:title></cc:Work></rdf:RDF></metadata><defs
     id="defs6" /><sodipodi:namedview
     pagecolor="#ffffff"
     bordercolor="#666666"
     borderopacity="1"
     objecttolerance="10"
     gridtolerance="10"
     guidetolerance="10"
     inkscape:pageopacity="0"
     inkscape:pageshadow="2"
     inkscape:window-width="1920"
     inkscape:window-height="1017"
     id="namedview4"
     showgrid="false"
     inkscape:zoom="0.26727079"
     inkscape:cx="656.39516"
     inkscape:cy="15.326787"
     inkscape:window-x="1358"
     inkscape:window-y="-8"
     inkscape:window-maximized="1"
     inkscape:current-layer="g10"
     fit-margin-top="0"
     fit-margin-left="0"
     fit-margin-right="0"
     fit-margin-bottom="0" /><g
     id="g10"
     inkscape:groupmode="layer"
     inkscape:label="ink_ext_XXXXXX"
     transform="matrix(1.25,0,0,-1.25,-1519.749,1515.4073)"><path
       inkscape:connector-curvature="0"
       id="path1124"
       style="fill:#000000;fill-opacity:1;fill-rule:nonzero;stroke:none"
       d="m 1307.4717,1125.9563 c -2.28,-5.308 -5.1,-10.406 -8.31,-15.199 0.33,0.621 0.66,1.242 1,1.851 2.45,4.442 4.83,8.918 7.31,13.348 z m -30.56,-40.969 c -1.48,-1.339 -3.07,-2.621 -4.66,-3.898 6.87,9.391 12.74,19.738 19.11,29.43 6.85,10.418 13.8,20.8 20.99,30.988 -0.78,-3.93 -1.89,-7.801 -3.29,-11.578 -3.08,-5.121 -5.97,-10.352 -8.9,-15.563 -2.53,-4.488 -5.58,-8.777 -8.28,-13.207 -4.73,-5.562 -9.57,-11.261 -14.97,-16.172 z m -6.04,-14.121 c -2.02,-0.258 -4.08,-0.379 -6.15,-0.367 0.22,0.277 0.46,0.527 0.69,0.801 1.82,-0.121 3.65,-0.242 5.46,-0.434 z m 6.15,-3.367 c -7.36,-2.57 -15.4,-4.191 -23.27,-3.84 5.35,0.469 10.58,2.129 15.74,4.239 2.69,0.308 5.28,0.39 7.53,-0.399 z m -22.41,1.77 c 5.42,-0.012 10.85,-0.172 16.25,0.289 -0.71,-0.301 -1.43,-0.602 -2.14,-0.891 -5.16,-0.68 -10.51,-1.809 -14.11,0.602 z m -1.39,1.218 c 0.09,0 0.17,0.012 0.25,0.012 0.47,-0.09 0.93,-0.172 1.4,-0.25 l -1.43,0 c -0.08,0.07 -0.15,0.16 -0.22,0.238 z m -9.62,18.27 c 5.5,6.711 11.72,12.691 17.36,19.281 5.63,6.578 10.73,13.969 17.78,19.141 3.54,1 6.86,2.469 9.88,4.359 -13.84,-15.719 -26.26,-32.601 -39.47,-48.859 -1.95,1.929 -3.8,3.961 -5.55,6.078 z m -7.73,10.601 c 8.7,8.629 17.43,17.18 25.33,26.559 1.19,-0.129 2.38,-0.219 3.56,-0.289 1.2,-0.059 2.39,-0.07 3.57,-0.031 -9.84,-10.25 -20.77,-19.547 -29.1,-31.129 -1.16,1.609 -2.27,3.238 -3.36,4.89 z m 25.66,110.78 c -7.16,-4.05 -14.89,-8.22 -21.45,-13.19 -5.42,-4.12 -10.07,-9.14 -15.11,-13.69 1.08,2.09 2.3,4.12 3.68,6.07 2.45,3.46 5.43,6.71 8.77,9.58 4.27,2.93 9.14,4.76 13.56,7.71 0.25,0.17 0.1,0.64 -0.21,0.51 -1.33,-0.54 -2.69,-1.14 -4.05,-1.78 6.15,3.33 12.93,5.35 19.8,5.4 0.02,-0.05 0.04,-0.08 0.1,-0.09 0.84,-0.12 1.68,-0.25 2.52,-0.4 -16.25,-11.54 -33.18,-22.4 -47.83,-35.97 0.9,2.87 2.01,5.67 3.36,8.36 5.01,4.15 9.68,8.65 14.75,12.76 6.89,5.59 16.02,8.2 22.55,14.16 0.31,0.28 -0.08,0.77 -0.44,0.57 z m 26.51,-6.29 c -2.36,-1.99 -4.87,-3.79 -7.4,-5.58 2.64,1.73 5.33,3.4 7.78,5.38 1.28,-0.71 2.54,-1.47 3.75,-2.29 -0.02,-0.01 -0.03,0 -0.05,-0.01 -4.34,-2.26 -7.72,-6.32 -11.78,-9.04 -0.34,-0.23 -0.03,-0.78 0.32,-0.56 4.18,2.6 8.18,5.81 12.05,8.84 0.11,0.08 0.15,0.18 0.16,0.28 1.93,-1.35 3.76,-2.86 5.44,-4.52 -0.06,0.01 -0.13,-0.01 -0.19,-0.05 -1.63,-1.04 -2.95,-2.92 -4.39,-4.23 -1.79,-1.64 -3.67,-3.19 -5.52,-4.78 -0.28,-0.24 0.12,-0.62 0.4,-0.4 1.74,1.39 3.5,2.76 5.22,4.17 1.55,1.29 3.95,2.86 4.78,4.74 0.03,0.07 0.04,0.15 0.03,0.22 1.09,-1.1 2.13,-2.27 3.1,-3.51 -1.31,-1.02 -2.33,-2.59 -3.32,-3.8 -1.74,-2.13 -3.58,-4.06 -6.1,-5.24 -2.46,2.27 -5.21,4.25 -8.15,5.89 4.13,1.99 8.21,5.16 11.33,8.43 0.19,0.19 -0.06,0.55 -0.29,0.38 -3.9,-2.77 -6.89,-6.43 -11.16,-8.74 -3.16,1.75 -6.51,3.1 -9.94,3.99 0.21,0.19 0.43,0.38 0.65,0.57 -0.24,-0.18 -0.47,-0.37 -0.71,-0.56 -0.28,0.08 -0.56,0.15 -0.84,0.22 -2.29,0.54 -4.62,0.88 -6.97,1.11 5.55,4.26 11.58,7.49 17.58,11.15 1.44,-0.63 2.85,-1.31 4.22,-2.06 z m 16.65,-15.68 c -1.76,-1.28 -3.17,-2.91 -4.53,-4.61 -1.22,-1.51 -2.51,-3.07 -3.51,-4.75 -1.16,1.48 -2.44,2.88 -3.81,4.19 2.15,0.97 3.85,2.42 5.46,4.17 0.93,1 1.81,2.06 2.74,3.07 0.43,0.48 0.92,0.91 1.38,1.35 0.19,-0.25 0.39,-0.5 0.57,-0.77 0.59,-0.86 1.16,-1.74 1.7,-2.65 z m -1.95,-37.688 c 4.33,4.437 7.36,10.82 9.75,16.519 0.36,-2.012 0.64,-4.031 0.83,-6.051 -4.14,-7.14 -8.96,-13.84 -13.75,-20.55 -5.62,-7.872 -10.83,-15.989 -16.24,-24 -5.24,-7.731 -11.25,-14.622 -17.76,-21.301 -4.74,-4.848 -9.63,-9.938 -12.24,-16.289 -1.12,0.949 -2.2,1.949 -3.26,2.968 13.77,17.032 26.6,34.883 40.98,51.422 5.58,4.2 9.78,10.039 11.69,17.282 z m 8.49,22.117 c -0.11,0.043 -0.23,0.019 -0.33,-0.09 -2.89,-3.039 -4.78,-6.828 -7.24,-10.188 -0.26,2.231 -0.76,4.399 -1.49,6.481 2.85,2.609 5.19,5.668 7.54,8.718 0.57,-1.61 1.07,-3.249 1.52,-4.921 z m -7.51,-10.797 c 2.76,3.238 4.7,7.09 7.68,10.187 0.3,-1.14 0.56,-2.3 0.8,-3.461 -3.77,-5.148 -5.3,-11.628 -9.14,-16.718 0.33,1.48 0.57,3 0.7,4.582 0.15,1.84 0.13,3.648 -0.04,5.41 z m 5.55,16.858 c -2.44,-3.089 -4.55,-6.428 -7.29,-9.28 -0.27,0.75 -0.59,1.488 -0.92,2.219 1.71,3.043 3.97,5.831 6.39,8.311 0.33,0.33 -0.18,0.85 -0.51,0.51 -2.45,-2.5 -4.52,-5.349 -6.03,-8.501 -0.57,1.223 -1.21,2.41 -1.92,3.551 1.48,1.35 2.78,2.85 4.05,4.41 1.22,1.49 2.54,2.85 3.85,4.25 0.88,-1.77 1.67,-3.6 2.38,-5.47 z m -2.84,6.39 c -3.06,-2.48 -5,-6.24 -7.77,-9.06 -0.58,0.9 -1.19,1.77 -1.85,2.61 2.93,2.78 5.03,6.37 8.29,8.87 0.46,-0.8 0.91,-1.6 1.33,-2.42 z m -81.13,-44.369 c 2.61,2.508 5.31,4.918 7.99,7.347 0.5,-1.468 1.05,-2.918 1.67,-4.308 -0.02,-0.012 -0.04,-0.012 -0.05,-0.02 -4.34,-4.492 -9.34,-8.371 -13.36,-13.16 -0.44,1.641 -0.84,3.289 -1.2,4.961 1.67,1.688 3.23,3.508 4.95,5.18 z m -6.69,6.621 c 4.88,3.719 8.15,8.976 12.02,13.656 0.13,-1.816 0.39,-3.75 0.76,-5.719 -3.48,-4.699 -7.58,-8.91 -12.3,-12.39 -0.19,1.48 -0.36,2.961 -0.48,4.453 z m 12.62,22.699 c -0.56,-2.723 -0.8,-5.492 -0.66,-8.211 0,-0.039 0.01,-0.082 0.01,-0.109 -3.93,-4.5 -7.25,-9.672 -12.03,-13.321 -0.17,2.399 -0.22,4.821 -0.17,7.231 4.93,4.18 9.02,9.187 12.85,14.41 z m -11.72,-3.062 c 3.2,2.461 6.16,5.441 9.18,8.07 4.16,3.601 8.05,7.621 11.31,12.061 0.03,0.03 -0.03,0.08 -0.06,0.05 -3.52,-4.3 -7.7,-7.85 -11.87,-11.49 -2.62,-2.281 -5.73,-4.461 -8.23,-7.02 0.37,1.758 0.82,3.5 1.34,5.219 15.66,13.041 32.44,24.441 49.04,36.221 0.95,-0.18 1.9,-0.39 2.84,-0.61 -6.13,-4.99 -11.22,-10.59 -18.34,-14.3 -0.12,-0.07 -0.1,-0.27 0.03,-0.3 3.25,-0.57 6.82,2.84 9.15,4.67 3.78,2.97 7.07,6.48 10.75,9.55 2.73,-0.72 5.42,-1.61 8.04,-2.68 -3.21,-1.87 -6.44,-3.7 -9.6,-5.67 -1.91,-1.2 -3.75,-2.5 -5.55,-3.87 -0.49,-0.37 -1.33,-1.35 -2.11,-2 -0.56,0.04 -1.13,0.08 -1.69,0.12 0,0.01 0,0.02 -0.01,0.04 0,0.05 -0.07,0.05 -0.08,0 l 0,-0.03 c -1.96,0.11 -3.93,0.16 -5.89,0.17 -0.59,0 -0.94,-0.37 -1.05,-0.82 -5.18,-0.48 -10.04,-2.01 -14.52,-5.68 -5.38,-4.42 -9.13,-10.88 -10.76,-17.721 l -0.01,0 c -3.95,-5.07 -8.14,-9.918 -13.02,-14.078 0.13,3.398 0.5,6.777 1.11,10.098 z m -0.17,-25.918 c -0.04,0.23 -0.06,0.461 -0.09,0.687 4.89,3.313 8.92,8.172 12.23,13.133 0.42,-2.121 0.98,-4.27 1.66,-6.383 -3.02,-2.519 -6.06,-5.019 -9,-7.637 -1.12,-0.992 -2.94,-2.269 -4.1,-3.742 -0.26,1.301 -0.5,2.621 -0.7,3.942 z m 2.62,-11.942 c 3.98,5.141 9.27,9.09 13.14,14.34 0.87,-1.918 1.87,-3.738 2.97,-5.367 -5.1,-4.524 -10.18,-9.16 -14.31,-14.613 -0.65,1.863 -1.25,3.742 -1.8,5.64 z m 2.18,-6.699 c 3.98,5.738 9.05,10.621 14.13,15.379 0.27,-0.379 0.54,-0.758 0.83,-1.117 0.97,-1.262 2.05,-2.364 3.2,-3.371 -6.05,-4.532 -12.52,-9.68 -15.88,-16.602 -0.81,1.883 -1.58,3.781 -2.28,5.711 z m 2.76,-6.789 c 3.09,7.078 9.83,12.527 15.51,17.59 1.26,-1.09 2.61,-2.031 4.03,-2.84 -5.58,-6.621 -13.69,-11.449 -17.25,-19.551 -0.8,1.59 -1.57,3.192 -2.29,4.801 z m 2.98,-6.121 c 3.13,8.441 11.61,13.582 16.74,20.762 2.05,-1.141 4.24,-2.043 6.51,-2.723 -6.77,-7.379 -16.51,-12.309 -21.55,-21.149 -0.58,1.032 -1.15,2.071 -1.7,3.11 z m 5.09,-8.731 c -0.92,1.442 -1.81,2.903 -2.67,4.371 4.92,9.122 15.05,14.27 21.54,22.192 2.32,-0.641 4.72,-1.082 7.14,-1.363 -8.18,-8.938 -16.97,-17.34 -25.56,-25.887 l -0.45,0.687 z m 41.04,28.961 c -9.7,-2.172 -21.3,-1.371 -29.85,3.981 -7.37,4.597 -9.79,13.758 -11.89,21.609 -3,11.231 0.07,21.44 7.73,30.05 4.28,4.8 9.99,6.64 15.98,7.54 8.07,-0.09 16.1,-1.06 23.47,-4.54 7.88,-3.72 14.09,-11.12 17.39,-19.108 3.3,-7.954 2.48,-17.024 -1.43,-24.571 -4.35,-8.383 -12.46,-12.953 -21.4,-14.961 z m -36.09,-36.191 c 8.34,11.82 19.6,21.082 28.89,32.109 3.1,0.121 6.13,0.571 9.04,1.321 -6.43,-4.789 -11.38,-11.379 -16.54,-17.43 -5.89,-6.91 -12.41,-13.168 -18.13,-20.231 -1.12,1.383 -2.21,2.793 -3.26,4.231 z m 73.7,61.812 c -5.94,-14.882 -18.08,-26.679 -27.4,-39.441 -9.6,-13.129 -22.77,-24.59 -30.01,-39.328 -0.95,0.68 -1.87,1.406 -2.76,2.156 3.35,7.313 9.81,13.082 15.33,18.75 5.61,5.762 10.59,11.973 15.13,18.602 5.16,7.539 10.05,15.25 15.35,22.699 4.89,6.871 9.87,13.691 14.17,20.949 0.12,-1.469 0.17,-2.93 0.19,-4.387 z m -45.79,-77.832 c -2.88,-1.078 -5.7,-2.058 -8.63,-2.898 -0.42,0.258 -0.83,0.519 -1.25,0.777 -0.28,0.172 -0.55,0.364 -0.82,0.543 3.7,7.528 9.08,14.008 14.56,20.34 5.68,6.57 11.08,13.149 16.2,20.168 8.95,12.301 20.51,23.481 25.74,37.961 0,-3.109 -0.21,-6.191 -0.64,-9.18 -0.13,-0.961 -0.3,-1.922 -0.47,-2.871 -7.09,-9.289 -13.77,-18.847 -20.25,-28.578 -7.66,-11.512 -16.1,-22.93 -22.89,-34.961 -0.52,-0.43 -1.04,-0.859 -1.55,-1.301 z m -18.05,-7.3 c 0.67,0.101 1.36,0.171 2.04,0.222 0.04,-0.062 0.08,-0.121 0.13,-0.172 -0.73,-0.01 -1.45,-0.031 -2.17,-0.05 z m 54,124.431 c -4.33,5.55 -9.82,9.79 -16.32,12.52 -4.94,2.07 -10.81,4.17 -16.44,4.24 -16.42,4.21 -32.7,-6.26 -42.8,-18.55 -3.36,-4.09 -5.94,-8.64 -7.86,-13.46 -0.06,-0.05 -0.13,-0.1 -0.19,-0.15 -0.04,-0.04 0,-0.11 0.04,-0.08 0.03,0.02 0.06,0.04 0.09,0.07 -3.05,-7.752 -4.4,-16.189 -4.48,-24.6 -0.03,-0.101 -0.03,-0.199 0,-0.3 -0.03,-4.239 0.26,-8.469 0.82,-12.578 0.64,-4.723 1.64,-9.313 2.94,-13.774 -0.11,-0.258 -0.01,-0.5 0.19,-0.648 3.09,-10.379 7.87,-20.102 13.88,-29.282 0.02,-0.089 0.07,-0.168 0.15,-0.226 0.79,-1.211 1.6,-2.422 2.44,-3.613 1.7,-2.418 3.5,-4.778 5.4,-7.059 0.02,-0.059 0.07,-0.121 0.13,-0.16 3.35,-4.012 7.03,-7.762 11.1,-11.031 0.8,-0.649 1.64,-1.258 2.48,-1.848 0.02,-0.031 0.04,-0.063 0.07,-0.09 -0.37,-0.012 -0.74,-0.012 -1.12,-0.019 -0.67,0 -0.81,-0.993 -0.16,-1.172 1.58,-0.43 3.18,-0.711 4.79,-0.93 0.73,-0.398 1.48,-0.77 2.24,-1.121 -1.63,0.141 -3.27,0.312 -4.91,0.422 -1.45,0.219 -2.88,0.48 -4.28,0.777 -0.43,0.094 -0.83,-0.308 -0.69,-0.707 -2.21,-0.133 -4.39,-0.5 -6.51,-1.351 -0.47,-0.18 -0.47,-1.008 0.13,-0.95 2.63,0.219 5.27,0.301 7.91,0.321 3.09,-3.012 7.54,-2.68 12.13,-2.02 -7.54,-2.621 -15.24,-3.851 -23.36,-1.262 -0.66,0.211 -0.91,-0.789 -0.28,-1.019 11.97,-4.379 25.66,-2.36 37.36,1.949 0.42,0.16 0.59,0.77 0.13,1.012 -1.9,1.019 -4.2,1.219 -6.65,1.09 0.73,0.308 1.45,0.64 2.18,0.961 0.18,0.078 0.25,0.207 0.26,0.347 0.05,0.012 0.09,0.012 0.13,0.02 0.55,0.133 0.57,1.019 0,1.133 -1.83,0.339 -3.68,0.546 -5.54,0.707 0.11,0.3 0.02,0.679 -0.38,0.793 -0.5,0.136 -0.99,0.257 -1.49,0.359 3.84,3.828 8.48,7.027 12.42,10.641 6.18,5.679 11.72,12.519 16.97,19.039 10.45,12.98 17.73,29.39 19.45,46.007 1.58,15.204 -2.88,33.412 -12.37,45.592" /><path
       inkscape:connector-curvature="0"
       id="path1126"
       style="fill:#000000;fill-opacity:1;fill-rule:nonzero;stroke:none"
       d="m 1280.6417,1198.2683 c -2.04,-1.33 -4.03,-2.71 -5.88,-4.28 1.92,1.48 3.9,2.88 5.88,4.28" /></g></svg>