<?xml version="1.0" encoding="UTF-8" standalone="no"?>
<svg
   xmlns:dc="http://purl.org/dc/elements/1.1/"
   xmlns:cc="http://creativecommons.org/ns#"
   xmlns:rdf="http://www.w3.org/1999/02/22-rdf-syntax-ns#"
   xmlns:svg="http://www.w3.org/2000/svg"
   xmlns="http://www.w3.org/2000/svg"
   version="1.1"
   id="svg19078"
   viewBox="0 0 162.89466 165.36057"
   height="46.668427mm"
   width="45.972492mm">
  <defs
     id="defs19080" />
  <metadata
     id="metadata19083">
    <rdf:RDF>
      <cc:Work
         rdf:about="">
        <dc:format>image/svg+xml</dc:format>
        <dc:type
           rdf:resource="http://purl.org/dc/dcmitype/StillImage" />
        <dc:title></dc:title>
      </cc:Work>
    </rdf:RDF>
  </metadata>
  <g
     transform="translate(-404.26701,-195.39621)"
     id="layer1">
    <path
       d="m 411.31301,355.81908 c -0.0725,-0.15 -0.15125,-0.2875 -0.225,-0.4375 0.78125,0.05 1.5825,0.025 2.38375,-0.0375 -0.7225,0.15 -1.44125,0.3 -2.15875,0.475 z m 2.46625,-28.7375 c -0.68375,0.5375 -1.30375,1.125 -1.86,1.7625 0.53125,-0.6875 1.15625,-1.275 1.86,-1.7625 z m 57.7975,-12.525 c 0.80625,-3.5 0.82,-7.325 1.30375,-10.7625 -0.3125,3.6 0.0975,7.25 -1.30375,10.7625 z m -62.12875,34.775 c 0.835,-4.775 2.51,-9.2875 5.37625,-13.1 -2.65625,5.575 -3.79375,11.7875 -1.1475,17.4875 -1.055,0.1625 -2.115,0.275 -3.15,0.3125 -0.53625,-1.4875 -0.86875,-3.0875 -1.07875,-4.7 z m 69.75625,-48.3875 c 3.87125,2.2875 7.915,2.9375 12.34375,3.375 0.54125,0.05 0.85875,-0.225 0.97125,-0.6 1.045,0.3 2.12375,0.525 3.2275,0.6625 1.90375,0.2375 3.755,0.0375 5.5175,-0.45 -1.3575,1.6375 -1.85,3.975 -1.46,6.2625 0.56625,3.325 2.96375,6.0125 5.45375,8.1 6.1625,5.175 14.22875,8.3625 21.91,10.5 3.6575,1.0125 7.48,1.6 11.245,2.375 4.50125,3.4125 7.1925,8.4875 8.19375,14.525 0.0725,0.45 0.76625,0.2625 0.6775,-0.1875 -1.235,-6.3375 -4.10625,-11.0125 -8.71,-14.3 3.79375,0.7875 7.51875,1.7625 10.96625,3.55 5.69375,2.9625 7.64125,9.275 9.6975,14.925 0.5275,1.4375 1.02,2.8875 1.5675,4.3125 -1.28875,-0.3875 -2.705,-0.525 -4.165,-0.8 -1.1425,-0.225 -2.29,-0.45 -3.4325,-0.6625 -0.03,-7.25 -4.10625,-13.7875 -9.165,-18.75 -0.0538,-0.0625 -0.1375,0.025 -0.0888,0.075 2.72,2.8875 5.025,5.9875 6.5675,9.6375 1.20625,2.8625 1.485,5.85 1.7925,8.8625 -1.9,-0.3625 -3.80375,-0.7375 -5.7075,-1.0875 -6.20625,-1.1875 -12.4275,-2.3 -18.6675,-3.2625 -13.0075,-2 -26.11375,-3.05 -39.2725,-2.7875 -10.195,0.2125 -20.435,1 -30.60125,2.1625 -7.81625,0.2625 -15.625,0.7875 -23.38375,1.8875 -4.40875,0.625 -8.72,1.75 -13.05625,2.75 -0.58125,-5.525 1.3475,-10.55 4.62875,-15.2 0.0888,-0.125 -0.11625,-0.2375 -0.205,-0.1125 -3.4475,4.6875 -5.46375,9.7875 -4.95625,15.4375 -0.3175,0.0625 -0.63375,0.1375 -0.95625,0.2125 -1.7725,0.3875 -3.75,0.8875 -5.7625,1.2375 -2.31875,-6.625 -1.1425,-13.1125 1.83625,-19.0375 1.18625,-1.3125 2.53875,-2.5375 4.0825,-3.6375 0.0588,-0.0375 0,-0.1375 -0.0637,-0.1 -1.3775,0.95 -2.6025,2 -3.71125,3.1375 1.08875,-2.075 2.3975,-4.0625 3.8425,-5.975 0.0838,-0.1 -0.1025,-0.2375 -0.185,-0.1375 -1.7925,2.225 -3.52,4.775 -4.9075,7.4875 -3.0225,3.6 -4.92125,7.8875 -5.98125,12.5 -0.1275,-1.425 -0.185,-2.8375 -0.23,-4.175 -0.0188,-0.7375 -0.0337,-1.5 -0.0337,-2.2875 0.67875,-3.675 1.875,-7.1625 4.0425,-9.9625 4.185,-5.425 11.915,-5.65 18.16,-5.55 1.79125,0.025 3.76875,0.15 5.86875,0.3125 1.22125,0.2125 2.43625,0.4125 3.6575,0.575 3.525,0.4875 7.06,0.5375 10.58125,0.25 10.75625,0.0375 21.07375,-2.175 24.2525,-13.2375 0.5475,-1.9 0.7425,-3.925 0.835,-5.8875 0.1225,-2.725 -0.0288,-4.875 -1.32375,-7.275 -0.34625,-0.625 -1.26875,-0.575 -1.625,-0.025 0.22875,-1.025 0.5075,-2.025 0.835,-3.0125 1.5525,1.2375 3.18375,2.375 4.8975,3.3875 z m -9.83,-16.725 c -6.3525,-8.4125 -10.58,-18.3 -13.26625,-28.4375 -0.61,-2.3125 -1.17125,-4.7 -1.655,-7.1125 0.9525,3.1125 2.00125,6.2 3.14,9.25 4.40375,11.7875 10.15125,23.8875 18.47625,33.575 -2.43625,-2.2125 -4.6825,-4.625 -6.695,-7.275 z m -16.16125,-55.375 c 0.53625,7.5125 4.17,14.85 8.05625,21.0625 0.01,0.9625 0.025,1.925 0.0588,2.8875 0.01,0.2375 0.34625,0.2375 0.35625,0 0.46375,-12.0625 0.9525,-24.125 4.30625,-35.475 -3.33,10.125 -4.76,20.8 -4.73125,31.6125 -3.69625,-6.6625 -7.07,-13.9 -7.5775,-21.575 -0.035,-0.5 -0.0437,-1 -0.04,-1.4875 0.025,-0.125 0.04,-0.25 0.0588,-0.375 1.045,-5.375 3.53125,-10.2375 7.02125,-14.275 0.465,-0.3875 0.93375,-0.7625 1.42625,-1.125 -0.43875,0.3125 -0.86375,0.625 -1.27375,0.9625 2.75375,-3.1375 6.1225,-5.75 9.8975,-7.675 0.57125,-0.3 1.1475,-0.5625 1.7275,-0.825 -2.915,4.7375 -5.005,9.675 -6.50875,14.7625 1.675,-5.0875 3.83375,-10.025 6.52375,-14.7625 17.84625,-7.775 41.49375,1.4625 49.0625,19.45 7.6225,18.1125 0.7525,38.975 -5.395,56.425 -3.55,10.075 -11.45,26.4125 -24.74625,20.4875 -2.02125,-0.9 -3.89625,-2.1 -5.645,-3.475 0.405,-0.0625 0.81125,-0.1125 1.20625,-0.175 -0.405,0.05 -0.82,0.1 -1.235,0.15 -3.0425,-2.4125 -5.69875,-5.375 -8.09625,-8.325 -4.84375,-5.9875 -8.8425,-12.775 -12.3775,-19.5875 -4.4925,-8.65 -8.125,-17.775 -10.80125,-27.1375 -0.56625,-1.9875 -1.09875,-4 -1.58125,-6.05 0,-1.8375 0.1075,-3.6625 0.3075,-5.475 z m 57.34875,84.625 c -0.0987,-0.075 -0.19625,-0.15 -0.29375,-0.225 -1.42125,-1.1875 -2.42125,-2.8 -3.305,-4.4 -0.60625,-1.1 -1.1625,-2.2375 -1.73875,-3.35 0.23875,-0.6125 0.34125,-1.25 0.5225,-1.9125 0.14625,-0.525 -0.0875,-1.05 -0.48375,-1.3625 0.25875,-0.1625 0.50875,-0.3125 0.7625,-0.475 0.35625,4.2375 1.9475,8.35 4.53625,11.725 z m 48.87625,27.7125 c 1.29375,2.5 2.065,5.2625 2.6225,8.0125 0.3175,1.55 0.4,3.1625 0.5075,4.75 -0.85,-3.25 -1.9825,-6.475 -3.05125,-9.6375 -0.92375,-2.725 -2.0075,-5.4875 -3.745,-7.8125 -4.14125,-5.5625 -11.67,-7.4625 -18.0375,-9.075 -3.59875,-0.9 -7.23625,-1.5125 -10.77125,-2.6375 -3.90125,-1.2375 -7.69125,-2.8375 -11.31375,-4.7375 -4.43875,-2.3125 -13.78875,-7.3125 -10.9525,-13.475 0.56125,1.4625 1.1375,2.9125 1.93375,4.275 1.43125,2.45 3.91625,5.0875 6.83125,5.7125 4.23875,3.725 9.61375,5.7125 14.95625,7.325 11.465,3.4375 24.95625,5.6125 31.02,17.3 z m 6.41625,4.925 c -0.80625,-3.4875 -2.26625,-6.8875 -4.2875,-9.85 -3.6225,-5.325 -9.0325,-8.725 -14.9075,-11.1125 -5.77625,-2.35 -11.91375,-3.6125 -17.875,-5.375 -5.37625,-1.5875 -11.035,-3.55 -15.1325,-7.5375 -3.345,-3.25 -4.795,-7.375 -5.89875,-11.725 0.82125,-0.65 1.6025,-1.3625 2.325,-2.1125 5.95625,-6.175 8.92125,-14.675 11.7575,-22.5875 3.33,-9.3125 5.90375,-18.9 6.9775,-28.75 1.025,-9.4125 0.24875,-19.05 -3.56875,-27.7875 -4.0775,-9.3375 -12.2025,-16.2625 -21.40625,-20.275 -18.38875,-8 -41.1525,-2.6 -51.085,15.6125 -0.8,1.475 -1.47875,2.9875 -2.055,4.525 -0.025,-0.75 -0.0437,-1.5 -0.0387,-2.25 0,-0.1375 -0.23,-0.175 -0.25375,-0.025 -0.27375,1.55 -0.435,3.1125 -0.50375,4.6625 -1.90875,6.3375 -2.21125,13.125 -1.79125,19.75 0.6,9.4625 2.86125,18.7375 6.36625,27.5375 3.49125,8.7625 8.27625,17.0125 14.7025,23.9625 1.31875,1.425 2.72,2.7625 4.19875,4.0125 -0.85375,1.6375 -1.5325,3.3625 -2.02625,5.15 -0.86875,3.1875 -1.19625,6.4875 -1.9825,9.6875 -0.67375,2.725 -1.7675,5.45 -4.09625,7.1875 -3.59875,2.675 -8.25625,3.3125 -12.6175,3.6125 -5.63,0.4 -10.98625,-0.2375 -16.5275,-1.2125 -5.26875,-0.9125 -10.66875,-1.925 -16.035,-1.2875 -4.9325,0.5875 -10.1425,2.9625 -12.89125,7.2875 -2.4175,3.8125 -2.8175,8.975 -2.915,13.35 -0.13125,5.7375 0.3275,12.7 3.28125,17.7875 0.99125,1.7 3.08125,1.2125 3.8725,-0.075 4.795,0.425 10.0875,-0.9625 14.62375,-1.3875 6.70875,-0.625 13.39375,-1.95 20.1075,-2.6875 13.79875,-1.5125 27.71,-2.825 41.59625,-3.15 12.92,-0.3125 25.825,0.8125 38.60375,2.6375 6.26,0.9 12.49,1.9875 18.71125,3.1125 3.07125,0.5625 6.1375,1.125 9.20375,1.7 2.9,0.5375 6.27875,1.8875 9.00875,0.4125 0.0825,0.2875 0.17125,0.5625 0.27375,0.8375 0.5275,1.3875 2.2025,1.3125 2.75375,0 1.67,-4.0125 0.48875,-9.4875 -0.46875,-13.6375"
       style="fill:#000000;fill-opacity:1;fill-rule:nonzero;stroke:none"
       id="path14152" />
    <path
       d="m 462.14801,210.09408 c 1.09875,-0.7625 2.275,-1.475 3.51625,-2.125 -1.245,0.625 -2.4225,1.3375 -3.51625,2.125"
       style="fill:#000000;fill-opacity:1;fill-rule:nonzero;stroke:none"
       id="path14154" />
    <path
       d="m 467.38301,207.10658 c -0.58625,0.275 -1.1575,0.5625 -1.71875,0.8625 0.57125,-0.2875 1.1475,-0.55 1.7425,-0.8 0.0437,-0.025 0.02,-0.0875 -0.0238,-0.0625"
       style="fill:#000000;fill-opacity:1;fill-rule:nonzero;stroke:none"
       id="path14156" />
    <path
       d="m 517.78801,267.70658 c 0.27375,-0.375 -0.3425,-0.7125 -0.61,-0.35 -7.6375,10.025 -13.585,22.6875 -25.70875,26.825 4.66875,-1.475 8.75,-3.9875 12.45625,-7.7375 5.46375,-5.5375 9.33625,-12.475 13.8625,-18.7375"
       style="fill:#000000;fill-opacity:1;fill-rule:nonzero;stroke:none"
       id="path14158" />
    <path
       d="m 486.99676,295.26908 c 1.5825,-0.2375 3.06625,-0.6 4.4725,-1.0875 -1.43,0.4625 -2.925,0.8125 -4.4725,1.0875"
       style="fill:#000000;fill-opacity:1;fill-rule:nonzero;stroke:none"
       id="path14160" />
  </g>
</svg>
