<?xml version="1.0" encoding="UTF-8" standalone="no"?>
<svg
   xmlns:dc="http://purl.org/dc/elements/1.1/"
   xmlns:cc="http://creativecommons.org/ns#"
   xmlns:rdf="http://www.w3.org/1999/02/22-rdf-syntax-ns#"
   xmlns:svg="http://www.w3.org/2000/svg"
   xmlns="http://www.w3.org/2000/svg"
   xmlns:sodipodi="http://sodipodi.sourceforge.net/DTD/sodipodi-0.dtd"
   xmlns:inkscape="http://www.inkscape.org/namespaces/inkscape"
   viewBox="0 0 2303.7935 970.87012"
   height="970.87012"
   width="2303.7935"
   xml:space="preserve"
   version="1.1"
   id="svg2"
   inkscape:version="0.91 r13725"
   sodipodi:docname="background-cloud2.svg"><sodipodi:namedview
     pagecolor="#ffffff"
     bordercolor="#666666"
     borderopacity="1"
     objecttolerance="10"
     gridtolerance="10"
     guidetolerance="10"
     inkscape:pageopacity="0"
     inkscape:pageshadow="2"
     inkscape:window-width="1920"
     inkscape:window-height="1017"
     id="namedview3948"
     showgrid="false"
     fit-margin-top="0"
     fit-margin-left="0"
     fit-margin-right="0"
     fit-margin-bottom="0"
     inkscape:zoom="12.113154"
     inkscape:cx="1394.2371"
     inkscape:cy="924.60083"
     inkscape:window-x="1358"
     inkscape:window-y="-8"
     inkscape:window-maximized="1"
     inkscape:current-layer="layer8" /><metadata
     id="metadata8"><rdf:RDF><cc:Work
         rdf:about=""><dc:format>image/svg+xml</dc:format><dc:type
           rdf:resource="http://purl.org/dc/dcmitype/StillImage" /><dc:title></dc:title></cc:Work></rdf:RDF></metadata><defs
     id="defs6"><clipPath
       id="clipPath20"
       clipPathUnits="userSpaceOnUse"><path
         id="path22"
         d="m 0,9 0,8001 12001,0 L 12001,9 0,9 Z"
         inkscape:connector-curvature="0" /></clipPath></defs><g
     inkscape:groupmode="layer"
     id="layer8"
     inkscape:label="fill"><path
       style="fill:#f7f0dd;stroke:none;stroke-width:1px;stroke-linecap:butt;stroke-linejoin:miter;stroke-opacity:1;fill-opacity:1"
       d="m 1360.1742,63.426863 16.511,-0.660439 1.9813,-1.651097 145.2966,-9.906586 13.2088,-0.990659 10.8972,-3.632414 3.9627,-3.632415 7.2648,-9.906586 3.9626,-7.595049 6.9346,-8.585708 6.9346,-2.641756 3.3022,-2.641756 6.2742,0.660439 6.9346,4.292854 5.2835,6.60439 3.3022,7.26483 1.3209,3.302195 18.1621,-7.595049 5.2835,-1.651098 6.9346,-0.990658 6.6044,2.641756 1.6511,6.274171 7.2648,3.302195 10.2368,-3.302195 9.2462,-2.641756 8.9159,1.651097 5.2835,1.651098 3.6324,2.641756 6.2742,3.302196 8.9159,2.311536 8.5857,-1.320878 8.2555,-5.613732 5.2835,-1.320878 8.5857,4.623073 3.3022,3.962635 0.6605,5.613732 3.6324,0.330219 6.9346,0.660439 31.0406,-1.981317 11.8879,0.990659 33.3522,-1.651098 23.4456,0.33022 0.6604,2.971975 -54.8164,0.33022 -37.9752,1.981317 -18.1621,2.311537 -12.5484,2.641756 -8.2554,3.632415 -20.1434,8.255488 -18.4923,6.60439 -19.1528,-1.651097 -9.9066,-3.632415 -8.9159,2.971976 -38.3054,10.567024 -10.2368,0 -4.9533,-0.990658 -4.2929,2.311536 -20.4736,-2.971975 -8.2555,-9.246147 -2.972,-4.292854 -2.9719,-3.632415 -3.9627,-3.632414 -6.9346,-2.311537 -11.8879,0 -31.3708,3.962634 -10.2369,0.990659 -15.5203,-0.33022 -13.539,0.33022 -7.595,0.990658 -8.5857,1.320879 -12.8786,2.971975 -11.2275,0.33022 -8.9159,0 -9.2461,-2.311537 -5.6138,0 -4.623,1.981317 -6.6044,0.660439 -3.3022,-0.990658 z"
       id="path6894"
       inkscape:connector-curvature="0" /></g><g
     inkscape:groupmode="layer"
     id="layer7"
     inkscape:label="cloud"><g
       transform="matrix(1.25,0,0,-1.25,242.72514,931.54687)"
       id="g10"
       style="display:inline"><path
         style="fill:#3e3231;fill-opacity:1;fill-rule:nonzero;stroke:none"
         d="M 1580.2578 13.107422 C 1567.4881 13.143054 1562.372 26.279453 1559.3047 34.845703 C 1557.4359 39.996953 1554.6285 44.1625 1548.6543 47.0625 C 1542.792 49.92375 1534.3307 49.689766 1527.6621 50.197266 C 1514.0111 51.237266 1500.3483 52.199297 1486.6797 53.185547 C 1449.9125 55.841797 1413.1372 58.457891 1376.3828 61.275391 C 1375.4196 61.349141 1375.4196 62.535547 1376.3828 62.466797 C 1423.6938 59.039297 1470.925 55.260078 1518.1992 51.705078 C 1527.6615 50.997578 1537.6663 50.983828 1546.7734 48.673828 C 1553.6484 46.936328 1557.5105 41.905625 1560.248 37.046875 C 1563.8479 30.611875 1565.0717 23.785547 1571.2539 18.341797 C 1571.4028 18.199297 1571.5915 18.083672 1571.7402 17.951172 C 1578.6601 26.823672 1577.6403 34.234141 1574.6836 44.087891 C 1573.0212 49.489141 1584.2779 53.795625 1569.9727 58.296875 C 1567.523 59.069375 1566.7474 59.420625 1566.0723 61.203125 C 1565.9985 61.349375 1566.0898 61.510391 1566.2598 61.587891 C 1575.89 66.119141 1582.6536 57.222109 1588.5527 52.662109 C 1593.247 49.028359 1600.4076 48.511484 1604.8203 45.083984 C 1607.5146 42.970234 1607.3659 37.544609 1607.5723 34.287109 C 1611.3978 32.403359 1615.0329 30.299844 1619.0137 28.527344 C 1624.0072 26.286094 1630.4698 25.866172 1635.6953 27.794922 C 1640.0824 29.406172 1640.4455 33.54625 1643.4199 36.03125 C 1646.3447 38.4925 1649.2074 38.761953 1653.0137 37.408203 C 1656.8952 36.036953 1659.2693 33.009297 1663.4004 31.685547 C 1669.5075 29.728047 1676.6319 31.329219 1681.4941 34.449219 C 1686.1693 37.437969 1687.3568 42.980703 1693.5566 44.689453 C 1698.0254 45.929453 1703.1896 45.944375 1707.5078 44.171875 C 1711.0326 42.711875 1714.7444 40.484922 1715.9316 37.326172 C 1718.458 30.533672 1728.5746 34.907656 1731.9297 38.316406 C 1735.8112 42.247656 1735.3265 48.063516 1734.8945 52.697266 C 1734.852 53.189766 1735.4928 53.44375 1736.0176 53.375 C 1737.456 53.185 1738.8687 53.003359 1740.2812 52.818359 C 1725.0882 55.215859 1711.6689 59.953672 1698.3828 66.076172 C 1695.5573 67.384922 1692.1816 68.752109 1688.5625 69.943359 C 1688.5262 69.899609 1688.4887 69.849453 1688.4512 69.814453 C 1688.0688 69.590703 1687.6947 69.371484 1687.3203 69.146484 C 1687.1891 69.068984 1686.9997 69.219766 1687.1133 69.322266 C 1687.0745 69.292266 1684.5881 68.185391 1683.9434 67.837891 C 1681.6617 66.631641 1679.6063 65.099844 1677.5566 63.683594 C 1675.6686 62.374844 1673.8265 61.015935 1671.9961 59.648438 C 1671.5641 59.332186 1669.1507 57.623125 1668.4883 57.203125 C 1668.5833 57.199375 1668.6758 57.154766 1668.6758 57.072266 L 1668.6758 56.900391 C 1668.6758 56.817891 1668.5824 56.75 1668.4688 56.75 C 1668.0941 56.74 1668.1139 56.725781 1667.8516 56.925781 C 1667.7316 57.038281 1667.6752 57.227031 1667.7949 57.363281 C 1670.2813 60.298281 1674.5199 62.789297 1677.8574 65.123047 C 1680.8127 67.184297 1683.8125 69.26875 1687.5996 70.25 C 1685.8876 70.7925 1684.1309 71.300625 1682.3262 71.734375 C 1682.3437 71.685625 1682.3436 71.641641 1682.3438 71.587891 C 1681.9259 70.435391 1681.6064 69.702891 1680.6816 68.775391 C 1680.5136 68.600391 1680.1754 68.746172 1680.3066 68.951172 C 1680.4191 69.282422 1680.5127 69.61 1680.6055 69.9375 C 1675.7065 65.48 1670.3206 61.069844 1664.5703 57.339844 C 1666.7014 56.211094 1668.4679 54.864297 1670.375 53.185547 C 1670.6374 52.940547 1670.9194 52.739531 1671.2188 52.519531 L 1671.2188 52.53125 C 1671.2188 52.54625 1671.2195 52.554688 1671.2383 52.554688 C 1673.7438 52.729686 1676.631 55.152891 1678.6309 56.275391 C 1680.9685 57.599141 1683.3191 58.917109 1685.6934 60.224609 C 1689.7301 62.460859 1694.2177 64.742109 1699.0801 65.630859 C 1699.2497 65.659609 1699.3612 65.479766 1699.1934 65.416016 C 1693.7246 63.384766 1688.9004 61.040859 1683.9629 58.287109 C 1681.5501 56.938359 1679.1374 55.582031 1676.707 54.238281 C 1675.2752 53.448281 1673.7698 52.148516 1671.957 51.978516 C 1679.1377 47.222266 1687.8049 51.295703 1695.5938 52.720703 C 1702.7742 54.029453 1710.2566 53.262969 1715.7988 49.386719 C 1720.2996 46.246719 1721.4872 40.649531 1717.9062 36.894531 C 1717.6055 36.563281 1716.9869 36.841406 1717.2109 37.222656 C 1720.3181 42.407656 1717.53 47.198516 1711.9688 50.416016 C 1706.8438 53.364766 1699.0797 52.325234 1693.4238 51.333984 C 1689.5423 50.655234 1685.9254 49.474687 1682.2871 49.054688 C 1683.1302 48.888438 1683.9435 48.595391 1684.625 48.150391 C 1684.9434 47.940391 1684.5886 47.560313 1684.2441 47.632812 C 1681.0441 48.267812 1678.3438 48.278125 1675.707 46.515625 C 1673.1438 44.810625 1673.8805 41.817813 1673.1621 39.507812 C 1672.3125 36.676562 1669.1123 34.630078 1665.7363 33.736328 C 1664.906 33.516328 1664.5508 34.552344 1665.3828 34.777344 C 1669.9763 35.998594 1671.9746 38.853594 1672.293 42.496094 C 1672.461 44.394844 1673.0514 45.875859 1674.7266 47.287109 C 1675.6689 48.078359 1676.9499 48.654531 1678.3438 48.957031 C 1676.726 49.093281 1675.088 49.463672 1673.4062 50.201172 C 1670.7505 51.358672 1668.694 53.940781 1666.6621 55.644531 C 1665.9437 56.235781 1665.1692 56.749453 1664.3438 57.189453 C 1664.3261 57.174453 1664.3063 57.154375 1664.2676 57.140625 C 1663.9252 56.915625 1663.2871 57.217422 1663.6055 57.544922 C 1662.3431 58.131172 1661.007 58.565 1659.5957 58.84375 C 1659.2133 58.4575 1658.8001 58.072891 1658.4062 57.681641 C 1658.0624 57.345391 1657.3688 57.778359 1657.668 58.130859 C 1657.8936 58.438359 1658.1 58.751094 1658.3496 59.058594 C 1656.4616 59.322344 1654.5004 59.34125 1652.5996 59.15625 C 1652.4871 58.99 1652.3561 58.824297 1652.2441 58.654297 C 1652.0681 58.209297 1651.3017 58.40375 1651.377 58.84375 C 1651.3957 58.9075 1651.4316 58.960938 1651.4316 59.023438 C 1648.9996 58.682187 1646.6257 58.019219 1644.5137 57.105469 C 1640.6689 55.455469 1637.7641 52.901172 1634.377 50.982422 C 1634.5082 50.903672 1634.6575 50.820781 1634.7695 50.738281 C 1639.1438 47.544531 1643.7207 44.747266 1648.3574 41.822266 C 1648.7574 41.587266 1648.2624 41.192734 1647.8887 41.333984 C 1642.9512 43.160234 1638.7272 46.042109 1634.8457 49.005859 C 1630.8698 49.538359 1629.4399 48.688281 1630.6016 46.457031 C 1631.0016 45.015781 1631.5835 43.579453 1632.0586 42.158203 L 1634.957 33.564453 C 1635.052 33.310703 1634.9204 33.058125 1634.6191 32.921875 C 1633.4128 32.335625 1632.1712 31.749219 1630.9648 31.167969 C 1632.1905 31.314219 1633.4323 31.490078 1634.6387 31.705078 C 1634.6762 31.710078 1634.677 31.676016 1634.6582 31.666016 C 1632.5446 31.256016 1630.6617 30.860391 1628.625 30.181641 C 1627.9818 29.961641 1627.5145 30.591328 1628.0762 30.923828 C 1630.8697 32.540078 1633.6585 32.984141 1632.5449 36.119141 C 1631.7145 38.497891 1630.8692 40.874453 1630.0195 43.251953 C 1629.3955 45.000703 1628.4574 46.954375 1628.6621 48.765625 C 1628.2685 48.678125 1627.8516 48.605625 1627.4004 48.546875 C 1626.6628 48.439375 1625.932 48.448516 1625.252 48.541016 C 1624.9896 48.238516 1624.7629 47.930314 1624.4941 47.632812 C 1624.2509 47.359063 1623.6888 47.525781 1623.8008 47.863281 C 1623.9145 48.170781 1624.0268 48.467891 1624.1387 48.775391 C 1621.5212 49.522891 1619.5202 51.505469 1618.1074 53.292969 C 1615.6387 56.431719 1614.7507 59.177031 1611.0195 61.613281 C 1610.0388 60.993281 1609.0816 60.373594 1608.0625 59.777344 C 1607.8512 59.654844 1607.5699 59.894531 1607.7012 60.050781 C 1608.4195 60.822031 1609.1006 61.587969 1609.8125 62.355469 C 1608.6063 62.984219 1607.2884 63.449375 1605.9141 63.765625 C 1605.8753 63.756875 1605.8586 63.746328 1605.8398 63.736328 C 1605.6895 63.662578 1605.5775 63.747109 1605.5215 63.849609 C 1604.3151 64.103359 1603.0453 64.268203 1601.7637 64.345703 C 1601.258 63.935703 1600.7698 63.526328 1600.2754 63.111328 C 1599.9203 62.813828 1599.3325 63.193516 1599.5645 63.541016 L 1600.1836 64.419922 C 1598.7325 64.443672 1597.3015 64.390469 1595.8887 64.292969 C 1595.0952 63.444219 1594.3014 62.573281 1593.5703 61.675781 C 1593.3383 61.417031 1592.7213 61.489453 1592.7773 61.845703 C 1592.8698 62.603203 1593.04 63.341953 1593.2832 64.064453 C 1592.8143 64.015703 1592.3646 63.960859 1591.9277 63.912109 C 1588.2702 63.472109 1585.446 62.808437 1581.7148 63.179688 C 1576.7773 63.672187 1574.1146 66.960078 1568.2891 65.705078 C 1563.0524 64.577578 1559.0407 61.383359 1554.084 59.943359 C 1553.9289 59.605859 1553.8145 59.264141 1553.6465 58.931641 C 1553.4209 58.477891 1552.6474 58.658203 1552.7227 59.126953 C 1552.7652 59.298203 1552.8205 59.464609 1552.8594 59.630859 C 1551.7457 59.387109 1550.6145 59.234453 1549.3906 59.220703 C 1549.2403 59.220703 1549.1663 59.298125 1549.123 59.390625 C 1547.3919 57.560625 1544.903 56.738906 1541.0215 58.316406 C 1540.4711 58.546406 1540.8708 59.244766 1541.4531 59.103516 C 1549.1843 57.277266 1552.0078 71.178672 1554.627 74.826172 C 1557.2637 78.468672 1561.5642 81.192734 1566.1641 83.208984 C 1573.4391 86.402734 1583.559 86.523672 1590.9844 83.326172 C 1591.29 83.623672 1591.984 83.555312 1591.9648 83.101562 C 1591.9648 83.029063 1591.9453 82.954609 1591.9453 82.880859 C 1592.5326 82.598359 1593.0957 82.30125 1593.627 81.96875 C 1594.6765 82.14 1595.6957 82.237031 1596.7324 82.300781 C 1597.1708 82.710781 1597.6208 83.122109 1598.0703 83.537109 C 1598.4896 83.947109 1599.165 83.492266 1599.0898 83.072266 C 1599.0148 82.827266 1598.9388 82.599375 1598.8828 82.359375 C 1600.2588 82.355625 1601.6142 82.272344 1602.9902 82.121094 C 1603.5022 82.292344 1604.0456 82.393672 1604.6328 82.388672 C 1605.0456 82.388672 1605.3448 82.101328 1605.252 81.798828 C 1612.7382 80.548828 1619.9974 77.476875 1626.834 75.015625 C 1634.3971 72.305625 1642.6322 72.140156 1650 69.566406 C 1651 69.215156 1651.6396 68.644141 1652.0332 67.994141 C 1656.7835 73.214141 1665.2817 75.314297 1673.707 75.279297 C 1690.881 75.206797 1705.4679 63.453203 1720.5684 58.501953 C 1758.0364 46.208203 1801.9934 51.774375 1841.4727 48.921875 C 1841.8358 48.898125 1841.8358 48.487656 1841.4727 48.472656 C 1823.3802 47.945156 1805.2487 48.741328 1787.1738 49.205078 C 1777.8797 49.438828 1768.5741 49.825547 1759.3184 50.591797 C 1788.361 47.545547 1817.4223 46.110078 1846.8984 46.642578 C 1847.7784 46.657578 1847.7784 45.605936 1846.8984 45.585938 C 1821.0414 45.063437 1795.2232 45.992109 1769.5293 48.287109 C 1763.3678 48.838359 1757.224 49.45875 1751.0801 50.09375 C 1749.7425 50.235 1736.72 52.261719 1736.832 50.792969 C 1737.2448 45.626719 1736.3249 38.500859 1730.4434 35.162109 C 1725.7682 32.500859 1720.5881 31.612031 1715.4746 34.019531 C 1714.1194 34.658281 1713.195 38.693125 1711.875 39.953125 C 1708.0687 43.536875 1701.1879 44.581719 1695.6504 43.605469 C 1687.2441 42.130469 1685.7309 32.922578 1677.3887 30.548828 C 1670.376 28.556328 1663.3633 29.039219 1657.2754 32.511719 C 1655.4258 33.570469 1653.8258 34.918281 1651.957 35.988281 C 1646.8692 38.908281 1643.6827 33.384766 1642.1387 31.197266 C 1640.7083 29.171016 1639.1078 27.779844 1636.6758 26.496094 C 1631.3015 23.634844 1623.4024 25.485 1618.1465 27.375 C 1613.641 28.98125 1609.6461 31.520625 1605.459 33.546875 C 1602.315 35.064375 1600.3152 35.689766 1599.9023 32.384766 C 1599.696 30.773516 1599.3532 29.399844 1598.998 27.808594 C 1597.734 22.354844 1593.378 15.886016 1586.2148 13.947266 C 1584.0619 13.366172 1582.0821 13.102332 1580.2578 13.107422 z M 1580.4141 15.115234 C 1585.1518 15.256519 1589.8745 17.651561 1592.9844 20.898438 C 1597.1155 25.234687 1597.5835 31.617422 1598.2012 36.763672 C 1598.2824 37.256172 1598.8832 37.819844 1599.6016 37.589844 C 1602.0527 36.813594 1604.3336 35.836484 1606.5527 34.771484 C 1605.8024 39.576484 1604.8594 44.820703 1598.4531 46.939453 C 1593.9091 48.444453 1589.9343 51.081016 1586.5039 53.791016 C 1584.7472 55.168516 1583.2399 56.748984 1581.6016 58.208984 C 1580.3583 59.023984 1579.1164 59.84125 1577.8652 60.65625 C 1574.7596 62.64375 1571.7228 62.355625 1568.7852 59.796875 C 1572.1403 57.809375 1574.516 57.98 1576.8711 54.9375 C 1578.1335 53.30125 1577.8275 51.348437 1577.4531 49.585938 C 1576.7971 46.264688 1576.0772 43.301016 1577.4707 39.947266 C 1578.2275 38.116016 1578.5087 36.270703 1578.752 34.376953 C 1579.5087 28.419453 1576.8147 22.277109 1572.2148 17.599609 C 1574.7228 15.757422 1577.5714 15.030464 1580.4141 15.115234 z M 1627.3066 49.351562 C 1627.7918 49.372813 1628.3063 49.419922 1628.8535 49.498047 C 1629.0215 50.001797 1629.2648 50.489375 1629.7031 50.953125 C 1630.6215 51.949375 1632.3772 51.812422 1633.7148 51.294922 C 1636.7147 53.032422 1639.3906 55.557969 1642.1777 57.042969 C 1645.0832 58.600469 1648.358 59.615234 1651.7324 59.927734 C 1652.7515 62.212734 1655.352 63.970547 1657.3711 65.748047 C 1659.5966 67.701797 1662.2334 71.397187 1665.9277 71.367188 C 1666.3965 71.363437 1666.6271 70.982422 1666.4336 70.669922 C 1664.6832 67.734922 1663.0628 64.750703 1661.2324 61.845703 C 1665.3204 65.898203 1669.8623 69.750781 1674.8574 73.082031 C 1665.6255 74.122031 1656.8012 72.51125 1652.2637 64.9375 C 1652.07 64.415 1651.8082 63.917185 1651.4531 63.492188 C 1650.8275 62.719687 1649.0755 63.203984 1649.4883 64.146484 C 1649.6755 64.561484 1649.8896 64.958516 1650.1152 65.353516 C 1650.2832 66.647266 1648.4336 67.686719 1645.9648 68.511719 C 1644.3456 66.592969 1642.1015 64.868281 1640.4824 62.988281 C 1638.3704 60.552031 1636.6406 57.939766 1635.1094 55.259766 C 1634.7159 54.581016 1633.4325 55.171797 1633.8262 55.841797 C 1635.5445 58.834297 1637.559 61.671875 1639.8965 64.390625 C 1641.1589 65.865625 1642.6146 67.6425 1644.3457 69 C 1643.7777 69.15625 1643.177 69.307109 1642.5898 69.443359 C 1642.2331 68.525859 1641.8021 67.6625 1641.1973 66.8125 C 1641.0835 66.67125 1640.7646 66.769531 1640.8398 66.925781 C 1641.3278 67.868281 1641.6517 68.595078 1641.7637 69.517578 C 1639.7829 68.238828 1638.503 65.748359 1637.2773 64.162109 C 1635.9782 62.433359 1634.6599 60.703359 1633.3223 58.974609 C 1630.8904 55.767109 1628.5336 52.506328 1625.9336 49.361328 C 1626.3656 49.334453 1626.8215 49.330312 1627.3066 49.351562 z M 1625.1035 49.455078 C 1625.3659 49.982578 1625.7396 50.688281 1626.0645 51.113281 C 1628.8707 54.957031 1631.8074 58.742031 1634.6953 62.550781 C 1636.2953 64.694531 1637.8831 68.112031 1640.5215 69.894531 C 1638.0144 70.397031 1635.8279 70.714844 1635.1094 70.871094 C 1634.9783 70.899844 1634.846 70.943906 1634.7148 70.972656 C 1632.3212 67.061406 1630.3031 63.082422 1628.5527 58.951172 C 1627.5911 56.738672 1626.7575 54.492188 1625.9512 52.242188 C 1625.6263 51.318437 1625.3285 50.392344 1625.0469 49.464844 C 1625.0644 49.459844 1625.0648 49.455078 1625.1035 49.455078 z M 1624.4395 49.546875 C 1626.9642 56.534375 1629.8525 63.350625 1633.2637 70.109375 C 1628.0767 65.376875 1624.3642 59.970703 1620.502 54.501953 C 1620.1836 54.068203 1619.4267 54.454766 1619.6699 54.884766 L 1624.0645 62.832031 C 1625.0836 64.683281 1626.0647 66.559686 1627.0215 68.429688 C 1627.5719 69.474688 1627.964 71.051328 1628.7207 71.861328 C 1624.4583 67.281328 1620.2767 62.882109 1616.4336 58.068359 C 1616.3398 57.935859 1616.1647 57.915936 1616.0527 57.929688 C 1618.3326 54.673437 1619.7451 50.533125 1624.4395 49.546875 z M 1663.7773 57.740234 C 1666.1901 60.332734 1668.4329 63.038594 1670.6953 65.714844 C 1671.8633 67.087344 1673.0332 68.453672 1674.2012 69.826172 C 1674.7644 70.514922 1675.3508 71.197969 1675.9141 71.886719 C 1676.3141 72.350469 1676.5388 72.652656 1676.6523 72.847656 C 1676.5386 72.862656 1676.4262 72.882344 1676.2949 72.902344 C 1675.7078 72.526094 1674.819 71.797422 1674.5566 71.607422 C 1669.2255 67.808672 1664.4762 63.585314 1659.9707 59.195312 C 1660.4396 59.059062 1660.9316 58.913436 1661.3828 58.742188 C 1662.2516 58.429688 1663.0462 58.096484 1663.7773 57.740234 z M 1615.7148 58.384766 C 1615.7323 58.389766 1615.7149 58.390625 1615.7324 58.390625 C 1618.8827 63.493125 1623.2702 68.741016 1628.4766 72.759766 C 1628.4391 72.773516 1628.3845 72.789686 1628.3457 72.804688 C 1625.3842 70.548438 1621.8602 68.644766 1618.6602 66.603516 C 1616.3227 65.109766 1614.0602 63.560391 1611.7227 62.056641 C 1612.9658 61.241641 1614.1152 60.28875 1615.1152 59.15625 C 1615.3216 58.9075 1615.5276 58.653516 1615.7148 58.384766 z M 1658.6895 59.517578 C 1661.1773 62.857578 1663.2519 66.339686 1664.8887 69.992188 C 1664.3447 69.762186 1663.8138 69.538594 1663.2891 69.308594 C 1662.6267 68.737344 1661.9516 68.161094 1661.2891 67.589844 L 1658.3145 65.011719 C 1656.4632 63.404219 1654.39 61.895469 1653.0332 60.011719 C 1654.9211 60.079219 1656.8207 59.922578 1658.6895 59.517578 z M 1549.373 59.679688 C 1550.6547 59.972188 1551.8974 60.342813 1553.123 60.757812 C 1553.6094 62.667812 1554.3104 64.557266 1554.9297 66.447266 C 1555.6096 68.556016 1556.1168 70.718359 1557.3984 72.662109 C 1557.5536 72.905859 1558.0605 72.794141 1558.0605 72.525391 C 1557.9468 70.337891 1557.0231 68.252187 1556.3047 66.148438 C 1555.7607 64.532185 1555.2548 62.901172 1554.6484 61.294922 C 1555.5732 61.641172 1556.4785 62.007656 1557.416 62.378906 C 1557.0609 62.378906 1556.703 62.588203 1556.8535 62.939453 C 1559.1158 68.403203 1561.2285 73.8975 1563.0156 79.46875 C 1558.8718 76.905 1555.7223 73.293436 1553.8535 69.523438 C 1552.628 67.043436 1551.7474 62.418435 1549.373 59.679688 z M 1666.7949 60.269531 C 1671.5437 64.233281 1676.4636 68.096016 1681.2891 71.978516 C 1680.0459 72.256016 1678.8 72.502031 1677.5762 72.707031 C 1676.7265 70.842031 1674.2008 68.907969 1673.0137 67.511719 C 1670.9385 65.104219 1668.806 62.705781 1666.7949 60.269531 z M 1624.0078 61.333984 C 1626.6269 64.922734 1629.6074 68.344766 1633.2266 71.353516 C 1631.9449 71.689766 1630.6828 72.055936 1629.4141 72.460938 C 1627.7966 68.707187 1625.9149 65.015234 1624.0078 61.333984 z M 1610.9844 62.515625 C 1613.6404 64.371875 1616.47 66.099922 1619.1836 67.857422 C 1621.9147 69.619922 1624.653 71.528359 1627.6465 73.037109 C 1626.2897 73.500859 1624.9337 73.974609 1623.5977 74.443359 C 1621.4089 75.210859 1619.2406 75.982344 1617.1094 76.714844 C 1616.847 75.547344 1616.3577 74.492812 1615.5273 73.414062 C 1615.4136 73.282814 1615.1709 73.399609 1615.2637 73.537109 C 1615.9389 74.659609 1616.2637 75.654688 1616.2637 76.773438 C 1611.9454 72.764685 1607.2897 68.950703 1602.709 65.126953 C 1603.8961 64.995703 1605.0641 64.776875 1606.1777 64.484375 C 1610.7584 68.038125 1616.1642 71.158594 1621.1641 74.308594 C 1621.4072 74.464844 1621.8961 74.389531 1621.8594 74.082031 C 1621.6337 71.948281 1618.4073 70.489453 1616.6953 68.908203 C 1614.6393 67.043203 1612.7034 64.610936 1610.7402 62.648438 C 1610.8152 62.604686 1610.9093 62.564375 1610.9844 62.515625 z M 1557.9473 62.59375 C 1559.3233 63.165 1560.734 63.740859 1562.166 64.287109 C 1562.2223 67.032109 1564.1855 69.829922 1565.3535 72.388672 C 1566.5983 75.093672 1567.448 78.292186 1569.8223 80.523438 C 1569.9728 80.654685 1570.2535 80.542969 1570.2344 80.386719 C 1570.1969 77.545469 1568.1976 74.683281 1566.916 72.050781 C 1565.7289 69.624531 1564.9218 66.725547 1562.9395 64.591797 C 1565.2018 65.426797 1567.484 66.128203 1569.916 66.533203 C 1569.916 66.553203 1569.8973 66.573906 1569.916 66.597656 C 1571.1591 69.233906 1572.3662 71.886953 1573.5918 74.533203 C 1574.6093 76.779453 1575.3038 79.898672 1576.7598 81.919922 C 1573.0223 76.729922 1569.7461 71.372578 1566.2598 66.080078 C 1566.1286 65.880078 1565.6715 66.026328 1565.7852 66.236328 C 1568.9163 72.110078 1572.7777 77.749844 1576.7969 83.277344 C 1576.8344 83.306094 1576.8719 83.321953 1576.8906 83.345703 C 1575.1163 83.283203 1573.2903 83.091719 1571.3848 82.730469 C 1568.6711 82.212969 1566.2024 81.27125 1563.9785 80.03125 C 1564.4473 79.9675 1564.8645 79.635625 1564.7285 79.171875 L 1564.7715 79.171875 C 1562.9587 73.560625 1560.7911 68.057656 1558.0215 62.691406 C 1557.9852 62.652656 1557.9473 62.6225 1557.9473 62.59375 z M 1610.2891 62.886719 C 1613.0954 65.939219 1615.9212 68.947187 1619.2012 71.710938 C 1619.5963 72.047188 1622.2138 74.151484 1619.3516 72.271484 C 1617.7323 71.221484 1616.1095 70.187578 1614.4902 69.142578 C 1611.9655 67.507578 1609.515 65.782109 1606.8398 64.287109 C 1608.0462 63.925859 1609.2139 63.457969 1610.2891 62.886719 z M 1584.4824 63.595703 C 1587.3388 63.574011 1590.5237 64.191797 1593.5156 64.689453 C 1595.2084 69.161953 1599.201 72.970547 1601.9961 77.091797 C 1602.2008 77.448047 1603.2214 79.107031 1603.5781 80.175781 C 1603.0901 80.239531 1602.5971 80.298906 1602.0898 80.347656 C 1599.8836 78.677656 1598.1465 76.134687 1596.3594 74.210938 C 1593.3402 71.002187 1590.3453 67.774687 1587.1582 64.679688 C 1586.8398 64.382187 1586.3909 64.718203 1586.4277 65.001953 C 1587.5029 71.055703 1594.0781 75.084766 1596.8652 80.509766 C 1596.7165 80.504766 1596.5841 80.499141 1596.4336 80.494141 C 1591.4017 75.694141 1586.3534 70.880469 1581.0352 66.261719 C 1580.7535 66.021719 1580.202 66.344531 1580.4707 66.613281 C 1583.9218 70.343281 1589.1591 75.123203 1590.5527 80.001953 C 1589.9527 80.314453 1589.9152 81.144063 1590.7969 81.382812 C 1590.7969 81.382812 1590.8152 81.383672 1590.834 81.388672 L 1590.834 81.5 C 1590.7777 81.515 1590.7402 81.529063 1590.6836 81.539062 C 1586.0085 76.334063 1581.3165 71.14875 1576.7598 65.875 C 1577.8285 65.44 1578.8647 64.932031 1579.8086 64.488281 C 1581.173 63.850781 1582.7686 63.608718 1584.4824 63.595703 z M 1594.2832 64.814453 C 1594.584 64.863203 1594.8904 64.908125 1595.1719 64.953125 C 1598.6406 69.015625 1602.8401 72.682266 1607.8145 75.666016 C 1608.3281 75.953516 1608.8893 75.411172 1608.627 75.044922 C 1606.4015 72.056172 1604.3154 69.000469 1602.2402 65.949219 C 1606.5152 69.791719 1610.778 73.667812 1615.3027 77.320312 C 1611.722 78.487814 1608.1595 79.478672 1604.4844 80.044922 C 1601.766 74.717422 1596.2463 70.283203 1594.2832 64.814453 z M 1596.6973 65.148438 C 1597.2844 65.212187 1597.8636 65.265312 1598.3965 65.289062 C 1599.2012 65.319063 1599.978 65.319063 1600.7715 65.289062 C 1602.5971 67.935312 1604.4274 70.587422 1606.1777 73.263672 C 1602.7281 70.739922 1599.5659 68.068438 1596.6973 65.148438 z M 1587.3086 65.699219 C 1587.5582 67.330469 1590.4402 69.522031 1591.6641 70.894531 C 1593.4144 72.827031 1595.2093 74.732734 1596.998 76.646484 C 1597.9788 77.701484 1599.0336 79.254219 1600.3711 80.480469 C 1599.64 80.519219 1598.8842 80.542969 1598.1289 80.542969 C 1595.3227 75.250469 1588.2335 71.612969 1587.3086 65.699219 z M 1575.7598 66.236328 C 1578.7534 71.743828 1581.9232 77.227109 1584.6543 82.818359 L 1584.6348 82.818359 C 1581.8476 80.948359 1579.9984 77.832656 1578.0977 75.503906 C 1575.648 72.555156 1573.2155 69.601094 1570.7852 66.652344 C 1571.1403 66.701094 1571.4968 66.765078 1571.8535 66.798828 C 1573.1975 66.916328 1574.5166 66.651328 1575.7598 66.236328 z M 1571.6855 68.84375 C 1574.1175 71.86125 1576.5306 74.879844 1578.9609 77.902344 C 1580.2984 79.587344 1581.5295 81.578516 1583.3535 83.009766 C 1581.4288 83.268516 1579.4547 83.389609 1577.4355 83.349609 C 1577.4718 83.310859 1577.5293 83.262969 1577.5293 83.199219 C 1578.2284 80.704219 1575.8917 77.823672 1574.8164 75.513672 C 1574.098 74.004922 1573.4039 72.491172 1572.6855 70.982422 C 1572.3479 70.269922 1572.0295 69.55625 1571.6855 68.84375 z M 1578.1523 68.882812 C 1581.8466 73.252814 1585.6152 77.579609 1589.5527 81.818359 C 1588.2151 82.145859 1586.877 82.427969 1585.5586 82.667969 C 1582.9026 78.140469 1580.5282 73.501564 1578.1523 68.882812 z M 1585.5391 71.646484 C 1586.4271 72.511484 1587.3092 73.38125 1588.2148 74.25 C 1590.3285 76.31125 1592.497 78.340936 1594.6777 80.367188 C 1593.5722 80.264688 1592.459 80.122109 1591.3086 79.912109 C 1590.2142 76.934609 1587.8766 74.263984 1585.5391 71.646484 z "
         transform="matrix(0.8,0,0,-0.8,-194.18011,745.2375)"
         id="path866" /><path
         inkscape:connector-curvature="0"
         d="m 1040.5387,697.02519 c -5.8252,3.125 -16.0048,0.993 -22.6056,0.696 -9.9992,-0.446 -19.95863,-1.039 -29.93346,-1.723 -19.1548,-1.312 -38.17904,-3.109 -57.17384,-5.41 -0.25599,-0.031 -0.15103,-0.344 0.12416,-0.317 18.12442,1.981 36.32948,3.696 54.56397,5.028 8.28527,0.609 16.61537,1.109 24.91977,1.551 4.1548,0.218 8.325,0.41 12.5002,0.586 5.3094,0.23 12.3646,1.32 17.2246,-0.922 0.425,-0.2 0.7744,0.297 0.3802,0.511"
         style="fill:#3e3231;fill-opacity:1;fill-rule:nonzero;stroke:none"
         id="path868" /><path
         inkscape:connector-curvature="0"
         d="m 1056.2977,690.99419 c 0.015,0 0.015,0.008 0,0.008"
         style="fill:#3e3231;fill-opacity:1;fill-rule:nonzero;stroke:none"
         id="path870" /><path
         style="fill:#3e3231;fill-opacity:1;fill-rule:nonzero;stroke:none"
         d="M 1570.2852 78.361328 C 1570.2039 78.361328 1570.2039 78.488281 1570.2852 78.488281 C 1570.3927 78.488281 1570.3927 78.361328 1570.2852 78.361328 z "
         transform="matrix(0.8,0,0,-0.8,-194.18011,745.2375)"
         id="path872" /><path
         inkscape:connector-curvature="0"
         d="m 1118.0615,697.04919 c -0.084,0 -0.084,-0.102 0,-0.102 0.07,0 0.07,0.102 0,0.102"
         style="fill:#3e3231;fill-opacity:1;fill-rule:nonzero;stroke:none"
         id="path874" /><path
         inkscape:connector-curvature="0"
         d="m 1118.0615,700.29919 c -0.084,0 -0.084,-0.102 0,-0.102 0.07,0 0.07,0.102 0,0.102"
         style="fill:#3e3231;fill-opacity:1;fill-rule:nonzero;stroke:none"
         id="path876" /><path
         inkscape:connector-curvature="0"
         d="m 1156.6105,692.73619 c -2.5996,1.258 -5.1199,2.524 -7.5493,3.977 0.4595,0.133 0.9152,0.265 1.3593,0.394 0.2304,0.067 0.1255,0.344 -0.1,0.282 -0.5299,-0.157 -1.0598,-0.313 -1.6051,-0.469 -0.07,0.043 -0.1549,0.086 -0.2253,0.133 -2.245,1.379 -4.3199,3.386 -7.0193,4.133 -0.015,0 -0.015,0 -0.015,-0.004 1.3005,-1.836 3.9897,-3.27 6.2348,-4.598 -0.1,-0.102 -0.014,-0.281 0.1702,-0.227 0.04,0.016 0.1,0.028 0.1305,0.039 0.2151,-0.121 0.4148,-0.242 0.5991,-0.359 2.3858,-1.488 4.9458,-2.859 7.8654,-3.601 0.2253,-0.059 0.3546,0.203 0.1549,0.3"
         style="fill:#3e3231;fill-opacity:1;fill-rule:nonzero;stroke:none"
         id="path878" /><path
         inkscape:connector-curvature="0"
         d="m 1144.3061,700.54919 c -0.086,0 -0.086,-0.098 0,-0.098 0.07,0 0.07,0.098 0,0.098"
         style="fill:#3e3231;fill-opacity:1;fill-rule:nonzero;stroke:none"
         id="path880" /><path
         inkscape:connector-curvature="0"
         d="m 1144.3061,701.79919 c -0.086,0 -0.086,-0.098 0,-0.098 0.07,0 0.07,0.098 0,0.098"
         style="fill:#3e3231;fill-opacity:1;fill-rule:nonzero;stroke:none"
         id="path882" /><path
         inkscape:connector-curvature="0"
         d="m 1144.3061,701.29919 c -0.086,0 -0.086,-0.098 0,-0.098 0.07,0 0.07,0.098 0,0.098"
         style="fill:#3e3231;fill-opacity:1;fill-rule:nonzero;stroke:none"
         id="path884" /><path
         inkscape:connector-curvature="0"
         d="m 1148.7911,699.05319 c -0.086,0 -0.086,-0.102 0,-0.102 0.069,0 0.069,0.102 0,0.102"
         style="fill:#3e3231;fill-opacity:1;fill-rule:nonzero;stroke:none"
         id="path886" /><path
         inkscape:connector-curvature="0"
         d="m 1151.6711,700.05319 c -0.086,0 -0.086,-0.102 0,-0.102 0.069,0 0.069,0.102 0,0.102"
         style="fill:#3e3231;fill-opacity:1;fill-rule:nonzero;stroke:none"
         id="path888" /><path
         inkscape:connector-curvature="0"
         d="m 1146.8712,703.30319 c -0.086,0 -0.086,-0.102 0,-0.102 0.069,0 0.069,0.102 0,0.102"
         style="fill:#3e3231;fill-opacity:1;fill-rule:nonzero;stroke:none"
         id="path890" /><path
         inkscape:connector-curvature="0"
         d="m 1150.0609,702.79919 c -0.084,0 -0.084,-0.102 0,-0.102 0.076,0 0.076,0.102 0,0.102"
         style="fill:#3e3231;fill-opacity:1;fill-rule:nonzero;stroke:none"
         id="path892" /><path
         inkscape:connector-curvature="0"
         d="m 1147.8055,704.49419 c -0.8102,0 -0.8102,-0.992 0,-0.992 0.8256,0 0.8256,0.992 0,0.992"
         style="fill:#3e3231;fill-opacity:1;fill-rule:nonzero;stroke:none"
         id="path894" /><path
         inkscape:connector-curvature="0"
         d="m 1157.4156,702.47519 c -0.055,0.031 -0.084,0.058 -0.1306,0.089 -0.1241,0.075 -0.2393,0.157 -0.3699,0.235 0.1703,-0.102 0.3302,-0.219 0.5005,-0.324"
         style="fill:#3e3231;fill-opacity:1;fill-rule:nonzero;stroke:none"
         id="path896" /><path
         inkscape:connector-curvature="0"
         d="m 1168.8457,696.60319 c -0.1459,0.172 -0.4607,0.059 -0.4159,-0.136 0.2303,-0.805 -2.9337,1.258 -3.3497,1.547 -1.0343,0.695 -2.0301,1.441 -3.0041,2.172 -1.7702,1.285 -3.5955,2.554 -5.6959,3.5 -0.329,0.152 -0.599,-0.231 -0.2842,-0.395 0.3994,-0.223 0.8051,-0.473 1.1891,-0.73 3.9001,-2.375 7.045,-5.477 11.315,-7.493 0.2905,-0.136 0.5901,0.047 0.6208,0.282 0.1152,0.796 0.1689,0.578 -0.3751,1.253"
         style="fill:#3e3231;fill-opacity:1;fill-rule:nonzero;stroke:none"
         id="path898" /><path
         inkscape:connector-curvature="0"
         d="m 1162.3601,698.15419 c 0.9805,-0.906 1.9008,-1.836 2.8057,-2.781 0.4442,-0.473 0.8896,-0.953 1.335,-1.441 -0.8358,0.285 -1.5807,0.679 -2.231,1.183 -2.1094,1.391 -4.1944,2.817 -6.2437,4.254 -1.0201,0.719 -2.1004,1.617 -3.205,2.442 -1.0957,1.031 -2.3449,1.949 -3.8348,2.585 -0.2304,0.098 -0.4608,-0.128 -0.2906,-0.281 1.7254,-1.453 3.5353,-2.836 5.39,-4.191 0.5005,-0.59 0.9753,-1.164 1.4195,-1.664 0.9753,-1.059 1.9404,-2.125 2.9158,-3.188 0.535,-0.594 2.4844,-2.773 0.174,-1.105 -2.085,1.511 -4.124,3.082 -6.1643,4.64 -1.1648,0.891 -2.3104,1.797 -3.4598,2.704 -0.5606,0.457 -1.1353,0.914 -1.6947,1.375 -0.576,0.765 -0.8806,0.929 -0.9203,0.484 -0.3596,0.461 -0.2304,0.316 -0.8499,0.848 -0.2304,0.214 -0.6003,-0.094 -0.3852,-0.309 4.3493,-4.172 9.7098,-7.813 14.8246,-11.391 0.16,-0.113 0.3904,-0.09 0.5056,0.051 1.2045,1.391 -2.8211,4.258 -3.781,5.297 -0.329,0.359 -0.6592,0.734 -0.9895,1.113 0.8,-0.574 1.6051,-1.14 2.4102,-1.707 1.8099,-1.265 4.7295,-4.277 7.3842,-4.031 0.3456,0.035 0.5209,0.309 0.2752,0.523 -3.2191,2.938 -6.6392,6.586 -10.3448,8.911 1.8406,-1.266 3.4201,-2.895 4.9548,-4.321"
         style="fill:#3e3231;fill-opacity:1;fill-rule:nonzero;stroke:none"
         id="path900" /><path
         inkscape:connector-curvature="0"
         d="m 1153.6256,707.52119 c -0.07,0.082 -0.2445,0.024 -0.1997,-0.062 0.3994,-0.781 0.7296,-1.563 0.9997,-2.363 -3.8694,4.523 -6.03,9.773 -10.0593,14.242 -0.1306,0.148 -0.4851,0.062 -0.4007,-0.133 0.9306,-1.965 1.7152,-3.953 2.4,-5.973 0.3008,-0.863 0.5452,-1.742 0.7846,-2.613 0.075,-0.262 0.416,-0.816 0.6605,-1.246 -0.5453,1.891 -1.0752,3.781 -1.7293,5.652 -0.3852,1.153 -0.8704,2.289 -1.3311,3.422 0.2009,-0.476 1.271,-1.961 1.815,-2.793 2.6853,-4.105 4.5451,-8.57 8.3748,-12.164 0.2458,-0.23 0.745,0.016 0.631,0.289 -0.5452,1.309 -1.1302,2.528 -1.9455,3.742"
         style="fill:#3e3231;fill-opacity:1;fill-rule:nonzero;stroke:none"
         id="path902" /><path
         inkscape:connector-curvature="0"
         d="m 1143.6764,715.42019 c -1.2954,2.066 -2.5805,4.133 -4.0051,6.144 -0.1254,0.176 -0.5248,0.055 -0.4109,-0.136 1.1251,-2.149 2.4205,-4.239 3.6902,-6.34 0.7258,-1.188 1.4656,-2.371 2.1952,-3.559 0.7103,-1.156 2.0044,-2.386 2.5906,-3.558 0.1139,-0.223 0.5389,-0.141 0.4839,0.101 -0.1,0.262 -0.169,0.524 -0.2548,0.785 -0.1,0.071 -0.2598,0.235 -0.5542,0.52 -1.6255,1.644 -2.565,4.168 -3.7349,6.043"
         style="fill:#3e3231;fill-opacity:1;fill-rule:nonzero;stroke:none"
         id="path904" /><path
         inkscape:connector-curvature="0"
         d="m 1147.8107,709.37319 c 0.055,-0.172 0.1,-0.344 0.1548,-0.52 0.2304,-0.16 0.07,0.122 -0.1548,0.52"
         style="fill:#3e3231;fill-opacity:1;fill-rule:nonzero;stroke:none"
         id="path906" /><path
         inkscape:connector-curvature="0"
         d="m 1166.1207,708.40019 c -0.6208,0.391 -1.1648,0.848 -1.7651,1.246 -0.1754,0.11 -0.4058,-0.023 -0.3046,-0.179 0.3443,-0.535 0.8191,-0.961 1.3798,-1.371 0.4595,-0.344 1.134,-0.91 1.8099,-0.887 0.1292,0.008 0.2752,0.109 0.215,0.219 -0.2304,0.441 -0.8601,0.683 -1.335,0.972"
         style="fill:#3e3231;fill-opacity:1;fill-rule:nonzero;stroke:none"
         id="path908" /><path
         inkscape:connector-curvature="0"
         d="m 1169.6304,708.13119 c -0.4199,0.129 -0.8807,0.133 -1.2954,0.238 -0.5593,0.141 -1.0943,0.426 -1.495,0.746 -0.16,0.129 -0.4595,-0.043 -0.3302,-0.199 0.6157,-0.691 2.0403,-1.473 3.1462,-1.051 0.174,0.063 0.1,0.223 -0.026,0.266"
         style="fill:#3e3231;fill-opacity:1;fill-rule:nonzero;stroke:none"
         id="path910" /><path
         inkscape:connector-curvature="0"
         d="m 1112.9365,707.20519 c -0.2393,0.418 -0.4544,0.844 -0.6796,1.266 -0.3098,0.55 -0.6349,1.097 -0.96,1.636 -0.045,0.079 -0.1,0.157 -0.1459,0.239 1.0355,-0.95 2.1951,-1.879 3.4111,-2.715 -0.5504,-0.18 -1.1059,-0.328 -1.6256,-0.426 z m 16.92,8.797 c -2.4307,-2.074 -5.1596,-3.68 -8.2251,-5.141 -0.7654,-0.367 -2.2656,-1.195 -3.9603,-1.984 -1.9801,1.887 -3.6594,3.988 -5.2747,6.07 1.4003,-1.808 4.3404,-3.746 6.5304,-5.215 0.1293,-0.086 0.384,-0.066 0.4096,0.086 0.1702,0.629 0.1152,1.075 -0.4646,1.602 -1.6806,1.488 -3.2947,2.965 -4.7206,4.617 -0.5401,0.637 -1.0201,1.309 -1.4694,1.977 -1.0201,1.445 1.44,-1.172 1.7651,-1.461 1.9494,-1.758 3.9039,-3.539 5.9941,-5.196 0.2253,-0.171 0.6208,0.055 0.4403,0.262 -0.7654,0.863 -1.4144,1.77 -2.1951,2.625 -0.04,0.043 -0.1242,0.004 -0.085,-0.043 0.4953,-0.629 0.9344,-1.277 1.5142,-1.855 -0.9344,0.906 -1.9788,1.746 -2.9695,2.609 -1.7498,1.516 -3.4752,3.043 -5.2851,4.504 -0.1843,0.144 -0.5094,-0.043 -0.3699,-0.211 1.7395,-2.168 3.4649,-4.309 5.5154,-6.316 0.5645,-0.536 1.1303,-1.071 1.6947,-1.61 -0.07,-0.211 -0.1254,-0.422 -0.1945,-0.636 -0.5402,0.433 -1.0752,0.863 -1.6307,1.285 -1.6345,1.277 -3.2742,2.558 -4.9753,3.793 -0.2099,0.152 -0.6041,-0.059 -0.4249,-0.258 1.8559,-1.914 3.5954,-3.992 5.2453,-6.055 -2.0505,1.563 -4.1701,3.102 -6.3602,4.516 -0.1241,0.082 -0.3097,-0.047 -0.1997,-0.145 2.135,-1.84 4.4556,-3.582 6.8005,-5.269 -0.4659,-0.2 -0.9151,-0.391 -1.3849,-0.567 -1.2403,1.235 -2.3859,2.532 -3.6454,3.75 -0.055,0.059 -0.1996,-0.019 -0.1408,-0.082 1.1303,-1.277 2.3757,-2.496 3.5302,-3.765 -0.01,0 -0.01,-0.004 -0.024,-0.008 -0.5952,0.414 -1.2057,0.828 -1.7804,1.258 -0.9895,0.742 -1.9251,1.586 -3.0144,2.226 -0.1254,0.067 -0.256,-0.058 -0.1805,-0.144 0.9152,-1.235 1.8048,-2.625 2.3757,-4.051 -0.16,-0.024 -0.3162,-0.055 -0.4711,-0.07 -0.7193,0.609 -1.4847,1.179 -2.359,1.523 -0.1011,0.035 -0.1702,-0.035 -0.1407,-0.102 0.2803,-0.5 0.7206,-0.96 1.2146,-1.398 -0.9049,0.133 -1.6242,0.555 -1.9788,1.438 -1.1302,2.703 0.1395,5.851 -0.2957,8.644 -0.1292,0.805 -0.4697,1.508 -0.8793,2.238 -0.6502,1.125 -2.446,1.782 -2.67,3.067 -0.031,0.187 -0.2253,0.351 -0.48,0.293 -1.385,-0.317 -2.7699,-0.481 -4.1855,-0.582 -0.4403,-0.032 -0.3546,-0.532 0.07,-0.461 0.3097,0.051 0.6246,0.101 0.9203,0.152 0.1139,0.016 0.1139,0.156 0,0.172 0.3238,-0.047 -0.07,-0.453 1.2697,-0.25 0.5094,0.074 1.4592,0.375 1.7843,-0.063 0.4505,-0.601 0.96,-1.035 1.5807,-1.539 1.4848,-1.191 1.7843,-2.941 1.9098,-4.511 0.2252,-2.907 -1.3005,-6.563 1.2697,-9.071 0.6656,-0.652 1.7254,-0.718 2.9004,-0.5 0.3943,-0.3 0.7898,-0.593 1.1443,-0.882 0.3098,-0.25 0.8205,0.07 0.5952,0.363 -0.1997,0.269 -0.3699,0.543 -0.5401,0.82 0.6399,0.199 1.2748,0.445 1.8956,0.711 0.4544,-0.293 0.9344,-0.57 1.4144,-0.824 0.2547,-0.137 0.5107,0.156 0.3251,0.324 -0.3251,0.281 -0.6349,0.574 -0.9344,0.867 0.5248,0.242 0.9894,0.477 1.3888,0.676 0.2252,-0.156 0.4352,-0.316 0.6502,-0.477 0.2957,-0.203 0.6758,0.11 0.4198,0.333 -0.1549,0.144 -0.2944,0.3 -0.4492,0.445 0.04,0.027 0.1152,0.058 0.1548,0.082 4.3404,2.004 9.02,3.918 12.1598,7.098 0.2253,0.238 -0.2701,0.531 -0.5248,0.316"
         style="fill:#3e3231;fill-opacity:1;fill-rule:nonzero;stroke:none"
         id="path912" /><path
         inkscape:connector-curvature="0"
         d="m 1121.4215,714.10719 c -0.07,0.071 -0.21,0.012 -0.1549,-0.066 l 0.015,-0.086 c -1.7356,2.148 -4.2111,4.047 -6.7057,5.617 -0.1101,0.071 -0.2791,0.051 -0.3098,-0.066 -0.1702,-0.41 0.031,-0.684 0.5504,-0.805 0.1395,-0.031 0.1946,0.051 0.1946,0.129 0.045,-0.023 0.07,-0.039 0.1152,-0.07 0.2803,-0.207 0.5503,-0.41 0.8153,-0.617 0.6643,-0.512 1.2941,-1.055 1.9289,-1.594 1.271,-1.09 2.3257,-2.305 3.4956,-3.442 0.1395,-0.129 0.4352,-0.023 0.4199,0.137 -0.024,0.359 -0.095,0.567 -0.3648,0.863"
         style="fill:#3e3231;fill-opacity:1;fill-rule:nonzero;stroke:none"
         id="path914" /><path
         inkscape:connector-curvature="0"
         d="m 1105.8813,719.79519 c -0.069,0 -0.069,-0.098 0,-0.098 0.086,0 0.086,0.098 0,0.098"
         style="fill:#3e3231;fill-opacity:1;fill-rule:nonzero;stroke:none"
         id="path916" /><path
         style="fill:#3e3231;fill-opacity:1;fill-rule:nonzero;stroke:none"
         d="M 1582.0508 11.730469 C 1577.007 11.676074 1572.138 13.897656 1568.5801 17.453125 C 1562.0986 23.903125 1559.324 32.310234 1553.5176 39.146484 C 1548.4857 45.068984 1541.4181 49.189531 1533.2871 50.894531 C 1533.2121 50.864531 1533.1744 50.831172 1533.0996 50.826172 C 1519.4871 49.868672 1505.6112 51.837422 1492.1875 53.419922 C 1477.143 55.197422 1461.9888 56.603359 1446.8516 57.912109 C 1432.6695 59.132109 1418.4396 60.37625 1404.2207 61.1875 C 1389.4594 62.0275 1374.621 62.287266 1359.8965 63.322266 C 1359.2037 63.322266 1359.2037 64.172109 1359.8965 64.162109 C 1361.1781 64.147109 1362.4597 64.11875 1363.7461 64.09375 C 1364.6085 64.1325 1365.515 64.199766 1366.459 64.322266 C 1368.0957 64.537266 1369.6656 65.266328 1371.2832 65.392578 C 1374.7711 65.671328 1378.0329 62.755547 1381.3145 63.810547 C 1381.596 63.903047 1381.8031 63.512422 1381.5215 63.419922 C 1381.4271 63.386172 1381.3526 63.374609 1381.2598 63.349609 C 1388.3844 62.929609 1395.5332 62.418594 1402.6387 61.964844 C 1417.3824 61.017344 1432.1271 60.1725 1446.8516 58.9375 C 1460.5569 57.78 1474.2257 56.377422 1487.875 54.888672 C 1498.094 53.774922 1508.3317 53.150625 1518.5684 52.515625 C 1527.693 53.990625 1536.9669 52.452969 1544.7539 48.511719 C 1552.9729 44.371719 1557.8728 37.305469 1562.0039 30.636719 C 1563.9607 27.506719 1565.867 23.697734 1568.4492 20.396484 C 1575.5995 19.605234 1575.291 27.432969 1575.291 31.105469 C 1575.291 34.912969 1575.2926 38.721641 1575.2363 42.525391 C 1575.1801 46.964141 1574.4283 51.13875 1570.6348 54.625 C 1569.7851 55.39125 1568.2045 55.983516 1567.6621 56.916016 C 1566.8861 58.166016 1566.0914 62.969766 1562.9668 61.822266 C 1562.8099 61.768516 1562.6029 61.778906 1562.5293 61.910156 C 1562.4543 62.046406 1562.3802 62.149531 1562.3242 62.238281 C 1561.6986 62.115781 1561.0987 61.979375 1560.4922 61.828125 C 1555.7243 60.626875 1551.4417 58.565314 1546.8418 57.164062 C 1545.4482 56.055313 1543.2787 55.509141 1541.2227 55.337891 C 1534.986 54.825391 1528.7047 55.235078 1522.5801 56.236328 C 1519.1113 56.802578 1516.1124 57.227656 1512.5684 57.066406 C 1509.8565 56.948906 1507.0628 57.539531 1504.4629 57.988281 C 1500.5814 58.662031 1496.7871 59.435547 1492.8496 59.810547 C 1488.9489 60.181797 1485.0046 59.689297 1481.1055 59.435547 C 1476.768 59.151797 1472.5423 59.733359 1468.3184 60.412109 C 1467.1488 60.069609 1465.982 59.873438 1465.1562 60.523438 C 1465.0061 60.639687 1464.8497 60.807031 1464.7188 60.988281 C 1464.005 61.100781 1463.3063 61.211953 1462.5879 61.314453 C 1461.9319 61.408203 1461.2496 61.485703 1460.5938 61.564453 C 1459.536 61.549453 1458.6114 61.554686 1458.293 61.554688 C 1458.0626 61.554688 1457.9492 61.684531 1457.9316 61.832031 C 1456.3685 61.963281 1454.8063 62.066016 1453.2383 62.134766 C 1452.6943 61.958516 1452.238 61.813516 1452.0684 61.759766 C 1451.8636 61.701016 1451.7126 61.846875 1451.6934 61.984375 C 1451.6741 62.066875 1451.6191 62.130625 1451.6016 62.203125 C 1447.6017 62.340625 1443.606 62.344609 1439.6445 62.412109 C 1439.2317 62.422109 1438.8199 62.4275 1438.4023 62.4375 C 1437.3272 62.32 1436.3826 62.271953 1435.7266 62.345703 C 1435.6322 62.359453 1435.5563 62.417578 1435.5371 62.486328 C 1429.6124 62.578828 1423.7132 62.667186 1417.8125 62.773438 C 1414.9886 62.827188 1412.3076 62.988516 1409.6133 63.697266 C 1407.9893 64.117266 1406.4825 64.675 1404.9961 65.1875 C 1404.7145 65.1 1404.4265 65.016328 1404.1641 64.923828 C 1403.8265 64.806328 1403.5084 65.191641 1403.8652 65.337891 C 1403.958 65.376641 1404.0517 65.422186 1404.1445 65.460938 C 1402.6582 65.949686 1401.1084 66.368672 1399.3965 66.544922 C 1399.2829 66.554922 1399.2653 66.700078 1399.3965 66.705078 C 1401.414 66.797578 1403.3343 66.425936 1405.2207 65.898438 C 1407.0895 66.665937 1408.9701 67.428672 1410.9141 68.107422 C 1406.0518 67.981172 1401.1836 67.560625 1396.4141 66.890625 C 1393.6077 66.500625 1390.9514 66.319219 1388.1387 66.730469 C 1383.7452 67.369219 1379.9026 69.595391 1375.3027 68.150391 C 1374.9587 68.037891 1374.7338 68.488516 1375.0586 68.634766 C 1380.1449 70.944766 1385.5765 67.705703 1390.8691 67.470703 C 1394.4195 67.319453 1398.2448 68.345078 1401.7695 68.736328 C 1405.2943 69.131328 1408.8197 69.303672 1412.3828 69.357422 C 1419.3955 69.459922 1426.4323 68.766328 1433.2754 67.580078 C 1441.4752 66.155078 1449.0944 64.210625 1457.5566 63.859375 C 1458.1198 64.074375 1458.6315 64.263594 1459.0059 64.371094 C 1459.2315 64.443594 1459.5371 64.259453 1459.5195 64.064453 C 1459.5195 63.975703 1459.5 63.898203 1459.5 63.814453 C 1466.3622 63.639453 1473.2627 63.942185 1480.125 63.742188 C 1487.856 63.512188 1495.1686 61.944922 1502.6562 60.607422 C 1504.6308 60.251172 1506.6309 59.982344 1508.6309 59.777344 C 1509.9316 60.299844 1511.2871 60.767578 1512.6055 61.236328 C 1512.9318 61.353828 1513.3418 61.026406 1513.0234 60.816406 C 1512.7178 60.621406 1511.9305 59.995859 1511.3418 59.537109 C 1511.6793 59.512109 1512.0042 59.493359 1512.3242 59.474609 C 1513.7737 59.869609 1515.1927 60.274922 1516.623 60.763672 C 1516.9239 60.866172 1517.2438 60.645234 1517.0742 60.396484 C 1516.7191 59.873984 1516.5686 59.507422 1516.6055 59.263672 C 1517.6055 59.229922 1518.6236 59.205547 1519.6172 59.185547 C 1520.3179 59.351797 1520.9807 59.527734 1521.4863 59.615234 C 1521.6927 59.653984 1521.8987 59.474609 1521.7676 59.318359 C 1521.7113 59.254609 1521.693 59.21 1521.6367 59.15625 C 1522.6175 59.14625 1523.5989 59.141719 1524.5605 59.136719 C 1525.1797 59.386719 1525.7486 59.61125 1526.1055 59.71875 C 1526.2735 59.7625 1526.3676 59.565703 1526.2363 59.501953 C 1525.918 59.370703 1525.6002 59.264219 1525.293 59.136719 C 1525.8433 59.136719 1526.405 59.131719 1526.9746 59.136719 C 1529.6674 59.136719 1534.0046 58.867969 1538.1934 59.074219 C 1538.1746 59.244219 1538.2677 59.425547 1538.5684 59.498047 C 1546.9554 61.715547 1549.2732 68.779688 1552.918 74.335938 C 1555.9866 78.999685 1561.2655 82.282185 1567.5039 84.054688 C 1573.9918 85.890938 1581.1983 85.030156 1587.2285 82.691406 C 1589.2844 81.900156 1591.072 80.805781 1592.7168 79.550781 C 1593.4479 80.234531 1594.4483 80.855781 1595.541 81.300781 C 1593.9986 81.475781 1592.4482 81.635936 1590.9043 81.773438 C 1589.717 81.875938 1589.455 83.078047 1590.623 83.404297 C 1596.2789 84.966797 1603.1409 85.006328 1608.2656 82.330078 C 1608.9664 82.140078 1609.6653 81.943281 1610.3789 81.738281 C 1614.678 80.459531 1618.94 79.038437 1623.2344 77.710938 C 1625.3655 77.490937 1627.5154 77.514531 1629.6465 77.300781 C 1631.7025 77.090781 1633.4159 76.153436 1635.0781 75.273438 C 1637.1534 74.179688 1639.3591 73.247186 1641.6406 72.398438 C 1643.903 71.778436 1646.2205 71.182187 1648.502 70.585938 C 1648.5582 70.772187 1648.7096 70.944609 1648.916 71.037109 C 1661.3781 76.524609 1676.3459 76.333359 1689.0527 71.474609 C 1696.4639 68.643359 1703.0829 64.654062 1710.4141 61.695312 C 1713.1276 60.606562 1715.8815 59.626172 1718.707 58.732422 C 1718.8195 58.791172 1718.95 58.853359 1719.0508 58.912109 C 1719.462 59.117109 1719.8763 58.717187 1719.6523 58.429688 C 1720.614 58.137186 1721.5759 57.847109 1722.5566 57.568359 L 1722.5566 57.574219 C 1722.7999 57.676719 1723.0814 57.568437 1723.1758 57.398438 C 1724.3438 57.065938 1725.5319 56.754531 1726.7383 56.457031 C 1727.2887 56.754531 1727.8129 57.060859 1728.3633 57.349609 C 1728.6817 57.510859 1729.2263 57.300781 1729.1895 56.988281 C 1729.1145 56.617031 1729.0199 56.266172 1728.8887 55.919922 C 1730.9638 55.431172 1733.0576 54.981406 1735.1504 54.566406 C 1740.0879 53.595156 1745.1382 52.881328 1750.2324 52.330078 C 1752.4757 52.535078 1754.6999 52.368436 1757.0566 51.992188 C 1758.0374 51.835938 1759.0179 51.655859 1759.9746 51.474609 C 1765.6112 51.074609 1771.2683 50.810703 1776.9258 50.595703 C 1776.887 50.708203 1776.832 50.817186 1776.7754 50.929688 C 1776.6816 51.173437 1777.0379 51.358594 1777.3066 51.246094 C 1777.5131 51.162344 1778.2439 50.874922 1779.0938 50.513672 C 1780.775 50.454922 1782.451 50.390781 1784.1309 50.332031 C 1784.3372 50.367031 1784.5433 50.367344 1784.7305 50.308594 C 1785.3945 50.288594 1786.0306 50.260234 1786.6738 50.240234 C 1787.4115 50.660234 1787.8987 50.654688 1788.9355 50.367188 C 1789.105 50.323438 1789.2558 50.235312 1789.4238 50.132812 C 1790.0302 50.109063 1790.6304 50.089453 1791.2559 50.064453 C 1791.1809 50.484453 1791.0876 50.875156 1791.0684 50.972656 C 1791.0509 51.216406 1791.4248 51.324922 1791.6504 51.232422 C 1792.612 50.866172 1793.5935 50.480625 1794.4238 49.953125 C 1795.4238 49.913125 1796.418 49.884453 1797.418 49.845703 C 1798.1363 50.324453 1798.7 50.241094 1799.4375 49.777344 C 1800.7191 49.733594 1802.0172 49.702813 1803.2988 49.664062 C 1803.2988 49.674063 1803.3243 49.684453 1803.3418 49.689453 C 1804.0363 50.074453 1804.8483 49.918203 1805.541 49.595703 C 1819.6479 49.185703 1833.7478 48.980234 1847.8594 48.990234 C 1848.5954 48.990234 1848.5954 48.0675 1847.8594 48.0625 C 1840.1604 48.02375 1832.4857 48.073047 1824.793 48.185547 C 1824.8667 48.106797 1824.7542 47.983359 1824.6426 48.037109 C 1824.4922 48.110859 1824.3421 48.150703 1824.1934 48.189453 C 1823.7357 48.199453 1823.305 48.203984 1822.873 48.208984 C 1821.9674 47.970234 1821.323 47.242031 1821.5918 46.363281 C 1821.6655 46.123281 1821.2291 46.041719 1821.1348 46.261719 C 1820.7604 47.066719 1821.1169 47.783516 1821.7793 48.228516 C 1818.3473 48.282266 1814.9361 48.349844 1811.5059 48.433594 C 1811.5809 48.394844 1811.5617 48.296406 1811.4492 48.316406 C 1810.5052 48.482656 1809.4862 48.243516 1808.8047 47.697266 C 1808.6174 47.551016 1808.3346 47.773281 1808.5234 47.925781 C 1808.8594 48.198281 1809.2415 48.374922 1809.6543 48.482422 C 1807.5232 48.536172 1805.3733 48.584687 1803.2422 48.648438 C 1803.2597 48.540937 1803.3236 48.428672 1803.4551 48.326172 C 1803.7175 48.121172 1803.2975 47.799766 1803.0352 48.009766 C 1802.8095 48.199766 1802.7343 48.428359 1802.7168 48.662109 C 1800.9232 48.720859 1799.1177 48.765469 1797.3242 48.824219 C 1797.0042 48.619219 1796.7422 48.354531 1796.5742 47.988281 C 1796.4992 47.867031 1796.2292 47.827813 1796.1172 47.945312 C 1795.7972 48.292812 1795.4238 48.605938 1795.043 48.898438 C 1794.8558 48.908437 1794.6498 48.912969 1794.4609 48.917969 C 1793.6306 48.946719 1792.7803 48.975859 1791.9355 49.005859 C 1791.993 48.609609 1792.1055 48.228359 1792.1055 48.037109 C 1792.1242 47.939609 1791.9738 47.858125 1791.8555 47.921875 C 1791.3115 48.243125 1790.2353 48.795156 1789.3105 49.097656 C 1788.7665 49.117656 1788.2357 49.13625 1787.7109 49.15625 C 1787.5237 48.96625 1787.5234 48.596172 1787.8418 47.951172 C 1787.898 47.814922 1787.7283 47.657109 1787.5605 47.662109 C 1787.3477 47.670859 1786.9935 47.6275 1786.7871 47.75 C 1786.5982 47.8275 1786.4108 47.930859 1786.2988 48.068359 C 1786.1801 48.214609 1786.0492 48.359609 1785.918 48.505859 C 1785.43 49.570859 1784.4099 49.449219 1782.9043 48.136719 C 1782.9043 47.955469 1782.598 47.872891 1782.4492 47.994141 C 1781.6556 48.575391 1780.9243 49.029453 1780.1484 49.439453 C 1779.4732 49.464453 1778.8108 49.492578 1778.1484 49.517578 C 1778.3052 48.966328 1778.5476 48.349766 1778.5859 48.228516 C 1780.1107 47.979766 1781.6358 47.707186 1783.0918 47.335938 C 1783.148 47.325938 1783.1863 47.301484 1783.2051 47.271484 C 1785.5426 47.305234 1787.8991 47.351016 1790.2559 47.384766 C 1791.2367 47.394766 1791.1807 46.311172 1790.2559 46.232422 C 1780.4865 45.417422 1770.2938 45.890781 1760.582 46.925781 C 1755.0749 47.512031 1749.4381 48.525935 1743.875 47.867188 C 1738.5071 47.227187 1735.4497 44.479766 1733.3555 40.822266 C 1731.0738 36.788516 1729.2054 32.379375 1722.6504 32.296875 C 1720.6871 32.266875 1718.8376 32.976172 1717.1992 33.888672 C 1717.1255 33.776172 1716.9004 33.716797 1716.75 33.810547 C 1713.5437 35.793047 1710.901 38.316328 1707.7012 40.298828 C 1703.7573 40.616328 1699.6256 40.011094 1695.7441 39.371094 C 1692.5378 38.848594 1690.731 37.926719 1688.9199 36.417969 C 1688.8249 36.157969 1688.7516 35.895703 1688.7148 35.626953 C 1688.6761 35.381953 1688.2188 35.210781 1688.0508 35.488281 C 1688.032 35.532031 1688.0128 35.573438 1687.9766 35.617188 C 1687.6758 35.338437 1687.358 35.035156 1687.0332 34.722656 C 1685.1148 32.886406 1682.9081 31.553359 1680.2266 30.474609 C 1675.3643 28.520859 1669.7085 28.564766 1664.5645 29.634766 C 1661.9213 30.181016 1659.4323 31.231172 1657.1699 32.388672 C 1655.2068 33.379922 1652.6084 35.114687 1650.0469 35.617188 C 1649.4965 35.563437 1648.9519 35.352187 1648.5215 34.898438 C 1647.8206 34.189687 1647.8398 34.112891 1647.0078 33.462891 C 1646.4462 33.029141 1645.5976 32.686875 1644.9336 32.359375 C 1643.1288 31.456875 1642.2009 30.014688 1641.332 28.554688 C 1639.5833 25.664688 1636.6397 23.755937 1632.4766 23.398438 C 1627.5711 22.974687 1622.8768 24.004922 1618.5586 25.826172 C 1613.4338 27.993672 1609.0022 31.490703 1603.084 32.095703 C 1603.0652 32.038203 1603.0284 31.968906 1602.9922 31.910156 C 1602.9922 31.827656 1602.972 31.754064 1602.877 31.695312 C 1602.365 30.821563 1601.9335 29.913203 1601.5527 28.970703 C 1601.1975 27.384453 1600.6159 25.782969 1599.8223 24.230469 C 1599.8223 24.205469 1599.8027 24.176484 1599.7852 24.146484 C 1599.5228 23.472734 1599.0853 20.167031 1597.3926 20.425781 C 1595.5798 18.052031 1593.373 15.967031 1591.0723 14.488281 C 1588.1665 12.614687 1585.077 11.763105 1582.0508 11.730469 z M 1582.8359 12.810547 C 1592.3849 12.983274 1598.9127 22.587578 1600.1582 30.40625 C 1598.7647 28.605 1596.4283 27.115234 1594.6348 25.552734 C 1592.3915 23.580234 1590.3394 21.377344 1587.9219 19.527344 C 1588.4146 19.819844 1588.9023 20.127734 1589.4336 20.396484 C 1589.5647 20.475234 1589.7519 20.299531 1589.6016 20.207031 C 1587.8272 18.967031 1585.8721 17.875859 1583.9473 16.787109 C 1583.8161 16.719609 1583.6482 16.882578 1583.7793 16.955078 C 1584.9665 17.731328 1586.1729 18.492969 1587.3984 19.230469 C 1587.2481 19.249219 1587.1341 19.365937 1587.2285 19.492188 C 1588.7724 21.694686 1591.0345 23.653984 1593.1465 25.552734 C 1595.1465 27.373984 1597.26 29.751172 1599.916 30.982422 C 1600.0285 31.036172 1600.1591 31.011641 1600.2344 30.962891 C 1600.3469 31.832891 1600.3643 32.658125 1600.3457 33.453125 C 1600.2707 33.488125 1600.2158 33.515781 1600.123 33.550781 C 1599.7102 33.735781 1599.5976 34.126719 1599.7656 34.449219 C 1595.0538 29.591719 1589.9797 24.698594 1584.4551 20.464844 C 1584.3801 20.396094 1584.21 20.4125 1584.1348 20.5 C 1584.061 20.5975 1584.0032 20.688359 1583.9297 20.787109 C 1583.8909 20.830859 1583.911 20.875313 1583.9473 20.914062 C 1584.0423 20.997813 1584.1341 21.080469 1584.2285 21.167969 C 1584.3035 21.241719 1584.4721 21.144297 1584.3984 21.060547 C 1589.2479 26.256797 1594.6349 31.299531 1599.9531 36.207031 C 1599.9344 36.250781 1599.916 36.296094 1599.916 36.339844 C 1599.8023 36.691094 1600.2358 36.870938 1600.5605 36.773438 C 1600.6543 36.865937 1600.7669 36.964141 1600.8789 37.056641 C 1601.3109 37.461641 1602.028 36.944375 1601.7656 36.515625 C 1601.572 36.221875 1601.4024 35.919453 1601.2344 35.626953 C 1601.2906 35.514453 1601.2913 35.396563 1601.3301 35.289062 C 1602.3476 35.680313 1603.3856 36.031797 1604.4785 36.310547 C 1605.4976 36.564297 1606.1538 35.538437 1605.4785 34.992188 C 1605.1234 34.699686 1604.7989 34.371797 1604.498 34.029297 C 1607.554 33.864297 1611.9857 31.646484 1613.248 31.021484 C 1617.5232 28.877734 1621.2793 27.203047 1626.5176 26.935547 C 1628.6103 26.828047 1630.7591 26.686016 1632.8711 26.759766 C 1635.6773 26.857266 1637.3405 28.356016 1639.5469 29.416016 C 1639.7341 29.513516 1639.9228 29.419609 1639.998 29.287109 C 1640.4908 30.049609 1640.9238 30.826797 1641.3926 31.529297 C 1642.111 32.604297 1643.3343 33.262109 1644.5039 33.974609 C 1644.1854 34.004609 1643.9221 34.259766 1644.1094 34.572266 C 1645.071 36.208516 1646.6357 36.872344 1648.3477 36.964844 C 1650.7108 37.941094 1653.7979 36.76 1655.7227 35.1875 C 1655.8152 35.1 1655.8718 34.997031 1655.9102 34.894531 C 1655.9464 34.869531 1656.0027 34.851172 1656.0605 34.826172 C 1663.8092 30.602422 1672.7293 28.639453 1681.3594 32.720703 C 1684.1161 34.020703 1685.4148 36.295625 1687.4707 37.984375 C 1688.0531 41.534375 1694.7096 43.932422 1698.7656 44.201172 C 1700.4407 44.308672 1702.0276 44.098828 1703.5332 43.673828 C 1705.6276 43.781328 1708.0014 42.514609 1709.3965 41.568359 C 1709.4527 41.523359 1709.509 41.475391 1709.5645 41.431641 C 1711.8076 41.021641 1713.921 40.294375 1715.8457 39.078125 C 1716.4457 38.688125 1715.6392 37.867266 1714.9961 38.228516 C 1714.0521 38.751016 1713.0703 39.157109 1712.0703 39.474609 C 1715.6207 36.470859 1719.3717 32.950625 1724.8965 33.859375 C 1729.2084 34.561875 1730.682 39.606094 1732.1699 42.277344 C 1732.3012 42.541094 1732.4707 42.773438 1732.6211 43.023438 C 1729.1907 40.390937 1724.0644 36.540078 1723.3652 36.017578 C 1723.0276 35.763828 1722.5585 36.149375 1722.8594 36.421875 C 1725.5153 38.785625 1727.739 41.469687 1730.0957 44.023438 C 1731.2828 45.313437 1732.4531 46.6125 1733.6211 47.90625 C 1734.2835 48.51125 1734.7313 49.199453 1734.9824 49.970703 C 1734.2624 49.434453 1733.5456 48.893047 1732.8145 48.341797 C 1730.3217 46.426797 1727.9635 44.405937 1725.7012 42.335938 C 1724.026 40.837187 1722.708 39.453437 1720.332 38.710938 C 1719.9897 38.604686 1719.6335 38.966563 1719.8398 39.195312 C 1723.3086 43.029063 1726.6629 47.050703 1729.8691 51.064453 C 1725.8133 48.100703 1721.8213 45.083438 1717.7285 42.148438 C 1719.1845 40.342187 1719.9909 38.257031 1719.7285 35.957031 C 1719.6535 35.318281 1718.4645 35.303281 1718.4277 35.957031 C 1718.3327 38.139531 1717.728 39.937031 1716.752 41.425781 C 1716.7282 41.412031 1716.7095 41.397813 1716.6895 41.382812 C 1716.2591 41.080313 1715.7522 41.524922 1716.0898 41.857422 C 1716.1461 41.931172 1716.201 42.002422 1716.2949 42.076172 C 1713.0327 46.187422 1706.5715 47.720391 1699.3652 48.462891 C 1699.384 48.429141 1699.384 48.396328 1699.3652 48.361328 C 1699.0836 47.502578 1698.0637 46.836875 1697.3086 46.203125 C 1696.2766 45.304375 1695.2774 44.345781 1694.1094 43.550781 C 1693.7462 43.300781 1693.1091 43.634219 1693.4082 43.980469 C 1694.221 44.904219 1695.2596 45.718594 1696.2148 46.558594 C 1696.9716 47.232344 1697.7272 48.107578 1698.7832 48.517578 C 1697.9145 48.601328 1697.0645 48.678438 1696.1973 48.742188 C 1695.0278 47.907187 1694.0332 46.886875 1693.0332 45.953125 C 1690.5212 43.658125 1688.0892 41.305703 1685.4141 39.126953 C 1685.1708 38.921953 1684.6955 39.200703 1684.9082 39.439453 C 1686.1898 40.811953 1687.3786 42.301719 1688.5098 43.824219 C 1686.0603 41.001719 1683.4531 38.234844 1680.5156 35.871094 C 1680.4019 35.773594 1680.2074 35.895703 1680.2891 36.001953 C 1683.2074 40.578203 1687.5651 44.879297 1691.5586 49.029297 C 1690.677 49.078047 1689.8082 49.122266 1688.9395 49.166016 C 1688.922 49.107266 1688.9039 49.053984 1688.8477 48.990234 C 1688.7914 48.897734 1688.5843 48.961094 1688.6211 49.058594 C 1688.6598 49.112344 1688.6766 49.140938 1688.6953 49.179688 C 1688.6203 49.184686 1688.528 49.190314 1688.4336 49.195312 C 1687.9583 48.644064 1687.1712 47.569141 1687.1328 47.525391 C 1686.0592 45.845391 1684.8275 44.206328 1683.6211 42.580078 C 1681.6643 39.962578 1679.5918 37.345703 1677.123 35.001953 C 1676.8782 34.766953 1676.4414 35.064453 1676.6094 35.314453 C 1676.8157 35.650703 1677.0475 35.987969 1677.2715 36.324219 C 1677.3665 36.451719 1677.6091 36.364064 1677.5723 36.226562 C 1678.2155 38.160314 1681.2074 40.944219 1682.7578 42.980469 C 1684.3018 45.035469 1685.6595 47.174531 1687.0898 49.269531 C 1682.5091 49.533281 1678.2539 49.878594 1674.9531 50.777344 C 1671.2605 51.787344 1667.9595 53.468359 1664.166 54.318359 C 1659.6604 55.328359 1654.5725 55.035547 1649.9727 54.748047 C 1645.0544 54.435547 1640.2025 53.595625 1635.5098 52.453125 C 1632.0411 51.608125 1628.535 50.039531 1624.8613 49.863281 C 1618.6551 49.565781 1614.9795 52.993672 1611.1348 56.294922 C 1605.0421 61.533672 1597.3919 62.373828 1588.7168 62.642578 C 1581.4225 62.867578 1573.5419 63.619453 1566.1484 62.814453 C 1567.2988 62.189453 1567.8852 61.577969 1569.9043 61.480469 C 1571.373 61.402969 1572.0297 61.910625 1573.4297 61.671875 C 1573.8041 61.608125 1574.1798 61.500703 1574.5605 61.408203 C 1574.9542 61.656953 1575.3858 61.875935 1575.8418 61.992188 C 1576.0098 62.037187 1576.1417 61.889609 1576.0488 61.787109 C 1575.8792 61.568359 1575.6554 61.3725 1575.4043 61.1875 C 1576.161 60.9525 1576.8993 60.655625 1577.6113 60.328125 C 1578.2928 60.739375 1578.9742 61.139766 1579.7246 61.447266 C 1579.8559 61.511016 1580.0238 61.358359 1579.8926 61.255859 C 1579.387 60.825859 1578.7793 60.439609 1578.1602 60.068359 C 1578.9169 59.698359 1579.6663 59.306953 1580.3672 58.876953 C 1580.5176 58.940703 1580.666 59.010936 1580.7988 59.054688 C 1580.986 59.108438 1581.1182 58.926797 1581.043 58.810547 C 1580.9867 58.726797 1580.9115 58.657578 1580.8555 58.580078 C 1581.3306 58.272578 1581.8163 57.964844 1582.2852 57.652344 C 1582.4979 57.783594 1582.7057 57.926719 1582.9121 58.042969 C 1583.1745 58.175469 1583.4784 57.960859 1583.3984 57.755859 C 1583.3234 57.520859 1583.2101 57.304687 1583.1172 57.085938 C 1584.2484 56.309686 1585.3409 55.533672 1586.416 54.826172 C 1587.1345 54.367422 1587.8307 53.886953 1588.5312 53.408203 C 1589.0738 53.858203 1589.5869 54.318203 1590.1309 54.751953 C 1590.4172 54.971953 1590.8304 54.792422 1590.8672 54.513672 C 1590.9622 53.786172 1590.905 53.374609 1590.4551 52.724609 C 1590.3988 52.632109 1590.1862 52.697422 1590.2422 52.794922 C 1590.1109 53.688672 1589.7728 53.726797 1589.248 52.935547 C 1592.1295 50.958047 1595.0553 48.844453 1597.7305 46.564453 C 1598.4857 47.051953 1599.2917 47.46125 1600.1797 47.75 C 1600.4421 47.8425 1600.7665 47.69625 1600.6914 47.4375 C 1600.4034 46.495 1600.0479 45.747031 1599.5039 45.019531 C 1600.1599 44.404531 1600.8222 43.780625 1601.4414 43.140625 C 1602.0845 43.683125 1602.7052 44.233359 1603.3867 44.755859 C 1603.6492 44.970859 1604.1413 44.921953 1604.3477 44.658203 C 1605.1604 43.564453 1604.462 42.251719 1603.4043 41.011719 C 1605.1994 38.931719 1606.6842 36.735 1607.7402 34.40625 C 1607.9099 34.07 1607.2103 33.853516 1607.0039 34.166016 C 1605.6295 36.236016 1604.104 38.175391 1602.4785 40.025391 C 1601.7473 39.264141 1600.9732 38.564922 1600.498 38.013672 C 1600.3668 37.876172 1600.1048 37.998281 1600.2168 38.144531 C 1600.7864 38.974531 1601.3855 39.797187 1601.9727 40.617188 C 1601.7295 40.899687 1601.4425 41.168516 1601.1992 41.447266 C 1600.9928 41.271016 1600.8428 41.128281 1600.7676 41.050781 C 1598.2365 38.750781 1595.9984 36.274609 1593.7344 33.818359 C 1591.9232 31.850859 1590.1309 29.874453 1588.2109 27.970703 C 1587.1358 26.900703 1586.0625 25.845313 1584.9121 24.820312 C 1584.3425 24.312813 1583.7414 23.813672 1583.1543 23.326172 C 1583.1355 23.311172 1581.6491 22.134531 1581.2363 21.988281 C 1581.0427 21.630781 1581.0617 21.730937 1580.2168 21.242188 C 1580.0489 21.139688 1579.8552 21.354453 1579.9863 21.470703 C 1587.3046 28.043203 1593.0368 35.758594 1600.4238 42.277344 C 1599.8238 42.882344 1599.2367 43.477109 1598.6367 44.068359 C 1598.5805 44.053359 1598.5048 44.093828 1598.541 44.142578 L 1598.541 44.146484 C 1598.141 44.522734 1597.7667 44.898281 1597.373 45.269531 C 1596.5794 44.570781 1595.9177 43.7625 1595.2617 43 C 1593.6362 41.15 1591.9225 39.351484 1590.1465 37.583984 C 1586.0779 33.521484 1581.4419 29.800703 1576.498 26.376953 C 1576.2357 26.186953 1575.8234 26.500078 1576.0859 26.705078 C 1580.9114 30.255078 1585.3789 34.034375 1589.5293 38.078125 C 1591.7917 40.294375 1593.9049 43.619219 1596.748 45.855469 C 1594.2425 48.116719 1591.5305 50.250078 1588.6426 52.330078 C 1588.2298 51.963828 1587.8097 51.597578 1587.3984 51.236328 L 1583.9668 48.263672 C 1581.4228 46.042422 1578.8731 43.761953 1576.0859 41.720703 C 1576.1247 40.099453 1576.1039 38.467031 1576.0664 36.832031 C 1576.0664 36.269531 1576.1231 35.4275 1576.1406 34.40625 C 1577.2158 34.9825 1579.3863 37.120781 1579.5176 37.238281 C 1581.5176 39.142031 1583.5738 41.011953 1585.6426 42.876953 C 1587.3802 44.474453 1589.9054 48.375313 1593.1309 47.476562 C 1593.3741 47.407813 1593.4665 47.189453 1593.2793 47.033203 C 1587.4923 41.754453 1582.8721 35.788594 1578.4609 29.777344 C 1578.4222 29.723594 1578.311 29.772422 1578.3477 29.826172 C 1582.0788 35.279922 1586.4913 40.421953 1591.0352 45.470703 C 1593.3535 48.019453 1588.9603 44.635 1588.4355 44.15625 C 1587.0612 42.92125 1585.6788 41.681172 1584.2852 40.451172 C 1581.6484 38.097422 1579.0296 35.694531 1576.1992 33.488281 C 1576.2917 30.533281 1576.2544 26.568516 1575.123 23.697266 C 1574.7854 21.832266 1574.0098 19.796406 1572.0723 18.628906 C 1571.5986 18.341406 1570.997 18.193906 1570.4082 18.160156 C 1572.821 15.728906 1575.8034 13.813516 1579.7793 13.072266 C 1580.8293 12.875859 1581.8481 12.792679 1582.8359 12.810547 z M 1569.9395 18.648438 C 1571.109 18.672187 1572.333 19.3525 1573.0273 20.1875 C 1573.333 20.56875 1573.5394 20.972578 1573.709 21.392578 C 1572.5777 20.230078 1570.9593 19.669065 1568.6602 20.132812 C 1569.0538 19.620313 1569.4835 19.125938 1569.9395 18.648438 z M 1629.3945 24.503906 C 1631.5327 24.442813 1633.7482 24.772266 1636.0762 25.666016 C 1637.4889 26.203516 1638.4531 27.125156 1639.2402 28.160156 C 1635.8707 24.903906 1628.3656 24.962188 1623.6152 25.617188 C 1623.4649 25.637187 1623.3329 25.665547 1623.1777 25.685547 C 1625.1961 25.016172 1627.2564 24.565 1629.3945 24.503906 z M 1720.9688 39.664062 C 1723.6501 40.616563 1725.9699 43.920703 1727.8516 45.595703 C 1730.1699 47.646953 1732.6742 49.571406 1735.2246 51.441406 C 1735.4677 51.626406 1735.806 51.612656 1736.0684 51.441406 C 1736.2252 51.338906 1736.3373 51.231641 1736.4316 51.119141 C 1736.4504 51.144141 1736.5059 51.1625 1736.5059 51.1875 C 1736.4309 51.5825 1736.3551 51.989219 1736.3184 52.417969 C 1736.2796 52.662969 1736.694 52.749766 1736.9004 52.603516 C 1737.2444 52.358516 1737.5423 52.09125 1737.8047 51.8125 C 1738.6174 52.0125 1739.5624 51.998594 1740.6504 51.652344 C 1740.9368 51.564844 1740.9366 51.339609 1740.8438 51.193359 C 1741.4244 51.262109 1742.1439 50.953281 1742.5566 50.675781 C 1742.6316 50.627031 1742.6862 50.552109 1742.7422 50.474609 C 1743.3293 50.664609 1743.9132 50.860859 1744.5195 51.037109 C 1744.537 51.047109 1744.5371 51.051797 1744.5371 51.060547 C 1744.6309 51.139297 1744.7813 51.167969 1744.9492 51.167969 C 1745.4805 51.329219 1746.0239 51.5 1746.5938 51.65625 C 1746.6498 51.67625 1746.7428 51.690938 1746.7988 51.710938 C 1745.0612 51.910936 1743.349 52.120469 1741.6113 52.355469 C 1738.8051 52.740469 1736.0673 53.243281 1733.3555 53.800781 C 1733.3555 53.693281 1733.3193 53.57625 1733.2051 53.46875 C 1730.6436 51.07625 1728.419 48.449609 1726.1758 45.880859 C 1725.3263 44.904609 1724.5131 43.912266 1723.6875 42.916016 C 1723.0811 42.198516 1721.9685 40.015312 1720.9688 39.664062 z M 1726.8496 39.904297 C 1727.624 40.524297 1728.418 41.138906 1729.1875 41.753906 C 1730.7939 43.037656 1733.2623 46.042578 1735.7695 46.330078 C 1736.2815 46.686328 1736.8054 46.998359 1737.375 47.287109 C 1737.199 47.228359 1737.0314 47.168984 1736.8809 47.115234 C 1736.6185 47.032734 1736.2995 47.164687 1736.1875 47.335938 C 1735.8051 47.853437 1735.599 48.375312 1735.543 48.882812 C 1732.543 45.987812 1729.7368 42.970314 1726.9062 39.976562 L 1726.8496 39.904297 z M 1691.2754 39.986328 C 1693.6689 40.782578 1696.275 41.091016 1698.875 41.447266 C 1700.8189 41.716016 1702.7944 41.872188 1704.7559 41.867188 C 1704.1495 42.120936 1703.5695 42.326172 1702.9824 42.482422 C 1702.9074 42.448672 1702.8684 42.433281 1702.8125 42.394531 C 1702.9821 42.320781 1702.8699 42.159688 1702.7012 42.179688 C 1702.3635 42.218437 1702.0259 42.453047 1701.8691 42.716797 C 1697.9316 43.395547 1693.8385 42.247578 1691.2754 39.986328 z M 1602.7773 41.744141 C 1604.4013 43.985391 1603.3283 43.273438 1602.2148 42.335938 C 1602.402 42.140937 1602.5902 41.944141 1602.7773 41.744141 z M 1687.2266 41.779297 C 1689.5273 44.069297 1691.8808 46.77375 1694.668 48.84375 C 1694.0872 48.8825 1693.5007 48.917422 1692.9199 48.951172 C 1691.5759 47.398672 1690.3131 45.797422 1689.0684 44.201172 C 1688.4507 43.399922 1687.8457 42.584297 1687.2266 41.779297 z M 1576.0645 42.476562 C 1578.4596 43.995314 1580.3656 46.279531 1582.3848 48.082031 C 1584.1911 49.688281 1586.0224 51.300547 1587.8848 52.873047 C 1587.0224 53.488047 1586.1341 54.102031 1585.2285 54.707031 C 1584.2285 53.277031 1582.3664 52.075703 1580.9297 50.908203 C 1580.0226 50.151953 1579.1042 49.405469 1578.1602 48.667969 C 1577.6849 48.287969 1577.4409 48.052186 1576.7656 48.023438 C 1576.6906 48.018438 1576.609 48.058672 1576.5723 48.107422 C 1576.4026 48.337422 1576.4034 48.306797 1576.498 48.560547 C 1576.5168 48.590547 1576.5535 48.614141 1576.5723 48.619141 C 1576.6535 48.629141 1576.7096 48.638436 1576.7656 48.648438 C 1576.8594 48.662187 1576.8785 48.595547 1576.8223 48.560547 C 1577.2159 48.590547 1577.5156 48.751328 1577.6836 49.048828 C 1577.9716 49.312578 1578.2535 49.577186 1578.5527 49.835938 C 1579.2711 50.489688 1580.0223 51.124531 1580.7598 51.769531 C 1582.003 52.848281 1583.2292 54.185938 1584.7988 54.992188 C 1584.4725 55.220937 1584.1541 55.450781 1583.7988 55.675781 C 1583.4357 55.909531 1583.0971 56.144065 1582.7402 56.382812 C 1582.3659 55.742813 1581.8531 55.158359 1581.1523 54.630859 C 1581.0773 54.587109 1580.9855 54.658281 1581.041 54.707031 C 1581.7034 55.259531 1582.1902 55.880703 1582.4766 56.564453 C 1582.4403 56.593203 1582.3843 56.62625 1582.3457 56.65625 C 1581.6273 56.02625 1580.8344 55.444609 1580.084 54.849609 C 1578.684 53.730859 1577.3295 52.574922 1575.8223 51.544922 C 1575.5599 51.359922 1575.0478 51.613437 1575.291 51.867188 C 1575.5406 52.154688 1575.7096 52.467188 1575.7656 52.804688 C 1575.8031 52.892187 1575.9528 52.852031 1575.9336 52.769531 C 1575.9161 52.642031 1575.897 52.520781 1575.877 52.394531 C 1576.877 53.302031 1577.9519 54.172266 1578.9902 55.041016 C 1579.8334 55.734766 1580.6843 56.496172 1581.5723 57.169922 C 1581.1339 57.462422 1580.7034 57.749609 1580.2539 58.037109 C 1579.7595 57.675859 1579.1979 57.350703 1578.7227 57.033203 C 1577.8219 56.413203 1576.9149 55.801406 1576.0078 55.191406 C 1575.8766 55.108906 1575.6706 55.083906 1575.5586 55.191406 C 1575.0275 55.650156 1575.2341 56.144766 1575.8965 56.447266 C 1575.9527 56.476016 1576.027 56.408047 1575.9707 56.373047 C 1575.6891 56.188047 1575.6892 55.943281 1575.8203 55.738281 C 1576.6076 56.304531 1577.4021 56.87625 1578.2148 57.4375 C 1578.6645 57.745 1579.1019 58.126875 1579.6074 58.453125 C 1578.9147 58.878125 1578.2145 59.283047 1577.4961 59.654297 C 1576.6528 59.166797 1575.7659 58.707031 1574.9531 58.238281 C 1574.1404 57.778281 1572.9718 56.949844 1572.1094 57.746094 C 1572.0081 57.814844 1572.1645 57.895859 1572.2207 57.818359 C 1572.8015 57.017109 1575.9167 59.282969 1576.4414 59.605469 C 1576.6094 59.707969 1576.7855 59.816328 1576.9727 59.923828 C 1576.2719 60.251328 1575.579 60.537969 1574.8223 60.792969 C 1574.4654 60.567969 1574.0837 60.358435 1573.7461 60.148438 C 1572.8213 59.572187 1571.8963 58.994531 1570.9395 58.457031 C 1570.6531 58.320781 1570.3529 58.634531 1570.5977 58.800781 C 1571.4473 59.410781 1572.3331 59.977578 1573.2402 60.548828 C 1573.4642 60.700078 1573.71 60.86 1573.9531 61.03125 C 1571.8972 61.42125 1569.5983 60.470859 1567.7168 61.349609 C 1566.8288 61.769609 1566.0156 62.228516 1565.166 62.697266 C 1565.4716 62.502266 1564.6608 62.506406 1564.0352 62.535156 L 1563.998 62.535156 C 1564.134 62.520156 1564.303 62.507185 1564.4902 62.492188 C 1565.6022 62.389688 1566.2966 61.436328 1566.791 60.767578 C 1568.015 59.010078 1567.9222 57.139686 1570.1094 55.679688 C 1571.7654 54.565938 1573.1986 52.980078 1574.0098 51.392578 C 1575.461 48.492578 1575.9157 45.504063 1576.0645 42.476562 z M 1717.0898 42.902344 C 1718.8402 44.748594 1720.483 46.679453 1722.1582 48.564453 C 1723.7645 50.351953 1726.5906 52.734766 1727.6641 55.103516 C 1727.3089 55.191016 1726.9642 55.279297 1726.6074 55.373047 L 1726.6055 55.373047 C 1722.9687 53.375547 1719.5376 51.154453 1716.4062 48.658203 C 1715.9761 48.316953 1715.2936 48.839297 1715.7305 49.185547 C 1718.7063 51.583047 1721.9132 53.746719 1725.3438 55.699219 C 1724.438 55.939219 1723.5755 56.192422 1722.6875 56.451172 C 1722.1755 55.747422 1721.6881 55.036094 1721.1953 54.308594 C 1721.1203 54.201094 1720.874 54.278281 1720.9492 54.394531 C 1720.893 54.322031 1722.1751 56.563828 1721.8184 56.392578 C 1720.6504 55.811328 1719.4804 55.230859 1718.3125 54.630859 C 1715.2374 53.024609 1712.5074 51.100469 1709.8066 49.136719 C 1709.5443 48.951719 1709.2259 49.184922 1709.3379 49.419922 C 1710.9203 52.173672 1713.675 54.459297 1716.3887 56.685547 C 1712.4319 54.649297 1708.4885 52.627187 1704.4199 50.742188 C 1704.151 50.620936 1703.831 50.928594 1704.0566 51.089844 C 1705.6614 52.124844 1707.2252 53.194766 1708.8125 54.259766 C 1709.5629 54.792266 1710.3373 55.332266 1711.1133 55.884766 C 1711.4877 56.157266 1711.8618 56.431328 1712.2441 56.705078 C 1713.3945 57.135078 1713.7886 57.833281 1713.4688 58.800781 C 1709.2254 57.277031 1705.0948 55.646094 1700.9316 53.996094 C 1700.4949 53.824844 1699.9701 54.279219 1700.3828 54.542969 C 1702.0068 55.591719 1703.5688 56.685703 1705.0938 57.814453 C 1702.7752 56.534453 1700.5499 55.176562 1698.5195 53.570312 C 1698.2508 53.375313 1697.8388 53.375314 1697.5957 53.570312 C 1697.2693 53.819063 1696.9688 54.069609 1696.6504 54.318359 C 1696.044 54.777109 1696.9691 55.485 1697.5371 55.03125 C 1698.3627 54.39125 1701.9502 57.389687 1702.6445 57.804688 C 1704.7197 59.020937 1706.8324 60.170781 1709.1699 61.050781 C 1705.2452 62.563281 1701.3819 64.184686 1697.5371 65.898438 C 1690.5196 69.028436 1683.6584 71.959453 1675.6074 73.033203 C 1673.9147 73.263203 1672.1959 73.355625 1670.4824 73.390625 C 1670.22 73.101875 1669.7278 72.950703 1669.2207 73.189453 C 1669.1457 73.229453 1669.0521 73.263125 1668.9961 73.296875 C 1668.9773 73.301875 1668.9766 73.3075 1668.9766 73.3125 C 1668.3702 73.425 1664.7516 72.959531 1665.0332 72.988281 C 1662.9212 72.764531 1660.9462 72.267344 1659.0215 71.496094 C 1657.1912 70.753594 1655.6272 69.756875 1653.8145 69.078125 C 1654.4017 68.575625 1653.8901 67.559609 1652.8711 67.818359 C 1643.6345 70.157109 1634.4905 72.681016 1625.4219 75.416016 C 1624.2348 75.777266 1623.0641 76.149297 1621.877 76.529297 C 1621.333 76.656797 1620.7647 76.798281 1620.2207 76.925781 C 1619.24 77.115781 1618.2405 77.345859 1617.2598 77.599609 C 1612.959 78.542109 1608.6478 79.377578 1604.291 80.080078 C 1600.9343 80.221328 1597.5599 79.928828 1594.2031 79.142578 C 1594.0351 79.021328 1593.8658 78.902031 1593.6914 78.769531 C 1593.7927 78.682031 1593.8845 78.590703 1593.998 78.501953 C 1594.0543 78.521953 1594.1108 78.530781 1594.1855 78.550781 C 1594.4847 78.682031 1594.7286 78.345469 1594.4277 78.199219 C 1594.4277 78.185469 1594.3923 78.175156 1594.3535 78.160156 C 1596.9534 75.742656 1599.0089 72.891797 1600.5977 70.123047 C 1600.7465 69.869297 1600.347 69.684297 1600.123 69.904297 C 1595.7103 74.493047 1591.6597 78.941328 1584.8711 81.548828 C 1577.8025 84.263828 1569.4284 83.44 1562.8477 80.34375 C 1556.235 77.21375 1553.7794 71.709609 1550.541 66.568359 C 1548.6163 63.530859 1545.7673 60.723281 1541.8105 59.394531 C 1546.4488 60.034531 1550.1983 61.622891 1550.291 65.337891 C 1550.3098 65.855391 1551.3473 66.001094 1551.4785 65.464844 C 1552.1409 62.832344 1550.5597 60.860703 1548.123 59.533203 C 1548.2218 59.464453 1548.2786 59.371641 1548.2422 59.244141 C 1548.1672 58.887891 1548.0115 58.565078 1547.8242 58.267578 C 1552.6113 59.868828 1557.1937 61.916328 1562.2305 63.048828 C 1562.2867 63.146328 1562.3238 63.263436 1562.3984 63.429688 C 1562.4347 63.502187 1562.5115 63.595469 1562.623 63.605469 C 1563.455 63.697969 1563.9793 63.657422 1564.5664 63.482422 C 1568.4095 64.019922 1572.4284 63.859453 1576.2715 63.751953 C 1581.2539 63.609453 1586.2289 63.477891 1591.2031 63.306641 C 1597.8974 63.082891 1604.4033 62.218828 1609.5664 58.673828 C 1612.5103 56.657578 1614.7165 54.108516 1617.8477 52.228516 C 1622.4284 49.474766 1627.6097 51.006875 1632.3984 52.453125 C 1640.7727 54.986875 1649.8012 56.134922 1658.7578 55.919922 C 1662.5833 55.832422 1666.1465 55.050469 1669.5977 53.824219 C 1674.5719 52.076719 1678.9278 50.729062 1684.4141 50.289062 C 1685.4892 50.201563 1686.5829 50.147266 1687.6758 50.103516 C 1687.8629 50.381016 1688.07 50.665703 1688.2637 50.939453 C 1688.4524 51.193203 1688.9212 51.125078 1689.0332 50.861328 C 1689.1457 50.538828 1689.221 50.288435 1689.2402 50.054688 C 1690.2962 50.024687 1691.3701 50.011328 1692.4629 49.986328 C 1692.6134 50.142578 1692.7456 50.299922 1692.9023 50.451172 C 1693.296 50.881172 1694.2394 50.470391 1693.8203 50.025391 C 1693.8016 50.006641 1693.7832 49.980935 1693.7832 49.960938 C 1694.596 49.947187 1695.4085 49.922422 1696.2148 49.888672 C 1696.6708 50.167422 1697.14 50.431016 1697.6152 50.666016 C 1698.0087 50.851016 1698.421 50.548828 1698.3281 50.236328 C 1698.2706 50.095078 1698.2531 49.943125 1698.2344 49.796875 C 1701.9719 49.581875 1705.6286 49.098516 1709.0781 47.853516 C 1712.1916 46.734766 1715.0707 45.041094 1717.0898 42.902344 z M 1719.4629 44.654297 C 1723.4948 47.940547 1727.7556 51.106172 1732.2051 54.044922 C 1730.9251 54.318672 1729.6611 54.600703 1728.418 54.908203 C 1727.4931 53.224453 1725.9312 51.779219 1724.5137 50.230469 C 1722.8384 48.375469 1721.1013 46.534297 1719.4629 44.654297 z M 1599.3086 45.181641 C 1600.0271 46.280391 1600.3643 47.39375 1598.3516 46.03125 C 1598.6699 45.7525 1598.9902 45.470391 1599.3086 45.181641 z M 1776.9434 47.248047 C 1771.5562 47.706797 1766.0869 48.853828 1760.9941 49.830078 C 1756.1879 50.747578 1751.9616 51.646565 1747.0801 50.445312 C 1747.5936 50.132812 1748.0612 49.76125 1748.5684 49.46875 C 1750.1364 49.45875 1751.7372 49.362422 1753.3438 49.201172 C 1759.4506 48.561172 1765.4614 47.715937 1771.6309 47.398438 C 1773.3987 47.304688 1775.1946 47.266797 1776.9434 47.248047 z M 1777.9609 48.332031 C 1777.7546 48.737031 1777.5681 49.141875 1777.3809 49.546875 C 1774.005 49.689375 1770.6106 49.851016 1767.2363 50.041016 C 1768.1978 49.856016 1769.1429 49.674062 1770.0996 49.507812 C 1772.6869 49.074064 1775.3418 48.742031 1777.9609 48.332031 z M 1743.5742 49.162109 C 1744.7613 49.333359 1746.0051 49.425234 1747.25 49.458984 C 1746.6115 49.727734 1745.9887 49.947814 1745.3887 49.976562 C 1744.9502 49.845312 1744.4814 49.712656 1744.0254 49.566406 C 1743.875 49.458906 1743.7246 49.323359 1743.5742 49.162109 z M 1739.125 49.210938 C 1739.1613 49.230936 1739.2171 49.243672 1739.2559 49.263672 C 1739.6735 49.849922 1739.9951 50.664531 1740.0879 50.800781 C 1740.1066 50.830781 1740.1441 50.845 1740.1816 50.875 C 1739.7129 50.5375 1739.2923 50.239453 1738.9355 49.970703 C 1739.0293 49.721953 1739.0866 49.469685 1739.125 49.210938 z M 1710.2598 50.291016 C 1710.3104 50.277518 1710.6074 50.471094 1711.3379 51.037109 C 1714.2194 53.288359 1717.5752 55.293672 1721.1367 56.919922 C 1720.3303 57.163672 1719.5007 57.393594 1718.707 57.652344 C 1717.2943 56.568594 1715.8819 55.484219 1714.4883 54.386719 C 1713.3955 53.526719 1712.3949 52.574531 1711.4688 51.613281 C 1711.2244 51.351172 1710.1484 50.320711 1710.2598 50.291016 z M 1707.3203 52.867188 C 1708.3202 53.389688 1709.3199 53.902422 1710.3008 54.419922 C 1712.675 55.654922 1715.0518 56.870781 1717.4453 58.082031 C 1716.5958 58.359531 1715.7695 58.65 1714.9375 58.9375 C 1714.825 58.2975 1714.407 57.926797 1713.6758 57.310547 C 1711.7703 55.709297 1709.4322 54.327188 1707.3203 52.867188 z M 1537.543 55.701172 C 1538.4242 55.713359 1539.3001 55.753906 1540.1465 55.832031 C 1539.8649 55.890781 1539.7912 56.291094 1540.1465 56.339844 C 1542.2409 56.637344 1544.2415 57.134609 1546.1855 57.724609 C 1546.6719 58.125859 1547.0716 58.595234 1547.334 59.146484 C 1546.4476 58.746484 1545.5042 58.413906 1544.5234 58.160156 C 1543.4851 57.896406 1542.4107 57.744844 1541.3418 57.652344 C 1540.7354 57.529844 1540.1663 57.422578 1539.5664 57.330078 C 1539.3984 57.305078 1539.2666 57.427656 1539.3242 57.535156 C 1538.7738 57.515156 1538.2089 57.506953 1537.6602 57.501953 C 1536.697 57.051953 1535.872 56.431875 1535.0977 55.796875 C 1535.0227 55.758125 1534.9662 55.738281 1534.9102 55.738281 C 1534.7038 55.742031 1534.5173 55.909297 1534.6484 56.060547 C 1535.2292 56.725547 1535.4553 57.169064 1535.4922 57.476562 C 1535.2297 57.471564 1534.9675 57.470937 1534.7051 57.460938 C 1533.742 57.437187 1532.7992 57.417187 1531.8359 57.398438 C 1531.0856 57.075938 1530.3668 56.680781 1529.666 56.300781 C 1529.5923 56.257031 1529.5176 56.324064 1529.5176 56.382812 C 1529.6101 56.710313 1529.6842 57.037031 1529.7402 57.363281 C 1528.8971 57.354531 1528.0487 57.344844 1527.1992 57.339844 C 1526.692 57.042344 1525.9179 56.607891 1525.4668 56.744141 C 1525.1243 56.841641 1524.9727 57.178594 1525.123 57.339844 C 1523.7295 57.344844 1522.3548 57.358437 1520.9805 57.398438 C 1523.486 56.973436 1525.954 56.523359 1528.498 56.255859 C 1530.1044 56.089609 1532.4223 55.840781 1534.9102 55.738281 C 1535.7758 55.703906 1536.6618 55.688984 1537.543 55.701172 z M 1703.7949 56.138672 C 1706.7948 57.486172 1709.9256 58.692109 1713.1816 59.537109 C 1712.188 59.898359 1711.207 60.278906 1710.207 60.660156 C 1710.1895 60.572656 1710.1508 60.489609 1710.0391 60.412109 C 1707.8696 59.064609 1705.8124 57.622422 1703.7949 56.138672 z M 1512.2578 57.853516 C 1512.5828 57.855391 1512.9089 57.866484 1513.2305 57.880859 C 1511.2113 58.062109 1509.2107 58.291953 1507.2363 58.564453 C 1507.0796 58.515703 1506.9298 58.456953 1506.7793 58.408203 C 1508.2657 58.174453 1509.7603 57.983359 1511.2852 57.880859 C 1511.6075 57.858984 1511.9328 57.851641 1512.2578 57.853516 z M 1505.9297 58.550781 C 1506.0484 58.604531 1506.1615 58.653281 1506.2559 58.707031 C 1503.4047 59.125781 1500.5608 59.604688 1497.7305 60.210938 C 1488.9307 62.104686 1480.3313 62.734531 1471.1875 62.675781 C 1469.2995 62.662031 1467.3993 62.643672 1465.4922 62.638672 C 1465.6618 62.541172 1465.7367 62.39 1465.6055 62.21875 C 1467.2054 61.0425 1468.6995 60.880625 1470.0371 61.734375 C 1470.9427 62.135625 1471.2246 62.121016 1472.2246 62.228516 C 1472.431 62.252266 1472.6374 62.193828 1472.6934 62.017578 C 1473.2997 59.947578 1477.2568 61.591953 1478.6504 62.158203 C 1478.8632 62.250703 1479.1608 62.179609 1479.2168 61.974609 C 1480.1416 59.137109 1485.61 61.334453 1487.9668 61.095703 C 1488.3044 61.060703 1488.3994 60.753436 1488.1738 60.617188 C 1489.7354 60.665937 1491.2865 60.675625 1492.8496 60.578125 C 1497.2991 60.309375 1501.5986 59.278281 1505.9297 58.550781 z M 1515.8105 59.292969 C 1516.2042 60.216719 1515.6797 59.869063 1514.5117 59.507812 C 1514.3613 59.454063 1514.1928 59.420703 1514.0039 59.376953 C 1514.6039 59.341953 1515.2298 59.312969 1515.8105 59.292969 z M 1477.0938 60.201172 C 1478.0959 60.180391 1479.0956 60.190859 1480.0859 60.224609 C 1479.8427 60.313359 1479.5749 60.395937 1479.3125 60.523438 C 1478.7685 60.805937 1478.804 61.530078 1477.8984 61.173828 C 1476.7113 60.695078 1475.3931 60.488438 1474.0859 60.367188 C 1475.0859 60.274062 1476.0912 60.221953 1477.0938 60.201172 z M 1472.3359 60.552734 C 1471.9999 61.426484 1471.0563 61.269453 1469.8867 60.908203 C 1470.7187 60.786953 1471.5247 60.670234 1472.3359 60.552734 z M 1459.2109 62.398438 C 1459.7805 62.442186 1462.1554 62.550078 1463.7188 62.642578 C 1462.2306 62.642578 1460.7428 62.657656 1459.25 62.691406 C 1459.2116 62.598906 1459.1556 62.506953 1459.0996 62.408203 C 1459.1189 62.404453 1459.1742 62.403435 1459.2109 62.398438 z M 1451.1055 62.873047 C 1450.9183 63.014297 1450.6563 63.121484 1450.3555 63.208984 C 1449.8243 63.262734 1449.2812 63.31125 1448.75 63.375 C 1448.526 63.40375 1448.2803 63.443906 1448.0371 63.472656 C 1446.5619 63.467656 1444.831 63.278828 1443.0742 63.048828 C 1445.7558 63.010078 1448.4303 62.955547 1451.1055 62.873047 z M 1439.0254 63.095703 C 1440.2686 63.223203 1441.6057 63.403359 1441.9062 63.443359 C 1443.132 63.604609 1444.3373 63.716953 1445.582 63.814453 C 1443.3629 64.166953 1441.1556 64.580781 1438.9492 65.019531 C 1438.2676 64.394531 1437.5873 63.751094 1436.9121 63.121094 C 1437.6049 63.111094 1438.3262 63.105703 1439.0254 63.095703 z M 1436.0625 63.130859 C 1437.0993 63.863359 1438.6243 64.9375 1436.2676 64.46875 C 1434.9492 64.21 1433.6501 63.999531 1432.3125 63.863281 C 1432.1621 63.848281 1432.0674 64.000391 1432.1426 64.087891 C 1432.5746 64.640391 1429.3507 63.458203 1428.6387 63.189453 C 1430.7634 63.180703 1432.8742 63.174531 1434.9688 63.144531 C 1435.3253 63.139531 1435.7057 63.139609 1436.0625 63.130859 z M 1428.2383 63.189453 C 1428.1439 63.263203 1428.1443 63.375469 1428.2754 63.449219 C 1429.613 64.151719 1430.9756 64.815547 1432.3691 65.435547 C 1432.5563 65.514297 1432.8385 65.449531 1432.8945 65.269531 C 1432.8945 65.185781 1433.1814 64.634687 1432.9688 64.429688 C 1433.4437 64.907185 1435.4993 65.20125 1437.0625 65.40625 C 1432.3682 66.36375 1427.6753 67.325625 1422.7891 67.765625 C 1419.7379 68.038125 1416.6809 68.149531 1413.625 68.144531 C 1412.513 67.183281 1411.2308 65.793203 1410.2676 65.376953 C 1412.5123 66.344453 1414.813 67.248125 1417.1953 67.984375 C 1417.4193 68.053125 1417.5882 67.833516 1417.4746 67.697266 C 1417.0938 67.189766 1416.6996 66.685859 1416.2676 66.193359 C 1415.362 65.529609 1415.2688 65.333672 1415.9824 65.607422 C 1417.4016 66.193672 1418.8515 66.699844 1420.3203 67.183594 C 1420.6451 67.281094 1420.8122 66.939453 1420.625 66.783203 C 1420.8874 67.013203 1415.738 63.048203 1419.3203 64.283203 C 1420.9827 64.855703 1422.5064 65.66 1424.0938 66.34375 C 1424.3752 66.47 1424.7494 66.212266 1424.543 65.978516 C 1422.6742 63.811016 1423.8809 64.624531 1425.8809 65.425781 C 1427.2008 65.957031 1428.405 66.075078 1429.8242 66.080078 C 1430.0114 66.080078 1430.0504 65.889609 1429.8809 65.849609 C 1427.3881 65.200859 1425.0681 64.596094 1422.9258 63.371094 C 1422.657 63.224844 1422.3939 63.498594 1422.5059 63.683594 C 1423.8994 65.773594 1422.8681 65.035078 1420.9434 64.205078 C 1420.0746 63.823828 1419.1491 63.560781 1418.1875 63.332031 C 1421.525 63.214531 1424.8816 63.194453 1428.2383 63.189453 z M 1416.7012 63.394531 L 1416.7012 63.433594 C 1417.5331 64.399844 1418.3823 65.324922 1419.2812 66.232422 C 1418.6255 65.563672 1415.9261 65.020314 1414.8125 64.664062 C 1414.5325 64.571563 1414.401 64.913516 1414.625 65.041016 C 1415.7754 65.689766 1417.6241 67.593984 1414.7188 66.490234 C 1413.005 65.836484 1411.2875 65.177266 1409.5371 64.572266 C 1411.3067 64.034766 1413.1198 63.580391 1415.0254 63.462891 C 1415.5502 63.429141 1416.138 63.418281 1416.7012 63.394531 z M 1377.3379 63.564453 C 1376.6019 63.809453 1375.8653 64.123516 1375.0957 64.416016 C 1372.3582 65.466016 1370.0023 64.600234 1367.4023 63.990234 C 1370.7207 63.882734 1374.0196 63.740703 1377.3379 63.564453 z M 1408.8945 64.767578 L 1408.8945 64.777344 C 1410.1377 65.666094 1411.8949 67.563359 1412.9141 68.037109 C 1410.8581 67.070859 1408.5202 66.324064 1406.2578 65.601562 C 1407.1266 65.332814 1408.0066 65.046328 1408.8945 64.767578 z M 1652.3652 70.044922 C 1653.402 70.332422 1654.6068 71.032578 1655.3828 71.486328 C 1654.1012 71.140078 1652.8522 70.752031 1651.6074 70.332031 C 1651.8203 70.254531 1652.026 70.17625 1652.2324 70.09375 C 1652.2887 70.09375 1652.329 70.063672 1652.3652 70.044922 z M 1634.2832 74.517578 C 1633.928 74.683828 1633.5639 74.850625 1633.207 75.015625 C 1631.5895 75.773125 1629.9285 76.081172 1628.2148 76.232422 C 1630.2532 75.676172 1632.2641 75.103828 1634.2832 74.517578 z "
         transform="matrix(0.8,0,0,-0.8,-194.18011,745.2375)"
         id="path918" /><path
         inkscape:connector-curvature="0"
         d="m 913.28122,697.13519 c -1.55005,0.125 -3.2153,-0.43 -4.73974,-0.653 -1.55005,-0.226 -3.2153,-0.179 -4.67575,-0.66 -0.16511,-0.054 -0.0998,-0.254 0.0499,-0.285 1.36061,-0.289 2.83002,-0.019 4.21495,0.129 1.68061,0.18 3.89496,0.277 5.27477,1.082 0.22016,0.125 0.1408,0.363 -0.12415,0.387"
         style="fill:#3e3231;fill-opacity:1;fill-rule:nonzero;stroke:none"
         id="path920" /><path
         inkscape:connector-curvature="0"
         d="m 1087.9425,691.55719 c -0.6003,-0.239 -1.1251,-0.657 -1.655,-0.989 -0.1498,-0.093 0.069,-0.257 0.2099,-0.164 0.5299,0.321 1.1494,0.621 1.5692,1.024 0.081,0.07 0,0.172 -0.1241,0.129"
         style="fill:#3e3231;fill-opacity:1;fill-rule:nonzero;stroke:none"
         id="path922" /><path
         inkscape:connector-curvature="0"
         d="m 1259.4986,707.27519 c -0.5504,-0.113 -1.0752,-0.129 -1.6256,-0.054 0.031,0.132 0.091,0.254 0.2406,0.367 0.2803,0.207 -0.1497,0.535 -0.4352,0.332 -0.3545,-0.262 -0.5043,-0.59 -0.3699,-0.965 0.026,-0.102 0.1447,-0.156 0.2803,-0.164 0.7194,-0.055 1.3747,0.039 1.9994,0.312 0.1203,0.051 0.045,0.196 -0.09,0.172"
         style="fill:#3e3231;fill-opacity:1;fill-rule:nonzero;stroke:none"
         id="path924" /><path
         inkscape:connector-curvature="0"
         d="m 1273.5834,707.03719 c -1.4848,0.184 -2.9747,0.254 -4.4902,0.324 -0.1344,0.004 -0.1203,-0.144 0,-0.156 1.5002,-0.137 2.99,-0.266 4.4748,-0.289 0.09,0 0.1203,0.109 0.015,0.121"
         style="fill:#3e3231;fill-opacity:1;fill-rule:nonzero;stroke:none"
         id="path926" /><path
         inkscape:connector-curvature="0"
         d="m 1147.2308,706.46319 c -1.9353,2.582 -3.8744,4.973 -5.4552,7.726 -0.4147,0.747 -0.8397,1.895 -1.6499,2.446 -0.6144,0.414 -0.5542,0.383 -1.2544,0.715 -0.3251,0.156 -1.7356,0.992 -1.9647,1.035 0.1293,-0.024 0.1843,0.105 0.069,0.164 l -0.8653,0.437 c -0.2739,0.137 -0.5299,-0.125 -0.4147,-0.32 0.3699,-0.613 0.7706,-0.891 1.495,-1.266 1.9354,-1.007 2.9056,-1.886 3.8297,-3.554 1.4656,-2.598 2.8505,-5.825 5.7701,-7.645 0.2407,-0.148 0.6106,0.035 0.4403,0.262"
         style="fill:#3e3231;fill-opacity:1;fill-rule:nonzero;stroke:none"
         id="path928" /></g></g></svg>