<?xml version="1.0" encoding="UTF-8" standalone="no"?>
<svg
   xmlns:dc="http://purl.org/dc/elements/1.1/"
   xmlns:cc="http://creativecommons.org/ns#"
   xmlns:rdf="http://www.w3.org/1999/02/22-rdf-syntax-ns#"
   xmlns:svg="http://www.w3.org/2000/svg"
   xmlns="http://www.w3.org/2000/svg"
   xmlns:sodipodi="http://sodipodi.sourceforge.net/DTD/sodipodi-0.dtd"
   xmlns:inkscape="http://www.inkscape.org/namespaces/inkscape"
   viewBox="0 0 2303.7935 970.87012"
   height="970.87012"
   width="2303.7935"
   xml:space="preserve"
   version="1.1"
   id="svg2"
   inkscape:version="0.91 r13725"
   sodipodi:docname="background-cloud3.svg"><sodipodi:namedview
     pagecolor="#ffffff"
     bordercolor="#666666"
     borderopacity="1"
     objecttolerance="10"
     gridtolerance="10"
     guidetolerance="10"
     inkscape:pageopacity="0"
     inkscape:pageshadow="2"
     inkscape:window-width="1920"
     inkscape:window-height="1017"
     id="namedview3948"
     showgrid="false"
     fit-margin-top="0"
     fit-margin-left="0"
     fit-margin-right="0"
     fit-margin-bottom="0"
     inkscape:zoom="2.1413234"
     inkscape:cx="1209.8877"
     inkscape:cy="791.8931"
     inkscape:window-x="1358"
     inkscape:window-y="-8"
     inkscape:window-maximized="1"
     inkscape:current-layer="layer2" /><metadata
     id="metadata8"><rdf:RDF><cc:Work
         rdf:about=""><dc:format>image/svg+xml</dc:format><dc:type
           rdf:resource="http://purl.org/dc/dcmitype/StillImage" /><dc:title></dc:title></cc:Work></rdf:RDF></metadata><defs
     id="defs6"><clipPath
       id="clipPath20"
       clipPathUnits="userSpaceOnUse"><path
         id="path22"
         d="m 0,9 0,8001 12001,0 L 12001,9 0,9 Z"
         inkscape:connector-curvature="0" /></clipPath></defs><g
     inkscape:groupmode="layer"
     id="layer2"
     inkscape:label="fill"><path
       style="fill:#f7f0dd;stroke:none;stroke-width:1px;stroke-linecap:butt;stroke-linejoin:miter;stroke-opacity:1;fill-opacity:1"
       d="m 1246.659,168.91277 43.4311,-5.37051 20.548,-6.77152 9.6903,-6.07101 c 0,0 6.4212,-3.38575 6.8882,-3.5025 0.467,-0.11675 9.2233,-1.05076 9.2233,-1.05076 0,0 8.2893,1.75126 8.7563,1.75126 0.467,0 8.6395,2.45175 8.6395,2.45175 l 12.9593,3.96951 11.3247,-2.56851 8.1726,-1.6345 5.4872,-0.7005 3.8528,0.81725 7.8222,2.21826 11.4416,2.21825 18.68,1.868 5.7208,0.2335 8.2892,0.46701 -16.812,2.91875 -15.1775,1.51775 -4.0863,1.98476 -5.9542,3.61926 -5.1371,2.335 -7.1217,1.401 -6.6548,-0.934 -3.8527,-1.1675 -1.6345,-0.81725 -1.2843,-0.81725 -0.8173,-0.70051 -4.0862,0.81726 -4.4365,2.68525 -5.3705,3.61926 -7.472,1.98475 -6.6548,0 -6.071,-1.6345 -7.3553,-2.10151 -7.5887,-1.51775 -10.7411,-1.868 -9.2232,-1.1675 -7.9391,-0.2335 -4.203,-0.46701 -34.3245,2.45176 -12.6091,0.35025 z"
       id="path4186"
       inkscape:connector-curvature="0" /></g><g
     inkscape:groupmode="layer"
     id="layer1"
     inkscape:label="cloud"><g
       transform="matrix(1.25,0,0,-1.25,242.72514,931.54687)"
       id="g10"
       style="display:inline"><path
         style="fill:#3e3231;fill-opacity:1;fill-rule:nonzero;stroke:none"
         d="M 1335.8691 145.61133 C 1333.7831 145.60717 1331.7816 145.83609 1329.8652 146.26172 C 1328.2653 146.37297 1326.7078 146.6518 1325.207 147.1543 C 1321.8071 148.3068 1319.2025 150.16227 1316.5449 152.13477 C 1315.0649 153.23852 1313.5277 154.24477 1311.9277 155.19727 C 1304.5647 158.57602 1296.4046 160.80172 1288.3359 163.19922 C 1284.8352 163.81422 1281.3353 164.31812 1277.8906 164.79688 C 1267.4781 166.23688 1257.0344 167.4825 1246.5723 168.625 C 1245.7163 168.7175 1246.0776 169.72336 1246.916 169.63086 C 1247.86 169.52836 1248.8166 169.41523 1249.7734 169.30273 C 1249.4422 169.46898 1249.4603 169.91711 1249.9531 169.91211 C 1265.628 169.62461 1281.3852 168.67812 1296.9785 167.45312 C 1298.1353 167.35938 1299.3022 167.25102 1300.459 167.13477 C 1300.3086 167.29602 1300.4283 167.59922 1300.7227 167.57422 C 1312.1592 166.69547 1323.5274 169.96602 1334.4824 172.13477 C 1336.876 172.60852 1339.4459 173.22984 1342.1211 173.83984 C 1342.7339 174.00109 1343.3451 174.1569 1343.9707 174.32812 C 1343.9515 174.41563 1343.9391 174.50305 1343.9023 174.5918 C 1343.84 174.90805 1344.4132 175.04102 1344.5332 174.72852 L 1344.627 174.49219 C 1345.3389 174.67844 1346.0451 174.85977 1346.7891 175.04102 C 1346.7763 175.08977 1346.7394 175.13375 1346.709 175.1875 C 1346.5778 175.45625 1347.1523 175.63961 1347.3027 175.38086 C 1347.3524 175.31836 1347.3832 175.25125 1347.4199 175.1875 C 1348.6071 175.46625 1349.8076 175.72383 1351.0332 175.92383 C 1351.0028 176.01133 1350.9641 176.1 1350.9336 176.1875 C 1350.8328 176.55375 1351.527 176.705 1351.6582 176.34375 C 1351.6886 176.24125 1351.7274 176.14352 1351.7578 176.04102 C 1352.8762 176.21102 1353.9823 176.3282 1355.0879 176.37695 C 1355.2383 176.38695 1355.3711 176.40711 1355.5215 176.41211 L 1354.9766 177.67578 C 1354.807 178.04703 1355.5511 178.20414 1355.7207 177.83789 C 1355.9511 177.35914 1356.1762 176.90625 1356.4258 176.4375 C 1358.1441 176.4675 1359.8458 176.31828 1361.5273 175.95703 C 1361.3769 176.33328 1361.2269 176.70102 1361.0957 177.07227 C 1360.9645 177.44352 1361.7087 177.60367 1361.8398 177.23242 C 1361.9391 176.88117 1362.0395 176.53375 1362.1387 176.1875 C 1362.1514 176.1875 1362.1504 176.19336 1362.1504 176.19336 C 1362.2016 176.05211 1362.2691 175.91469 1362.3203 175.77344 C 1362.9267 175.61219 1363.5376 175.42969 1364.1504 175.21094 C 1364.9888 174.90719 1365.7137 174.465 1366.4062 173.9375 C 1366.5888 174.1375 1367.0876 174.14648 1367.2012 173.83398 C 1367.3628 173.51148 1367.5013 173.19445 1367.6133 172.87695 C 1367.8645 172.6282 1368.0942 172.35555 1368.3262 172.0918 C 1370.4685 170.6168 1372.5635 169.03844 1375.1074 167.86719 C 1376.013 167.44719 1376.8681 167.21211 1377.7129 167.09961 C 1377.7945 167.12461 1377.895 167.11125 1377.9766 167.0625 C 1378.4069 167.01875 1378.8196 167.0132 1379.2324 167.0332 C 1382.9763 170.07445 1387.9565 171.43586 1393.3691 171.41211 C 1400.2682 171.38711 1404.8877 167.93969 1410.0508 164.89844 C 1413.6123 162.79844 1417.6062 162.31062 1421.9629 162.04688 C 1425.9756 161.79812 1429.9194 161.28102 1433.8633 160.66602 C 1434.7497 160.52977 1435.6561 160.38148 1436.5488 160.24023 C 1441.5311 159.94273 1446.5193 159.63547 1451.5 159.29297 C 1452.1128 159.24922 1452.1256 158.48273 1451.5 158.52148 C 1449.7688 158.61398 1448.0183 158.73148 1446.2871 158.83398 C 1446.3367 158.81398 1446.382 158.7757 1446.4316 158.75195 C 1446.6316 158.72695 1446.7941 158.69773 1446.9941 158.67773 L 1447.0117 158.67383 C 1451.8804 158.07883 1456.4809 158.47273 1461.332 158.36523 C 1462.1256 158.34523 1462.2557 157.48602 1461.5117 157.29102 C 1460.9357 157.13977 1460.3249 157.01852 1459.7188 156.91602 C 1461.2497 156.79852 1462.8008 156.67148 1464.3496 156.49023 C 1465.0312 156.41773 1464.7622 155.60086 1464.0742 155.69336 C 1460.6871 156.15336 1457.3053 156.41281 1453.8926 156.53906 C 1453.4926 156.54406 1453.0803 156.55938 1452.6562 156.57812 C 1449.0741 156.67687 1445.4733 156.62672 1441.8926 156.48047 C 1443.1182 156.18297 1444.3552 155.8507 1445.5938 155.4707 C 1445.8368 155.38695 1445.7557 155.06906 1445.4629 155.13281 C 1443.3493 155.61156 1441.2183 156.01602 1439.0938 156.35352 C 1437.1944 156.25102 1435.2635 156.13836 1433.3691 156.00586 C 1423.6813 155.32336 1413.763 154.73703 1404.4062 152.61328 C 1400.5505 151.74328 1397.0503 150.19711 1393.1191 149.47461 C 1389.444 148.80086 1385.5142 149.30211 1381.8887 149.91211 C 1379.0327 150.39086 1376.2266 151.09578 1373.4395 151.76953 C 1371.7211 152.10578 1369.9757 152.40367 1368.1758 152.54492 C 1364.1823 152.86742 1360.2382 151.92055 1356.5566 150.8418 C 1350.4512 149.0593 1344.5842 146.20211 1337.9844 145.69336 C 1337.2704 145.63867 1336.5645 145.61271 1335.8691 145.61133 z M 1331.082 147.34961 C 1332.7636 147.30961 1334.434 147.44266 1336.1348 147.69141 C 1335.6036 148.42391 1335.2085 149.17687 1334.8965 149.95312 C 1334.7781 149.85063 1334.6452 149.7557 1334.5332 149.6582 C 1333.8388 148.26695 1332.7156 147.65711 1331.3652 147.50586 C 1331.266 147.45711 1331.1828 147.39836 1331.082 147.34961 z M 1341.0957 147.61719 C 1341.1645 147.62719 1341.2144 147.63344 1341.2656 147.64844 C 1346.7903 148.75719 1351.8076 151.02711 1357.1387 152.59961 C 1351.9708 151.31086 1347.0397 149.29352 1342.0078 147.85352 C 1341.7278 147.77102 1341.3965 147.69594 1341.0957 147.61719 z M 1336.6953 147.78906 C 1337.6649 147.94531 1338.6392 148.14023 1339.6328 148.36523 C 1338.3576 149.08273 1337.1571 149.83969 1336.002 150.67969 C 1335.9507 150.76219 1335.8827 150.82594 1335.8203 150.89844 C 1335.6523 150.72344 1335.4903 150.55797 1335.3223 150.38672 C 1335.5911 149.46922 1336.1017 148.60906 1336.6953 147.78906 z M 1340.3711 148.55078 C 1341.7903 148.90203 1343.2261 149.30242 1344.6133 149.73242 C 1347.5332 150.63617 1350.4514 151.69555 1353.4258 152.62305 C 1353.389 152.61805 1353.3894 152.61435 1353.3574 152.60938 C 1353.3078 152.59937 1353.2897 152.6432 1353.3281 152.6582 C 1354.1345 153.0432 1354.976 153.34133 1355.832 153.58008 C 1353.5889 155.53758 1351.7278 157.67203 1350.0078 159.89453 C 1351.0654 157.77078 1352.101 155.63961 1353.1074 153.50586 C 1353.2882 153.16961 1352.682 152.95578 1352.3828 153.17578 C 1349.1637 155.53328 1346.397 158.12695 1343.9395 160.93945 C 1345.5714 157.98945 1347.2031 155.03469 1348.8398 152.08594 C 1349.0334 151.76344 1348.5898 151.5007 1348.2266 151.7207 C 1344.545 153.9857 1341.9212 156.87086 1339.7148 160.00586 C 1340.9516 156.70461 1342.2515 153.42836 1343.6387 150.16211 C 1343.757 149.90336 1343.3277 149.75586 1343.0957 149.91211 C 1340.9518 151.36711 1339.2331 153.03258 1337.6523 154.83008 L 1337.6035 154.53711 C 1337.7523 154.24836 1337.8825 153.96258 1338.0137 153.67383 C 1338.8072 151.97008 1339.5967 150.25953 1340.3711 148.55078 z M 1329.6504 148.56641 C 1331.6498 148.56103 1333.3117 149.22352 1333.6699 151.50586 C 1334.0523 154.05461 1333.5581 156.86195 1333.0957 159.37695 C 1332.9149 160.3382 1332.5514 161.55992 1333.0762 162.48242 C 1333.6586 163.46867 1334.6135 163.96687 1335.5703 164.48438 C 1335.9639 164.87937 1336.4647 165.21156 1337.0391 165.44531 C 1335.2759 165.83156 1333.5078 165.96344 1331.6582 166.08594 C 1330.4198 166.04719 1329.2036 165.99289 1327.9844 165.96289 C 1324.5348 165.14289 1321.0214 164.77586 1317.3398 164.69336 C 1306.7289 164.45836 1295.8895 165.7232 1285.3281 166.37695 C 1283.3458 166.50445 1281.3714 166.63617 1279.3906 166.76367 C 1282.4593 165.99242 1285.5102 165.1232 1288.5293 164.2207 C 1293.0844 163.40445 1297.5533 162.38828 1301.8477 160.95703 C 1304.3724 160.10828 1306.6267 159.10352 1308.7578 158.00977 C 1312.0074 156.86227 1315.1277 155.525 1317.8828 153.78125 C 1320.2268 152.2825 1322.3382 150.65555 1324.8262 149.3418 C 1326.3353 148.97867 1328.0953 148.57058 1329.6504 148.56641 z M 1339.0449 149.30273 C 1339.2161 149.32707 1339.1977 149.61398 1338.8203 150.38086 C 1338.3083 151.40211 1337.8323 152.43203 1337.3379 153.45703 C 1337.3379 153.44328 1337.3379 153.4232 1337.3203 153.4082 C 1337.0883 152.6907 1336.6761 151.99383 1336.1641 151.33008 C 1336.5576 151.00258 1336.9703 150.67969 1337.4023 150.36719 C 1337.9483 149.95156 1338.7596 149.26218 1339.0449 149.30273 z M 1391.3066 149.99219 C 1395.4314 150.29469 1399.3569 151.8957 1403.3008 153.0332 C 1402.3952 152.81445 1401.4684 152.58336 1400.582 152.34961 C 1397.4749 151.53836 1394.4938 150.56844 1391.3066 149.99219 z M 1342.2695 151.01172 C 1342.4041 151.04588 1342.3471 151.36852 1341.9707 152.1582 C 1340.2891 155.7032 1338.9712 159.37695 1337.7344 163.0332 C 1337.6144 163.3757 1338.2755 163.61859 1338.4883 163.27734 C 1340.869 159.35609 1343.5577 155.65977 1347.7832 152.75977 C 1346.196 153.84852 1345.2896 156.92453 1344.4336 158.45703 C 1343.1968 160.65453 1341.9383 162.85328 1340.7207 165.05078 C 1340.3383 165.08953 1339.9765 165.14203 1339.5957 165.17578 C 1339.2821 165.20078 1339.0199 165.21094 1338.7383 165.21094 C 1338.4263 164.80969 1338.114 164.49844 1337.5332 164.21094 C 1336.6068 163.75719 1335.9846 163.29258 1335.4902 162.79883 C 1335.4599 161.85633 1335.7708 160.83633 1336.0332 160.14258 C 1336.4268 159.18508 1337.0071 158.26305 1337.4199 157.31055 C 1337.6135 156.80805 1337.7012 156.2957 1337.7012 155.7832 C 1338.258 155.1182 1338.8072 154.45344 1339.4023 153.80469 C 1339.7443 153.41656 1341.8659 150.90924 1342.2695 151.01172 z M 1384.1836 151.49609 C 1384.9388 151.48609 1385.6642 151.50008 1386.4258 151.54883 C 1387.2018 151.89508 1387.9264 152.41313 1388.6191 152.92188 C 1390.6127 154.37187 1390.5505 156.26578 1389.1953 157.70703 C 1389.8065 155.10953 1388.0574 153.0432 1385.0879 151.7832 C 1384.8063 151.66195 1384.4956 151.58359 1384.1836 151.49609 z M 1388.2891 151.73047 C 1388.8523 151.79797 1389.4054 151.87258 1389.9688 151.95508 C 1391.4053 152.17508 1392.8257 152.45312 1394.2129 152.76562 C 1393.5201 153.76562 1392.844 154.77086 1392.1816 155.78711 C 1391.7001 156.20711 1391.2456 156.63164 1390.7832 157.05664 C 1391.4072 155.31914 1390.233 153.04797 1388.2891 151.73047 z M 1335.6035 151.80273 C 1335.6403 151.83273 1335.6703 151.86078 1335.6895 151.89453 C 1336.4142 152.76453 1336.7458 153.60836 1336.8594 154.44336 C 1336.3458 155.53211 1335.8202 156.61828 1335.2891 157.70703 C 1335.1387 158.03828 1335.7828 158.2232 1336.002 157.93945 C 1336.1444 157.74945 1336.3145 157.56125 1336.4648 157.375 C 1336.0329 158.5475 1335.4205 159.7232 1334.9277 160.93945 C 1334.8461 161.1682 1334.7781 161.38742 1334.7461 161.60742 C 1334.4149 160.73367 1334.4649 159.72375 1334.6953 158.46875 C 1335.0457 156.525 1335.439 154.22563 1335.207 152.14062 C 1335.3382 152.02812 1335.4707 151.91523 1335.6035 151.80273 z M 1380.7402 152.11914 C 1383.3894 152.1909 1385.8641 152.96305 1387.4824 154.83008 C 1389.7576 157.48133 1387.4454 158.99977 1384.6758 159.79102 C 1382.4646 160.15227 1380.0577 160.03453 1377.8945 160.11328 C 1375.8946 160.19078 1374.1327 160.60109 1372.4512 161.40234 C 1372.3504 161.44609 1372.2512 161.48945 1372.1504 161.5332 C 1372.1328 161.5482 1372.1012 161.55445 1372.082 161.56445 C 1372.0693 161.5782 1372.0387 161.59242 1372.0195 161.60742 C 1371.8067 161.71492 1371.5766 161.82273 1371.3574 161.95898 C 1370.5206 162.52523 1369.8877 163.16047 1369.2637 163.82422 C 1368.9629 164.04922 1368.651 164.25945 1368.3262 164.43945 C 1368.3069 164.35695 1368.2883 164.2693 1368.2754 164.18555 C 1368.2258 163.9518 1367.7757 163.9268 1367.6445 164.12305 C 1367.4509 164.42555 1367.2527 164.73852 1367.0703 165.04102 C 1366.0143 165.43102 1364.8391 165.63703 1363.4199 165.67578 C 1361.9895 165.71453 1360.602 165.61109 1359.2324 165.46484 C 1359.2324 165.39609 1359.2327 165.33314 1359.252 165.26562 C 1359.2647 165.06438 1358.9343 164.96602 1358.752 165.10352 C 1358.6527 165.19102 1358.5582 165.2843 1358.459 165.37305 C 1355.1087 164.9668 1351.8385 164.35625 1348.2754 164.78125 C 1348.013 164.815 1347.7155 164.85492 1347.4531 164.88867 C 1347.5651 164.72242 1347.6648 164.55688 1347.7832 164.39062 C 1348.1768 164.24937 1348.5704 164.0832 1348.9512 163.9082 C 1349.5448 163.6932 1350.1272 163.4832 1350.6328 163.2832 C 1351.7272 162.8682 1352.7142 162.34961 1353.6582 161.78711 C 1353.839 161.81211 1353.984 161.79383 1354.1152 161.64258 C 1354.184 161.56508 1354.232 161.48484 1354.3008 161.40234 C 1357.9135 159.12234 1360.9832 156.19281 1365.5703 155.28906 C 1365.7831 155.24531 1365.7501 155.03617 1365.582 154.98242 C 1365.6508 154.96242 1365.7144 154.93711 1365.7832 154.91211 C 1368.2584 154.94711 1370.633 154.67992 1373.0762 154.04492 C 1374.8393 153.58617 1376.5263 152.9457 1378.2383 152.4082 C 1378.5199 152.3507 1378.7692 152.29703 1379.0508 152.23828 C 1379.2316 152.19953 1379.3957 152.16961 1379.5957 152.13086 C 1379.9793 152.11367 1380.3618 152.10889 1380.7402 152.11914 z M 1394.7383 152.88672 C 1399.2758 153.93672 1403.6312 155.35297 1408.1367 156.48047 C 1404.4248 158.87297 1401.9701 162.11617 1399.4453 165.29492 L 1397.9375 167.16406 C 1397.9071 167.17406 1397.8758 167.18922 1397.8262 167.19922 C 1397.8885 167.06672 1397.9575 166.93523 1398.0391 166.80273 C 1399.6582 163.47773 1401.4696 160.21945 1403.4199 157.00195 C 1403.5015 156.8607 1403.4019 156.67078 1403.1699 156.67578 C 1401.2068 156.74328 1401.5196 157.24281 1400.4316 158.72656 C 1398.6013 161.26156 1396.5197 163.67727 1394.3262 166.04102 C 1394.0446 166.33352 1393.7816 166.62617 1393.5 166.91992 C 1393.1688 167.07617 1392.927 167.22312 1392.6758 167.35938 C 1393.1206 166.30563 1393.5513 165.25117 1394.0137 164.20117 C 1395.2328 161.23742 1396.4394 158.26313 1397.5273 155.26562 C 1397.5961 155.06063 1397.202 154.92719 1397.082 155.11719 C 1394.1141 159.48844 1390.9962 163.69234 1386.4395 167.18359 C 1386.7082 166.96859 1387.4121 165.27406 1387.5625 164.97656 C 1388.4505 163.24781 1389.3956 161.54445 1390.3828 159.8457 C 1391.738 157.49195 1393.2199 155.17672 1394.7383 152.88672 z M 1356.5898 153.75586 C 1357.5146 153.96086 1358.4589 154.09703 1359.4141 154.17578 C 1359.5638 154.20441 1359.7077 154.24441 1359.8574 154.2793 C 1359.8447 154.2793 1359.8457 154.27945 1359.8457 154.2832 C 1358.5385 155.2557 1357.3512 156.28992 1356.3145 157.38867 C 1356.6072 156.23617 1356.7082 155.03461 1356.5898 153.75586 z M 1409.0645 154.32812 C 1416.9827 155.74812 1425.3437 156.12945 1433.3691 156.7207 C 1434.0571 156.77445 1434.7373 156.81367 1435.4316 156.85742 C 1434.2573 156.99867 1433.0865 157.11453 1431.9121 157.20703 C 1429.9809 157.12953 1428.0498 157.02758 1426.125 156.86133 C 1420.3619 156.36758 1414.6579 155.48938 1409.0645 154.32812 z M 1360.4688 154.39062 C 1361.4061 154.55688 1362.3646 154.68875 1363.3086 154.78125 C 1362.4142 155.1275 1361.538 155.49352 1360.7012 155.88477 C 1360.7139 155.38602 1360.6818 155.37352 1360.4883 154.41602 C 1360.4883 154.40602 1360.4686 154.40063 1360.4688 154.39062 z M 1355.9336 154.67969 C 1356.0328 156.22719 1355.5201 157.74977 1354.7441 159.16602 C 1352.7442 160.52852 1350.7826 162.04594 1348.6387 163.17969 C 1349.8578 161.38719 1351.1332 159.60633 1352.5332 157.89258 C 1352.9268 157.39508 1355.9144 154.46969 1355.9336 154.67969 z M 1351.5078 154.83984 C 1350.039 157.85734 1348.4898 160.85477 1346.9395 163.85352 C 1345.2899 164.31727 1343.5902 164.68508 1341.8398 164.92383 C 1344.4654 161.19883 1347.6951 157.84734 1351.5078 154.83984 z M 1359.4668 155.55273 C 1359.6966 155.57482 1359.8522 155.78266 1359.877 156.26953 C 1358.9346 156.72453 1357.9951 157.19867 1357.0879 157.70117 C 1356.9888 157.75992 1356.8701 157.82797 1356.7773 157.88672 C 1357.4049 157.09641 1358.7773 155.48646 1359.4668 155.55273 z M 1392.0312 155.99805 C 1389.7259 159.5868 1387.6649 163.26797 1385.8457 167.04297 C 1385.2201 166.83672 1384.6067 166.62688 1384.002 166.42188 C 1383.6516 166.20312 1383.3065 165.97758 1382.9434 165.76758 C 1384.6249 163.55508 1386.5068 161.45203 1388.5195 159.42578 C 1389.4747 158.95203 1390.2193 158.27805 1390.6641 157.31055 C 1391.1073 156.8718 1391.569 156.4318 1392.0312 155.99805 z M 1409.4062 156.79883 C 1410.4016 157.02883 1411.4058 157.24359 1412.3945 157.43359 C 1410.825 159.08359 1409.2454 160.72438 1407.6582 162.35938 C 1407.5142 162.41813 1407.3753 162.49094 1407.2441 162.55469 C 1408.0057 160.64469 1408.7505 158.72758 1409.4062 156.79883 z M 1408.1387 157.10547 C 1408.4117 157.08227 1408.4611 157.35797 1408.1191 158.12109 C 1407.3432 159.79109 1406.7006 161.4907 1406.0254 163.18945 C 1405.251 163.64445 1404.5373 164.1669 1403.8125 164.70312 C 1402.2445 165.49937 1400.664 166.24578 1398.9824 166.83203 C 1400.6448 164.61453 1402.3442 162.39828 1404.1953 160.26953 C 1404.4905 159.93203 1407.3195 157.17508 1408.1387 157.10547 z M 1441.5195 157.18945 C 1442.9003 157.2432 1444.2739 157.26602 1445.6738 157.29102 C 1445.2306 157.35477 1444.7811 157.41867 1444.3555 157.48242 C 1443.4499 157.46242 1442.5364 157.43883 1441.6309 157.42383 C 1441.6005 157.34633 1441.582 157.28758 1441.582 157.26758 C 1441.5693 157.23383 1441.5323 157.2132 1441.5195 157.18945 z M 1395.9629 157.48242 C 1395.2685 158.90367 1394.7261 160.36383 1394.1133 161.79883 C 1393.2189 163.89883 1392.3635 166.00242 1391.4883 168.10742 C 1391.3892 168.10742 1391.2881 168.11133 1391.1953 168.11133 C 1389.6753 168.08633 1388.2696 167.78367 1386.9336 167.38867 C 1390.5511 164.45367 1393.3885 161.01742 1395.9629 157.48242 z M 1413.3008 157.59961 C 1414.6687 157.83336 1416.075 158.03375 1417.4941 158.15625 C 1420.1821 158.39125 1422.8563 158.49375 1425.5312 158.46875 C 1423.8931 159.7675 1423.7139 159.25961 1422.8691 158.53711 C 1422.7571 158.43461 1422.5754 158.45836 1422.457 158.53711 C 1419.6379 160.32461 1419.6878 160.45539 1417.8574 158.30664 C 1417.7887 158.23414 1417.6438 158.19359 1417.543 158.27734 C 1416.6678 159.16609 1415.6929 160.0068 1414.7188 160.8418 C 1414.325 160.87555 1413.9332 160.91328 1413.5332 160.95703 C 1413.4516 159.93703 1413.32 158.29711 1413.3008 157.59961 z M 1401.8906 157.67383 C 1402.0044 157.79045 1400.8985 160.01961 1400.9141 159.99219 C 1400.2693 161.06594 1399.6577 162.16406 1399.0449 163.25781 C 1398.2881 164.64031 1397.5951 166.04102 1396.9199 167.44727 C 1395.7631 167.73477 1394.5559 167.93461 1393.2871 168.03711 C 1396.2566 164.79086 1399.012 161.43188 1401.5879 157.98438 C 1401.773 157.73266 1401.8644 157.64691 1401.8906 157.67383 z M 1412.4355 158.42773 C 1412.5527 158.44414 1412.5154 158.80227 1412.4746 159.55664 C 1412.4442 160.06914 1412.4258 160.58672 1412.4258 161.10547 C 1411.7826 161.19797 1411.1377 161.3243 1410.5137 161.4668 C 1410.4017 161.4618 1410.2631 161.47531 1410.1191 161.53906 C 1410.0679 161.55906 1410.0379 161.58352 1409.9883 161.60352 C 1409.7195 161.67227 1409.4577 161.72523 1409.2129 161.80273 C 1409.9505 160.98773 1410.7136 160.16781 1411.4688 159.35156 C 1412.0469 158.73656 1412.3184 158.41133 1412.4355 158.42773 z M 1426.6016 158.44336 C 1426.9136 158.47211 1427.2624 158.51102 1427.5938 158.54102 C 1429.9183 158.74102 1432.3252 158.9025 1434.7363 159 C 1432.818 159.3125 1430.9069 159.61492 1428.9629 159.88867 C 1428.7821 159.91742 1428.5627 159.93203 1428.3691 159.95703 C 1425.694 160.12703 1422.9887 160.29945 1420.3008 160.4707 C 1421.288 159.77695 1422.7754 158.92758 1423.2188 159.76758 C 1423.2682 159.87508 1423.4188 159.96758 1423.582 159.92383 C 1424.7196 159.59633 1425.2638 159.27477 1426.0254 158.47852 L 1426.0254 158.45703 C 1426.219 158.45703 1426.4016 158.44836 1426.6016 158.44336 z M 1388.207 159.56641 C 1386.9511 160.82641 1385.7441 162.11117 1384.5762 163.41992 C 1384.2322 163.81117 1383.4066 165.08008 1382.8066 165.70508 C 1382.613 165.59758 1382.4321 165.49984 1382.2129 165.40234 C 1382.2321 165.27984 1382.264 165.14367 1382.3008 164.98242 C 1382.5632 163.77617 1382.7274 162.54547 1382.9082 161.32422 C 1384.4762 161.11922 1386.3262 160.62086 1387.6445 159.75586 C 1387.8061 159.69336 1388.0262 159.64016 1388.207 159.56641 z M 1417.1934 159.57812 C 1417.2862 159.56965 1417.377 159.57072 1417.4668 159.58203 C 1417.898 159.63635 1418.2923 159.92961 1418.6133 160.57227 C 1418.4021 160.58602 1418.2186 160.60133 1418.0059 160.61133 C 1417.0635 160.67008 1416.1072 160.72828 1415.1504 160.80078 C 1415.8276 160.15752 1416.5437 159.63742 1417.1934 159.57812 z M 1382.2129 161.4082 C 1381.6881 162.14945 1381.489 163.64828 1381.377 165.01953 C 1381.1146 164.91703 1380.8444 164.80625 1380.582 164.71875 C 1380.3196 164.63625 1380.0875 164.58133 1379.8379 164.51758 C 1380.6011 163.47258 1381.3761 162.4332 1382.2129 161.4082 z M 1381.1562 161.46094 C 1380.3691 161.74844 1379.5564 162.01227 1378.7324 162.29102 C 1378.7197 162.03227 1378.702 161.77328 1378.6523 161.51953 C 1379.4955 161.50453 1380.3197 161.49469 1381.1562 161.46094 z M 1377.3828 161.56445 C 1375.9828 162.6482 1374.7884 163.82859 1373.9004 165.15234 C 1373.8811 165.16234 1373.8692 165.17078 1373.8516 165.17578 C 1373.9012 164.22453 1373.7835 163.26297 1373.4395 162.26172 C 1373.5899 162.20797 1373.7212 162.14555 1373.8828 162.0918 C 1374.9708 161.7443 1376.1636 161.6182 1377.3828 161.56445 z M 1377.6426 161.96289 C 1377.9075 161.96799 1378.119 162.11063 1378.2266 162.46094 C 1377.0522 162.89094 1375.8946 163.37563 1374.957 164.07812 C 1374.9378 164.09312 1374.9275 164.1132 1374.9082 164.12695 C 1374.9706 164.0157 1375.0395 163.90242 1375.1211 163.79492 C 1375.5663 163.17617 1376.8477 161.9476 1377.6426 161.96289 z M 1412.4258 161.96875 L 1412.4258 162.39453 C 1410.9954 162.97578 1409.6878 163.65789 1408.3887 164.40039 C 1409.3438 163.78539 1410.2321 163.14555 1411.0449 162.4668 C 1411.1265 162.3943 1411.1766 162.31969 1411.207 162.24219 C 1411.6022 162.13969 1412.0018 162.05125 1412.4258 161.96875 z M 1381.127 162.13086 C 1380.5014 162.88211 1379.8571 163.64828 1379.3438 164.39453 C 1379.1628 164.36078 1379.0027 164.34125 1378.8203 164.3125 C 1378.8523 163.93625 1378.8331 163.55969 1378.8203 163.17969 C 1379.6267 162.88594 1380.4022 162.56961 1381.127 162.13086 z M 1372.5137 162.70117 C 1370.9953 164.59992 1369.6943 166.5107 1368.6016 168.50195 C 1368.6512 167.71695 1368.6207 166.92516 1368.5391 166.12891 C 1370.0078 164.99141 1370.8641 163.63367 1372.5137 162.70117 z M 1372.6758 163.28906 C 1372.9049 163.26699 1373.0918 163.51758 1373.1758 164.26367 L 1373.1758 165.24609 C 1372.9262 165.53859 1372.7269 165.80125 1372.5957 166.03125 C 1371.5765 166.85625 1370.6822 167.8825 1369.8262 168.9375 C 1369.3958 169.22625 1368.9828 169.52281 1368.5508 169.82031 C 1368.7012 169.47406 1368.8013 169.13227 1368.9629 168.79102 C 1369.5757 167.49227 1370.3898 166.27555 1371.2266 165.06055 C 1371.4675 164.71078 1372.1717 163.33762 1372.6758 163.28906 z M 1378.2891 163.38086 C 1378.2698 163.66836 1378.2697 163.95187 1378.2266 164.23438 C 1377.5146 164.17687 1376.839 164.21563 1376.207 164.32812 C 1376.8518 163.94188 1377.5643 163.64961 1378.2891 163.38086 z M 1377.1621 165.04688 C 1377.4599 165.02878 1377.7675 165.03031 1378.0879 165.05469 C 1378.0575 165.17094 1378.0069 165.28875 1377.9766 165.40625 C 1377.0822 165.48 1376.1443 165.66109 1375.1699 166.02734 C 1374.8259 166.16359 1374.5145 166.3193 1374.1641 166.4668 C 1374.2824 166.29555 1374.4265 166.14328 1374.5273 165.95703 C 1374.5961 165.85953 1374.6753 165.79297 1374.7441 165.69922 C 1375.4713 165.33734 1376.2687 165.10113 1377.1621 165.04688 z M 1352.0703 165.3418 C 1352.6923 165.32836 1353.3144 165.32828 1353.9336 165.34766 C 1354.2024 165.35266 1354.4642 165.38148 1354.7266 165.39648 C 1354.5442 165.54273 1354.3956 165.69344 1354.2324 165.83594 C 1352.9141 165.71344 1351.5574 165.60648 1350.1895 165.55273 C 1350.1895 165.50898 1350.207 165.46477 1350.207 165.41602 C 1350.8262 165.38164 1351.4483 165.35523 1352.0703 165.3418 z M 1281.3027 165.37305 C 1279.8148 165.86555 1278.3471 166.38328 1276.8848 166.92578 C 1271.9473 167.24328 1266.9972 167.55461 1262.0469 167.88086 C 1267.0276 167.27586 1272.0154 166.64141 1276.9785 165.97266 C 1278.4345 165.77766 1279.866 165.58305 1281.3027 165.37305 z M 1355.207 165.42969 C 1356.1142 165.51844 1357.0401 165.65562 1357.9648 165.79688 C 1357.8144 165.91438 1357.696 166.03695 1357.584 166.1582 C 1357.552 166.15445 1357.5328 166.15344 1357.5137 166.14844 C 1356.7265 166.07969 1355.9337 165.99867 1355.0762 165.91992 C 1355.1274 165.77867 1355.1711 165.64125 1355.2207 165.5 C 1355.2207 165.47625 1355.207 165.45469 1355.207 165.42969 z M 1321.2148 165.56836 C 1322.8036 165.72961 1324.3715 165.95789 1325.9219 166.27539 C 1325.9346 166.27539 1325.9336 166.28125 1325.9336 166.28125 C 1326.0023 166.29625 1326.0825 166.30547 1326.1641 166.32422 C 1328.1448 166.74422 1330.0959 167.30602 1331.9902 168.00977 C 1334.6334 168.99102 1337.1205 170.21164 1339.6133 171.43164 C 1338.4069 171.11414 1337.1908 170.80719 1335.9844 170.46094 C 1330.9221 169.01094 1326.3459 166.74961 1321.2148 165.56836 z M 1405.9258 165.87109 C 1404.5258 166.72109 1403.0875 167.57508 1401.5195 168.36133 C 1400.7132 168.76258 1399.8585 169.08758 1398.9961 169.36133 C 1399.6585 168.96133 1400.3009 168.53594 1400.8945 168.08594 C 1402.6577 167.48094 1404.3434 166.72109 1405.9258 165.87109 z M 1300.4902 165.92969 C 1299.3031 166.07094 1298.1353 166.2082 1296.9785 166.31445 C 1281.6844 167.7207 1266.3222 168.14586 1250.9785 169.16211 C 1251.9033 169.05461 1252.8213 168.95125 1253.7461 168.84375 C 1261.0403 168.44875 1268.3359 168.01922 1275.6094 167.57422 C 1275.6478 167.61422 1275.7104 167.64195 1275.7793 167.62695 C 1275.8913 167.5982 1276.0094 167.56977 1276.1406 167.54102 C 1278.6782 167.38977 1281.2214 167.23828 1283.7461 167.08203 C 1289.322 166.73453 1294.8967 166.29094 1300.4902 165.92969 z M 1359.1836 165.99219 C 1360.4204 166.17719 1361.6757 166.32961 1362.9141 166.34961 C 1362.8948 166.36836 1362.8648 166.37344 1362.8457 166.39844 C 1362.8137 166.43719 1362.7761 166.48063 1362.7441 166.51562 C 1361.4946 166.51562 1360.2576 166.41219 1359.1328 166.30469 C 1359.1504 166.20219 1359.1643 166.09469 1359.1836 165.99219 z M 1312.7793 166.21289 C 1315.1728 166.19227 1317.5525 166.32422 1319.8965 166.71484 C 1323.346 167.29109 1326.5461 168.7475 1329.6836 170.03125 C 1321.9398 168.5125 1313.6772 166.44695 1305.5781 166.62695 C 1307.9781 166.40758 1310.3857 166.23352 1312.7793 166.21289 z M 1340.0078 166.47461 C 1339.6654 166.86086 1339.3026 167.24781 1338.9395 167.63281 C 1337.2035 169.50781 1337.8326 167.69211 1338.207 166.66211 C 1338.807 166.60336 1339.4142 166.54336 1340.0078 166.47461 z M 1348.6582 166.54883 C 1347.351 168.35508 1346.1138 170.22969 1345.1074 172.14844 C 1345.157 171.89469 1345.1903 171.64086 1345.2207 171.41211 C 1345.4895 169.87836 1345.4703 168.33172 1345.3711 166.79297 C 1346.4463 166.63672 1347.551 166.56383 1348.6582 166.54883 z M 1349.1641 166.54883 C 1349.3145 166.54883 1349.4833 166.54383 1349.6465 166.54883 C 1349.5777 168.17008 1349.1635 169.76648 1348.6387 171.33398 C 1348.557 171.63148 1348.4586 171.97492 1348.377 172.32617 C 1348.1274 172.67242 1347.9456 173.04305 1347.7344 173.4043 C 1347.5344 173.35555 1347.3026 173.30156 1347.0898 173.25781 C 1346.4963 173.12156 1345.9019 172.96953 1345.2891 172.83203 C 1346.0027 171.15703 1346.8582 169.52703 1347.9766 167.98828 C 1347.9446 168.04203 1348.6585 167.07633 1349.1641 166.54883 z M 1350.1387 166.56445 C 1351.1642 166.5932 1352.1703 166.65578 1353.207 166.73828 C 1351.7271 168.11578 1350.4032 169.57578 1349.2656 171.11328 C 1349.7456 169.63453 1350.0395 168.12195 1350.1387 166.56445 z M 1367.8262 166.59375 C 1367.7958 166.91625 1367.7441 167.23313 1367.7441 167.45312 C 1367.7441 168.55562 1367.5824 169.6307 1367.3008 170.68945 C 1366.0448 171.55945 1364.7443 172.38961 1363.3379 173.06836 C 1364.1827 171.05211 1365.2385 169.08758 1366.4062 167.17383 C 1366.9376 167.02758 1367.4022 166.8375 1367.8262 166.59375 z M 1338.0645 166.67578 C 1337.5829 167.56328 1337.3207 168.37031 1337.1895 169.35156 C 1335.3207 168.46781 1333.4076 167.62211 1331.3965 166.94336 L 1331.4453 166.94336 C 1333.1269 167.22211 1334.7457 167.12977 1336.3457 166.82227 C 1336.9281 166.77852 1337.5013 166.72953 1338.0645 166.67578 z M 1353.4258 166.75977 C 1353.669 166.78352 1353.92 166.80813 1354.1328 166.82812 C 1354.1008 167.04688 1354.0195 167.35531 1353.8691 167.78906 C 1353.0756 169.83031 1352.3842 171.88641 1351.709 173.94141 C 1350.5522 173.81891 1349.4133 173.67883 1348.2949 173.51758 C 1348.4389 173.20508 1348.5895 172.89758 1348.7207 172.58008 C 1349.0695 172.01883 1349.4322 171.4607 1349.8066 170.9082 C 1350.389 170.04445 1351.1142 169.24336 1351.8262 168.44336 C 1352.2518 167.96461 1352.9138 167.20352 1353.4258 166.75977 z M 1354.7773 166.89062 C 1355.1389 166.93063 1355.5216 166.96906 1355.9023 167.00781 C 1356.0959 167.03281 1356.3458 167.06094 1356.5586 167.08594 C 1355.453 168.20844 1354.4458 169.38586 1353.5898 170.63086 C 1353.9834 169.38586 1354.3838 168.14064 1354.7773 166.89062 z M 1344.6758 166.90625 C 1344.8454 167.36 1344.877 169.1857 1344.877 169.2207 C 1344.8466 170.3632 1344.6461 171.49555 1344.3965 172.62305 C 1344.2653 172.5893 1344.1211 172.55453 1343.9707 172.51953 C 1343.6075 172.36328 1343.2268 172.2081 1342.8652 172.04688 C 1342.4204 171.84688 1341.9705 171.62672 1341.5273 171.41797 C 1342.3209 169.85047 1343.2949 168.37961 1344.4453 166.94336 C 1344.5333 166.93461 1344.5958 166.92125 1344.6758 166.90625 z M 1343.7207 167.09961 C 1342.7015 168.30086 1341.7901 169.5618 1341.0957 170.9043 C 1341.0526 171.0118 1341.0147 171.0757 1340.9844 171.1582 C 1340.9524 171.14945 1340.9343 171.14 1340.9023 171.125 C 1340.952 170.935 1340.9828 170.72437 1341.002 170.48438 C 1341.0516 169.64062 1341.0963 168.80094 1341.1348 167.96094 C 1341.9588 167.59969 1342.8327 167.30961 1343.7207 167.09961 z M 1380.2383 167.11523 C 1380.5631 167.15898 1380.8822 167.2125 1381.207 167.28125 C 1381.2758 167.4075 1381.4755 167.45266 1381.6387 167.37891 C 1383.0754 167.72516 1384.507 168.26234 1386.0254 168.74609 C 1386.1438 168.78484 1386.2751 168.81086 1386.3887 168.84961 C 1387.0319 169.22586 1387.6747 169.5768 1388.3066 169.9043 C 1385.4187 169.40055 1382.6254 168.42898 1380.2383 167.11523 z M 1356.9707 167.13477 C 1357.3019 167.17352 1357.6641 167.21797 1358.0449 167.26172 C 1357.9265 168.23922 1357.7968 169.51703 1357.7344 169.80078 C 1357.4032 171.32328 1356.8897 172.82008 1356.3281 174.29883 C 1355.0274 174.24008 1353.7392 174.14578 1352.4336 174.01953 C 1352.6528 173.43828 1352.8466 172.85273 1353.0273 172.27148 C 1353.5905 171.15773 1354.3146 170.10422 1355.0762 169.07422 C 1355.6026 168.36547 1356.2651 167.73477 1356.9707 167.13477 z M 1358.9824 167.36328 C 1359.9264 167.46578 1360.9146 167.55023 1361.9082 167.58398 C 1360.2698 169.65898 1358.7379 171.78328 1357.3203 173.95703 C 1357.6451 173.01453 1357.9446 172.06578 1358.207 171.11328 C 1358.5894 169.86828 1358.8016 168.61828 1358.9824 167.36328 z M 1365.6523 167.36328 C 1364.7276 168.92578 1363.869 170.50961 1363.1074 172.13086 C 1363.357 170.62711 1363.4583 169.11273 1363.4199 167.58398 C 1364.2135 167.56398 1364.958 167.49578 1365.6523 167.36328 z M 1362.666 167.64648 C 1363.1508 167.62064 1362.67 169.4218 1362.6328 170.09961 C 1362.5144 171.26586 1362.3512 172.42367 1362.1016 173.57617 C 1362.0888 173.59117 1362.0879 173.60539 1362.0879 173.61914 C 1361.3135 173.92664 1360.469 174.17984 1359.5762 174.37109 C 1358.9202 174.37109 1358.2384 174.3657 1357.6016 174.3457 C 1358.8015 172.2957 1360.1891 170.32812 1361.8066 168.39062 C 1362.235 167.86687 1362.5044 167.6551 1362.666 167.64648 z M 1340.502 168.24219 C 1340.4588 169.11719 1340.3891 169.99148 1340.3379 170.86523 C 1339.6131 170.50398 1338.8525 170.14727 1338.0957 169.79102 C 1338.8701 169.17602 1339.6764 168.66219 1340.502 168.24219 z M 1396.0254 169.35742 C 1395.9438 169.52867 1395.8453 169.69914 1395.7637 169.86914 C 1393.7829 170.42664 1391.6688 170.37609 1389.4062 169.52734 C 1389.888 169.59984 1390.3822 169.64594 1390.875 169.67969 C 1390.875 169.96719 1391.3888 170.07383 1391.6191 169.83008 C 1391.6575 169.80133 1391.6883 169.76703 1391.7012 169.73828 C 1392.4644 169.75703 1393.2201 169.73805 1394.0137 169.6543 C 1394.6761 169.5868 1395.3502 169.47492 1396.0254 169.35742 z "
         id="path938"
         transform="matrix(0.8,0,0,-0.8,-194.18011,745.2375)" /></g></g></svg>