<?xml version="1.0" encoding="UTF-8" standalone="no"?>
<svg
   xmlns:dc="http://purl.org/dc/elements/1.1/"
   xmlns:cc="http://creativecommons.org/ns#"
   xmlns:rdf="http://www.w3.org/1999/02/22-rdf-syntax-ns#"
   xmlns:svg="http://www.w3.org/2000/svg"
   xmlns="http://www.w3.org/2000/svg"
   xmlns:sodipodi="http://sodipodi.sourceforge.net/DTD/sodipodi-0.dtd"
   xmlns:inkscape="http://www.inkscape.org/namespaces/inkscape"
   viewBox="0 0 2303.7935 970.87012"
   height="970.87012"
   width="2303.7935"
   xml:space="preserve"
   version="1.1"
   id="svg2"
   inkscape:version="0.91 r13725"
   sodipodi:docname="background-cloud1.svg"><sodipodi:namedview
     pagecolor="#ffffff"
     bordercolor="#666666"
     borderopacity="1"
     objecttolerance="10"
     gridtolerance="10"
     guidetolerance="10"
     inkscape:pageopacity="0"
     inkscape:pageshadow="2"
     inkscape:window-width="1920"
     inkscape:window-height="1017"
     id="namedview3948"
     showgrid="false"
     fit-margin-top="0"
     fit-margin-left="0"
     fit-margin-right="0"
     fit-margin-bottom="0"
     inkscape:zoom="1.0706617"
     inkscape:cx="708.64985"
     inkscape:cy="853.20065"
     inkscape:window-x="1358"
     inkscape:window-y="-8"
     inkscape:window-maximized="1"
     inkscape:current-layer="layer6" /><metadata
     id="metadata8"><rdf:RDF><cc:Work
         rdf:about=""><dc:format>image/svg+xml</dc:format><dc:type
           rdf:resource="http://purl.org/dc/dcmitype/StillImage" /><dc:title></dc:title></cc:Work></rdf:RDF></metadata><defs
     id="defs6"><clipPath
       id="clipPath20"
       clipPathUnits="userSpaceOnUse"><path
         id="path22"
         d="m 0,9 0,8001 12001,0 L 12001,9 0,9 Z"
         inkscape:connector-curvature="0" /></clipPath></defs><g
     inkscape:groupmode="layer"
     id="layer6"
     inkscape:label="fill"><path
       style="fill:#f7f0dd;stroke:none;stroke-width:1px;stroke-linecap:butt;stroke-linejoin:miter;stroke-opacity:1;fill-opacity:1"
       d="m 795.33373,54.510936 13.70411,0.660439 15.19009,-1.651098 21.62938,-3.797524 18.16208,-4.623074 14.36455,-6.7695 0.99065,-1.485988 -0.0118,-0.501312 0.75888,-1.342627 2.80201,-2.918756 2.97713,-3.619258 5.44428,-4.661719 4.70563,-3.137085 3.21964,-1.320878 2.80687,-0.908104 3.38475,-1.155768 3.21964,-2.228982 3.38475,-3.21964 2.06387,-1.155769 3.63241,-0.660439 3.46731,-0.1651095 3.71497,0.4127745 c 0,0 2.39409,0.825549 2.72431,0.908104 0.33022,0.08255 3.13709,0.412774 3.13709,0.412774 l 15.60287,4.870738 6.27417,0.908104 6.7695,0.990658 4.45796,-0.577884 3.38475,0 c 0,0 1.56855,-0.825549 1.89877,-0.825549 0.33022,0 2.31153,-1.073213 2.64175,-1.320878 0.33022,-0.247664 2.31154,-3.797524 2.88942,-4.045189 0.57789,-0.247665 2.64176,-2.3115367 2.97198,-2.5592013 0.33022,-0.2476647 3.4673,-2.5592013 3.4673,-2.5592013 l 17.83186,-4.7881832 8.91584,0.1651098 11.0624,1.8162074 8.7508,4.5405185 8.9985,3.5498601 6.0265,4.375408 5.8614,6.769501 4.2103,3.797524 6.7695,3.137086 6.1091,0.330219 19.1527,-5.778841 11.5577,-2.559202 6.7695,-3.21964 4.7056,0.247665 5.4486,2.311536 3.8801,3.632415 6.3567,6.93461 9.5764,6.026506 4.8707,1.155769 9.1636,0.908103 34.0952,1.238324 22.7851,1.403433 17.9145,-0.577885 28.3163,-2.559201 0.2476,1.568543 -15.8505,1.733652 -3.4673,2.971976 -142.4108,10.070035 -39.5784,10.390771 -18.9135,0 -19.8475,-1.751254 -17.16228,3.385757 -18.68004,-0.350251 -8.98977,0.233501 -28.8373,-5.487261 -15.64453,-2.101504 -13.42628,-0.583751 -16.34503,-0.350251 -42.73059,1.984754 -37.82707,0.2335 -8.75627,-0.583751 -2.33501,-1.050752 z"
       id="path6259"
       inkscape:connector-curvature="0" /></g><g
     inkscape:groupmode="layer"
     id="layer5"
     inkscape:label="cloud"><g
       transform="matrix(1.25,0,0,-1.25,242.72514,931.54687)"
       id="g10"
       style="display:inline;stroke:none"><path
         inkscape:connector-curvature="0"
         d="m 386.24721,687.92819 0.1152,-0.629 c 0.0243,-0.153 0.22912,-0.153 0.25471,0 l 0.1152,0.629 c 0.0896,0.48 -0.57599,0.48 -0.48511,0"
         style="fill:#3e3231;fill-opacity:1;fill-rule:nonzero;stroke:none"
         id="path30" /><path
         inkscape:connector-curvature="0"
         d="m 568.31313,710.04919 c -0.0806,0 -0.0806,-0.098 0,-0.098 0.0755,0 0.0755,0.098 0,0.098"
         style="fill:#3e3231;fill-opacity:1;fill-rule:nonzero;stroke:none"
         id="path930" /><path
         inkscape:connector-curvature="0"
         d="m 456.95548,700.04919 c -0.0806,0 -0.0806,-0.098 0,-0.098 0.0755,0 0.0755,0.098 0,0.098"
         style="fill:#3e3231;fill-opacity:1;fill-rule:nonzero;stroke:none"
         id="path932" /><path
         inkscape:connector-curvature="0"
         d="m 571.7281,716.61919 c -3.13465,-0.23 -6.26035,-0.465 -9.395,-0.699 -0.39551,-0.027 -0.39551,-0.52 0,-0.492 3.13465,0.211 6.26035,0.422 9.395,0.629 0.45951,0.031 0.45951,0.597 0,0.562"
         style="fill:#3e3231;fill-opacity:1;fill-rule:nonzero;stroke:none"
         id="path934" /><path
         inkscape:connector-curvature="0"
         d="m 714.23005,695.38519 c -0.0806,0 -0.0806,-0.102 0,-0.102 0.0755,0 0.0755,0.102 0,0.102"
         style="fill:#3e3231;fill-opacity:1;fill-rule:nonzero;stroke:none"
         id="path936" /><path
         style="fill:#3e3231;fill-opacity:1;fill-rule:nonzero;stroke:none"
         d="M 1005.5605 0.00390625 C 1004.1057 -0.017603358 1002.6524 0.051843304 1001.209 0.22070312 C 998.92043 0.48945313 996.55133 0.80101627 994.20898 1.1972656 C 994.10173 1.2022656 993.99762 1.2085469 993.91602 1.2167969 C 992.10964 1.3930469 990.50838 1.7436719 989.0332 2.2324219 C 985.19009 3.1699219 981.5517 4.4647 978.47656 6.3984375 C 974.54545 8.8934375 972.15857 12.765938 969.54102 16.398438 C 961.91558 18.639686 953.08444 17.569297 945.29102 15.685547 C 936.29122 13.511797 925.69791 8.3857061 916.01172 10.064453 C 911.75421 10.801953 908.92403 14.792812 905.41211 16.570312 C 901.54818 18.532813 896.95508 19.620469 893.31836 21.886719 C 886.8177 25.924219 883.38622 31.974766 877.98633 36.759766 C 869.23612 41.319766 859.71805 44.816484 849.25586 47.052734 C 840.66245 48.888984 831.85081 50.162266 823.17578 51.666016 C 813.5966 53.315669 804.04771 55.471626 794.34766 53.400391 C 794.11853 53.624848 793.76285 53.635228 793.29688 53.203125 C 793.29561 53.202022 793.29416 53.202256 793.29297 53.201172 C 793.28188 53.200153 793.26879 53.196196 793.25781 53.195312 C 793.24608 53.18423 793.23438 53.173194 793.22266 53.162109 C 793.12524 53.103883 793.02074 53.0922 792.9082 53.113281 C 792.94571 53.154312 792.98256 53.190398 793.02148 53.234375 C 793.02612 53.231384 793.02614 53.223738 793.0332 53.222656 C 793.04512 53.220829 793.05348 53.229366 793.06445 53.230469 C 793.06283 53.227986 793.02511 53.175934 793.03516 53.189453 C 793.04695 53.205327 793.06574 53.219184 793.08008 53.234375 C 793.19852 53.261795 793.26764 53.440065 793.34961 53.554688 C 793.39212 53.598184 793.43547 53.640648 793.47852 53.683594 C 792.81555 52.982771 793.61444 53.827137 793.61719 53.832031 C 793.69663 53.97355 793.73942 54.131253 793.77539 54.291016 L 794.22656 54.769531 C 794.19598 54.7294 794.17174 54.686448 794.14453 54.644531 C 794.11439 54.598039 794.20718 54.73536 794.23828 54.78125 L 794.22656 54.769531 C 794.28019 54.839905 794.33259 54.910077 794.37109 54.988281 C 794.46154 55.084573 794.54789 55.185228 794.63867 55.28125 C 794.62852 55.267339 794.59738 55.219228 794.5918 55.210938 C 794.5689 55.176986 794.69462 55.339847 794.66602 55.310547 C 794.65669 55.300996 794.64784 55.290948 794.63867 55.28125 C 794.66469 55.316919 794.71472 55.397405 794.75977 55.460938 C 794.87401 55.564428 794.98743 55.669731 795.10938 55.763672 C 795.07578 55.717028 795.04192 55.670698 795.00977 55.623047 C 794.96935 55.563155 795.20243 55.836139 795.14453 55.792969 C 795.13231 55.783866 795.12143 55.772966 795.10938 55.763672 C 795.15575 55.828077 795.201 55.893084 795.24805 55.957031 C 795.34923 56.041901 795.44957 56.126097 795.55078 56.210938 L 795.67578 56.277344 C 796.02186 56.564215 796.01022 56.569303 796.11328 56.734375 C 796.7627 57.300962 796.55921 57.163687 796.38672 56.888672 C 796.37252 56.865942 796.42852 56.92041 796.44922 56.9375 C 796.50752 56.98566 796.56341 57.039491 796.62305 57.085938 C 796.65415 57.110146 796.56406 57.032579 796.53516 57.005859 L 796.75781 57.183594 C 796.76954 57.209865 796.81394 57.268592 796.88867 57.359375 C 796.8897 57.34316 796.89539 57.329022 796.91406 57.322266 C 797.03175 57.279674 797.09727 57.42743 797.16602 57.568359 C 797.2156 57.610066 797.26189 57.656541 797.30273 57.708984 C 797.34334 57.722745 797.57274 57.922777 797.58984 58.013672 L 797.5918 58.015625 C 797.70648 58.12857 797.81082 58.25249 797.92383 58.367188 C 798.00613 58.450727 797.76491 58.193769 797.68555 58.107422 C 797.80726 58.237334 797.9264 58.370695 798.05078 58.498047 C 798.2648 58.717175 797.08988 57.472088 798.12305 58.570312 L 798.125 58.570312 C 798.05087 58.49391 797.97209 58.420267 797.91016 58.333984 C 797.88526 58.299354 797.9854 58.37612 798.01562 58.40625 C 798.07853 58.469084 798.13851 58.534753 798.19727 58.601562 C 798.25367 58.625774 798.31 58.65099 798.36523 58.677734 C 798.6213 58.801713 798.68648 58.861266 798.83203 58.992188 C 798.95263 59.070566 799.08718 59.154198 799.11914 59.175781 C 799.04603 59.141012 798.97517 59.096668 798.9043 59.054688 C 798.9462 59.09156 798.95038 59.097568 799.01367 59.150391 C 799.01967 59.155091 799.03775 59.165499 799.03125 59.162109 C 798.98537 59.137955 798.89938 59.099189 798.82227 59.064453 C 798.95307 59.177335 799.13503 59.328312 799.4707 59.595703 C 799.48362 59.60123 799.47336 59.594954 799.48828 59.601562 C 799.48957 59.60176 799.47893 59.589504 799.47852 59.587891 C 799.35468 59.462273 799.27448 59.374339 799.33789 59.402344 C 799.31597 59.375145 799.26402 59.311693 799.28516 59.332031 C 799.30784 59.353863 799.32353 59.382177 799.34375 59.40625 C 799.52118 59.488169 800.01893 59.857813 799.36328 59.427734 C 799.36735 59.432804 799.371 59.438234 799.375 59.443359 C 799.40821 59.469105 799.4437 59.493482 799.4707 59.525391 C 799.49625 59.555565 799.50546 59.579411 799.53516 59.625 C 799.66987 59.687858 799.83464 59.770213 799.9082 59.830078 C 799.79031 59.77085 799.67255 59.711633 799.55469 59.652344 C 799.55621 59.65507 799.55962 59.660147 799.56055 59.662109 C 799.65512 59.753819 799.78074 59.86896 800 60.058594 C 800.04439 60.069728 800.08556 60.086517 800.12891 60.099609 C 800.06582 60.004095 799.97139 59.882588 799.91016 59.832031 C 799.97522 59.864718 800.04042 59.896978 800.10547 59.929688 C 800.13037 59.946666 800.16054 59.958909 800.18164 59.980469 C 800.25009 60.05047 800.3141 60.123815 800.37891 60.197266 C 800.44525 60.228797 800.57198 60.315534 800.73242 60.486328 C 800.75391 60.496158 800.7751 60.505746 800.79688 60.515625 C 800.83848 60.53099 800.90749 60.559806 800.96289 60.582031 C 800.96389 60.584131 800.9688 60.590685 800.9668 60.589844 C 800.90926 60.569311 800.85314 60.5415 800.79688 60.515625 C 800.78157 60.509984 800.71869 60.479505 800.73633 60.490234 C 801.34979 60.85892 801.38622 60.793491 801.46875 60.980469 C 801.47648 60.984911 801.4851 60.990032 801.49219 60.994141 C 801.52608 61.007115 801.52754 61.007191 801.58008 61.027344 C 801.68413 61.109024 801.62424 61.070708 801.49219 60.994141 C 801.48394 60.990984 801.47789 60.989051 801.4707 60.986328 C 801.48013 61.008062 801.49018 61.018564 801.50195 61.048828 C 801.58465 61.101143 801.77402 61.241959 801.92383 61.345703 C 801.96154 61.354551 801.99702 61.367053 802.03516 61.375 C 802.0292 61.362433 802.01416 61.355267 802.00977 61.341797 C 801.98647 61.270325 802.05753 61.325111 802.14258 61.404297 C 802.25768 61.433029 802.36573 61.472077 802.44141 61.558594 C 802.50252 61.628453 802.56434 61.697428 802.62305 61.769531 C 802.64184 61.769132 802.66089 61.767985 802.67969 61.767578 C 803.90329 61.741126 805.1345 61.702034 806.36719 61.671875 C 813.33024 62.389375 820.41693 62.208906 827.51758 62.316406 C 838.62294 62.487656 849.75937 62.653019 860.85352 62.417969 C 871.59729 62.189219 882.21534 60.934219 892.85352 59.761719 C 898.42139 59.879219 904.053 59.683466 909.64648 59.947266 C 917.79031 60.327266 925.89698 61.133672 933.91602 62.232422 C 948.27732 64.194922 962.47041 68.779688 977.24609 68.085938 C 977.73889 68.062188 978.23911 68.009453 978.73828 67.970703 C 980.06947 68.170703 981.44007 68.355547 982.81445 68.498047 C 982.72808 68.663047 982.64638 68.824844 982.58398 68.996094 C 982.3776 69.493594 983.26874 69.732185 983.61914 69.335938 C 983.82553 69.092185 984.05923 68.865012 984.26562 68.625 C 985.97119 68.766263 987.71447 68.840234 989.46484 68.865234 C 989.58322 69.142734 990.06495 69.303672 990.37695 69.044922 C 990.43933 68.986172 990.50034 68.931797 990.58203 68.873047 C 990.85082 68.873047 991.12768 68.893672 991.39648 68.888672 C 993.09565 68.854922 994.84587 68.707187 996.60742 68.492188 C 996.75782 68.745936 997.23296 68.843591 997.52734 68.541016 C 997.56409 68.482266 997.6251 68.420028 997.6875 68.361328 C 1002.4058 67.702578 1007.1896 66.485 1011.5703 65.09375 C 1015.0022 65.435 1018.451 65.871484 1021.8125 66.115234 C 1027.5068 66.535234 1033.2883 66.5975 1039.0449 66.34375 C 1039.4385 66.3925 1039.8115 66.457381 1040.2051 66.496094 C 1041.1187 66.588594 1042.0308 66.657184 1042.9492 66.710938 C 1047.3939 68.360937 1051.7809 67.950534 1056.0176 66.685547 C 1056.0176 67.145547 1056.9943 67.394531 1057.2871 66.925781 C 1057.4743 66.642031 1057.6995 66.368437 1057.8867 66.085938 C 1058.3427 65.929688 1058.8059 65.757187 1059.2188 65.585938 C 1060.7731 65.278436 1062.3374 64.923047 1063.875 64.498047 C 1065.8686 63.946797 1067.7816 63.301797 1069.6504 62.623047 C 1069.8184 63.053047 1070.7485 63.160075 1070.9805 62.617188 C 1071.0621 62.432187 1071.1489 62.242891 1071.2305 62.056641 C 1073.1808 61.334141 1075.1196 60.591406 1077.0684 59.878906 C 1077.2572 59.981406 1077.5058 59.997422 1077.6738 59.826172 C 1077.7746 59.733672 1077.8553 59.646484 1077.9609 59.552734 C 1078.9993 59.181484 1080.044 58.823672 1081.1191 58.482422 C 1082.4743 58.242422 1083.8428 58.024375 1085.2363 57.828125 C 1085.2363 58.268125 1086.0433 58.556484 1086.3809 58.083984 C 1086.4801 57.936484 1086.5863 57.779063 1086.6855 57.632812 C 1088.1415 57.442813 1089.6184 57.262812 1091.1191 57.101562 C 1090.8872 57.756563 1090.6634 58.410312 1090.4746 59.070312 C 1090.3066 59.641562 1091.2175 59.905078 1091.6367 59.455078 C 1092.4431 58.576328 1093.2359 57.691484 1094.0039 56.802734 C 1096.7047 56.538984 1099.4041 56.294766 1102.0664 56.041016 C 1101.836 56.543516 1101.6308 57.047031 1101.4004 57.550781 C 1101.1556 58.112031 1102.2935 58.492578 1102.6055 57.955078 C 1103.0439 57.247578 1103.5245 56.554219 1103.9805 55.855469 C 1104.4989 55.801719 1104.9992 55.758841 1105.5176 55.705078 C 1107.1351 55.533828 1108.7358 55.381797 1110.3613 55.216797 C 1110.1117 55.919297 1109.8372 56.623672 1109.5684 57.326172 C 1109.362 57.917422 1110.4787 58.131719 1110.7539 57.574219 C 1111.1667 56.720469 1111.587 55.880781 1112.043 55.050781 C 1113.1246 54.938281 1114.2235 54.830156 1115.3242 54.722656 C 1115.449 55.020156 1115.9481 55.202578 1116.2617 54.923828 C 1116.3865 54.816328 1116.5121 54.703047 1116.6113 54.591797 C 1117.9873 54.454297 1119.3547 54.323047 1120.7051 54.185547 C 1121.8923 54.361797 1123.055 54.528047 1124.2422 54.654297 C 1124.2614 54.659297 1124.2985 54.639766 1124.3418 54.634766 C 1124.3242 54.717266 1124.2791 54.801406 1124.2422 54.878906 C 1124.0726 55.313906 1124.8615 55.533984 1125.1543 55.177734 C 1125.5927 54.641484 1126.0672 54.127814 1126.5488 53.601562 C 1128.7488 53.391562 1130.9737 53.190234 1133.1992 52.990234 C 1134.98 52.873984 1136.7673 52.755316 1138.5801 52.632812 C 1138.4297 52.799063 1138.3295 52.959844 1138.2031 53.121094 C 1137.8719 53.554844 1138.6612 54.054219 1139.1172 53.667969 C 1139.554 53.287969 1139.9675 52.901719 1140.4043 52.511719 C 1142.1931 52.394219 1143.9614 52.277656 1145.7246 52.160156 L 1145.7246 52.195312 C 1145.4174 52.619063 1146.2236 53.141328 1146.6172 52.736328 C 1146.8492 52.507578 1147.0794 52.281641 1147.3242 52.056641 C 1157.1736 51.402891 1167.0217 50.748359 1176.8711 50.099609 C 1191.7092 49.123359 1208.2544 49.211238 1223.3789 46.90625 C 1223.8413 46.98 1224.3329 47.018781 1224.8145 47.003906 C 1225.9968 46.975156 1227.1841 46.59875 1228.3281 46.125 C 1230.5905 46.0125 1232.8761 45.876172 1235.1641 45.763672 C 1236.0761 45.719922 1236.0761 44.605547 1235.1641 44.654297 C 1234.8889 44.664297 1234.6207 44.680315 1234.3711 44.695312 C 1234.4142 44.690314 1234.4333 44.678828 1234.4766 44.673828 C 1235.1022 44.502578 1235.1848 43.855156 1234.7656 43.566406 C 1238.4904 42.556406 1242.4966 42.364794 1246.1777 43.683594 C 1246.8593 43.927344 1247.4458 43.137578 1246.7578 42.892578 C 1245.6138 42.482578 1244.4895 42.207969 1243.3711 42.042969 C 1250.227 41.412969 1257.1094 40.569063 1264.0469 39.445312 C 1264.7717 39.329063 1264.4636 38.419297 1263.7324 38.560547 C 1254.8398 40.294297 1245.6594 41.252422 1236.3652 41.701172 C 1240.9395 41.339922 1245.4891 40.939375 1250.0586 40.484375 C 1251.3082 40.363125 1251.3082 38.828672 1250.0586 38.951172 C 1235.7021 40.347422 1221.2607 41.28125 1206.8418 41.75 C 1201.1235 41.560025 1195.4722 41.279922 1189.9043 40.982422 C 1177.9989 40.337422 1166.1296 39.118516 1154.2227 38.791016 C 1152.3107 38.737266 1150.0668 38.867641 1147.6797 39.048828 C 1146.6429 39.005078 1145.5991 39.031266 1144.6855 39.056641 C 1136.5417 39.271641 1130.5175 36.454687 1125.0488 31.898438 C 1120.6233 28.222175 1117.4241 23.069453 1112.1426 20.095703 C 1106.1619 16.731953 1099.4056 18.517472 1092.9434 20.138672 C 1086.2123 21.833672 1080.1619 24.518516 1073.9492 27.072266 C 1066.719 30.031016 1059.2012 30.978984 1052.9629 26.271484 C 1046.563 21.447734 1043.7562 13.54625 1035.0312 10.875 C 1031.8519 8.385 1028.1507 6.3050781 1023.8691 4.6738281 C 1018.2205 1.9023183 1011.8813 0.099858978 1005.5684 0.00390625 L 1005.5605 0.00390625 z M 800.12891 60.099609 C 800.13302 60.105845 800.1329 60.109279 800.13672 60.115234 C 800.17549 60.126815 800.23169 60.148391 800.25586 60.15625 C 800.21463 60.135227 800.17408 60.113256 800.12891 60.099609 z M 800.13672 60.115234 C 800.09814 60.103712 800.07548 60.093986 800.01758 60.076172 C 800.09235 60.140664 800.0727 60.129633 800.16406 60.207031 C 800.21597 60.251011 800.18754 60.194579 800.13672 60.115234 z M 800.01758 60.076172 C 800.00813 60.068021 800.0092 60.066548 800 60.058594 C 799.94657 60.045192 799.89271 60.033742 799.8418 60.015625 C 799.98339 60.062975 799.93171 60.049755 800.01758 60.076172 z M 799.56055 59.662109 C 799.55723 59.658893 799.54811 59.651551 799.54492 59.648438 L 799.54102 59.646484 C 799.55688 59.6658 799.57064 59.687007 799.58789 59.705078 C 799.59962 59.717352 799.5647 59.670889 799.56055 59.662109 z M 799.54102 59.646484 C 799.53927 59.644363 799.53689 59.642758 799.53516 59.640625 C 799.52728 59.632899 799.50316 59.612552 799.49609 59.605469 C 799.48875 59.602167 799.49527 59.60466 799.48828 59.601562 C 799.48624 59.60125 799.51084 59.628563 799.50391 59.623047 C 799.48605 59.608851 799.48793 59.609423 799.4707 59.595703 C 799.38973 59.561051 799.29348 59.522433 799.36133 59.556641 C 799.42114 59.586797 799.48118 59.616379 799.54102 59.646484 z M 799.49609 59.605469 C 799.50781 59.610735 799.49925 59.605597 799.51172 59.611328 C 799.46758 59.554101 799.41942 59.500239 799.375 59.443359 C 799.3688 59.438556 799.3635 59.432652 799.35742 59.427734 C 799.42763 59.512442 799.47354 59.568604 799.47852 59.587891 C 799.48168 59.591096 799.49276 59.602123 799.49609 59.605469 z M 799.36328 59.427734 C 799.35724 59.420205 799.34995 59.413631 799.34375 59.40625 C 799.34182 59.405358 799.33973 59.403158 799.33789 59.402344 C 799.34383 59.409717 799.34375 59.412406 799.35156 59.421875 C 799.36096 59.428059 799.35433 59.421863 799.36328 59.427734 z M 798.9043 59.054688 C 798.87675 59.030447 798.85313 59.011165 798.83203 58.992188 C 798.64785 58.872477 798.4915 58.775318 798.69922 58.962891 C 798.76777 58.99294 798.83852 59.015715 798.9043 59.054688 z M 797.5918 58.015625 C 797.59313 58.024386 797.60916 58.040871 797.60547 58.046875 C 797.6631 58.107327 797.49555 57.933701 797.80859 58.259766 C 797.73598 58.178676 797.56677 57.996047 797.5918 58.015625 z M 1007.2148 2.9609375 C 1006.9844 3.3996875 1006.7767 3.8489844 1006.5703 4.3027344 C 1005.9447 3.8339844 1005.2837 3.4142187 1004.5781 3.0429688 C 1005.4725 2.989218 1006.3413 2.9559375 1007.2148 2.9609375 z M 1008.2324 2.9804688 C 1009.0644 2.9992184 1009.9157 3.048475 1010.7461 3.1171875 C 1009.9157 4.0209375 1009.0211 4.8999219 1008.1523 5.7636719 C 1007.9028 5.4949219 1007.6262 5.2311719 1007.3574 4.9824219 C 1007.6518 4.3136719 1007.9204 3.6442187 1008.2324 2.9804688 z M 1011.5762 3.1894531 C 1013.1393 3.5069531 1014.6532 3.95125 1016.1523 4.46875 C 1014.778 6.09 1013.472 7.7405469 1012.2832 9.4355469 C 1012.0768 9.2205469 1011.89 9.0097 1011.6836 8.8046875 C 1012.122 6.9096875 1012.6129 5.0507031 1011.5762 3.1894531 z M 1002.1016 3.2675781 C 1003.1207 3.6725781 1004.0589 4.2011719 1004.8652 4.8261719 C 1002.6829 4.1811719 1000.2958 3.9467969 997.83984 4.2792969 C 997.50864 4.3230469 997.65929 4.7028125 997.96484 4.6640625 C 1000.896 4.3078 1003.5773 4.7381906 1005.8828 5.6894531 C 1005.9276 5.7194531 1005.9454 5.7473437 1005.9902 5.7773438 C 1005.6335 6.7435937 1005.3215 7.7246875 1005.0527 8.7109375 C 1004.9711 9.03345 1005.5337 9.3669531 1005.8457 9.0644531 C 1006.3641 8.5519531 1006.9015 8.0244531 1007.4199 7.5019531 C 1008.2519 8.6882031 1008.8762 9.9971214 1009.2266 11.349609 C 1011.6393 20.040859 1004.5768 28.663475 1008.252 37.335938 C 1008.9575 38.990937 1009.9776 40.402186 1011.2656 41.554688 C 1012.2032 42.702187 1013.4466 43.711953 1015.0098 44.533203 C 1014.8402 44.884453 1014.6953 45.235547 1014.5273 45.591797 C 1014.2393 46.236797 1015.4833 46.461484 1015.8145 45.865234 C 1015.9409 45.606484 1016.0884 45.352475 1016.2324 45.09375 C 1016.9396 45.38625 1017.6654 45.651094 1018.459 45.871094 C 1024.3773 47.467344 1029.2647 44.273438 1034.127 41.460938 C 1036.2821 40.713437 1038.4879 40.031275 1040.8574 39.5625 C 1047.0509 38.346287 1053.4707 38.731172 1059.7266 38.013672 C 1064.4641 37.471172 1069.0935 35.705156 1071.7383 32.628906 C 1074.1254 31.731406 1076.4117 30.665625 1078.6309 29.546875 C 1079.3812 29.283125 1080.1134 29.020625 1080.8574 28.765625 C 1085.4317 27.169375 1090.6697 24.542734 1095.8184 23.208984 C 1102.7622 22.305234 1109.4495 25.562669 1105.168 31.597656 C 1102.1376 35.895156 1095.1755 38.649219 1089.9004 40.949219 C 1085.9261 42.657969 1081.8581 44.415547 1077.6582 45.904297 C 1077.7015 45.821797 1077.7204 45.739141 1077.7637 45.650391 C 1077.826 45.445391 1077.513 45.299063 1077.3066 45.445312 C 1076.8506 45.787813 1076.4134 46.140078 1075.9766 46.486328 C 1073.0886 47.453828 1070.1397 48.268594 1067.1445 48.839844 C 1066.9397 48.849844 1066.7256 48.868047 1066.5 48.873047 C 1066.788 48.283047 1067.0812 47.692816 1067.3691 47.101562 C 1067.5819 46.721564 1066.8752 46.575156 1066.6016 46.847656 C 1065.92 47.526406 1065.2329 48.200156 1064.5449 48.878906 C 1063.5897 48.873906 1062.6326 48.877859 1061.6582 48.833984 C 1060.7638 48.795234 1059.8706 48.716616 1058.957 48.619141 C 1059.6018 47.730391 1060.2023 46.837475 1060.8887 45.96875 C 1061.1207 45.666237 1060.5949 45.358906 1060.2637 45.597656 C 1059.1197 46.501406 1057.9819 47.423203 1056.8379 48.345703 C 1055.1499 48.096953 1053.4706 47.795156 1051.7891 47.472656 C 1051.8514 47.233906 1051.4954 46.992891 1051.2266 47.212891 C 1051.1833 47.256641 1051.1444 47.301144 1051.082 47.339844 C 1046.7765 46.523594 1042.5009 45.7238 1038.2578 45.875 C 1037.5954 45.685038 1036.8895 45.494453 1036.2031 45.314453 C 1032.5904 44.341953 1028.9508 44.650156 1025.9141 46.535156 C 1022.5509 48.635156 1020.0583 51.461262 1016.4824 53.375 C 1016.5208 53.203787 1016.5649 53.038281 1016.584 52.863281 C 1016.6464 52.423281 1015.9406 52.331016 1015.6094 52.541016 C 1014.4894 53.243516 1013.4097 53.975391 1012.3457 54.712891 C 1007.0898 55.514141 1001.003 53.654685 996.20312 52.492188 C 993.99677 51.959687 991.79586 51.382891 989.57031 50.806641 C 988.75754 50.045391 987.92898 49.29875 987.04102 48.625 C 983.79788 46.140037 979.53532 44.560936 975.19141 43.648438 C 969.29073 42.417186 963.59684 43.252891 958.02734 44.712891 C 953.47704 44.707891 949.15253 45.670547 944.79102 46.841797 C 940.86629 47.891797 936.89751 48.649766 932.86719 49.259766 C 932.99194 49.011016 932.67747 48.643688 932.32227 48.84375 C 931.94628 49.068737 931.57329 49.293672 931.17969 49.513672 C 929.60534 49.733672 928.02184 49.933125 926.42188 50.109375 C 926.37863 50.114375 926.35966 50.117188 926.31641 50.117188 C 926.52921 49.609687 926.69163 49.093125 926.79883 48.546875 C 926.8612 48.336875 926.61056 48.155078 926.35938 48.267578 C 924.63459 49.000078 922.97301 49.791719 921.37305 50.636719 C 919.91707 50.787969 918.48527 50.948594 917.0293 51.089844 C 916.17972 51.099844 915.32419 51.099891 914.49219 51.119141 C 914.49219 51.070391 914.47266 51.027278 914.47266 50.978516 C 914.42791 50.846016 914.20452 50.784062 914.07812 50.851562 C 913.89092 50.950312 913.72377 51.046172 913.54297 51.138672 C 911.64861 51.187422 909.75354 51.261303 907.86719 51.392578 C 905.24804 51.577578 902.69182 52.007969 900.1543 52.511719 C 899.5991 52.550469 899.01207 52.599959 898.42969 52.638672 C 898.41206 52.351172 898.36695 52.057266 898.33008 51.759766 C 898.30445 51.588516 898.11635 51.505469 897.93555 51.574219 C 896.85397 51.939219 895.8359 52.379453 894.83594 52.876953 C 893.69194 52.950703 892.51083 53.015234 891.34766 53.083984 C 891.38603 52.751484 891.41234 52.424062 891.44922 52.101562 C 891.47484 51.970312 891.26119 51.900234 891.11719 51.958984 C 890.14279 52.358984 889.20459 52.794062 888.29102 53.257812 C 887.81102 53.287813 887.35409 53.321953 886.87891 53.345703 C 883.01178 53.541953 879.14801 53.604922 875.2793 53.638672 C 875.24255 53.623672 875.19904 53.633672 875.13672 53.638672 C 874.57353 53.643672 874.01667 53.648672 873.45508 53.654297 C 872.78629 53.575547 872.12353 53.492578 871.43555 53.423828 L 871.49805 53.335938 C 871.6228 53.047187 871.08554 52.824219 870.83594 53.042969 C 870.71119 53.145469 870.58572 53.243203 870.46094 53.345703 C 866.661 53.053203 862.98049 53.208906 859.34375 53.628906 C 859.27975 53.326406 858.84941 53.199297 858.57422 53.404297 C 858.36782 53.536797 858.17938 53.667422 857.99219 53.794922 C 857.86744 53.809922 857.78689 53.829844 857.67969 53.839844 C 856.5613 53.878594 855.43707 53.922839 854.33789 53.976562 C 854.25627 53.732813 853.83728 53.604687 853.61328 53.804688 C 853.51253 53.877187 853.41308 53.950936 853.33789 54.023438 C 852.88669 54.048437 852.4242 54.065125 851.97461 54.09375 C 848.86907 54.283713 845.70601 54.605934 842.61328 55.148438 C 842.51891 54.972188 842.4245 54.786406 842.3125 54.566406 C 842.21325 54.356406 841.88058 54.263436 841.67578 54.429688 C 841.15579 54.819687 840.69288 55.220703 840.21289 55.626953 C 838.61292 55.973203 837.02974 56.407656 835.49219 56.910156 C 835.39944 56.563906 835.2995 56.198516 835.1875 55.822266 C 835.14425 55.632266 834.77401 55.542919 834.59961 55.699219 C 832.19966 57.945469 828.51937 58.424922 825.30664 56.857422 C 825.14504 56.788672 824.91864 56.802656 824.80664 56.910156 C 824.69302 57.007656 824.47441 57.227578 824.19922 57.486328 C 822.64884 57.261328 821.08043 56.954375 819.48047 56.578125 C 818.23089 56.280625 817.06214 56.210938 815.89258 56.304688 C 820.48608 55.669688 825.07991 54.771016 829.57422 53.853516 C 836.64927 52.881016 843.65533 51.667109 850.51758 50.099609 C 859.82299 47.984609 868.78055 45.034688 877.06836 41.148438 C 885.0298 37.427188 891.6157 32.604544 897.93555 27.394531 C 900.3227 25.612031 902.67318 23.794922 904.95312 21.919922 C 905.74671 21.279922 906.49213 20.671094 907.26172 20.089844 C 907.61691 19.831094 908.01037 19.587734 908.38477 19.333984 C 908.59114 19.460234 908.88561 19.488984 909.2168 19.302734 C 909.29842 19.258984 909.34342 19.199738 909.32422 19.117188 C 909.29859 19.077186 909.29842 19.03875 909.2793 19 C 909.2793 18.94125 909.21667 18.912344 909.13672 18.902344 C 909.34312 18.843594 909.65491 18.779712 910.0293 18.710938 C 911.56686 18.867188 912.99758 18.45 914.55273 18 C 914.80396 17.93125 915.01626 17.8925 915.22266 17.84375 C 918.79857 18.91375 918.02973 22.837266 918.11133 25.259766 C 918.21695 28.707266 919.02328 32.232266 920.74805 35.416016 C 921.14323 36.246016 921.57882 37.066797 922.01562 37.873047 C 922.03487 39.381797 922.97361 40.626875 924.36719 41.578125 C 926.42314 44.039375 929.43528 45.669688 933.7168 44.898438 C 937.10392 44.292186 940.57236 43.033047 943.25391 41.154297 C 947.57862 39.381797 951.44102 36.895314 954.66016 34.039062 C 956.53531 32.379064 958.02762 30.645794 959.83398 29.113281 C 959.89636 29.137031 959.95902 29.152734 960.02148 29.177734 C 959.77188 29.700234 960.87757 29.93375 961.08398 29.40625 C 961.33516 28.68375 961.66672 28.062344 962.10352 27.496094 C 962.54189 27.227344 963.01483 26.969219 963.51562 26.730469 C 964.74122 26.139219 965.75808 25.567656 966.71484 24.722656 C 967.15164 24.327656 967.37725 23.868984 967.56445 23.396484 C 970.26519 21.833984 972.59809 19.629844 974.69727 17.183594 C 981.15952 9.6398368 990.5886 4.6000781 1002.1016 3.2675781 z M 1010.957 4.2167969 C 1011.2647 4.2397969 1011.488 4.5691406 1011.541 5.4160156 C 1011.5778 6.3722656 1011.3704 7.2971094 1011.1016 8.2246094 C 1010.396 7.6046094 1009.6273 7.0572 1008.7969 6.5546875 C 1008.7345 6.4709375 1008.6718 6.3871875 1008.6094 6.3046875 C 1009.1935 5.6025875 1010.2801 4.1661719 1010.957 4.2167969 z M 990.88281 4.5625 C 987.2029 5.86125 983.75124 7.5844531 980.69531 9.6894531 C 981.1769 9.1182031 981.67728 8.5549219 982.19727 8.0136719 C 984.79082 6.4899219 987.72129 5.37375 990.88281 4.5625 z M 1016.9395 4.7519531 C 1018.7266 5.4169531 1020.4529 6.2028906 1022.1152 7.0566406 C 1019.4337 11.397891 1017.0817 15.796875 1015.0449 20.328125 C 1015.3393 18.399375 1015.2764 16.452422 1014.8828 14.513672 C 1015.814 13.624922 1016.5637 12.6822 1017.1445 11.554688 C 1017.2085 11.447188 1016.9843 11.37408 1016.9219 11.476562 C 1016.3155 12.409066 1015.609 13.224531 1014.7402 13.957031 C 1014.6762 13.708281 1014.6137 13.463359 1014.5273 13.224609 C 1015.5705 10.440859 1016.3571 7.6144531 1016.9395 4.7519531 z M 1016.252 5.0742188 C 1015.652 7.4279688 1014.8833 9.7489964 1014.0273 12.052734 C 1013.677 11.320234 1013.2391 10.622734 1012.7207 9.9589844 C 1013.0135 9.5039844 1013.3013 9.0494531 1013.5957 8.5957031 C 1014.3013 7.5794531 1016.0264 6.0367187 1016.252 5.0742188 z M 1022.4883 7.2578125 C 1023.9203 8.0153125 1025.2944 8.8202344 1026.6016 9.6464844 C 1024.8576 12.248984 1022.9016 14.751719 1020.7832 17.199219 C 1018.8952 19.400469 1014.9218 22.324766 1014.0898 24.478516 C 1015.3842 21.231016 1016.9407 18.0253 1018.5215 14.851562 C 1019.2271 13.440316 1019.9508 12.038125 1020.7012 10.640625 C 1021.2388 9.605625 1021.7825 8.5805469 1022.3633 7.5605469 C 1022.3825 7.4967969 1022.4259 7.3853125 1022.4883 7.2578125 z M 1009.7285 8.0097656 L 1009.7305 8.0097656 C 1010.124 8.3422656 1010.5226 8.6836719 1010.873 9.0449219 C 1010.7466 9.4261719 1010.6855 9.8025 1010.6055 10.1875 C 1010.6055 10.16375 1010.5859 10.142187 1010.5859 10.117188 C 1010.3731 9.3759225 1010.0837 8.6735156 1009.7285 8.0097656 z M 1027.2031 10.025391 C 1028.3087 10.739141 1029.3633 11.456551 1030.3633 12.164062 C 1025.0642 17.794051 1020.577 23.867969 1016.4395 30.074219 C 1019.7274 23.292969 1023.2768 16.587891 1027.2031 10.025391 z M 919.14062 10.564453 C 920.10348 10.540828 921.11517 10.598709 922.18555 10.724609 C 925.67347 11.134609 929.04053 11.92125 932.36523 12.84375 C 930.14128 12.365 927.83432 12.028906 925.38477 11.847656 C 918.52252 11.345156 913.2478 13.010234 908.6543 15.646484 C 909.69107 14.953984 910.64803 14.180859 911.56641 13.380859 C 913.80676 11.443047 916.25205 10.635116 919.14062 10.564453 z M 1012.2461 10.705078 C 1012.8029 11.486328 1013.2389 12.315781 1013.6133 13.175781 C 1013.3445 13.913281 1013.0517 14.655078 1012.7637 15.392578 C 1012.6133 15.725078 1013.1763 15.958359 1013.4883 15.724609 C 1013.7571 15.514609 1014.0098 15.298984 1014.2402 15.083984 C 1015.421 20.171484 1012.8269 25.266328 1010.459 29.923828 C 1009.6654 31.476316 1009.2082 33.072266 1009.1074 34.634766 C 1007.9634 30.211041 1009.6464 25.338359 1010.584 21.037109 C 1011.2032 18.165859 1011.4522 15.315234 1011.0586 12.458984 C 1011.1642 12.443984 1011.2267 12.400234 1011.2891 12.302734 C 1011.5963 11.765234 1011.9341 11.232578 1012.2461 10.705078 z M 1030.6953 13.121094 C 1025.3578 22.876094 1020.371 32.730469 1015.8398 42.730469 C 1013.0959 41.451719 1011.0144 39.156641 1009.8145 36.587891 C 1009.4401 33.111641 1011.6403 29.546875 1013.2402 26.265625 C 1013.3219 26.075625 1013.4083 25.880703 1013.4883 25.689453 C 1013.533 25.670703 1013.5701 25.661563 1013.5957 25.632812 C 1016.7956 22.32655 1019.9341 18.981552 1022.8652 15.539062 C 1023.214 15.144063 1023.5282 14.738984 1023.8594 14.333984 C 1019.2659 21.950234 1015.1969 29.73905 1011.5586 37.664062 C 1011.309 38.181563 1012.37 38.526953 1012.7012 38.033203 C 1018.1442 29.449428 1023.5275 20.898594 1030.6953 13.121094 z M 1031.6953 13.267578 C 1032.2761 13.746328 1032.814 14.240301 1033.334 14.757812 C 1029.4525 18.459063 1027.2272 22.995234 1024.7969 27.365234 C 1023.8401 29.083984 1022.8829 30.796875 1021.9277 32.515625 C 1025.0029 26.041875 1028.265 19.620078 1031.6953 13.267578 z M 1037.9082 13.371094 C 1044.0585 16.842344 1047.1333 23.493828 1052.5332 27.580078 C 1055.4452 29.787578 1058.5816 30.700234 1061.8008 30.802734 C 1058.2697 31.227734 1054.9004 30.885351 1051.4316 29.195312 C 1048.0253 26.500313 1045.3891 22.755547 1043.0195 19.341797 C 1041.5204 17.179297 1039.8202 15.197344 1037.9082 13.371094 z M 922.91406 14.689453 C 924.20924 14.686953 925.50764 14.762459 926.79883 14.904297 C 926.69158 15.220547 926.6477 15.548828 926.5293 15.861328 L 926.1543 16.789062 C 925.7367 17.082814 925.44718 17.340469 925.23438 17.574219 C 923.80399 15.895469 921.70477 14.7475 919.04883 14.9375 C 920.32719 14.77125 921.61889 14.691791 922.91406 14.689453 z M 927.50391 14.976562 C 927.94231 15.035317 928.37216 15.110234 928.81055 15.177734 C 928.12896 15.641484 927.50298 16.124844 926.94141 16.652344 C 927.14621 16.109844 927.35992 15.547801 927.50391 14.976562 z M 918.11133 15.060547 C 917.86173 15.109297 917.61058 15.143047 917.3418 15.216797 C 917.0474 15.299297 917.17223 15.656406 917.48438 15.597656 C 921.41548 14.933906 923.759 16.470547 925.10938 18.716797 C 924.94618 18.931797 924.77843 19.131328 924.61523 19.361328 C 924.42805 19.658828 924.99088 19.9175 925.19727 19.625 C 925.27727 19.5175 925.3418 19.400469 925.42188 19.292969 C 926.59144 21.592969 926.81644 24.448516 926.64844 26.509766 C 926.36044 30.088516 923.53654 32.820312 922.39258 36.101562 C 922.28533 35.871562 922.15973 35.641484 922.06055 35.427734 C 920.60457 32.658984 921.45386 30.319062 921.87305 27.476562 C 922.34663 24.282813 923.41106 19.9775 920.33594 17.375 C 919.62875 16.77 918.15427 16.525078 917.1543 16.642578 C 916.8615 16.677578 916.15451 16.861172 915.26172 17.076172 C 915.24247 17.071172 915.17928 17.077116 915.16016 17.072266 C 914.34738 16.887266 913.57853 16.792969 912.81055 16.792969 C 913.64093 16.397969 914.45477 16.032578 915.28516 15.705078 C 916.05473 15.476328 916.86113 15.270625 917.73633 15.109375 C 917.86108 15.089375 917.98653 15.079297 918.11133 15.060547 z M 939.94727 15.083984 C 944.52318 16.466484 949.11643 17.779063 953.95312 18.414062 C 958.79782 19.054062 963.82708 18.956797 968.45898 17.873047 C 967.9838 18.478047 967.50308 19.07345 967.00391 19.648438 C 958.94167 23.228438 951.48348 20.191875 943.89648 16.734375 C 942.59091 16.129375 941.26083 15.582734 939.94727 15.083984 z M 929.39258 15.279297 C 929.68538 15.328047 929.99878 15.372172 930.26758 15.429688 C 930.53637 16.025937 930.20503 17.319766 930.16016 17.603516 C 929.99856 19.171016 929.64119 20.694375 929.16602 22.203125 C 928.52283 23.365625 928.00491 24.570938 927.62891 25.835938 C 927.71053 24.678437 927.64816 23.501016 927.46094 22.291016 C 927.25455 21.036016 926.73638 19.702969 925.9668 18.511719 C 926.06755 18.326719 926.17205 18.140078 926.29688 17.955078 C 926.98483 17.110078 927.89663 16.364766 928.79102 15.666016 C 929.02142 15.484766 929.22938 15.368047 929.39258 15.279297 z M 1034.0645 15.509766 C 1034.2516 15.719766 1034.4573 15.909141 1034.6445 16.119141 C 1034.0813 18.336641 1032.0883 20.855547 1031.1699 22.560547 C 1029.9444 24.835547 1028.7021 27.106563 1027.4766 29.382812 C 1025.003 33.927813 1022.508 38.462656 1020.0137 43.003906 C 1019.7017 43.565156 1020.7021 44.064297 1021.0957 43.498047 C 1026.0396 36.300547 1030.6753 28.966172 1035.6016 21.763672 C 1035.7008 20.787422 1036.1836 20.471484 1037.0332 20.802734 C 1036.7836 21.921484 1035.8526 23.18625 1035.3086 24.25 C 1034.3342 26.16375 1033.3767 28.078438 1032.4199 29.992188 C 1030.4888 33.824686 1028.5584 37.653828 1026.6465 41.486328 C 1026.4337 41.896328 1027.2449 42.134687 1027.5137 41.773438 C 1031.4016 36.689687 1035.2641 31.597253 1039.1328 26.509766 C 1037.2385 30.718503 1035.3276 34.923047 1033.3965 39.123047 C 1033.1901 39.591797 1034.1277 39.875078 1034.4141 39.455078 C 1037.3644 35.402578 1040.2326 31.323436 1043.1445 27.242188 C 1043.3077 27.452188 1043.514 27.642656 1043.7012 27.847656 C 1042.9764 31.192656 1041.7888 34.440234 1040.1328 37.615234 C 1039.8576 37.687734 1039.5891 37.764922 1039.3203 37.857422 C 1038.1139 38.267422 1036.9893 38.770859 1035.9141 39.318359 C 1032.0262 40.455859 1028.4091 42.077734 1024.502 43.240234 C 1021.8028 44.035234 1019.3705 43.951081 1017.209 43.277344 C 1019.8265 38.487344 1022.4646 33.711406 1025.1445 28.941406 C 1027.7013 24.346406 1029.9893 19.439766 1034.0645 15.509766 z M 930.82812 15.552734 C 931.84731 15.772734 932.84181 16.026797 933.8418 16.310547 C 932.44822 17.584297 931.26754 18.930938 930.26758 20.367188 C 930.62277 18.789688 930.76574 17.188984 930.82812 15.552734 z M 907.11719 16.558594 C 902.31729 19.594844 898.1418 23.601328 893.4043 27.111328 C 888.99798 30.363816 884.38607 33.312188 879.54297 35.929688 C 884.23567 31.744688 887.54323 26.636797 892.98633 22.935547 C 897.04223 20.191797 902.46066 18.912266 906.91016 16.666016 C 906.99178 16.631016 907.05479 16.592344 907.11719 16.558594 z M 934.81641 16.59375 C 935.66758 16.8525 936.49776 17.131094 937.31055 17.433594 C 937.66733 17.561094 938.04057 17.707266 938.41016 17.853516 C 938.39091 17.863516 938.37328 17.867969 938.34766 17.886719 C 935.04853 22.550469 931.94732 27.248072 929.14258 32.091797 C 930.51693 26.818072 934.42282 22.0625 934.81641 16.59375 z M 1035.3887 17.039062 C 1035.9503 17.721563 1036.4956 18.4203 1037.0332 19.132812 C 1036.9276 19.119063 1036.826 19.09375 1036.7012 19.09375 C 1036.5572 19.09375 1036.4075 19.157253 1036.3438 19.259766 C 1033.063 24.118516 1029.6955 28.931769 1026.3516 33.761719 C 1027.6651 31.314219 1028.9696 28.864375 1030.3008 26.421875 C 1031.7567 23.765625 1033.1888 21.114141 1034.6191 18.462891 C 1034.8943 17.970391 1035.1631 17.502813 1035.3887 17.039062 z M 933.70898 17.080078 C 933.99377 17.067578 934.06842 17.560544 933.73633 18.941406 C 933.27874 20.875156 932.24192 22.735625 931.28516 24.546875 C 929.49798 27.965625 927.62871 31.290156 927.50391 35.035156 C 927.50391 35.582656 928.41645 35.607003 928.64844 35.158203 C 931.17959 30.114441 934.1285 25.153125 937.51562 20.421875 C 935.21006 27.359375 931.94778 33.966797 928.77344 40.685547 C 926.73669 40.060547 924.86742 38.946172 923.22266 37.232422 C 923.20503 36.889922 923.22287 36.544609 923.33008 36.193359 C 923.67888 34.620859 925.23561 33.205312 925.9668 31.726562 C 926.86117 29.905288 927.39842 28.106719 927.56641 26.261719 C 927.71041 26.436719 928.08454 26.455913 928.21094 26.210938 C 928.87333 24.854686 929.39135 23.501875 929.81055 22.140625 C 930.14173 21.559375 930.49759 20.992186 930.86719 20.429688 C 931.43808 19.580625 933.08245 17.107416 933.70898 17.080078 z M 916.7168 17.623047 C 921.3727 17.443047 921.41595 22.384453 921.18555 25.314453 C 921.0783 26.881953 920.16714 28.892278 919.83594 30.728516 C 919.19275 28.131028 919.06638 25.411172 919.08398 23.013672 C 919.08398 21.021172 918.89755 18.770547 916.7168 17.623047 z M 741.61133 18.111328 C 741.49506 18.107326 741.39317 18.15452 741.30469 18.220703 C 741.50384 18.213583 741.70313 18.211811 741.90234 18.207031 C 741.87961 18.195566 741.85472 18.18134 741.83203 18.169922 C 741.75623 18.132734 741.68189 18.113757 741.61133 18.111328 z M 745.22656 18.115234 C 745.14661 18.145667 745.10472 18.156422 745.03125 18.183594 C 745.12764 18.184483 745.22393 18.184593 745.32031 18.185547 C 745.28898 18.16197 745.25802 18.138558 745.22656 18.115234 z M 939.16016 18.150391 C 939.17941 18.160391 939.22086 18.175703 939.24023 18.189453 C 940.38421 18.785703 941.51053 19.406484 942.62891 20.021484 C 938.81138 24.723984 936.1283 29.899831 933.13477 34.933594 C 935.64672 29.449831 937.79218 23.829141 939.16016 18.150391 z M 741.41211 18.28125 C 741.52545 18.298351 741.6386 18.315399 741.75195 18.333984 L 741.75391 18.332031 C 741.59274 18.305046 741.55035 18.294276 741.44727 18.283203 C 741.43559 18.28195 741.42379 18.282413 741.41211 18.28125 z M 741.98242 18.310547 C 741.95818 18.326345 741.93436 18.341613 741.91016 18.357422 C 741.91188 18.357724 741.91436 18.357132 741.91602 18.357422 C 741.93786 18.341403 741.9606 18.326593 741.98242 18.310547 z M 741.91602 18.357422 L 741.91406 18.359375 C 741.97588 18.369895 742.03778 18.375761 742.09961 18.386719 C 742.14674 18.395079 741.96931 18.366738 741.91602 18.357422 z M 741.91406 18.359375 C 741.91269 18.359142 741.91153 18.357655 741.91016 18.357422 L 741.9082 18.357422 C 741.62969 18.539331 741.34913 18.71255 741.08008 18.892578 C 741.08523 18.910383 741.09265 18.927842 741.09961 18.945312 C 741.372 18.751316 741.6444 18.557103 741.91406 18.359375 z M 741.9082 18.357422 C 741.86388 18.349687 741.83856 18.346567 741.76367 18.333984 L 741.76172 18.335938 C 741.81052 18.343957 741.8594 18.349129 741.9082 18.357422 z M 1105.1133 19.269531 C 1112.7955 19.237031 1117.9437 27.1624 1122.1875 31.1875 C 1125.725 34.527512 1130.1485 37.824844 1135.4492 39.308594 C 1136.0492 39.474844 1136.6301 39.604922 1137.2109 39.732422 C 1128.9871 39.942422 1121.4008 38.721406 1119.9062 31.441406 C 1119.8211 31.036406 1119.2001 30.904375 1118.7617 31.046875 C 1118.4929 30.631875 1118.2438 30.207734 1117.9688 29.802734 C 1117.1354 27.721484 1116.2876 25.66125 1114.7324 23.78125 C 1111.9885 20.52 1107.6011 19.415781 1103.0312 19.425781 C 1103.4726 19.387031 1103.9265 19.328778 1104.3633 19.298828 C 1104.6164 19.280828 1104.8655 19.270531 1105.1133 19.269531 z M 1038.0332 20.494141 C 1038.758 21.515391 1039.4641 22.535625 1040.2129 23.546875 C 1036.701 28.165625 1033.2086 32.778436 1029.7207 37.398438 C 1031.6711 33.457188 1033.6448 29.5222 1035.6016 25.585938 C 1035.888 25.034688 1037.8652 22.232891 1038.0332 20.494141 z M 944.04102 20.796875 C 945.21058 21.421875 946.37198 22.0275 947.53516 22.59375 C 945.08401 25.9525 942.65322 29.318972 940.19727 32.677734 C 941.85963 28.801472 943.08423 24.840625 944.04102 20.796875 z M 943.10938 20.890625 C 941.75896 26.710625 939.42889 32.346172 936.46094 37.794922 C 936.19215 38.327422 937.10445 38.796172 937.49805 38.263672 C 940.99237 33.391172 944.47866 28.517031 947.99219 23.644531 C 947.94744 26.627031 945.93445 29.615288 944.64648 32.320312 C 943.4593 34.820312 942.29633 37.325938 941.13477 39.835938 C 937.62123 41.105936 933.90438 41.700703 930.49805 41.095703 C 935.00516 34.484453 938.14134 27.325625 943.10938 20.890625 z M 1101.6992 22.394531 C 1103.0648 22.397031 1104.4193 22.563203 1105.7129 22.955078 C 1106.2505 23.570078 1106.6864 24.254062 1107.0176 24.976562 C 1105.6688 23.311563 1103.0312 22.594609 1100.332 22.443359 C 1100.788 22.410234 1101.244 22.393531 1101.6992 22.394531 z M 948.99219 23.263672 C 950.48496 23.932422 952.00322 24.523984 953.58398 24.958984 C 955.80313 25.578984 957.85951 25.797344 959.77148 25.714844 C 957.46592 27.927344 955.3037 30.255572 953.06055 32.466797 C 952.75336 32.755547 952.44109 33.047187 952.10352 33.335938 C 952.79149 31.030937 953.29124 28.711953 953.39844 26.314453 C 953.41606 25.885703 952.66724 25.762969 952.39844 26.105469 C 949.5473 29.699219 946.68352 33.296875 943.83398 36.890625 C 944.80993 34.728125 945.81078 32.569844 946.78516 30.402344 C 947.84753 28.029831 949.05459 25.748672 948.99219 23.263672 z M 1107.375 23.595703 C 1108.887 24.318203 1110.3428 25.3875 1111.6562 26.90625 C 1115.584 31.365013 1117.475 36.534453 1121.9629 40.689453 C 1118.6574 44.010703 1115.6238 47.549922 1113.1055 51.294922 C 1114.8926 46.538672 1116.6814 41.782344 1118.4941 37.027344 C 1118.7005 36.466094 1117.7262 36.227344 1117.3262 36.652344 C 1113.0079 41.311094 1109.0998 46.168125 1105.5879 51.203125 C 1108.4118 44.439375 1110.8444 37.608906 1112.0508 30.503906 C 1112.1132 30.152669 1111.4432 30.144047 1111.3184 30.427734 C 1107.2496 38.532734 1101.7617 46.2375 1095.5059 53.46875 C 1094.9059 53.5325 1094.2991 53.585509 1093.7188 53.654297 C 1095.4688 48.990547 1097.5432 44.431406 1100.1191 39.972656 C 1104.3191 37.233906 1108.3314 33.600391 1108.8242 29.400391 C 1109.0994 27.364141 1108.5814 25.304453 1107.375 23.595703 z M 965.4668 24.449219 C 965.19801 24.727969 964.86654 24.99625 964.50977 25.25 C 964.44739 25.18625 964.34583 25.153281 964.24023 25.207031 C 963.24667 25.680781 962.41453 26.231094 961.70898 26.871094 C 961.2274 27.153594 960.75318 27.452266 960.31641 27.759766 C 960.25403 27.744766 960.21078 27.749734 960.16602 27.740234 C 960.93559 26.992734 961.68299 26.265 962.47656 25.5625 C 962.55819 25.475 962.66003 25.402813 962.76562 25.320312 C 963.70319 25.105313 964.59802 24.810469 965.4668 24.449219 z M 1041.0645 24.703125 C 1041.5204 25.309375 1042.003 25.899219 1042.4766 26.480469 C 1040.5022 29.200469 1038.5509 31.921484 1036.5957 34.646484 C 1038.0709 31.335234 1039.5701 28.019375 1041.0645 24.703125 z M 952.12891 28.0625 C 951.81531 30.30375 951.21044 32.492188 950.48438 34.679688 C 949.40431 35.529687 948.17859 36.350078 946.89062 37.111328 C 946.873 36.901328 946.49599 36.799062 946.2832 36.945312 C 945.51523 37.492813 944.68353 38.102656 943.83398 38.722656 C 946.59712 35.168906 949.36577 31.617513 952.12891 28.0625 z M 1044.5137 28.673828 C 1044.6817 28.830078 1044.8267 29.001094 1044.9707 29.152344 C 1045.4523 29.596094 1045.9266 29.996928 1046.4258 30.376953 C 1045.1394 31.485703 1043.9511 32.643984 1042.8711 33.865234 C 1043.5575 32.155234 1044.0753 30.427578 1044.5137 28.673828 z M 1107.4121 30.568359 C 1107.3754 30.768359 1107.3316 30.969063 1107.25 31.164062 C 1106.2932 33.914063 1103.9255 36.265078 1101.1191 38.267578 C 1101.3687 37.847578 1101.618 37.428672 1101.8691 37.013672 C 1102.0099 36.779597 1101.6825 36.502269 1101.418 36.605469 C 1104.0717 34.920069 1106.3898 32.912709 1107.4121 30.568359 z M 1047.3008 30.992188 C 1048.776 31.992187 1050.3141 32.735547 1051.9141 33.248047 C 1050.3509 34.464297 1047.2577 36.667344 1047.3633 35.871094 C 1047.6081 34.211094 1047.544 32.622188 1047.3008 30.992188 z M 1046.1641 31.423828 C 1046.4769 31.384703 1046.7128 31.688672 1046.7773 32.599609 C 1046.8653 34.005859 1046.5695 35.480312 1046.2383 36.851562 C 1046.195 37.042812 1046.3207 37.189297 1046.5078 37.248047 C 1044.8262 37.145547 1043.1213 37.101575 1041.459 37.351562 C 1042.2269 36.145314 1043.02 34.962813 1043.9512 33.820312 C 1044.411 33.253125 1045.4759 31.509803 1046.1641 31.423828 z M 1111.4434 31.662109 C 1111.381 31.754609 1110.6559 33.296328 1110.4863 33.892578 C 1109.8239 36.582578 1108.9118 39.234687 1107.9551 41.867188 C 1106.6063 45.529687 1105.0866 49.147109 1103.5059 52.755859 C 1101.3059 52.927109 1099.0808 53.115937 1096.8809 53.335938 C 1101.7623 47.378438 1106.1058 41.167344 1109.7617 34.683594 C 1110.3425 33.682344 1110.8626 32.668359 1111.4434 31.662109 z M 1068.5137 33.644531 C 1066.2881 35.143281 1063.5262 36.016094 1060.5566 36.558594 C 1062.2382 35.957344 1063.8822 35.182266 1065.3574 34.259766 C 1066.4134 34.118516 1067.4753 33.908281 1068.5137 33.644531 z M 1052.9961 33.6875 C 1053.4889 35.196262 1055.2385 36.118984 1056.9824 36.646484 C 1055.9632 36.900234 1054.9019 37.129766 1053.8027 37.291016 C 1053.4524 37.344766 1053.0949 37.358672 1052.7637 37.388672 C 1052.3509 37.407422 1051.9503 37.433125 1051.5391 37.453125 C 1049.9567 37.481875 1048.3402 37.359256 1046.7578 37.261719 C 1046.8026 37.256719 1046.8397 37.256656 1046.8828 37.238281 C 1047.7148 36.920781 1053.2393 34.45375 1052.9961 33.6875 z M 1054.0703 33.810547 C 1055.4879 34.088047 1056.9403 34.220469 1058.4395 34.230469 C 1059.889 34.444219 1061.3898 34.532475 1062.9082 34.46875 C 1061.3706 35.239975 1059.7264 35.871406 1057.9824 36.378906 C 1057.9392 36.262656 1057.8572 36.150312 1057.6699 36.101562 C 1055.9004 35.671563 1054.7199 34.894297 1054.0703 33.810547 z M 1101.3066 36.677734 C 1099.7691 38.141484 1098.2315 39.577344 1096.6699 41.027344 C 1095.8635 41.486094 1095.0511 41.915313 1094.2383 42.320312 C 1091.1007 43.931563 1087.7385 45.221406 1084.2441 46.222656 C 1084.2634 46.091406 1084.326 45.963281 1084.3691 45.832031 C 1084.4508 45.538281 1083.8702 45.314687 1083.707 45.617188 L 1083.207 46.505859 C 1081.1687 47.052109 1079.0932 47.511797 1076.9492 47.873047 C 1077.0308 47.663047 1077.0936 47.458047 1077.1816 47.248047 C 1077.844 47.003047 1078.488 46.763438 1079.1328 46.523438 C 1084.7439 44.443438 1090.3318 42.316564 1095.6309 39.757812 C 1097.418 38.889063 1099.4379 37.863984 1101.3066 36.677734 z M 924.13672 39.382812 C 925.40548 40.295313 926.86117 40.949922 928.43555 41.388672 C 928.27395 41.739922 928.12858 42.092109 927.94141 42.443359 C 927.02142 42.149609 926.21534 41.715625 925.50977 41.203125 C 924.99138 40.645625 924.55431 40.026562 924.13672 39.382812 z M 1116.1816 39.669922 C 1114.7321 43.591172 1113.2568 47.512734 1111.8008 51.427734 C 1110.6744 51.222734 1109.5388 51.021641 1108.4316 50.806641 C 1107.5629 50.645391 1107.2071 51.680547 1108.0566 51.841797 C 1108.7878 51.979297 1109.5132 52.120469 1110.2012 52.261719 C 1108.8876 52.355469 1107.5379 52.452422 1106.1875 52.544922 C 1109.2242 48.111172 1112.5497 43.814922 1116.1816 39.669922 z M 1124.4746 40.1875 C 1126.057 40.881263 1127.8444 41.389063 1129.6699 41.726562 C 1125.8876 45.036563 1122.0875 48.350313 1118.3691 51.695312 C 1118.094 51.715312 1117.843 51.735 1117.5742 51.75 C 1118.987 48.22005 1120.7567 44.811328 1122.8574 41.486328 C 1122.9198 41.540078 1122.9805 41.598581 1123.043 41.652344 C 1123.9118 42.364844 1125.3676 41.456328 1124.7676 40.611328 C 1124.662 40.470078 1124.5818 40.328837 1124.4746 40.1875 z M 1098.6445 40.890625 C 1097.6077 42.599375 1096.6694 44.341953 1095.7559 46.095703 C 1094.4503 48.629453 1093.2807 51.211484 1092.2695 53.833984 C 1091.1256 53.975234 1089.9629 54.118203 1088.7949 54.283203 C 1088.9437 54.049453 1089.0691 53.819676 1089.1875 53.585938 C 1091.5619 51.139688 1092.9938 48.381484 1093.8438 45.333984 C 1093.9289 45.041484 1093.407 44.855547 1093.2246 45.123047 C 1092.4934 46.095547 1091.8309 47.082109 1091.1621 48.068359 C 1091.2501 47.648359 1091.2872 47.228594 1091.332 46.808594 C 1092.932 45.299844 1094.5136 43.779988 1096.1328 42.28125 C 1096.3824 42.15375 1096.6313 42.033984 1096.8809 41.896484 C 1097.4632 41.583984 1098.0445 41.241875 1098.6445 40.890625 z M 1152.9609 41.119141 C 1155.4793 41.105391 1157.9939 41.155272 1160.5059 41.271484 C 1160.2995 41.378984 1160.0931 41.490156 1159.8867 41.597656 C 1157.618 41.505156 1155.3304 41.388984 1153.0488 41.271484 C 1153.0232 41.217734 1152.9866 41.167853 1152.9609 41.119141 z M 1161.7363 41.333984 C 1164.3107 41.470234 1166.9056 41.641875 1169.4863 41.828125 C 1169.4431 41.851875 1169.4003 41.8775 1169.3379 41.90625 C 1166.7812 41.8425 1164.2498 41.775234 1161.6738 41.677734 C 1161.6931 41.583984 1161.7363 41.500703 1161.7363 41.408203 C 1161.754 41.383203 1161.7363 41.358984 1161.7363 41.333984 z M 939.47266 41.515625 C 939.17827 41.666875 938.90909 41.841875 938.62109 41.984375 C 936.14594 42.633125 933.59178 42.994922 930.97266 42.951172 C 930.39187 42.941172 929.85453 42.88655 929.31055 42.789062 C 929.54255 42.452813 929.79162 42.101016 930.01562 41.759766 C 933.02835 42.311016 936.33513 42.159375 939.47266 41.515625 z M 1130.4004 41.847656 C 1130.6868 41.891406 1130.9812 41.939534 1131.25 41.974609 C 1133.4115 42.248359 1135.6377 42.247266 1137.8809 42.134766 C 1134.2633 44.912266 1130.9187 47.887109 1127.8438 51.037109 C 1127.4869 51.060859 1127.1384 51.085625 1126.7812 51.109375 C 1127.9714 48.029375 1129.1316 44.944063 1130.4004 41.882812 L 1130.4004 41.847656 z M 1139.9121 42.0625 C 1140.8689 42.11125 1141.824 42.154875 1142.6992 42.21875 C 1147.5807 42.546225 1152.4678 42.804531 1157.3477 43.019531 C 1154.0853 44.908281 1151.0918 47.023281 1148.4551 49.425781 C 1149.4294 47.394531 1150.2003 45.310234 1150.8066 43.146484 C 1150.869 42.902734 1150.4678 42.687578 1150.2422 42.892578 C 1147.4166 45.280078 1144.5681 47.669062 1141.7617 50.070312 L 1141.7422 50.070312 C 1143.299 47.766562 1144.711 45.397422 1145.9414 42.951172 C 1146.1478 42.536172 1145.3607 42.200234 1144.9863 42.521484 L 1136.2793 50.216797 C 1137.2553 47.448047 1138.4369 44.695 1139.9121 42.0625 z M 1139.125 42.072266 C 1138.437 43.137266 1137.7548 44.200938 1137.1309 45.304688 C 1136.1741 46.969687 1135.5316 48.765469 1134.9492 50.542969 C 1132.9557 50.680469 1130.9545 50.822734 1128.9609 50.958984 C 1131.6857 48.097734 1134.6184 45.368672 1137.8184 42.794922 C 1137.8567 42.756172 1138.2312 42.437969 1138.6504 42.105469 C 1138.7944 42.095469 1138.981 42.082266 1139.125 42.072266 z M 1234.4844 42.736328 C 1233.7356 42.951328 1232.9845 43.188594 1232.2598 43.433594 C 1232.1974 43.452344 1232.1363 43.483203 1232.0723 43.501953 C 1228.6675 43.639453 1225.2604 43.917891 1221.8477 44.244141 C 1221.5981 43.970391 1221.3534 43.672185 1221.123 43.335938 C 1225.5661 43.218437 1230.0349 43.020078 1234.4844 42.736328 z M 1129.2773 42.878906 C 1129.3211 42.852031 1129.1194 43.162969 1128.7754 43.917969 C 1128.281 45.006719 1127.7823 46.095937 1127.2812 47.179688 C 1126.6816 48.498437 1126.1805 49.840013 1125.6621 51.1875 C 1123.7485 51.318763 1121.8121 51.456641 1119.9258 51.587891 C 1122.7321 49.020391 1125.5117 46.447734 1128.2988 43.865234 C 1128.9428 43.271484 1129.2335 42.905781 1129.2773 42.878906 z M 1120.7754 42.964844 C 1119.0122 45.826094 1117.5752 48.794688 1116.3496 51.835938 C 1115.7688 51.875937 1115.2077 51.916328 1114.6445 51.955078 L 1113.9629 51.828125 C 1115.9132 48.716875 1118.1195 45.762344 1120.7754 42.964844 z M 1158.8438 43.083984 C 1159.3399 43.102734 1159.8236 43.131766 1160.2988 43.150391 C 1159.5932 45.176641 1158.4488 47.018203 1156.748 48.751953 C 1156.6617 48.839453 1156.6621 48.936797 1156.6621 49.029297 C 1154.4797 49.185547 1152.2804 49.337734 1150.0996 49.490234 C 1152.7555 47.136484 1155.6067 44.967734 1158.8438 43.083984 z M 1094.3633 43.189453 C 1093.3697 44.136953 1092.3317 45.073984 1091.3125 46.021484 C 1091.2869 45.787734 1091.3127 45.548203 1091.2871 45.314453 C 1091.2695 45.171953 1091.037 45.143856 1090.9746 45.285156 C 1090.7058 45.827656 1090.4997 46.387969 1090.3125 46.949219 C 1087.0502 49.961719 1083.8069 52.981016 1080.5254 55.978516 C 1080.3558 56.027266 1080.195 56.080144 1080.0254 56.128906 C 1081.6701 53.238906 1082.9749 50.249688 1083.9316 47.148438 C 1087.5492 46.123438 1091.0641 44.805703 1094.3633 43.189453 z M 1161.2988 43.195312 C 1163.062 43.259063 1164.8736 43.307566 1166.6367 43.361328 C 1164.168 44.703828 1161.6724 46.047031 1159.1797 47.394531 C 1160.1365 46.070781 1160.8428 44.685313 1161.2988 43.195312 z M 1202.7109 43.410156 C 1203.9173 43.435156 1205.1237 43.444375 1206.3301 43.453125 C 1204.3109 44.274375 1202.2988 45.099922 1200.2988 45.919922 C 1199.5932 45.963672 1198.885 45.993359 1198.2051 46.037109 C 1198.2418 45.363359 1198.0357 44.683906 1197.5605 43.941406 C 1197.4101 43.770156 1197.099 43.703047 1196.8926 43.810547 C 1195.131 44.703047 1193.3165 45.597344 1191.5293 46.496094 C 1191.0093 46.534844 1190.5103 46.564891 1189.9727 46.603516 C 1190.3295 45.627266 1190.5549 44.649766 1190.6621 43.634766 C 1194.6684 43.601016 1198.679 43.517644 1202.7109 43.410156 z M 1168.4688 43.414062 C 1168.7369 43.419064 1169.03 43.429453 1169.2988 43.439453 C 1168.9052 45.035703 1168.5047 46.636875 1168.1367 48.234375 L 1158.2246 48.921875 C 1161.6501 47.095625 1165.0622 45.255313 1168.4688 43.414062 z M 1217.6094 43.414062 C 1216.1534 43.970313 1214.6781 44.527734 1213.2285 45.083984 C 1211.5037 45.240234 1209.7794 45.381641 1208.0547 45.494141 C 1208.0547 44.820391 1208.0916 44.146406 1208.1172 43.472656 C 1211.2915 43.492656 1214.4542 43.467689 1217.6094 43.414062 z M 1028.4961 43.439453 C 1028.4097 43.488203 1028.3087 43.541953 1028.2031 43.595703 C 1024.9216 45.235703 1021.4892 45.563047 1018.3965 44.810547 C 1020.8268 45.168047 1023.4454 44.992656 1026.1445 44.191406 C 1026.9573 43.957656 1027.7281 43.698203 1028.4961 43.439453 z M 1170.3555 43.46875 C 1172.581 43.5225 1174.7864 43.551328 1176.9863 43.580078 C 1174.18 44.702578 1171.5613 46.105078 1169.2109 47.798828 C 1169.6109 46.358828 1169.9875 44.91375 1170.3555 43.46875 z M 1178.0059 43.595703 C 1178.9802 43.605703 1179.9791 43.629766 1180.9727 43.634766 C 1180.9359 43.819766 1180.8733 44.034219 1180.7676 44.292969 C 1180.3116 45.332969 1179.8913 46.372969 1179.4785 47.417969 C 1177.5665 47.560469 1175.6795 47.712462 1173.7676 47.84375 C 1172.5612 47.9275 1171.3371 48.010156 1170.0859 48.097656 C 1172.3115 46.398906 1174.7408 44.938281 1177.5039 43.800781 C 1177.6719 43.732031 1177.8363 43.663203 1178.0059 43.595703 z M 1219.541 43.601562 C 1219.5043 43.909064 1219.5415 44.190234 1219.6055 44.458984 C 1218.5671 44.566484 1217.4857 44.673738 1216.4297 44.78125 L 1219.541 43.601562 z M 1188.2051 43.634766 C 1188.7859 43.634766 1189.3743 43.639766 1189.9551 43.634766 C 1189.8687 44.679766 1189.5598 45.684766 1189.1406 46.666016 C 1186.7103 46.851016 1184.28 47.047031 1181.8496 47.238281 C 1183.1552 46.242031 1184.5482 45.320234 1186.1113 44.490234 C 1186.1737 44.450234 1187.2291 43.976016 1188.2051 43.634766 z M 1186.7109 43.638672 C 1185.279 44.268672 1183.9053 44.976875 1182.6797 45.796875 C 1182.0173 46.203125 1181.3935 46.632031 1180.7871 47.082031 C 1180.6239 47.169531 1180.5168 47.228125 1180.416 47.296875 C 1180.9104 46.085625 1181.3744 44.864531 1181.8496 43.644531 C 1183.4496 43.654531 1185.0918 43.638672 1186.7109 43.638672 z M 968.46484 44.107422 C 972.95306 44.041797 977.38678 44.980391 981.4043 46.642578 C 982.07308 46.916328 982.69657 47.232187 983.27734 47.554688 C 982.88377 47.983437 982.52834 48.439922 982.15234 48.888672 C 980.99078 48.591172 979.82758 48.297266 978.66602 48.009766 C 979.05959 47.482266 979.45213 46.944375 979.8457 46.421875 C 980.0761 46.119375 979.49569 45.859685 979.24609 46.148438 C 978.79012 46.709687 978.32848 47.272734 977.89648 47.833984 C 975.61013 47.292734 973.32277 46.788594 971.01562 46.339844 C 971.03487 46.311094 971.07633 46.274844 971.0957 46.246094 C 971.40929 45.898594 970.74526 45.612031 970.41406 45.832031 C 970.24606 45.924531 970.07762 46.021641 969.91602 46.119141 C 968.19125 45.792891 966.44763 45.519297 964.69727 45.279297 C 964.86685 45.133047 965.02767 44.986094 965.19727 44.839844 C 965.40365 44.644844 965.11664 44.298594 964.80469 44.464844 C 964.3855 44.689844 963.9909 44.923438 963.57812 45.148438 C 962.97174 45.074686 962.35248 44.996262 961.74609 44.9375 C 962.47727 44.78625 963.22227 44.645078 963.97266 44.517578 C 965.46783 44.262578 966.96878 44.129272 968.46484 44.107422 z M 1206.5977 44.283203 C 1206.8883 44.237578 1207.0787 44.273206 1207.0723 44.449219 L 1207.0098 45.552734 C 1206.3666 45.591484 1205.7036 45.637266 1205.0156 45.666016 C 1204.2476 45.699766 1203.4985 45.754063 1202.7305 45.789062 C 1203.1049 45.637812 1203.4795 45.484375 1203.8555 45.328125 C 1203.9491 45.2915 1205.7256 44.420141 1206.5977 44.283203 z M 1149.666 44.337891 C 1149.8684 44.331641 1149.6813 44.896784 1149.1621 46.232422 C 1148.6869 47.418672 1148.063 48.560938 1147.375 49.679688 C 1146.0246 49.772187 1144.6297 49.868437 1143.2617 49.960938 C 1144.7737 48.599687 1146.2925 47.233594 1147.8301 45.871094 C 1148.8708 44.921094 1149.4636 44.343978 1149.666 44.337891 z M 1196.1406 45.052734 C 1196.6131 44.986359 1196.8226 45.344141 1196.7676 46.119141 C 1195.686 46.187891 1194.6478 46.270859 1193.5918 46.349609 C 1194.067 46.109609 1194.5243 45.871567 1195.0059 45.632812 C 1195.4792 45.2864 1195.8571 45.092559 1196.1406 45.052734 z M 1143.5742 45.123047 C 1142.6174 46.846797 1141.5126 48.516719 1140.375 50.167969 C 1139.4806 50.225469 1138.5863 50.289716 1137.668 50.353516 C 1139.6231 48.609766 1141.5999 46.866797 1143.5742 45.123047 z M 1032.3281 45.982422 C 1033.1023 45.997672 1033.8857 46.100678 1034.6641 46.251953 C 1033.4817 46.466953 1032.2944 46.779141 1031.1328 47.212891 C 1029.0752 47.965391 1027.2263 49.029219 1025.4199 50.167969 C 1025.2519 50.132969 1025.0819 50.133828 1024.9395 50.236328 C 1023.4451 51.193828 1022.0085 52.188984 1020.6133 53.208984 C 1020.0581 53.565234 1019.4515 53.907969 1018.8516 54.230469 C 1017.8948 54.732969 1016.8959 55.182422 1015.9023 55.607422 C 1015.9647 55.427422 1016.0016 55.240547 1016.0449 55.060547 C 1017.1073 54.664297 1018.1017 54.180078 1018.9961 53.580078 C 1022.6136 51.148828 1025.3969 47.535933 1030.0527 46.242188 C 1030.7903 46.039687 1031.5539 45.967097 1032.3281 45.982422 z M 957.07227 46.060547 C 958.59063 46.036797 960.10913 46.099794 961.60352 46.246094 C 957.59079 48.546094 953.76544 50.967656 950.23438 53.785156 C 949.61037 54.292656 949.01013 54.806484 948.42773 55.333984 C 948.15896 53.865234 948.74129 52.672266 950.19727 51.759766 C 951.14604 50.904766 952.44012 50.224683 953.49609 49.429688 C 954.62088 48.584687 955.28363 47.622734 955.51562 46.490234 C 956.034 46.343984 956.55227 46.203047 957.07227 46.060547 z M 962.47656 46.34375 C 962.47656 46.34375 962.51527 46.348516 962.54102 46.353516 C 959.23389 48.677266 956.26049 52.472109 955.07812 56.037109 C 954.9534 56.452109 955.59804 56.758672 956.01562 56.451172 C 960.04754 53.326172 964.15902 50.299688 968.72852 47.648438 C 965.40378 51.262186 962.4145 55.069922 959.87695 59.044922 C 956.19704 57.971172 952.46028 57.046094 948.63477 56.402344 C 952.79148 52.652344 957.38389 49.3025 962.47656 46.34375 z M 963.41016 46.457031 C 964.99092 46.667031 966.52883 46.939453 968.06641 47.251953 C 964.17848 49.635703 960.33568 52.056406 956.75977 54.722656 C 958.17253 51.626406 960.69021 48.975781 963.41016 46.457031 z M 951.21094 46.734375 C 949.32299 47.345625 947.42768 47.956567 945.57812 48.507812 C 944.74612 48.752814 943.89678 48.970625 943.06641 49.171875 C 943.23441 48.970625 943.42242 48.770313 943.56641 48.570312 C 946.12316 47.926562 948.635 47.266875 951.21094 46.734375 z M 1037.0762 46.835938 C 1038.0713 47.119687 1039.0092 47.419062 1039.8828 47.664062 C 1040.4028 47.805313 1040.9403 47.934766 1041.4395 48.072266 C 1036.7212 51.094766 1032.2943 54.346797 1028.4512 58.029297 C 1029.176 56.695547 1029.8194 55.344063 1030.4258 53.976562 C 1032.0257 52.477813 1033.7083 51.066237 1036.1211 50.03125 C 1036.5339 49.851238 1036.245 49.356953 1035.7891 49.439453 C 1034.2707 49.723203 1032.9401 50.182656 1031.6953 50.753906 C 1032.0457 49.743906 1032.3775 48.721406 1032.6719 47.691406 C 1034.1022 47.217656 1035.577 46.953438 1037.0762 46.835938 z M 954.43359 46.865234 C 954.89597 46.830734 955.02517 47.103125 954.45312 47.953125 C 952.41476 50.955625 945.85317 52.069063 947.30273 56.195312 C 946.76516 56.116563 946.26609 56.039428 945.72852 55.970703 C 943.33497 55.668191 940.92861 55.495469 938.47266 55.417969 C 940.86621 54.127969 943.20984 52.822031 945.55859 51.488281 C 947.20337 50.550781 948.84152 49.607422 950.50391 48.669922 C 950.79209 48.502359 953.41639 46.941197 954.43359 46.865234 z M 1044.2266 47.171875 C 1046.1961 47.455625 1048.1511 47.839391 1050.0391 48.220703 C 1049.8327 48.400691 1049.6263 48.577656 1049.4199 48.753906 C 1047.6328 48.392656 1045.8647 47.962031 1044.1016 47.488281 C 1044.1399 47.380781 1044.2026 47.279375 1044.2266 47.171875 z M 1092.4941 47.353516 C 1091.9134 48.906016 1091.0817 50.388438 1090.0449 51.804688 C 1090.2945 51.267187 1090.5003 50.726094 1090.6699 50.183594 C 1091.2699 49.232344 1091.8702 48.286016 1092.4941 47.353516 z M 1082.6875 47.494141 L 1081.8945 48.923828 C 1081.7505 49.217578 1082.2698 49.472167 1082.457 49.179688 L 1082.6445 48.826172 C 1082.3565 49.607422 1082.0443 50.388906 1081.6875 51.160156 C 1080.9195 52.986406 1079.9426 54.753906 1078.8438 56.472656 C 1076.7414 57.102656 1074.7257 57.795938 1072.7129 58.523438 C 1074.0809 55.295938 1075.432 52.067891 1076.6191 48.806641 C 1078.6751 48.464141 1080.6939 48.016641 1082.6875 47.494141 z M 951.69141 47.617188 C 947.28508 49.915937 942.84057 52.150469 938.47266 54.480469 C 939.65983 53.102969 940.86579 51.718438 942.04688 50.335938 C 945.30912 49.549688 948.49147 48.573437 951.69141 47.617188 z M 969.89648 47.634766 C 971.18443 47.918516 972.47151 48.216172 973.74023 48.513672 C 974.73383 48.748672 975.75199 48.997578 976.75195 49.236328 C 973.55204 53.250078 970.54059 57.326719 967.68945 61.511719 C 966.38389 61.086719 965.09051 60.666719 963.82812 60.261719 C 963.18493 60.046719 962.4969 59.837813 961.82812 59.632812 C 964.84725 56.976562 967.83492 54.319219 970.84766 51.667969 C 971.01566 51.525469 970.7459 51.321484 970.60352 51.458984 C 967.54598 53.875234 964.5085 56.296641 961.47656 58.712891 C 963.99011 54.875391 966.77815 51.199766 969.89648 47.634766 z M 983.68945 47.796875 C 984.89584 48.495625 985.9336 49.29 986.95117 50.125 C 985.6648 49.79375 984.39767 49.456406 983.12891 49.128906 C 983.31608 48.685156 983.52785 48.241875 983.68945 47.796875 z M 1089.9004 48.142578 C 1089.5884 49.178828 1089.2744 50.218281 1088.8809 51.238281 C 1088.6313 51.858281 1088.3564 52.473828 1088.0508 53.080078 C 1087.7388 53.557578 1087.4702 54.040781 1087.1758 54.519531 C 1085.4318 54.793281 1083.7701 55.150547 1082.1445 55.560547 C 1084.7269 53.085547 1087.3197 50.603828 1089.9004 48.142578 z M 1042.0645 48.244141 C 1042.3141 48.307891 1042.5395 48.371797 1042.7891 48.435547 C 1042.2883 49.578047 1041.4824 51.414922 1041.4824 51.419922 C 1040.6088 53.006172 1039.5445 54.519922 1038.4453 56.013672 C 1037.2645 57.619922 1035.9341 59.159687 1034.459 60.648438 C 1032.859 59.720937 1031.1952 58.905859 1029.3633 58.412109 C 1033.1072 54.672109 1037.3014 51.209141 1042.0645 48.244141 z M 1031.0527 48.324219 C 1027.9968 51.341719 1024.9404 54.364219 1021.8652 57.386719 C 1021.5965 57.566719 1021.3017 57.742813 1021.0137 57.914062 C 1022.34 55.867813 1023.6948 53.82125 1025.0195 51.78125 C 1026.8515 50.62875 1028.6822 49.47625 1030.6758 48.5 C 1030.8022 48.43625 1030.9279 48.383006 1031.0527 48.324219 z M 1031.8203 48.421875 C 1031.5707 49.344375 1031.2591 50.247734 1030.9023 51.146484 C 1029.1408 52.058984 1027.5766 53.191641 1026.0391 54.369141 C 1027.327 53.035391 1028.6397 51.707656 1029.9453 50.378906 C 1030.1581 50.150156 1031.7579 48.690625 1031.8203 48.421875 z M 1051.209 48.451172 C 1052.7209 48.753672 1054.257 48.9875 1055.7754 49.1875 C 1055.6122 49.325 1055.4642 49.466172 1055.2754 49.607422 C 1054.4882 49.544922 1053.6758 49.466016 1052.8887 49.353516 C 1052.2023 49.261016 1051.52 49.14875 1050.832 49.03125 C 1050.9568 48.83625 1051.0826 48.646172 1051.209 48.451172 z M 1043.6016 48.650391 C 1045.1391 49.045391 1046.6577 49.422187 1048.2129 49.773438 C 1044.8082 52.659688 1041.3579 55.522031 1037.8828 58.363281 C 1040.2956 55.335781 1042.1632 52.067891 1043.6016 48.650391 z M 942.3418 48.884766 C 942.19141 49.041016 942.02867 49.222656 941.82227 49.441406 C 940.84148 49.651406 939.86661 49.837891 938.89062 49.994141 C 939.26662 49.812891 939.6162 49.633516 939.99219 49.447266 C 940.77939 49.272266 941.54662 49.079766 942.3418 48.884766 z M 1075.252 49.037109 C 1074.9576 49.833359 1074.7259 50.613906 1074.5195 51.097656 C 1073.3564 53.767656 1072.2124 56.442891 1071.0508 59.119141 C 1068.4124 60.080391 1065.7498 61.058516 1062.9883 61.947266 C 1062.6939 62.036016 1062.4254 62.094375 1062.1758 62.171875 C 1061.6574 62.269375 1061.1571 62.361328 1060.6387 62.455078 C 1064.1698 57.860078 1068.2015 53.528906 1072.8574 49.535156 C 1072.939 49.456406 1073.0454 49.383438 1073.127 49.304688 C 1073.8325 49.222188 1074.54 49.139609 1075.252 49.037109 z M 925.85156 49.222656 C 925.92831 49.238281 925.96241 49.281913 925.94141 49.359375 C 925.85978 49.643125 925.75988 49.919609 925.6543 50.193359 C 924.55351 50.315859 923.42924 50.424766 922.33008 50.541016 C 922.69127 50.349616 925.31382 49.113194 925.85156 49.222656 z M 1072.3203 49.402344 C 1067.9764 53.021094 1063.982 56.820391 1060.4316 60.931641 C 1062.1948 57.499141 1063.9002 54.047109 1065.625 50.599609 C 1067.2074 50.355859 1068.744 50.004219 1070.2812 49.574219 C 1070.9722 49.520469 1071.6515 49.476081 1072.3203 49.402344 z M 977.58398 49.4375 C 978.76476 49.72 979.92815 49.99875 981.11523 50.28125 C 979.92806 52.015 978.87248 53.830938 977.74609 55.554688 C 977.45969 56.003438 977.16495 56.498125 976.87695 57.015625 C 974.421 58.465625 971.84721 59.793125 969.14648 60.984375 C 971.89043 57.106875 974.71525 53.26 977.58398 49.4375 z M 1048.8574 49.90625 C 1049.0254 49.94 1049.1894 49.974766 1049.3574 50.009766 C 1048.527 51.214766 1047.7148 52.425716 1046.8828 53.626953 C 1044.7021 56.795716 1042.4131 59.909922 1040.1699 63.044922 C 1040.0883 63.147422 1040.0703 63.244141 1040.0879 63.337891 C 1039.5263 63.259141 1038.989 63.176641 1038.4258 63.087891 C 1037.4882 62.502891 1036.5567 61.902422 1035.6191 61.326172 C 1039.8575 57.606172 1044.0761 53.874141 1048.4648 50.275391 C 1048.5896 50.182891 1048.7134 50.0525 1048.8574 49.90625 z M 1050.1016 50.166016 C 1051.3703 50.404766 1052.6378 50.597891 1053.9258 50.744141 C 1050.6251 53.474141 1047.4014 56.263906 1044.2812 59.128906 C 1046.3034 56.165156 1048.2328 53.173516 1050.1016 50.166016 z M 982.4043 50.587891 C 984.72905 51.155391 987.06002 51.716928 989.38477 52.283203 C 989.88394 52.726941 990.35847 53.178228 990.85938 53.626953 C 986.74581 57.215728 982.92253 60.965547 978.89062 64.623047 C 978.85388 64.671797 978.79089 64.720794 978.74609 64.769531 C 979.39089 63.480781 980.03294 62.19625 980.69531 60.90625 C 982.23289 57.835 983.734 54.745 985.35156 51.6875 C 985.47631 51.46375 985.04035 51.292734 984.83398 51.458984 C 983.15242 52.850234 981.34567 54.125666 979.49609 55.345703 C 980.55208 53.783203 981.55311 52.195391 982.4043 50.587891 z M 940.74219 50.638672 C 939.32941 52.209922 937.91722 53.7925 936.49805 55.375 C 934.79888 55.345 933.05482 55.360781 931.34766 55.394531 C 931.03566 55.365781 930.70457 55.335391 930.39258 55.306641 C 932.19893 53.934141 934.09074 52.659667 936.10352 51.492188 C 937.66668 51.272187 939.20464 50.974922 940.74219 50.638672 z M 1064.4648 50.769531 C 1062.2825 54.812031 1060.0754 58.860391 1057.957 62.931641 C 1055.5699 63.322891 1053.1826 63.655625 1050.7891 63.953125 C 1050.7507 63.953125 1050.7072 63.958984 1050.6641 63.958984 C 1055.0704 59.637734 1059.3079 55.213906 1063.6758 50.847656 C 1063.8822 50.828906 1064.0706 50.818672 1064.2754 50.794922 C 1064.3394 50.789922 1064.4024 50.774531 1064.4648 50.769531 z M 1054.7832 50.833984 C 1055.2584 50.877734 1055.7332 50.927238 1056.2324 50.960938 C 1055.402 52.157187 1054.6137 53.362734 1053.8457 54.583984 C 1051.9513 57.625234 1050.3955 60.784922 1049.002 63.982422 C 1046.426 63.987422 1043.8522 63.811641 1041.2715 63.494141 C 1045.4522 59.016641 1049.9401 54.822734 1054.7832 50.833984 z M 1062.4258 50.960938 C 1058.7267 54.545938 1055.0075 58.098516 1051.3691 61.697266 C 1053.0315 58.026016 1055.0524 54.466172 1057.334 51.013672 C 1059.0203 51.087422 1060.7202 51.078437 1062.4258 50.960938 z M 934.29688 51.712891 C 932.65368 52.670391 931.09821 53.700625 929.62305 54.828125 C 930.18623 53.861875 930.74288 52.897891 931.33008 51.931641 C 931.45483 51.926641 931.5982 51.926875 931.74219 51.921875 C 932.59179 51.878125 933.44726 51.805391 934.29688 51.712891 z M 930.45312 51.960938 C 930.39075 52.034686 930.34738 52.102266 930.31055 52.166016 C 929.72976 53.177266 929.10414 54.173672 928.46094 55.169922 C 926.73619 55.071172 925.01153 55.022656 923.26758 55.003906 C 924.94753 54.017656 926.62864 53.021641 928.29102 52.025391 C 929.02219 52.010391 929.72834 51.985923 930.45312 51.960938 z M 926.86133 52.068359 C 926.00534 52.575859 925.13666 53.084297 924.30469 53.591797 C 924.69829 53.103047 925.07311 52.595625 925.4043 52.078125 C 925.90348 52.073125 926.37973 52.078584 926.86133 52.068359 z M 924.5918 52.083984 C 923.86702 53.128984 922.95299 54.099531 921.89062 54.988281 C 919.77225 54.988281 917.63452 55.037525 915.50977 55.125 C 916.71613 54.17375 917.94193 53.26 919.25391 52.40625 C 920.24748 52.30375 921.29158 52.200391 922.28516 52.087891 C 923.05473 52.087891 923.82222 52.083984 924.5918 52.083984 z M 918.0293 52.527344 C 917.67411 52.747344 917.29767 52.967422 916.94727 53.201172 C 916.24168 53.674922 915.32283 54.886406 914.84766 55.160156 C 914.76603 55.160156 914.70323 55.164922 914.61523 55.169922 C 914.53523 55.076172 914.53553 54.798828 914.66016 54.236328 C 914.76578 53.767578 914.76619 53.299684 914.74219 52.835938 C 915.82215 52.733438 916.92372 52.634844 918.0293 52.527344 z M 984.1875 52.599609 C 984.21238 52.603359 984.21086 52.637766 984.17188 52.712891 C 983.40386 54.250391 982.54503 55.770078 981.74023 57.298828 C 980.42667 59.725078 979.03396 62.137656 977.83398 64.597656 C 976.52201 64.246406 975.21409 63.866719 973.94531 63.480469 C 974.4653 62.786719 974.92241 62.069766 975.29688 61.478516 C 976.29678 59.946016 977.39692 58.378516 978.49609 56.791016 C 979.86567 55.932266 981.17849 55.047109 982.44727 54.099609 C 982.47952 54.070109 984.01319 52.571234 984.1875 52.599609 z M 914.03516 52.898438 C 914.12316 52.977187 914.18565 53.050156 914.24805 53.128906 C 914.22242 53.846406 914.03473 54.529375 913.78516 55.203125 C 911.25401 55.339375 908.7167 55.527109 906.18555 55.755859 C 907.69752 54.925859 909.21634 54.095 910.73633 53.25 C 910.77308 53.22625 910.81658 53.195625 910.87891 53.171875 C 911.91728 53.084375 912.97918 52.990936 914.03516 52.898438 z M 1023.0898 52.986328 L 1019.2266 58.869141 C 1019.1018 58.927891 1018.9508 58.987019 1018.8516 59.050781 C 1017.4132 59.529531 1016.0021 60.120156 1014.6133 60.785156 C 1014.4021 60.887656 1014.2146 60.980625 1014.0098 61.078125 C 1013.4466 61.283125 1012.9089 61.477578 1012.3457 61.673828 C 1012.6769 61.292578 1013.0147 60.910625 1013.3027 60.515625 C 1015.4659 58.454375 1017.7712 56.518359 1020.2031 54.662109 C 1021.1775 54.129609 1022.1587 53.567578 1023.0898 52.986328 z M 992.31445 52.996094 C 997.53354 54.276094 1002.7462 55.705625 1008.2148 56.140625 C 1008.922 56.194375 1009.6268 56.200781 1010.334 56.175781 C 1009.6268 56.683281 1008.9396 57.181719 1008.2324 57.699219 C 1006.5077 57.932969 1004.7639 58.006172 1002.9512 57.888672 C 1002.9144 57.874922 1002.8534 57.870406 1002.791 57.878906 C 1001.8534 57.811406 1000.9216 57.698828 999.96484 57.517578 C 996.59693 56.878828 994.27283 55.179375 992.14648 53.265625 C 992.21048 53.173125 992.27124 53.084844 992.31445 52.996094 z M 909.5918 53.279297 C 908.27822 53.986797 906.97213 54.690691 905.66016 55.408203 C 905.72253 55.275691 905.76603 55.102266 905.78516 54.853516 C 905.87316 54.364766 905.87287 53.968281 905.82812 53.582031 C 907.0729 53.484531 908.34221 53.381797 909.5918 53.279297 z M 904.95312 53.65625 C 905.6603 54.2275 905.53631 54.973828 904.58594 55.892578 C 902.25479 56.116328 899.90483 56.367266 897.58008 56.634766 C 895.25533 56.723516 892.92436 56.809844 890.59961 56.902344 C 891.118 56.302344 891.69863 55.732003 892.32422 55.189453 C 892.76101 55.120703 893.17293 55.066812 893.61133 54.984375 C 894.94248 54.730625 896.27449 54.466641 897.58008 54.212891 C 897.64245 54.207891 897.68433 54.208125 897.72266 54.203125 C 897.51626 54.579375 897.24929 55.018047 896.8125 55.560547 C 896.6861 55.765547 896.95332 55.959687 897.22852 55.867188 C 898.57888 55.344687 899.94812 54.812109 901.2793 54.255859 C 901.59288 54.124609 901.90342 53.998437 902.19141 53.867188 C 903.12898 53.798437 904.04114 53.72375 904.95312 53.65625 z M 991.13477 53.855469 C 991.13477 53.860469 991.13467 53.87 991.15234 53.875 C 988.41001 57.7475 986.0212 61.697109 984.04688 65.818359 C 983.54606 65.794609 983.06504 65.760193 982.58984 65.726562 C 981.48907 65.496562 980.39017 65.252266 979.30859 64.978516 C 981.03336 63.133516 982.84055 61.335625 984.72852 59.578125 C 986.68368 57.756875 989.5716 55.812969 991.13477 53.855469 z M 900.36719 54.011719 C 899.6616 54.304219 898.94779 54.588984 898.24219 54.896484 C 897.767 55.101484 897.91014 54.594687 898.07812 54.179688 C 898.4909 54.149687 898.9111 54.124844 899.30469 54.089844 C 899.66149 54.066094 900.012 54.035469 900.36719 54.011719 z M 991.54492 54.207031 C 992.31451 54.880781 993.10173 55.545156 993.99609 56.160156 C 994.37049 56.420156 994.74489 56.653906 995.16406 56.878906 C 995.03931 56.888906 994.93337 56.923284 994.82617 57.005859 C 991.52703 59.769609 988.42734 62.679297 985.55859 65.716797 C 985.43384 65.736797 985.33377 65.755391 985.20898 65.775391 C 986.99613 61.815391 989.05218 57.928281 991.54492 54.207031 z M 793.81641 54.474609 C 793.81713 54.47897 793.8157 54.487398 793.81641 54.492188 C 793.87171 54.628908 793.89096 54.671885 793.84375 54.503906 C 793.83557 54.493765 793.8252 54.484416 793.81641 54.474609 z M 791.50977 54.734375 L 791.50781 54.736328 C 791.51085 54.743304 791.51314 54.75056 791.51562 54.757812 C 791.51389 54.749941 791.51152 54.742237 791.50977 54.734375 z M 791.61719 54.904297 C 791.62988 54.912336 791.64166 54.921571 791.6543 54.929688 C 791.79368 54.972445 791.96197 55.025568 791.88672 54.996094 C 791.74637 54.941117 791.68906 54.926248 791.61719 54.904297 z M 876.51172 55.095703 C 877.11171 55.154453 877.71197 55.2147 878.31836 55.273438 C 877.38078 55.702187 876.51027 56.190938 875.6543 56.742188 C 875.6783 56.620936 875.71864 56.469687 875.74414 56.273438 C 875.82414 55.839686 875.82244 55.472578 875.80469 55.111328 C 876.02868 55.106328 876.27972 55.101328 876.51172 55.095703 z M 874.94727 55.119141 C 875.67844 55.764141 875.55488 56.570859 874.51172 57.537109 C 872.91176 57.600859 871.3109 57.670781 869.71094 57.738281 C 870.60531 57.192031 871.46128 56.639141 872.33008 56.087891 C 872.78607 55.770391 873.26895 55.458125 873.74414 55.140625 C 874.14414 55.135625 874.55368 55.129391 874.94727 55.119141 z M 872.58008 55.154297 C 871.95448 55.544297 871.33686 55.932266 870.73047 56.322266 C 869.75448 57.133516 869.44201 57.294531 869.81641 56.800781 C 870.06758 56.259531 870.33668 55.717186 870.60547 55.179688 C 871.24866 55.174688 871.91768 55.164297 872.58008 55.154297 z M 869.79883 55.183594 C 869.37963 56.053594 868.98701 56.9225 868.57422 57.78125 C 867.26223 57.835 865.95454 57.894622 864.64258 57.943359 C 866.11774 57.210859 867.49163 56.428906 868.81641 55.535156 C 868.98601 55.418906 869.1305 55.306966 869.2793 55.189453 C 869.46808 55.189453 869.62923 55.188994 869.79883 55.183594 z M 867.9668 55.203125 C 867.11721 55.784375 866.22273 56.341016 865.28516 56.853516 C 865.66116 56.346016 865.91208 55.794141 866.08008 55.212891 C 866.72487 55.212891 867.34281 55.208125 867.9668 55.203125 z M 865.1875 55.21875 C 865.20675 56.24875 864.60018 57.142656 863.27539 57.878906 C 863.23064 57.913906 863.23052 57.962159 863.21289 58.005859 C 862.16813 58.044609 861.13017 58.089728 860.0918 58.134766 C 861.02938 57.514766 861.98678 56.888828 862.91797 56.267578 C 863.43637 55.921328 863.93668 55.575156 864.45508 55.222656 C 864.68547 55.222656 864.9555 55.222338 865.1875 55.21875 z M 862.52344 55.232422 L 863 55.232422 C 861.83684 55.984922 860.71818 56.736641 859.57422 57.494141 C 859.53097 56.751641 859.49234 56.014688 859.44922 55.273438 C 860.46841 55.253438 861.48506 55.237422 862.52344 55.232422 z M 858.49219 55.291016 C 858.55456 56.258516 858.59993 57.225156 858.63672 58.191406 C 851.81286 58.470156 844.9803 58.749609 838.14844 59.037109 C 838.02369 59.042109 837.91245 59.045781 837.78125 59.050781 C 837.95565 58.845781 838.14822 58.647266 838.32422 58.447266 C 840.03618 58.202266 841.73694 57.898906 843.42969 57.566406 C 843.59289 57.722656 843.84992 57.751616 844.03711 57.619141 C 844.16831 57.536641 844.27985 57.455703 844.40625 57.376953 C 845.66864 57.118203 846.94802 56.848828 848.2168 56.580078 C 848.4232 56.907578 848.61305 57.367182 848.80664 57.992188 C 848.86902 58.242188 849.29979 58.318828 849.52539 58.142578 C 850.46938 57.376328 851.41308 56.609141 852.35547 55.837891 C 852.43709 55.764141 852.49848 55.726769 852.58008 55.667969 C 852.85527 55.609219 853.1316 55.559597 853.40039 55.505859 C 853.48039 55.500859 853.54448 55.497188 853.61328 55.492188 C 853.63091 55.834688 853.49219 56.419766 853.49219 57.009766 C 853.51144 57.337266 853.98099 57.463672 854.27539 57.263672 C 855.23058 56.619922 856.18776 55.975078 857.14453 55.330078 C 857.60052 55.316328 858.0554 55.301016 858.49219 55.291016 z M 1029.0137 55.335938 C 1028.5337 56.249687 1027.9968 57.147656 1027.4336 58.035156 C 1027.0208 57.982656 1026.6021 57.942578 1026.1445 57.923828 C 1027.1829 57.088828 1028.1209 56.214688 1029.0137 55.335938 z M 879.29102 55.355469 C 880.04139 55.414219 880.74822 55.466837 881.47461 55.515625 C 881.59936 56.008125 881.51758 56.673906 881.45508 57.253906 C 881.33033 57.258906 881.1873 57.263906 881.0625 57.269531 C 879.23054 57.343281 877.3808 57.419297 875.53125 57.498047 C 876.71843 56.701797 877.98544 55.990469 879.29102 55.355469 z M 890.33008 55.443359 C 890.09808 55.955859 889.81197 56.453906 889.51758 56.941406 C 887.44242 57.025156 885.34328 57.097891 883.26172 57.181641 C 883.88571 56.654141 884.57393 56.150859 885.23633 55.662109 C 886.94348 55.677109 888.62292 55.614609 890.33008 55.443359 z M 1014.7148 55.505859 C 1014.6332 55.725859 1014.5699 55.955781 1014.4883 56.175781 C 1013.1395 56.664531 1011.7451 57.049766 1010.334 57.353516 C 1010.9516 56.893516 1011.6208 56.464531 1012.2832 56.019531 C 1013.096 55.907031 1013.9085 55.730859 1014.7148 55.505859 z M 882.05469 55.550781 C 882.80509 55.594531 883.55463 55.629562 884.32422 55.648438 C 883.63623 56.147188 882.97323 56.674428 882.34766 57.220703 C 882.20526 57.225703 882.05416 57.229375 881.91016 57.234375 C 881.82853 56.911875 881.92991 56.219531 882.05469 55.550781 z M 794.99609 55.744141 L 795.00977 55.755859 C 795.01543 55.757959 795.02614 55.763945 795.03125 55.765625 C 795.04445 55.770025 794.98549 55.735061 794.99609 55.744141 z M 850.91797 56.003906 L 849.84961 56.892578 C 849.70562 57.015078 849.41178 56.766875 849.0918 56.390625 C 849.71738 56.264375 850.32438 56.131406 850.91797 56.003906 z M 814.66211 56.478516 C 813.91172 56.616016 813.14459 56.805078 812.375 57.048828 C 809.00066 58.118828 805.20725 60.564375 801.54492 58.328125 C 800.98173 57.985625 800.18095 58.593203 800.74414 58.939453 C 801.17454 59.208216 801.62554 59.402109 802.07031 59.568359 C 801.31994 59.524609 800.54957 59.481484 799.80078 59.427734 C 798.96878 58.636484 798.13864 57.850936 797.30664 57.054688 C 797.20739 56.957188 797.11199 56.863125 797 56.765625 C 797.08 56.760625 797.15581 56.756953 797.22461 56.751953 C 802.8565 57.499491 808.76143 57.236016 814.66211 56.478516 z M 795.67188 56.548828 C 795.91692 57.761228 795.79455 56.689187 795.73047 56.587891 C 795.71026 56.575699 795.69088 56.562401 795.67188 56.548828 z M 940.74219 56.761719 C 944.7293 57.005469 948.67687 57.484453 952.58398 58.314453 C 954.82713 58.803203 957.05396 59.383828 959.25391 60.017578 C 959.04751 60.350078 958.7982 60.683281 958.5918 61.019531 C 958.5918 61.054531 958.59202 61.083312 958.56641 61.117188 C 952.66733 59.559686 946.74685 57.932969 940.74219 56.761719 z M 834.51172 56.796875 C 834.67892 56.794375 834.76747 56.910497 834.85547 57.123047 C 834.18028 57.358047 833.51146 57.617266 832.85547 57.884766 C 832.56748 57.899766 832.2626 57.9325 831.97461 57.9375 C 832.6002 57.7625 833.19363 57.526797 833.69922 57.185547 C 834.09921 56.921797 834.34452 56.8 834.51172 56.796875 z M 796.17773 56.830078 C 796.21893 56.891178 796.19994 56.872616 796.28125 56.982422 C 796.31195 57.023932 796.24853 56.876359 796.20703 56.845703 C 796.19825 56.839225 796.18679 56.836217 796.17773 56.830078 z M 995.7207 57.171875 C 997.50788 58.070625 999.4386 58.603281 1001.4766 58.832031 C 999.2946 60.575781 997.13527 62.317656 994.97852 64.066406 C 994.02173 64.207656 993.0837 64.364141 992.10938 64.525391 C 993.10289 62.137891 994.27114 59.812109 995.7207 57.537109 C 995.78308 57.409609 995.78308 57.284375 995.7207 57.171875 z M 1014.0098 57.283203 C 1013.4274 58.474428 1012.7014 59.613516 1011.8086 60.697266 C 1011.2454 61.244766 1010.7081 61.805078 1010.1641 62.361328 C 1008.7513 62.791328 1007.3212 63.178047 1005.8652 63.529297 C 1004.8893 63.480547 1003.908 63.446406 1002.9336 63.441406 C 1004.7832 61.761406 1006.696 60.120859 1008.7344 58.568359 C 1010.5407 58.270859 1012.3282 57.829441 1014.0098 57.283203 z M 816.68359 57.292969 C 817.44842 57.266969 818.26347 57.318844 819.15625 57.472656 C 817.1627 58.273906 815.17466 59.077188 813.1875 59.898438 C 813.04991 59.898438 812.88654 59.896484 812.74414 59.896484 C 812.86889 59.246484 813.01813 58.593359 813.14453 57.943359 C 814.27251 57.595697 815.40891 57.338197 816.68359 57.294922 L 816.68359 57.292969 z M 922.54492 57.626953 C 924.75348 57.619453 926.96678 57.658084 929.18555 57.755859 C 944.60442 58.429609 958.59106 64.011406 973.30273 67.003906 C 965.6773 67.018906 958.09115 65.392266 950.7793 63.947266 C 943.33626 62.477266 935.83474 61.242266 928.22852 60.353516 C 921.06067 59.513516 913.82952 59.023672 906.58008 58.794922 C 905.31129 58.756172 904.04221 58.752422 902.77344 58.732422 C 909.3361 58.109922 915.91926 57.651978 922.54492 57.626953 z M 821.08008 57.84375 C 821.81287 57.999975 822.53836 58.151484 823.26953 58.302734 C 822.21356 59.142734 821.04968 59.699987 821.08008 57.84375 z M 819.83203 58.017578 C 820.19934 58.133453 820.75763 59.040625 821.20703 59.664062 C 819.19427 59.742813 817.17541 59.831562 815.15625 59.914062 C 816.68101 59.284062 818.18194 58.654531 819.6875 58.019531 C 819.73125 58.000656 819.77962 58.001578 819.83203 58.017578 z M 797.59375 58.052734 C 797.5921 58.054103 797.58967 58.05368 797.58789 58.054688 C 797.64203 58.109288 797.68861 58.171748 797.74609 58.222656 C 797.79988 58.270286 797.65045 58.116354 797.59375 58.052734 z M 812.38867 58.175781 L 811.86328 59.884766 C 810.31291 59.864766 808.76218 59.830984 807.22461 59.787109 C 807.8006 59.664609 808.38796 59.518047 808.96875 59.341797 C 810.21354 58.956797 811.30708 58.537031 812.38867 58.175781 z M 976.17188 58.224609 C 975.23428 59.908359 974.15333 61.704844 972.75977 63.121094 C 971.47338 62.724844 970.20378 62.326016 968.94141 61.916016 C 971.45336 60.797266 973.88363 59.567109 976.17188 58.224609 z M 824.00586 58.441406 C 825.04903 58.641406 826.08674 58.817266 827.1875 58.916016 C 828.23069 59.008516 829.26823 59.036016 830.32422 59.041016 C 830.11783 59.143516 829.92548 59.246016 829.73828 59.353516 C 827.40073 59.441016 825.06216 59.530781 822.72461 59.613281 C 823.09261 59.242031 823.54347 58.807656 824.00586 58.441406 z M 798.23438 58.644531 C 798.29129 58.709234 798.34908 58.773229 798.41016 58.833984 C 798.45116 58.874734 798.33814 58.743786 798.30664 58.695312 C 798.30364 58.690312 798.31872 58.698972 798.32422 58.701172 L 798.23438 58.644531 z M 879.73047 58.71875 C 874.42978 59.295 869.13056 59.768516 863.85547 59.978516 C 857.30521 60.237266 850.75515 60.232656 844.21289 60.160156 C 853.83669 59.778906 863.47866 59.384531 873.09766 58.988281 C 875.32321 58.900781 877.53052 58.8075 879.73047 58.71875 z M 835.74805 58.767578 C 835.8488 58.885078 835.94464 59.001641 836.05664 59.119141 C 834.82468 59.167891 833.58779 59.207147 832.375 59.255859 C 832.66299 59.158359 832.94833 59.06125 833.23633 58.96875 C 834.06832 58.92 834.91767 58.856378 835.74805 58.767578 z M 1006.7773 58.826172 C 1004.9086 60.311172 1003.1404 61.873359 1001.4141 63.474609 C 1001.0829 63.479609 1000.7338 63.479641 1000.377 63.494141 C 1001.2521 61.980391 1002.1209 60.461875 1002.9961 58.953125 C 1004.2393 59.006875 1005.5342 58.953672 1006.7773 58.826172 z M 1025.5332 59.169922 C 1025.9144 59.173672 1026.2977 59.191219 1026.6816 59.230469 C 1026.3953 59.679219 1026.0639 60.123359 1025.7695 60.568359 C 1024.7071 60.435859 1023.6712 60.353984 1022.6328 60.333984 C 1023.2328 59.972734 1023.8136 59.60033 1024.4023 59.195312 C 1024.7735 59.175939 1025.152 59.166172 1025.5332 59.169922 z M 1028.2832 59.484375 C 1028.472 59.518125 1028.6204 59.546062 1028.8027 59.585938 C 1030.4891 59.995936 1032.0894 60.693516 1033.6094 61.509766 C 1033.4206 61.676016 1033.2517 61.837656 1033.0645 62.003906 C 1031.0517 61.530156 1029.0759 61.070312 1027.1016 60.757812 C 1027.4952 60.327813 1027.8896 59.904375 1028.2832 59.484375 z M 993.18945 59.728516 C 992.29508 61.364766 991.5452 63.042186 990.88281 64.742188 C 989.67644 64.960938 988.48958 65.182344 987.2832 65.402344 C 989.17755 63.453594 991.13349 61.559766 993.18945 59.728516 z M 1001.2891 60.099609 C 1000.6267 61.262109 999.94134 62.418672 999.27734 63.576172 C 998.69657 63.614922 998.11593 63.649297 997.53516 63.716797 C 997.25997 63.746797 997.00903 63.790594 996.74023 63.824219 C 998.25861 62.584219 999.77589 61.344609 1001.2891 60.099609 z M 960.85352 60.490234 C 964.53503 61.598984 968.17081 62.819297 971.80273 63.966797 C 971.72111 64.044297 971.61483 64.113047 971.51562 64.185547 C 967.58452 63.409297 963.67673 62.448984 959.79688 61.427734 L 960.85352 60.490234 z M 800.80859 60.560547 C 800.855 60.607149 800.88882 60.645 800.95898 60.708984 C 800.91454 60.653617 800.92093 60.661548 800.85352 60.578125 C 800.8436 60.573858 800.8209 60.565429 800.80859 60.560547 z M 801.93555 61.353516 C 801.99931 61.397825 802.03995 61.424644 802.11328 61.478516 C 802.08635 61.449297 802.06087 61.419299 802.04297 61.384766 C 801.99958 61.371481 801.99357 61.372208 801.93555 61.353516 z M 801.69141 61.361328 C 801.68304 61.339571 801.68087 61.385562 801.6543 61.410156 C 801.69268 61.502484 801.70742 61.547464 801.76758 61.679688 C 801.7148 61.462784 801.69919 61.381574 801.69141 61.361328 z M 1021.2461 63.050781 C 1024.4314 63.121906 1027.4827 63.797113 1030.5508 64.546875 C 1030.5508 64.913125 1031.1337 65.234922 1031.5449 64.888672 C 1031.5449 64.863672 1031.5901 64.834687 1031.6094 64.804688 C 1032.1086 64.927187 1032.5893 65.046562 1033.0645 65.164062 C 1028.3702 65.221564 1023.6512 65.089441 1018.8945 64.689453 C 1017.3138 64.561953 1015.7347 64.400625 1014.1523 64.234375 C 1014.4659 64.126875 1014.7762 64.015703 1015.1074 63.908203 C 1015.4642 63.780703 1015.7762 63.644219 1016.1074 63.511719 C 1017.3902 63.242031 1018.6437 63.101381 1019.873 63.058594 C 1020.334 63.042469 1020.791 63.040281 1021.2461 63.050781 z M 998.54492 64.830078 C 998.50817 64.888828 998.48856 64.949075 998.44531 65.007812 C 997.17654 65.202812 995.93512 65.362891 994.70312 65.494141 C 994.79112 65.426641 994.87117 65.362578 994.95117 65.298828 C 996.13995 65.108828 997.32095 64.947578 998.54492 64.830078 z "
         transform="matrix(0.8,0,0,-0.8,-194.18011,745.2375)"
         id="path1000" /></g></g></svg>