<?xml version="1.0" encoding="UTF-8" standalone="no"?>
<!-- Created with Inkscape (http://www.inkscape.org/) -->

<svg
   xmlns:dc="http://purl.org/dc/elements/1.1/"
   xmlns:cc="http://creativecommons.org/ns#"
   xmlns:rdf="http://www.w3.org/1999/02/22-rdf-syntax-ns#"
   xmlns:svg="http://www.w3.org/2000/svg"
   xmlns="http://www.w3.org/2000/svg"
   xmlns:sodipodi="http://sodipodi.sourceforge.net/DTD/sodipodi-0.dtd"
   xmlns:inkscape="http://www.inkscape.org/namespaces/inkscape"
   width="76.364044mm"
   height="76.396851mm"
   viewBox="0 0 270.58126 270.6975"
   id="svg4281"
   version="1.1"
   inkscape:version="0.91 r13725"
   sodipodi:docname="social-gplus.svg">
  <defs
     id="defs4283" />
  <sodipodi:namedview
     id="base"
     pagecolor="#ffffff"
     bordercolor="#666666"
     borderopacity="1.0"
     inkscape:pageopacity="0.0"
     inkscape:pageshadow="2"
     inkscape:zoom="0.35"
     inkscape:cx="41.7192"
     inkscape:cy="-67.508395"
     inkscape:document-units="px"
     inkscape:current-layer="layer1"
     showgrid="false"
     fit-margin-top="0"
     fit-margin-left="0"
     fit-margin-right="0"
     fit-margin-bottom="0"
     inkscape:window-width="1366"
     inkscape:window-height="705"
     inkscape:window-x="-8"
     inkscape:window-y="-8"
     inkscape:window-maximized="1" />
  <metadata
     id="metadata4286">
    <rdf:RDF>
      <cc:Work
         rdf:about="">
        <dc:format>image/svg+xml</dc:format>
        <dc:type
           rdf:resource="http://purl.org/dc/dcmitype/StillImage" />
        <dc:title></dc:title>
      </cc:Work>
    </rdf:RDF>
  </metadata>
  <g
     inkscape:label="Layer 1"
     inkscape:groupmode="layer"
     id="layer1"
     transform="translate(-333.2808,-194.15631)">
    <g
       id="g304"
       transform="matrix(1.25,0,0,-1.25,600.6808,449.52881)">
      <path
         d="m 0,0 c 0,-1.779 -0.028,-3.66 -0.859,-5.097 -0.857,-1.482 -2.522,-2.401 -4.004,-3.258 -1.436,-0.832 -3.044,-1.497 -4.823,-1.497 -2.997,0 -2.997,-0.103 -5.995,-0.103 -2.998,0 -2.998,0.101 -5.996,0.101 -3.001,0 -3.001,-0.166 -6.002,-0.166 -2.998,0 -2.998,-0.238 -5.997,-0.238 -2.998,0 -2.998,0.182 -5.996,0.182 -2.999,0 -2.999,0.653 -5.998,0.653 -3,0 -3,-0.836 -6.001,-0.836 -2.998,0 -2.998,0.614 -5.997,0.614 -2.999,0 -2.999,-0.482 -5.999,-0.482 -3,0 -3,0.643 -6.001,0.643 -2.999,0 -2.999,-0.045 -5.999,-0.045 -3,0 -3,-0.152 -6,-0.152 -3,0 -3,-0.233 -6,-0.233 -3.001,0 -3.001,-0.167 -6.001,-0.167 -3,0 -3,0.24 -6,0.24 -3.001,0 -3.001,-0.419 -6.003,-0.419 -3,0 -3,0.167 -6,0.167 -3.001,0 -3.001,0.743 -6.003,0.743 -3.001,0 -3.001,-0.728 -6.003,-0.728 -3.001,0 -3.001,0.703 -6.003,0.703 -3.001,0 -3.001,-0.402 -6.002,-0.402 -3.002,0 -3.002,-0.231 -6.003,-0.231 -2.999,0 -2.999,0.087 -5.998,0.087 -3.001,0 -3.001,0.486 -6.001,0.486 -3.002,0 -3.002,-0.627 -6.003,-0.627 -3.002,0 -3.002,0.061 -6.004,0.061 -3.002,0 -3.002,0.696 -6.003,0.696 -3.003,0 -3.003,-0.234 -6.005,-0.234 -3.001,0 -3.001,0.211 -6.002,0.211 -3.004,0 -3.004,-0.731 -6.007,-0.731 -3.005,0 -3.005,0.484 -6.011,0.484 -3.006,0 -3.006,-0.196 -6.011,-0.196 -1.78,0 -3.461,0.458 -4.898,1.289 -1.482,0.857 -2.44,2.268 -3.297,3.751 -0.831,1.436 -1.806,2.952 -1.806,4.731 0,2.997 -0.014,2.997 -0.014,5.994 0,2.999 -0.132,2.999 -0.132,5.997 0,3.001 0.352,3.001 0.352,6.002 0,2.998 0.003,2.998 0.003,5.997 0,2.998 0.459,2.998 0.459,5.996 0,2.999 -0.408,2.999 -0.408,5.998 0,3 -0.232,3 -0.232,6 0,2.999 0.687,2.999 0.687,5.998 0,2.999 -0.167,2.999 -0.167,5.998 0,3.001 -0.737,3.001 -0.737,6.002 0,2.999 0.887,2.999 0.887,5.998 0,3.001 -0.154,3.001 -0.154,6.001 0,3 0.091,3 0.091,6 0,3 -0.455,3 -0.455,6.001 0,3 -0.065,3 -0.065,6 0,3.001 0.481,3.001 0.481,6.003 0,3 -0.19,3 -0.19,6 0,3.001 -0.271,3.001 -0.271,6.003 0,3.001 -0.264,3.001 -0.264,6.003 0,3.001 0.159,3.001 0.159,6.002 0,3.001 -0.175,3.001 -0.175,6.003 0,3.001 0.343,3.001 0.343,6.003 0,2.999 0.15,2.999 0.15,5.998 0,3 -0.503,3 -0.503,6.001 0,3.001 0.471,3.001 0.471,6.003 0,3.002 -0.067,3.002 -0.067,6.003 0,3.002 0.395,3.002 0.395,6.004 0,3.002 -0.123,3.002 -0.123,6.005 0,3.001 -0.478,3.001 -0.478,6.002 0,3.003 0.62,3.003 0.62,6.006 0,3.006 -0.627,3.006 -0.627,6.012 0,3.005 0.021,3.005 0.021,6.011 0,1.779 0.447,3.567 1.278,5.003 0.857,1.482 2.224,2.731 3.706,3.588 1.436,0.831 3.18,1.193 4.96,1.193 2.997,0 2.997,-0.034 5.994,-0.034 2.998,0 2.998,0.432 5.997,0.432 3,0 3,-0.588 6.001,-0.588 2.999,0 2.999,0.405 5.997,0.405 2.998,0 2.998,-0.549 5.996,-0.549 2.999,0 2.999,0.082 5.999,0.082 3,0 3,0.357 6,0.357 2.999,0 2.999,0.362 5.997,0.362 3,0 3,-0.605 5.999,-0.605 3.001,0 3.001,-0.117 6.001,-0.117 2.999,0 2.999,0.004 5.999,0.004 3,0 3,0.272 6.001,0.272 3,0 3,0.134 6,0.134 3,0 3,-0.209 6,-0.209 3,0 3,0.493 6.001,0.493 3.001,0 3.001,-0.147 6.002,-0.147 3,0 3,0.173 6.001,0.173 3.001,0 3.001,-0.872 6.002,-0.872 3.002,0 3.002,0.423 6.004,0.423 l 6.002,0 c 3.001,0 3.001,0.382 6.003,0.382 3.001,0 3.001,-0.73 6.003,-0.73 2.999,0 2.999,0.268 5.998,0.268 3,0 3,-0.096 6.001,-0.096 3.001,0 3.001,-0.03 6.003,-0.03 3.002,0 3.002,0.657 6.003,0.657 3.002,0 3.002,-0.005 6.004,-0.005 3.002,0 3.002,-0.84 6.005,-0.84 3.001,0 3.001,0.599 6.002,0.599 3.003,0 3.003,-0.026 6.007,-0.026 3.005,0 3.005,0.275 6.011,0.275 3.005,0 3.005,-0.256 6.011,-0.256 1.779,0 3.581,-0.478 5.017,-1.309 1.482,-0.858 2.284,-2.498 3.141,-3.98 0.831,-1.436 1.912,-2.93 1.912,-4.709 0,-2.997 -0.271,-2.997 -0.271,-5.995 0,-2.998 -0.328,-2.998 -0.328,-5.996 0,-3.001 0.711,-3.001 0.711,-6.002 0,-2.998 0.049,-2.998 0.049,-5.997 0,-2.998 -0.377,-2.998 -0.377,-5.996 0,-2.999 0.366,-2.999 0.366,-5.998 0,-3 -0.611,-3 -0.611,-6.001 0,-2.998 -0.018,-2.998 -0.018,-5.997 0,-3 0.196,-3 0.196,-5.999 0,-3.001 -0.116,-3.001 -0.116,-6.001 0,-3 0.132,-3 0.132,-5.999 0,-3 -0.135,-3 -0.135,-6 0,-3 -0.326,-3 -0.326,-6 0,-3 0.392,-3 0.392,-6.001 0,-3 0.135,-3 0.135,-6 0,-3.001 -0.228,-3.001 -0.228,-6.002 0,-3 0.177,-3 0.177,-6.001 0,-3.001 0.343,-3.001 0.343,-6.002 0,-3.001 -0.292,-3.001 -0.292,-6.003 0,-3.002 0.034,-3.002 0.034,-6.003 0,-3.001 0.274,-3.001 0.274,-6.002 0,-3.002 -0.87,-3.002 -0.87,-6.004 0,-2.999 0.22,-2.999 0.22,-5.998 0,-3 0.055,-3 0.055,-6 0,-3.002 0.525,-3.002 0.525,-6.004 0,-3.001 -0.103,-3.001 -0.103,-6.003 0,-3.002 0.22,-3.002 0.22,-6.004 0,-3.002 -0.298,-3.002 -0.298,-6.005 0,-3.001 -0.102,-3.001 -0.102,-6.002 0,-3.003 -0.134,-3.003 -0.134,-6.007 C 0.004,9.017 -0.364,9.021 -0.39,6.015 -0.417,3.009 0,3.005 0,0"
         style="fill:#f12c33;fill-opacity:1;fill-rule:evenodd;stroke:none"
         id="path306"
         inkscape:connector-curvature="0" />
    </g>
    <g
       id="g308"
       transform="matrix(1.25,0,0,-1.25,600.6808,449.52881)">
      <path
         d="m 0,0 c 0,-1.779 -0.028,-3.66 -0.859,-5.097 -0.857,-1.482 -2.522,-2.401 -4.004,-3.258 -1.436,-0.832 -3.044,-1.497 -4.823,-1.497 -2.997,0 -2.997,-0.103 -5.995,-0.103 -2.998,0 -2.998,0.101 -5.996,0.101 -3.001,0 -3.001,-0.166 -6.002,-0.166 -2.998,0 -2.998,-0.238 -5.997,-0.238 -2.998,0 -2.998,0.182 -5.996,0.182 -2.999,0 -2.999,0.653 -5.998,0.653 -3,0 -3,-0.836 -6.001,-0.836 -2.998,0 -2.998,0.614 -5.997,0.614 -2.999,0 -2.999,-0.482 -5.999,-0.482 -3,0 -3,0.643 -6.001,0.643 -2.999,0 -2.999,-0.045 -5.999,-0.045 -3,0 -3,-0.152 -6,-0.152 -3,0 -3,-0.233 -6,-0.233 -3.001,0 -3.001,-0.167 -6.001,-0.167 -3,0 -3,0.24 -6,0.24 -3.001,0 -3.001,-0.419 -6.003,-0.419 -3,0 -3,0.167 -6,0.167 -3.001,0 -3.001,0.743 -6.003,0.743 -3.001,0 -3.001,-0.728 -6.003,-0.728 -3.001,0 -3.001,0.703 -6.003,0.703 -3.001,0 -3.001,-0.402 -6.002,-0.402 -3.002,0 -3.002,-0.231 -6.003,-0.231 -2.999,0 -2.999,0.087 -5.998,0.087 -3.001,0 -3.001,0.486 -6.001,0.486 -3.002,0 -3.002,-0.627 -6.003,-0.627 -3.002,0 -3.002,0.061 -6.004,0.061 -3.002,0 -3.002,0.696 -6.003,0.696 -3.003,0 -3.003,-0.234 -6.005,-0.234 -3.001,0 -3.001,0.211 -6.002,0.211 -3.004,0 -3.004,-0.731 -6.007,-0.731 -3.005,0 -3.005,0.484 -6.011,0.484 -3.006,0 -3.006,-0.196 -6.011,-0.196 -1.78,0 -3.461,0.458 -4.898,1.289 -1.482,0.857 -2.44,2.268 -3.297,3.751 -0.831,1.436 -1.806,2.952 -1.806,4.731 0,2.997 -0.014,2.997 -0.014,5.994 0,2.999 -0.132,2.999 -0.132,5.997 0,3.001 0.352,3.001 0.352,6.002 0,2.998 0.003,2.998 0.003,5.997 0,2.998 0.459,2.998 0.459,5.996 0,2.999 -0.408,2.999 -0.408,5.998 0,3 -0.232,3 -0.232,6 0,2.999 0.687,2.999 0.687,5.998 0,2.999 -0.167,2.999 -0.167,5.998 0,3.001 -0.737,3.001 -0.737,6.002 0,2.999 0.887,2.999 0.887,5.998 0,3.001 -0.154,3.001 -0.154,6.001 0,3 0.091,3 0.091,6 0,3 -0.455,3 -0.455,6.001 0,3 -0.065,3 -0.065,6 0,3.001 0.481,3.001 0.481,6.003 0,3 -0.19,3 -0.19,6 0,3.001 -0.271,3.001 -0.271,6.003 0,3.001 -0.264,3.001 -0.264,6.003 0,3.001 0.159,3.001 0.159,6.002 0,3.001 -0.175,3.001 -0.175,6.003 0,3.001 0.343,3.001 0.343,6.003 0,2.999 0.15,2.999 0.15,5.998 0,3 -0.503,3 -0.503,6.001 0,3.001 0.471,3.001 0.471,6.003 0,3.002 -0.067,3.002 -0.067,6.003 0,3.002 0.395,3.002 0.395,6.004 0,3.002 -0.123,3.002 -0.123,6.005 0,3.001 -0.478,3.001 -0.478,6.002 0,3.003 0.62,3.003 0.62,6.006 0,3.006 -0.627,3.006 -0.627,6.012 0,3.005 0.021,3.005 0.021,6.011 0,1.779 0.447,3.567 1.278,5.003 0.857,1.482 2.224,2.731 3.706,3.588 1.436,0.831 3.18,1.193 4.96,1.193 2.997,0 2.997,-0.034 5.994,-0.034 2.998,0 2.998,0.432 5.997,0.432 3,0 3,-0.588 6.001,-0.588 2.999,0 2.999,0.405 5.997,0.405 2.998,0 2.998,-0.549 5.996,-0.549 2.999,0 2.999,0.082 5.999,0.082 3,0 3,0.357 6,0.357 2.999,0 2.999,0.362 5.997,0.362 3,0 3,-0.605 5.999,-0.605 3.001,0 3.001,-0.117 6.001,-0.117 2.999,0 2.999,0.004 5.999,0.004 3,0 3,0.272 6.001,0.272 3,0 3,0.134 6,0.134 3,0 3,-0.209 6,-0.209 3,0 3,0.493 6.001,0.493 3.001,0 3.001,-0.147 6.002,-0.147 3,0 3,0.173 6.001,0.173 3.001,0 3.001,-0.872 6.002,-0.872 3.002,0 3.002,0.423 6.004,0.423 l 6.002,0 c 3.001,0 3.001,0.382 6.003,0.382 3.001,0 3.001,-0.73 6.003,-0.73 2.999,0 2.999,0.268 5.998,0.268 3,0 3,-0.096 6.001,-0.096 3.001,0 3.001,-0.03 6.003,-0.03 3.002,0 3.002,0.657 6.003,0.657 3.002,0 3.002,-0.005 6.004,-0.005 3.002,0 3.002,-0.84 6.005,-0.84 3.001,0 3.001,0.599 6.002,0.599 3.003,0 3.003,-0.026 6.007,-0.026 3.005,0 3.005,0.275 6.011,0.275 3.005,0 3.005,-0.256 6.011,-0.256 1.779,0 3.581,-0.478 5.017,-1.309 1.482,-0.858 2.284,-2.498 3.141,-3.98 0.831,-1.436 1.912,-2.93 1.912,-4.709 0,-2.997 -0.271,-2.997 -0.271,-5.995 0,-2.998 -0.328,-2.998 -0.328,-5.996 0,-3.001 0.711,-3.001 0.711,-6.002 0,-2.998 0.049,-2.998 0.049,-5.997 0,-2.998 -0.377,-2.998 -0.377,-5.996 0,-2.999 0.366,-2.999 0.366,-5.998 0,-3 -0.611,-3 -0.611,-6.001 0,-2.998 -0.018,-2.998 -0.018,-5.997 0,-3 0.196,-3 0.196,-5.999 0,-3.001 -0.116,-3.001 -0.116,-6.001 0,-3 0.132,-3 0.132,-5.999 0,-3 -0.135,-3 -0.135,-6 0,-3 -0.326,-3 -0.326,-6 0,-3 0.392,-3 0.392,-6.001 0,-3 0.135,-3 0.135,-6 0,-3.001 -0.228,-3.001 -0.228,-6.002 0,-3 0.177,-3 0.177,-6.001 0,-3.001 0.343,-3.001 0.343,-6.002 0,-3.001 -0.292,-3.001 -0.292,-6.003 0,-3.002 0.034,-3.002 0.034,-6.003 0,-3.001 0.274,-3.001 0.274,-6.002 0,-3.002 -0.87,-3.002 -0.87,-6.004 0,-2.999 0.22,-2.999 0.22,-5.998 0,-3 0.055,-3 0.055,-6 0,-3.002 0.525,-3.002 0.525,-6.004 0,-3.001 -0.103,-3.001 -0.103,-6.003 0,-3.002 0.22,-3.002 0.22,-6.004 0,-3.002 -0.298,-3.002 -0.298,-6.005 0,-3.001 -0.102,-3.001 -0.102,-6.002 0,-3.003 -0.134,-3.003 -0.134,-6.007 C 0.004,9.017 -0.364,9.021 -0.39,6.015 -0.417,3.009 0,3.005 0,0 Z"
         style="fill:none;stroke:#000000;stroke-width:4;stroke-linecap:round;stroke-linejoin:round;stroke-miterlimit:10;stroke-dasharray:none;stroke-opacity:1"
         id="path310"
         inkscape:connector-curvature="0" />
    </g>
    <g
       id="g312"
       transform="matrix(1.25,0,0,-1.25,437.80542,321.03881)">
      <path
         d="m 0,0 -2.131,-0.748 -0.518,-2.126 0.011,-2.636 0.002,-2.637 -0.785,-2.638 0.59,-2.645 0.885,-1.884 1.875,-1.047 3.054,-0.305 3.053,0.133 3.054,-0.333 3.057,0.133 3.059,0.58 3.06,-0.38 3.062,0.005 1.445,-2.643 -0.837,-2.673 -1.665,-2.263 -1.466,-2.406 -1.567,-2.394 -2.136,-1.883 -2.608,-1.235 -1.941,-2.205 -2.646,-1.093 -2.84,-0.427 -2.724,-0.541 -2.725,-0.558 -2.788,-0.566 -3.007,-0.128 -2.858,1.018 -2.782,0.985 -3.094,0.214 -2.363,1.947 -2.648,1.349 -2.354,1.814 -2.377,1.832 -2.097,2.163 -1.585,2.56 -1.684,2.498 -1.056,2.822 -0.609,2.939 -1.077,2.802 0.312,3.035 -0.496,2.926 0.072,2.967 0.935,2.839 0.59,2.869 0.99,2.76 0.806,2.886 1.651,2.474 2.039,2.158 1.913,2.218 1.796,2.416 2.295,1.925 2.547,1.588 2.798,1.081 2.79,1.053 2.988,0.244 2.845,1.014 2.987,-0.167 3,-0.156 2.931,-0.649 3.043,-0.377 2.803,-1.184 2.316,-2.063 2.672,-1.321 2.422,-0.902 2.282,1.191 2.475,1.82 1.672,2.661 2.077,2.247 2.685,1.607 0.646,2.106 -1.413,1.448 -2.05,2.127 -2.476,1.592 -2.503,1.535 -2.441,1.682 -2.793,0.98 -2.842,0.784 -2.634,1.516 -2.869,0.841 -2.954,0.463 -2.988,0.142 -2.983,-0.23 -2.937,0.252 -2.892,-0.56 -2.865,-0.562 -2.827,-0.694 -2.962,-0.253 -2.803,-0.891 -2.735,-1.088 -2.635,-1.312 -2.499,-1.551 -2.439,-1.628 -2.278,-1.843 -2.506,-1.571 -2.07,-2.092 -2.024,-2.129 -1.706,-2.394 -2,-2.166 -1.625,-2.452 -1.341,-2.618 -0.833,-2.844 -1.624,-2.483 -0.6,-2.888 -1.368,-2.658 -0.354,-2.932 -0.504,-2.89 0.379,-2.963 -0.45,-2.893 0.388,-2.9 0.006,-2.917 -0.165,-2.986 0.983,-2.796 0.537,-2.895 1.147,-2.709 1.601,-2.49 0.499,-3.002 2.133,-2.154 1.141,-2.729 1.759,-2.34 1.826,-2.289 1.791,-2.345 2.656,-1.45 2.154,-1.946 2.401,-1.635 2.014,-2.258 2.73,-1.137 2.439,-1.695 2.741,-1.088 2.812,-0.88 2.922,-0.434 2.903,-0.345 2.864,-0.471 2.89,-0.291 2.904,0.094 2.85,-0.169 2.898,-0.377 2.732,1.188 2.926,-0.148 2.673,1.108 2.877,0.366 2.449,1.604 2.71,0.905 2.643,1.12 2.608,1.255 2.108,1.994 2.1,1.944 2.201,1.833 1.986,2.068 1.737,2.281 1.644,2.348 1.511,2.436 1.106,2.649 1.393,2.517 0.37,2.901 1.484,2.535 0.382,2.853 0.261,2.851 1.152,2.742 -0.707,2.926 0.787,2.838 -0.019,2.545 -0.731,2.466 -1.05,2.072 -2.202,1.349 -2.829,-0.659 -2.829,-0.102 -2.826,0.537 -2.83,0.184 L 25.489,-0.034 22.661,0.483 19.828,0.154 16.998,0.31 14.169,0.305 11.339,0.481 8.506,0.179 5.676,0.529 2.845,-0.333 0,0 Z"
         style="fill:#ffffff;fill-opacity:1;fill-rule:nonzero;stroke:none"
         id="path314"
         inkscape:connector-curvature="0" />
    </g>
    <g
       id="g316"
       transform="matrix(1.25,0,0,-1.25,437.80542,321.03881)">
      <path
         d="m 0,0 -2.131,-0.748 -0.518,-2.126 0.011,-2.636 0.002,-2.637 -0.785,-2.638 0.59,-2.645 0.885,-1.884 1.875,-1.047 3.054,-0.305 3.053,0.133 3.054,-0.333 3.057,0.133 3.059,0.58 3.06,-0.38 3.062,0.005 1.445,-2.643 -0.837,-2.673 -1.665,-2.263 -1.466,-2.406 -1.567,-2.394 -2.136,-1.883 -2.608,-1.235 -1.941,-2.205 -2.646,-1.093 -2.84,-0.427 -2.724,-0.541 -2.725,-0.558 -2.788,-0.566 -3.007,-0.128 -2.858,1.018 -2.782,0.985 -3.094,0.214 -2.363,1.947 -2.648,1.349 -2.354,1.814 -2.377,1.832 -2.097,2.163 -1.585,2.56 -1.684,2.498 -1.056,2.822 -0.609,2.939 -1.077,2.802 0.312,3.035 -0.496,2.926 0.072,2.967 0.935,2.839 0.59,2.869 0.99,2.76 0.806,2.886 1.651,2.474 2.039,2.158 1.913,2.218 1.796,2.416 2.295,1.925 2.547,1.588 2.798,1.081 2.79,1.053 2.988,0.244 2.845,1.014 2.987,-0.167 3,-0.156 2.931,-0.649 3.043,-0.377 2.803,-1.184 2.316,-2.063 2.672,-1.321 2.422,-0.902 2.282,1.191 2.475,1.82 1.672,2.661 2.077,2.247 2.685,1.607 0.646,2.106 -1.413,1.448 -2.05,2.127 -2.476,1.592 -2.503,1.535 -2.441,1.682 -2.793,0.98 -2.842,0.784 -2.634,1.516 -2.869,0.841 -2.954,0.463 -2.988,0.142 -2.983,-0.23 -2.937,0.252 -2.892,-0.56 -2.865,-0.562 -2.827,-0.694 -2.962,-0.253 -2.803,-0.891 -2.735,-1.088 -2.635,-1.312 -2.499,-1.551 -2.439,-1.628 -2.278,-1.843 -2.506,-1.571 -2.07,-2.092 -2.024,-2.129 -1.706,-2.394 -2,-2.166 -1.625,-2.452 -1.341,-2.618 -0.833,-2.844 -1.624,-2.483 -0.6,-2.888 -1.368,-2.658 -0.354,-2.932 -0.504,-2.89 0.379,-2.963 -0.45,-2.893 0.388,-2.9 0.006,-2.917 -0.165,-2.986 0.983,-2.796 0.537,-2.895 1.147,-2.709 1.601,-2.49 0.499,-3.002 2.133,-2.154 1.141,-2.729 1.759,-2.34 1.826,-2.289 1.791,-2.345 2.656,-1.45 2.154,-1.946 2.401,-1.635 2.014,-2.258 2.73,-1.137 2.439,-1.695 2.741,-1.088 2.812,-0.88 2.922,-0.434 2.903,-0.345 2.864,-0.471 2.89,-0.291 2.904,0.094 2.85,-0.169 2.898,-0.377 2.732,1.188 2.926,-0.148 2.673,1.108 2.877,0.366 2.449,1.604 2.71,0.905 2.643,1.12 2.608,1.255 2.108,1.994 2.1,1.944 2.201,1.833 1.986,2.068 1.737,2.281 1.644,2.348 1.511,2.436 1.106,2.649 1.393,2.517 0.37,2.901 1.484,2.535 0.382,2.853 0.261,2.851 1.152,2.742 -0.707,2.926 0.787,2.838 -0.019,2.545 -0.731,2.466 -1.05,2.072 -2.202,1.349 -2.829,-0.659 -2.829,-0.102 -2.826,0.537 -2.83,0.184 L 25.489,-0.034 22.661,0.483 19.828,0.154 16.998,0.31 14.169,0.305 11.339,0.481 8.506,0.179 5.676,0.529 2.845,-0.333 0,0 Z"
         style="fill:none;stroke:#000000;stroke-width:4;stroke-linecap:round;stroke-linejoin:round;stroke-miterlimit:10;stroke-dasharray:none;stroke-opacity:1"
         id="path318"
         inkscape:connector-curvature="0" />
    </g>
    <g
       id="g320"
       transform="matrix(1.25,0,0,-1.25,563.2583,325.19043)">
      <path
         d="m 0,0 -0.765,2.042 -2.033,1.29 -2.598,-0.728 -2.596,0.868 -2.602,-0.471 -2.391,0.676 -0.333,2.395 -0.256,2.596 -0.022,2.6 -0.438,2.601 -0.11,2.411 -2.407,0.45 -2.596,-0.272 -2.596,0.662 -2.598,0.175 -2.447,-0.927 -0.979,-2.437 0.149,-2.596 -0.046,-2.599 0.375,-2.6 -0.759,-2.366 -2.374,-1.03 -2.593,0.488 -2.599,-0.117 -2.598,0.162 -2.379,-0.722 -0.858,-2.371 0.048,-2.597 -0.194,-2.599 0.497,-2.602 0.944,-1.889 1.878,-1.439 2.597,0.591 2.599,0.085 2.598,-0.284 2.454,-0.682 0.407,-2.458 -0.093,-2.595 0.543,-2.602 0.101,-2.598 0.637,-1.913 1.908,-0.916 2.592,-0.485 2.6,0.126 2.6,0.096 1.961,1.085 1.077,1.951 -0.466,2.596 0.866,2.595 0.023,2.598 0.743,1.866 1.875,1.483 2.592,-0.821 2.603,0.551 2.599,-0.21 2.087,1.01 0.73,2.08 0.627,2.593 0.058,2.618 L 0,0 Z"
         style="fill:#ffffff;fill-opacity:1;fill-rule:nonzero;stroke:none"
         id="path322"
         inkscape:connector-curvature="0" />
    </g>
    <g
       id="g324"
       transform="matrix(1.25,0,0,-1.25,563.2583,325.19043)">
      <path
         d="m 0,0 -0.765,2.042 -2.033,1.29 -2.598,-0.728 -2.596,0.868 -2.602,-0.471 -2.391,0.676 -0.333,2.395 -0.256,2.596 -0.022,2.6 -0.438,2.601 -0.11,2.411 -2.407,0.45 -2.596,-0.272 -2.596,0.662 -2.598,0.175 -2.447,-0.927 -0.979,-2.437 0.149,-2.596 -0.046,-2.599 0.375,-2.6 -0.759,-2.366 -2.374,-1.03 -2.593,0.488 -2.599,-0.117 -2.598,0.162 -2.379,-0.722 -0.858,-2.371 0.048,-2.597 -0.194,-2.599 0.497,-2.602 0.944,-1.889 1.878,-1.439 2.597,0.591 2.599,0.085 2.598,-0.284 2.454,-0.682 0.407,-2.458 -0.093,-2.595 0.543,-2.602 0.101,-2.598 0.637,-1.913 1.908,-0.916 2.592,-0.485 2.6,0.126 2.6,0.096 1.961,1.085 1.077,1.951 -0.466,2.596 0.866,2.595 0.023,2.598 0.743,1.866 1.875,1.483 2.592,-0.821 2.603,0.551 2.599,-0.21 2.087,1.01 0.73,2.08 0.627,2.593 0.058,2.618 L 0,0 Z"
         style="fill:none;stroke:#000000;stroke-width:4;stroke-linecap:round;stroke-linejoin:round;stroke-miterlimit:10;stroke-dasharray:none;stroke-opacity:1"
         id="path326"
         inkscape:connector-curvature="0" />
    </g>
    <g
       id="g328"
       transform="matrix(1.25,0,0,-1.25,585.42692,233.24943)">
      <path
         d="m 0,0 -2.624,-0.517 -2.293,1.304 -1.771,1.876 -2.253,1.413 -1.559,2.085 -1.913,1.743 -1.507,2.126 -2.278,1.913 -1.558,2.586 -1.378,3.163 3.786,-0.668 2.602,-2.373 2.464,-2.497 1.713,-2.428 2.092,-2.08 1.76,-2.382 L -2.479,3.313 0,0 Z"
         style="fill:#000000;fill-opacity:1;fill-rule:evenodd;stroke:none"
         id="path330"
         inkscape:connector-curvature="0" />
    </g>
    <g
       id="g332"
       transform="matrix(1.25,0,0,-1.25,572.49355,237.44743)">
      <path
         d="m 0,0 -2.661,1.175 -1.945,2.116 -1.881,2.109 -1.951,2.037 -2.506,1.452 0.216,2.879 2.831,0.871 1.14,-1.378 L -4.401,9.736 -3.384,7.109 -1.602,5.112 0.038,2.997 0,0 Z"
         style="fill:#000000;fill-opacity:1;fill-rule:evenodd;stroke:none"
         id="path334"
         inkscape:connector-curvature="0" />
    </g>
    <g
       id="g336"
       transform="matrix(1.25,0,0,-1.25,588.01355,223.94043)">
      <path
         d="m 0,0 -2.755,0.677 -2.32,1.968 -1.704,2.532 -1.86,2.299 -1.232,2.328 1.616,1.03 L -6.457,9.688 -4.398,7.775 -1.913,6.206 -0.365,3.804 0.946,1.871 0,0 Z"
         style="fill:#000000;fill-opacity:1;fill-rule:evenodd;stroke:none"
         id="path338"
         inkscape:connector-curvature="0" />
    </g>
    <g
       id="g340"
       transform="matrix(1.25,0,0,-1.25,372.05355,448.05781)">
      <path
         d="m 0,0 -2.625,-0.516 -2.293,1.302 -1.771,1.877 -2.253,1.413 -1.557,2.085 -1.913,1.743 -1.509,2.125 -2.278,1.914 -1.558,2.586 -1.378,3.163 3.786,-0.668 2.603,-2.373 2.463,-2.497 L -8.57,9.727 -6.477,7.646 -4.717,5.264 -2.479,3.313 0,0 Z"
         style="fill:#000000;fill-opacity:1;fill-rule:evenodd;stroke:none"
         id="path342"
         inkscape:connector-curvature="0" />
    </g>
    <g
       id="g344"
       transform="matrix(1.25,0,0,-1.25,359.12018,452.25455)">
      <path
         d="m 0,0 -2.661,1.174 -1.946,2.117 -1.881,2.108 -1.951,2.038 -2.506,1.45 0.216,2.879 2.832,0.873 1.139,-1.38 L -4.402,9.736 -3.385,7.109 -1.601,5.111 0.037,2.996 0,0 Z"
         style="fill:#000000;fill-opacity:1;fill-rule:evenodd;stroke:none"
         id="path346"
         inkscape:connector-curvature="0" />
    </g>
  </g>
</svg>
