<?xml version="1.0" encoding="UTF-8" standalone="no"?>
<!-- Created with Inkscape (http://www.inkscape.org/) -->

<svg
   xmlns:dc="http://purl.org/dc/elements/1.1/"
   xmlns:cc="http://creativecommons.org/ns#"
   xmlns:rdf="http://www.w3.org/1999/02/22-rdf-syntax-ns#"
   xmlns:svg="http://www.w3.org/2000/svg"
   xmlns="http://www.w3.org/2000/svg"
   xmlns:sodipodi="http://sodipodi.sourceforge.net/DTD/sodipodi-0.dtd"
   xmlns:inkscape="http://www.inkscape.org/namespaces/inkscape"
   width="76.391205mm"
   height="76.389442mm"
   viewBox="0 0 270.6775 270.67125"
   id="svg4367"
   version="1.1"
   inkscape:version="0.91 r13725"
   sodipodi:docname="social-telegram.svg">
  <defs
     id="defs4369" />
  <sodipodi:namedview
     id="base"
     pagecolor="#ffffff"
     bordercolor="#666666"
     borderopacity="1.0"
     inkscape:pageopacity="0.0"
     inkscape:pageshadow="2"
     inkscape:zoom="0.35"
     inkscape:cx="-26.80411"
     inkscape:cy="-147.52151"
     inkscape:document-units="px"
     inkscape:current-layer="layer1"
     showgrid="false"
     fit-margin-top="0"
     fit-margin-left="0"
     fit-margin-right="0"
     fit-margin-bottom="0"
     inkscape:window-width="1366"
     inkscape:window-height="705"
     inkscape:window-x="-8"
     inkscape:window-y="-8"
     inkscape:window-maximized="1" />
  <metadata
     id="metadata4372">
    <rdf:RDF>
      <cc:Work
         rdf:about="">
        <dc:format>image/svg+xml</dc:format>
        <dc:type
           rdf:resource="http://purl.org/dc/dcmitype/StillImage" />
        <dc:title></dc:title>
      </cc:Work>
    </rdf:RDF>
  </metadata>
  <g
     inkscape:label="Layer 1"
     inkscape:groupmode="layer"
     id="layer1"
     transform="translate(-401.80411,-114.16944)">
    <g
       id="g128"
       transform="matrix(1.25,0,0,-1.25,669.58036,369.53069)">
      <path
         d="m 0,0 c 0,-1.779 -0.999,-3.238 -1.83,-4.675 -0.858,-1.482 -1.75,-2.896 -3.232,-3.754 -1.436,-0.831 -3.086,-1.038 -4.865,-1.038 -2.997,0 -2.997,-0.67 -5.995,-0.67 -2.998,0 -2.998,0.598 -5.996,0.598 -3.001,0 -3.001,-0.699 -6.002,-0.699 -2.998,0 -2.998,0.411 -5.997,0.411 -2.998,0 -2.998,0.515 -5.996,0.515 -3,0 -3,-0.518 -5.999,-0.518 -3,0 -3,0.015 -6,0.015 -2.999,0 -2.999,-0.245 -5.997,-0.245 -3,0 -3,0.061 -5.999,0.061 -3.001,0 -3.001,0.333 -6.001,0.333 -3,0 -3,-0.33 -5.999,-0.33 -3,0 -3,0.588 -6.001,0.588 -3,0 -3,-0.75 -6,-0.75 -3,0 -3,0.752 -6.001,0.752 -3,0 -3,-0.404 -6,-0.404 -3.001,0 -3.001,-0.141 -6.002,-0.141 -3.001,0 -3.001,0.213 -6.001,0.213 -3.001,0 -3.001,-0.51 -6.002,-0.51 -3.002,0 -3.002,0.513 -6.003,0.513 -3.001,0 -3.001,0.007 -6.003,0.007 -3.001,0 -3.001,0.345 -6.002,0.345 -3.002,0 -3.002,0.097 -6.003,0.097 -2.999,0 -2.999,-0.054 -5.998,-0.054 -3.001,0 -3.001,-0.681 -6.001,-0.681 -3.002,0 -3.002,0.502 -6.004,0.502 -3.001,0 -3.001,0.155 -6.003,0.155 -3.002,0 -3.002,-0.779 -6.004,-0.779 -3.002,0 -3.002,0.456 -6.004,0.456 -3.001,0 -3.001,0.069 -6.002,0.069 -3.004,0 -3.004,-0.25 -6.007,-0.25 -3.006,0 -3.006,0.142 -6.011,0.142 -3.006,0 -3.006,-0.234 -6.012,-0.234 -1.779,0 -3.527,0.532 -4.963,1.363 -1.482,0.858 -2.957,2.046 -3.815,3.529 -0.83,1.436 -0.853,3.289 -0.853,5.068 0,2.997 0.013,2.997 0.013,5.994 0,2.999 0.215,2.999 0.215,5.997 0,3.001 -0.197,3.001 -0.197,6.002 0,2.998 -0.474,2.998 -0.474,5.996 0,2.998 0.151,2.998 0.151,5.996 0,3 -0.296,3 -0.296,5.999 0,3 0.825,3 0.825,6 0,2.999 -0.603,2.999 -0.603,5.997 0,3 -0.252,3 -0.252,5.999 0,3.001 0.742,3.001 0.742,6.001 0,2.999 0.036,2.999 0.036,5.998 0,3.001 -0.035,3.001 -0.035,6.002 0,3 -0.285,3 -0.285,5.999 0,3.001 0.068,3.001 0.068,6.001 0,3 -0.278,3 -0.278,6 0,3.002 -0.208,3.002 -0.208,6.003 0,3 0.933,3 0.933,6 0,3.001 -0.086,3.001 -0.086,6.003 0,3.002 -0.761,3.002 -0.761,6.003 0,3.001 0.622,3.001 0.622,6.002 0,3.001 -0.565,3.001 -0.565,6.003 0,3.002 0.752,3.002 0.752,6.003 0,2.999 -0.441,2.999 -0.441,5.998 0,3.001 0.442,3.001 0.442,6.001 0,3.002 -0.262,3.002 -0.262,6.003 0,3.002 -0.063,3.002 -0.063,6.004 0,3.001 0.049,3.001 0.049,6.003 0,3.002 0.219,3.002 0.219,6.005 0,3.001 -0.024,3.001 -0.024,6.002 0,3.003 -0.664,3.003 -0.664,6.007 0,3.005 0.109,3.005 0.109,6.011 0,3.006 0.476,3.006 0.476,6.011 0,1.779 -0.05,3.583 0.781,5.019 0.857,1.482 2.247,2.721 3.728,3.579 1.437,0.831 3.185,1.056 4.964,1.056 2.998,0 2.998,0.2 5.995,0.2 2.998,0 2.998,-0.148 5.997,-0.148 3,0 3,0.26 6.001,0.26 2.999,0 2.999,-0.418 5.997,-0.418 2.998,0 2.998,0.578 5.996,0.578 2.999,0 2.999,-0.115 5.999,-0.115 3,0 3,-0.451 6,-0.451 2.999,0 2.999,0.291 5.997,0.291 3,0 3,-0.002 5.999,-0.002 3.001,0 3.001,0.142 6.001,0.142 2.999,0 2.999,-0.124 5.999,-0.124 3,0 3,0.122 6.001,0.122 3,0 3,-0.719 6,-0.719 3,0 3,0.14 6,0.14 3,0 3,0.146 6.001,0.146 3.001,0 3.001,0.507 6.002,0.507 3,0 3,0.183 6.001,0.183 3.001,0 3.001,-0.558 6.002,-0.558 3.002,0 3.002,-0.268 6.004,-0.268 3.001,0 3.001,0.184 6.002,0.184 3.001,0 3.001,0.274 6.002,0.274 3.002,0 3.002,-0.481 6.003,-0.481 2.999,0 2.999,0.284 5.998,0.284 3.001,0 3.001,0.093 6.001,0.093 3.002,0 3.002,0.139 6.004,0.139 3.002,0 3.002,-0.205 6.003,-0.205 3.002,0 3.002,0.526 6.004,0.526 3.002,0 3.002,-0.558 6.005,-0.558 3,0 3,-0.254 6.001,-0.254 3.004,0 3.004,0.303 6.007,0.303 3.006,0 3.006,-0.084 6.012,-0.084 3.005,0 3.005,0.279 6.011,0.279 1.779,0 3.458,-0.61 4.895,-1.442 1.482,-0.857 2.973,-1.959 3.83,-3.441 0.831,-1.436 1.404,-3.258 1.404,-5.037 0,-2.997 -0.021,-2.997 -0.021,-5.994 0,-2.999 -0.561,-2.999 -0.561,-5.997 0,-3.001 0.146,-3.001 0.146,-6.002 0,-2.998 -0.294,-2.998 -0.294,-5.996 0,-2.998 -0.013,-2.998 -0.013,-5.996 0,-3 0.714,-3 0.714,-5.999 0,-3 0.094,-3 0.094,-6 0,-2.999 -0.686,-2.999 -0.686,-5.997 0,-3 0.222,-3 0.222,-6 0,-3 0.114,-3 0.114,-6 0,-3 -0.114,-3 -0.114,-5.999 0,-3 -0.114,-3 -0.114,-6.001 0,-3 0.498,-3 0.498,-5.999 0,-3.001 -0.393,-3.001 -0.393,-6.001 0,-3 0.036,-3 0.036,-6.001 0,-3.001 0.113,-3.001 0.113,-6.002 0,-3 0.351,-3 0.351,-6 0,-3.001 -0.454,-3.001 -0.454,-6.003 0,-3.002 -0.166,-3.002 -0.166,-6.003 0,-3.001 0.618,-3.001 0.618,-6.003 0,-3.001 -0.373,-3.001 -0.373,-6.002 0,-3.002 -0.211,-3.002 -0.211,-6.004 0,-2.998 0.613,-2.998 0.613,-5.997 0,-3.001 -0.818,-3.001 -0.818,-6.001 0,-3.002 0.232,-3.002 0.232,-6.003 0,-3.002 0.007,-3.002 0.007,-6.004 0,-3.001 0.569,-3.001 0.569,-6.003 0,-3.002 -0.147,-3.002 -0.147,-6.005 0,-3.001 -0.607,-3.001 -0.607,-6.002 0,-3.003 0.053,-3.003 0.053,-6.007 0,-3.005 0.506,-3 0.56,-6.005 C 0.224,3.01 0,3.005 0,0"
         style="fill:#00aeff;fill-opacity:1;fill-rule:evenodd;stroke:none"
         id="path130"
         inkscape:connector-curvature="0" />
    </g>
    <g
       id="g132"
       transform="matrix(1.25,0,0,-1.25,669.58036,369.53069)">
      <path
         d="m 0,0 c 0,-1.779 -0.999,-3.238 -1.83,-4.675 -0.858,-1.482 -1.75,-2.896 -3.232,-3.754 -1.436,-0.831 -3.086,-1.038 -4.865,-1.038 -2.997,0 -2.997,-0.67 -5.995,-0.67 -2.998,0 -2.998,0.598 -5.996,0.598 -3.001,0 -3.001,-0.699 -6.002,-0.699 -2.998,0 -2.998,0.411 -5.997,0.411 -2.998,0 -2.998,0.515 -5.996,0.515 -3,0 -3,-0.518 -5.999,-0.518 -3,0 -3,0.015 -6,0.015 -2.999,0 -2.999,-0.245 -5.997,-0.245 -3,0 -3,0.061 -5.999,0.061 -3.001,0 -3.001,0.333 -6.001,0.333 -3,0 -3,-0.33 -5.999,-0.33 -3,0 -3,0.588 -6.001,0.588 -3,0 -3,-0.75 -6,-0.75 -3,0 -3,0.752 -6.001,0.752 -3,0 -3,-0.404 -6,-0.404 -3.001,0 -3.001,-0.141 -6.002,-0.141 -3.001,0 -3.001,0.213 -6.001,0.213 -3.001,0 -3.001,-0.51 -6.002,-0.51 -3.002,0 -3.002,0.513 -6.003,0.513 -3.001,0 -3.001,0.007 -6.003,0.007 -3.001,0 -3.001,0.345 -6.002,0.345 -3.002,0 -3.002,0.097 -6.003,0.097 -2.999,0 -2.999,-0.054 -5.998,-0.054 -3.001,0 -3.001,-0.681 -6.001,-0.681 -3.002,0 -3.002,0.502 -6.004,0.502 -3.001,0 -3.001,0.155 -6.003,0.155 -3.002,0 -3.002,-0.779 -6.004,-0.779 -3.002,0 -3.002,0.456 -6.004,0.456 -3.001,0 -3.001,0.069 -6.002,0.069 -3.004,0 -3.004,-0.25 -6.007,-0.25 -3.006,0 -3.006,0.142 -6.011,0.142 -3.006,0 -3.006,-0.234 -6.012,-0.234 -1.779,0 -3.527,0.532 -4.963,1.363 -1.482,0.858 -2.957,2.046 -3.815,3.529 -0.83,1.436 -0.853,3.289 -0.853,5.068 0,2.997 0.013,2.997 0.013,5.994 0,2.999 0.215,2.999 0.215,5.997 0,3.001 -0.197,3.001 -0.197,6.002 0,2.998 -0.474,2.998 -0.474,5.996 0,2.998 0.151,2.998 0.151,5.996 0,3 -0.296,3 -0.296,5.999 0,3 0.825,3 0.825,6 0,2.999 -0.603,2.999 -0.603,5.997 0,3 -0.252,3 -0.252,5.999 0,3.001 0.742,3.001 0.742,6.001 0,2.999 0.036,2.999 0.036,5.998 0,3.001 -0.035,3.001 -0.035,6.002 0,3 -0.285,3 -0.285,5.999 0,3.001 0.068,3.001 0.068,6.001 0,3 -0.278,3 -0.278,6 0,3.002 -0.208,3.002 -0.208,6.003 0,3 0.933,3 0.933,6 0,3.001 -0.086,3.001 -0.086,6.003 0,3.002 -0.761,3.002 -0.761,6.003 0,3.001 0.622,3.001 0.622,6.002 0,3.001 -0.565,3.001 -0.565,6.003 0,3.002 0.752,3.002 0.752,6.003 0,2.999 -0.441,2.999 -0.441,5.998 0,3.001 0.442,3.001 0.442,6.001 0,3.002 -0.262,3.002 -0.262,6.003 0,3.002 -0.063,3.002 -0.063,6.004 0,3.001 0.049,3.001 0.049,6.003 0,3.002 0.219,3.002 0.219,6.005 0,3.001 -0.024,3.001 -0.024,6.002 0,3.003 -0.664,3.003 -0.664,6.007 0,3.005 0.109,3.005 0.109,6.011 0,3.006 0.476,3.006 0.476,6.011 0,1.779 -0.05,3.583 0.781,5.019 0.857,1.482 2.247,2.721 3.728,3.579 1.437,0.831 3.185,1.056 4.964,1.056 2.998,0 2.998,0.2 5.995,0.2 2.998,0 2.998,-0.148 5.997,-0.148 3,0 3,0.26 6.001,0.26 2.999,0 2.999,-0.418 5.997,-0.418 2.998,0 2.998,0.578 5.996,0.578 2.999,0 2.999,-0.115 5.999,-0.115 3,0 3,-0.451 6,-0.451 2.999,0 2.999,0.291 5.997,0.291 3,0 3,-0.002 5.999,-0.002 3.001,0 3.001,0.142 6.001,0.142 2.999,0 2.999,-0.124 5.999,-0.124 3,0 3,0.122 6.001,0.122 3,0 3,-0.719 6,-0.719 3,0 3,0.14 6,0.14 3,0 3,0.146 6.001,0.146 3.001,0 3.001,0.507 6.002,0.507 3,0 3,0.183 6.001,0.183 3.001,0 3.001,-0.558 6.002,-0.558 3.002,0 3.002,-0.268 6.004,-0.268 3.001,0 3.001,0.184 6.002,0.184 3.001,0 3.001,0.274 6.002,0.274 3.002,0 3.002,-0.481 6.003,-0.481 2.999,0 2.999,0.284 5.998,0.284 3.001,0 3.001,0.093 6.001,0.093 3.002,0 3.002,0.139 6.004,0.139 3.002,0 3.002,-0.205 6.003,-0.205 3.002,0 3.002,0.526 6.004,0.526 3.002,0 3.002,-0.558 6.005,-0.558 3,0 3,-0.254 6.001,-0.254 3.004,0 3.004,0.303 6.007,0.303 3.006,0 3.006,-0.084 6.012,-0.084 3.005,0 3.005,0.279 6.011,0.279 1.779,0 3.458,-0.61 4.895,-1.442 1.482,-0.857 2.973,-1.959 3.83,-3.441 0.831,-1.436 1.404,-3.258 1.404,-5.037 0,-2.997 -0.021,-2.997 -0.021,-5.994 0,-2.999 -0.561,-2.999 -0.561,-5.997 0,-3.001 0.146,-3.001 0.146,-6.002 0,-2.998 -0.294,-2.998 -0.294,-5.996 0,-2.998 -0.013,-2.998 -0.013,-5.996 0,-3 0.714,-3 0.714,-5.999 0,-3 0.094,-3 0.094,-6 0,-2.999 -0.686,-2.999 -0.686,-5.997 0,-3 0.222,-3 0.222,-6 0,-3 0.114,-3 0.114,-6 0,-3 -0.114,-3 -0.114,-5.999 0,-3 -0.114,-3 -0.114,-6.001 0,-3 0.498,-3 0.498,-5.999 0,-3.001 -0.393,-3.001 -0.393,-6.001 0,-3 0.036,-3 0.036,-6.001 0,-3.001 0.113,-3.001 0.113,-6.002 0,-3 0.351,-3 0.351,-6 0,-3.001 -0.454,-3.001 -0.454,-6.003 0,-3.002 -0.166,-3.002 -0.166,-6.003 0,-3.001 0.618,-3.001 0.618,-6.003 0,-3.001 -0.373,-3.001 -0.373,-6.002 0,-3.002 -0.211,-3.002 -0.211,-6.004 0,-2.998 0.613,-2.998 0.613,-5.997 0,-3.001 -0.818,-3.001 -0.818,-6.001 0,-3.002 0.232,-3.002 0.232,-6.003 0,-3.002 0.007,-3.002 0.007,-6.004 0,-3.001 0.569,-3.001 0.569,-6.003 0,-3.002 -0.147,-3.002 -0.147,-6.005 0,-3.001 -0.607,-3.001 -0.607,-6.002 0,-3.003 0.053,-3.003 0.053,-6.007 0,-3.005 0.506,-3 0.56,-6.005 C 0.224,3.01 0,3.005 0,0 Z"
         style="fill:none;stroke:#000000;stroke-width:4;stroke-linecap:round;stroke-linejoin:round;stroke-miterlimit:10;stroke-dasharray:none;stroke-opacity:1"
         id="path134"
         inkscape:connector-curvature="0" />
    </g>
    <g
       id="g136"
       transform="matrix(1.25,0,0,-1.25,614.05911,190.68907)">
      <path
         d="M 0,0 -0.85,3.154 -3.728,4.87 -7.021,4.825 -8.247,3.893 -10.97,3.017 l -2.801,-0.679 -2.647,-1.072 -2.465,-1.547 -2.612,-1.167 -2.656,-1.051 -2.752,-0.803 -2.653,-1.06 -2.843,-0.565 -2.454,-1.578 -2.774,-0.744 -2.649,-1.07 -2.703,-0.932 -2.483,-1.5 -2.682,-0.983 -2.947,-0.298 -2.548,-1.333 -2.736,-0.843 -2.582,-1.245 -2.806,-0.662 -2.373,-1.741 -2.58,-1.201 -2.899,-0.377 -2.571,-1.224 -2.495,-1.425 -2.739,-0.788 -2.591,-1.174 -2.647,-1.03 -2.776,-0.692 -2.565,-1.242 -2.564,-1.246 -2.906,-0.353 -2.72,-0.839 -2.649,-1.023 -2.602,-1.146 -2.534,-1.321 -2.771,-0.708 -2.708,-1.364 -2.767,-1.207 -2.773,-1.19 -3,-0.634 -2.045,-0.953 -1.881,-1.265 -1.675,-3.269 2.286,-2.79 2.706,-1.089 2.706,-0.695 2.548,-1.2 2.699,-0.72 2.663,-0.831 2.735,-0.603 2.572,-1.125 2.659,-0.844 2.705,-0.699 2.816,-0.337 2.507,-1.337 1.085,-0.247 2.733,1.042 2.275,1.783 2.456,1.501 2.073,2.102 2.613,1.248 2.251,1.812 2.552,1.342 2.746,1.046 2.215,1.879 2.555,1.341 2.31,1.729 2.138,2.005 2.884,0.828 1.992,2.234 2.702,1.116 2.407,1.585 2.455,1.507 2.586,1.304 2.01,2.207 2.48,1.461 2.364,1.651 2.855,0.885 2.234,1.861 2.67,1.178 2.405,1.602 2.386,1.638 2.332,1.789 2.965,0.832 -1.06,-3.095 -2.243,-2.258 -2.157,-2.336 -2.264,-1.799 -2.512,-1.52 -1.55,-2.565 -2.574,-1.452 -1.816,-2.268 -2.453,-1.576 -1.693,-2.413 -2.32,-1.729 -2.298,-1.754 -2.338,-1.71 -1.872,-2.226 -2.027,-2.055 -2.262,-1.798 -2.183,-1.889 -2.096,-1.986 -2.15,-1.929 -2.169,-1.907 -1.981,-2.102 -2.319,-1.737 -1.696,-2.413 -2.596,-1.418 -1.921,-2.074 2.386,-1.451 1.779,-2.311 2.804,-0.923 1.833,-2.24 2.232,-1.697 2.563,-1.255 2.177,-1.773 1.96,-2.06 2.653,-1.13 2.325,-1.58 1.943,-2.094 2.155,-1.809 2.476,-1.385 1.959,-2.08 0.202,0.272 2.15,-1.767 2.246,-1.638 2.138,-1.783 2.423,-1.398 2.035,-1.924 2.755,-0.95 3.612,-1.731 2.266,-0.233 2.111,0.845 1.842,1.632 1.081,3.882 0.341,2.849 0.352,2.846 1.366,2.63 0.693,2.775 -0.234,2.97 0.56,2.802 0.833,2.744 0.843,2.742 0.691,2.775 0.683,2.776 0.225,2.873 0.751,2.762 0.256,2.866 1.136,2.68 0.678,2.777 -0.202,2.965 0.833,2.744 1.025,2.703 -0.102,2.943 0.962,2.716 0.585,2.796 1.026,2.851 0.018,3.062 0.943,2.868 0.665,2.925 0.677,2.924 0.192,3.026 1.409,2.767 0.136,3.038 0.443,2.973 0.407,2.98 L 0,0 Z"
         style="fill:#ffffff;fill-opacity:1;fill-rule:nonzero;stroke:none"
         id="path138"
         inkscape:connector-curvature="0" />
    </g>
    <g
       id="g140"
       transform="matrix(1.25,0,0,-1.25,614.05911,190.68907)">
      <path
         d="M 0,0 -0.85,3.154 -3.728,4.87 -7.021,4.825 -8.247,3.893 -10.97,3.017 l -2.801,-0.679 -2.647,-1.072 -2.465,-1.547 -2.612,-1.167 -2.656,-1.051 -2.752,-0.803 -2.653,-1.06 -2.843,-0.565 -2.454,-1.578 -2.774,-0.744 -2.649,-1.07 -2.703,-0.932 -2.483,-1.5 -2.682,-0.983 -2.947,-0.298 -2.548,-1.333 -2.736,-0.843 -2.582,-1.245 -2.806,-0.662 -2.373,-1.741 -2.58,-1.201 -2.899,-0.377 -2.571,-1.224 -2.495,-1.425 -2.739,-0.788 -2.591,-1.174 -2.647,-1.03 -2.776,-0.692 -2.565,-1.242 -2.564,-1.246 -2.906,-0.353 -2.72,-0.839 -2.649,-1.023 -2.602,-1.146 -2.534,-1.321 -2.771,-0.708 -2.708,-1.364 -2.767,-1.207 -2.773,-1.19 -3,-0.634 -2.045,-0.953 -1.881,-1.265 -1.675,-3.269 2.286,-2.79 2.706,-1.089 2.706,-0.695 2.548,-1.2 2.699,-0.72 2.663,-0.831 2.735,-0.603 2.572,-1.125 2.659,-0.844 2.705,-0.699 2.816,-0.337 2.507,-1.337 1.085,-0.247 2.733,1.042 2.275,1.783 2.456,1.501 2.073,2.102 2.613,1.248 2.251,1.812 2.552,1.342 2.746,1.046 2.215,1.879 2.555,1.341 2.31,1.729 2.138,2.005 2.884,0.828 1.992,2.234 2.702,1.116 2.407,1.585 2.455,1.507 2.586,1.304 2.01,2.207 2.48,1.461 2.364,1.651 2.855,0.885 2.234,1.861 2.67,1.178 2.405,1.602 2.386,1.638 2.332,1.789 2.965,0.832 -1.06,-3.095 -2.243,-2.258 -2.157,-2.336 -2.264,-1.799 -2.512,-1.52 -1.55,-2.565 -2.574,-1.452 -1.816,-2.268 -2.453,-1.576 -1.693,-2.413 -2.32,-1.729 -2.298,-1.754 -2.338,-1.71 -1.872,-2.226 -2.027,-2.055 -2.262,-1.798 -2.183,-1.889 -2.096,-1.986 -2.15,-1.929 -2.169,-1.907 -1.981,-2.102 -2.319,-1.737 -1.696,-2.413 -2.596,-1.418 -1.921,-2.074 2.386,-1.451 1.779,-2.311 2.804,-0.923 1.833,-2.24 2.232,-1.697 2.563,-1.255 2.177,-1.773 1.96,-2.06 2.653,-1.13 2.325,-1.58 1.943,-2.094 2.155,-1.809 2.476,-1.385 1.959,-2.08 0.202,0.272 2.15,-1.767 2.246,-1.638 2.138,-1.783 2.423,-1.398 2.035,-1.924 2.755,-0.95 3.612,-1.731 2.266,-0.233 2.111,0.845 1.842,1.632 1.081,3.882 0.341,2.849 0.352,2.846 1.366,2.63 0.693,2.775 -0.234,2.97 0.56,2.802 0.833,2.744 0.843,2.742 0.691,2.775 0.683,2.776 0.225,2.873 0.751,2.762 0.256,2.866 1.136,2.68 0.678,2.777 -0.202,2.965 0.833,2.744 1.025,2.703 -0.102,2.943 0.962,2.716 0.585,2.796 1.026,2.851 0.018,3.062 0.943,2.868 0.665,2.925 0.677,2.924 0.192,3.026 1.409,2.767 0.136,3.038 0.443,2.973 0.407,2.98 L 0,0 Z"
         style="fill:none;stroke:#000000;stroke-width:4;stroke-linecap:round;stroke-linejoin:round;stroke-miterlimit:10;stroke-dasharray:none;stroke-opacity:1"
         id="path142"
         inkscape:connector-curvature="0" />
    </g>
    <g
       id="g144"
       transform="matrix(1.25,0,0,-1.25,520.37511,269.87607)">
      <path
         d="m 0,0 -0.123,-3.106 0.179,-2.915 -0.337,-2.875 -0.871,-2.832 0.587,-2.944 -0.431,-2.867 -0.813,-2.838 -0.369,-2.874 -0.061,-2.901 0.218,-2.883 2.432,0.825 2.53,1.028 1.559,1.091 1.391,2.592 2.498,1.457 1.826,2.146 2.008,1.959 1.802,2.169 1.901,2.069 1.252,0.452 -2.547,1.628 -2.342,2 -2.245,2.138 L 7.336,-5.968 5.297,-3.55 2.601,-2.013 0,0 Z"
         style="fill:#c0dff1;fill-opacity:1;fill-rule:nonzero;stroke:none"
         id="path146"
         inkscape:connector-curvature="0" />
    </g>
    <g
       id="g148"
       transform="matrix(1.25,0,0,-1.25,520.37511,269.87607)">
      <path
         d="m 0,0 -0.123,-3.106 0.179,-2.915 -0.337,-2.875 -0.871,-2.832 0.587,-2.944 -0.431,-2.867 -0.813,-2.838 -0.369,-2.874 -0.061,-2.901 0.218,-2.883 2.432,0.825 2.53,1.028 1.559,1.091 1.391,2.592 2.498,1.457 1.826,2.146 2.008,1.959 1.802,2.169 1.901,2.069 1.252,0.452 -2.547,1.628 -2.342,2 -2.245,2.138 L 7.336,-5.968 5.297,-3.55 2.601,-2.013 0,0 Z"
         style="fill:none;stroke:#000000;stroke-width:4;stroke-linecap:round;stroke-linejoin:round;stroke-miterlimit:10;stroke-dasharray:none;stroke-opacity:1"
         id="path150"
         inkscape:connector-curvature="0" />
    </g>
    <g
       id="g152"
       transform="matrix(1.25,0,0,-1.25,509.99061,290.53894)">
      <path
         d="m 0,0 0.711,-2.591 0.368,-2.695 1.492,-2.351 -0.028,-2.817 3.383,-2.029 -0.139,-0.013 0.872,2.82 -0.044,2.904 0.191,2.885 -0.224,2.918 1.102,2.813 -0.339,2.927 -0.059,2.906 0.87,2.835 0.387,2.876 0.284,2.798 1.964,1.752 2.021,2.052 2.154,1.909 1.871,2.22 1.968,2.109 2.092,1.972 2.45,1.583 2.044,2.031 2.231,1.828 2.304,1.749 2.037,2.042 2.093,1.983 2.255,1.808 1.791,2.319 2.022,2.067 2.567,1.469 1.725,2.387 2.063,2.015 2.312,1.743 1.886,2.203 2.524,1.503 2.161,1.902 1.903,2.594 2.119,2.317 1.282,2.078 L 58.125,65.312 55.353,64.248 53.002,62.584 50.635,60.946 48.359,59.163 45.795,57.827 43.63,55.88 40.749,55.056 38.32,53.52 35.917,51.937 33.875,49.785 31.017,48.921 28.894,46.899 26.358,45.518 24.016,43.84 21.666,42.168 18.907,41.139 16.453,39.628 14.338,37.588 11.841,36.146 9.613,34.279 7.201,32.712 4.78,31.151 1.933,30.253 l -2.107,-2.06 -2.372,-1.645 -2.572,-1.339 -2.611,-1.32 0.558,-1.072 0.552,-2.956 1.002,-2.82 1.433,-2.689 0.516,-2.968 0.885,-2.856 0.404,-3.002 1.3,-2.729 L 0,0 Z"
         style="fill:#d6eaf6;fill-opacity:1;fill-rule:nonzero;stroke:none"
         id="path154"
         inkscape:connector-curvature="0" />
    </g>
    <g
       id="g156"
       transform="matrix(1.25,0,0,-1.25,509.99061,290.53894)">
      <path
         d="m 0,0 0.711,-2.591 0.368,-2.695 1.492,-2.351 -0.028,-2.817 3.383,-2.029 -0.139,-0.013 0.872,2.82 -0.044,2.904 0.191,2.885 -0.224,2.918 1.102,2.813 -0.339,2.927 -0.059,2.906 0.87,2.835 0.387,2.876 0.284,2.798 1.964,1.752 2.021,2.052 2.154,1.909 1.871,2.22 1.968,2.109 2.092,1.972 2.45,1.583 2.044,2.031 2.231,1.828 2.304,1.749 2.037,2.042 2.093,1.983 2.255,1.808 1.791,2.319 2.022,2.067 2.567,1.469 1.725,2.387 2.063,2.015 2.312,1.743 1.886,2.203 2.524,1.503 2.161,1.902 1.903,2.594 2.119,2.317 1.282,2.078 L 58.125,65.312 55.353,64.248 53.002,62.584 50.635,60.946 48.359,59.163 45.795,57.827 43.63,55.88 40.749,55.056 38.32,53.52 35.917,51.937 33.875,49.785 31.017,48.921 28.894,46.899 26.358,45.518 24.016,43.84 21.666,42.168 18.907,41.139 16.453,39.628 14.338,37.588 11.841,36.146 9.613,34.279 7.201,32.712 4.78,31.151 1.933,30.253 l -2.107,-2.06 -2.372,-1.645 -2.572,-1.339 -2.611,-1.32 0.558,-1.072 0.552,-2.956 1.002,-2.82 1.433,-2.689 0.516,-2.968 0.885,-2.856 0.404,-3.002 1.3,-2.729 L 0,0 Z"
         style="fill:none;stroke:#000000;stroke-width:4;stroke-linecap:round;stroke-linejoin:round;stroke-miterlimit:10;stroke-dasharray:none;stroke-opacity:1"
         id="path158"
         inkscape:connector-curvature="0" />
    </g>
    <g
       id="g160"
       transform="matrix(1.25,0,0,-1.25,419.03411,346.34944)">
      <path
         d="m 0,0 2.625,0.516 2.292,-1.303 1.771,-1.876 2.253,-1.413 1.558,-2.085 1.913,-1.743 1.509,-2.126 2.277,-1.913 1.559,-2.586 1.377,-3.163 -3.786,0.668 -2.602,2.373 -2.464,2.497 -1.713,2.428 -2.092,2.08 -1.76,2.382 L 2.479,-3.313 0,0 Z"
         style="fill:#000000;fill-opacity:1;fill-rule:evenodd;stroke:none"
         id="path162"
         inkscape:connector-curvature="0" />
    </g>
    <g
       id="g164"
       transform="matrix(1.25,0,0,-1.25,431.96748,342.15269)">
      <path
         d="M 0,0 2.66,-1.174 4.606,-3.29 6.487,-5.399 8.438,-7.437 10.944,-8.888 10.728,-11.767 7.896,-12.639 6.757,-11.26 4.401,-9.736 3.384,-7.109 1.601,-5.111 -0.037,-2.996 0,0 Z"
         style="fill:#000000;fill-opacity:1;fill-rule:evenodd;stroke:none"
         id="path166"
         inkscape:connector-curvature="0" />
    </g>
    <g
       id="g168"
       transform="matrix(1.25,0,0,-1.25,416.44686,355.65856)">
      <path
         d="m 0,0 2.756,-0.677 2.32,-1.968 1.704,-2.532 1.859,-2.299 1.232,-2.328 -1.616,-1.03 -1.797,1.146 -2.06,1.913 -2.484,1.569 -1.549,2.402 -1.31,1.933 L 0,0 Z"
         style="fill:#000000;fill-opacity:1;fill-rule:evenodd;stroke:none"
         id="path170"
         inkscape:connector-curvature="0" />
    </g>
    <g
       id="g172"
       transform="matrix(1.25,0,0,-1.25,632.40811,131.54357)">
      <path
         d="m 0,0 2.625,0.517 2.292,-1.303 1.771,-1.877 2.253,-1.413 1.558,-2.085 1.913,-1.742 1.509,-2.126 2.277,-1.914 1.559,-2.586 1.377,-3.162 -3.786,0.667 -2.602,2.373 -2.464,2.497 L 8.569,-9.727 6.477,-7.646 4.716,-5.264 2.479,-3.313 0,0 Z"
         style="fill:#000000;fill-opacity:1;fill-rule:evenodd;stroke:none"
         id="path174"
         inkscape:connector-curvature="0" />
    </g>
    <g
       id="g176"
       transform="matrix(1.25,0,0,-1.25,645.34148,127.34681)">
      <path
         d="m 0,0 2.66,-1.174 1.946,-2.116 1.881,-2.11 1.951,-2.037 2.506,-1.451 -0.216,-2.878 -2.832,-0.873 -1.139,1.38 -2.356,1.524 -1.017,2.626 -1.783,1.997 -1.638,2.116 L 0,0 Z"
         style="fill:#000000;fill-opacity:1;fill-rule:evenodd;stroke:none"
         id="path178"
         inkscape:connector-curvature="0" />
    </g>
  </g>
</svg>
