<?xml version="1.0" encoding="UTF-8" standalone="no"?>
<!-- Created with Inkscape (http://www.inkscape.org/) -->

<svg
   xmlns:dc="http://purl.org/dc/elements/1.1/"
   xmlns:cc="http://creativecommons.org/ns#"
   xmlns:rdf="http://www.w3.org/1999/02/22-rdf-syntax-ns#"
   xmlns:svg="http://www.w3.org/2000/svg"
   xmlns="http://www.w3.org/2000/svg"
   xmlns:sodipodi="http://sodipodi.sourceforge.net/DTD/sodipodi-0.dtd"
   xmlns:inkscape="http://www.inkscape.org/namespaces/inkscape"
   width="76.363686mm"
   height="76.3965mm"
   viewBox="0 0 270.57999 270.69626"
   id="svg4499"
   version="1.1"
   inkscape:version="0.91 r13725"
   sodipodi:docname="social-linkedin.svg">
  <defs
     id="defs4501" />
  <sodipodi:namedview
     id="base"
     pagecolor="#ffffff"
     bordercolor="#666666"
     borderopacity="1.0"
     inkscape:pageopacity="0.0"
     inkscape:pageshadow="2"
     inkscape:zoom="0.35"
     inkscape:cx="7.43286"
     inkscape:cy="-53.223305"
     inkscape:document-units="px"
     inkscape:current-layer="layer1"
     showgrid="false"
     fit-margin-top="0"
     fit-margin-left="0"
     fit-margin-right="0"
     fit-margin-bottom="0"
     inkscape:window-width="1366"
     inkscape:window-height="705"
     inkscape:window-x="-8"
     inkscape:window-y="-8"
     inkscape:window-maximized="1" />
  <metadata
     id="metadata4504">
    <rdf:RDF>
      <cc:Work
         rdf:about="">
        <dc:format>image/svg+xml</dc:format>
        <dc:type
           rdf:resource="http://purl.org/dc/dcmitype/StillImage" />
        <dc:title></dc:title>
      </cc:Work>
    </rdf:RDF>
  </metadata>
  <g
     inkscape:label="Layer 1"
     inkscape:groupmode="layer"
     id="layer1"
     transform="translate(-367.56714,-208.44265)">
    <g
       id="g180"
       transform="matrix(1.25,0,0,-1.25,634.96589,463.8139)">
      <path
         d="m 0,0 c 0,-1.779 -0.028,-3.66 -0.859,-5.097 -0.858,-1.482 -2.523,-2.401 -4.003,-3.258 -1.438,-0.832 -3.045,-1.497 -4.825,-1.497 -2.997,0 -2.997,-0.103 -5.994,-0.103 -2.998,0 -2.998,0.101 -5.997,0.101 -3.001,0 -3.001,-0.166 -6.002,-0.166 -2.999,0 -2.999,-0.238 -5.997,-0.238 -2.998,0 -2.998,0.182 -5.995,0.182 -2.999,0 -2.999,0.653 -5.999,0.653 -3,0 -3,-0.836 -6,-0.836 -2.999,0 -2.999,0.614 -5.998,0.614 -2.999,0 -2.999,-0.482 -5.998,-0.482 -3,0 -3,0.643 -6.001,0.643 -2.999,0 -2.999,-0.045 -5.999,-0.045 -3,0 -3,-0.152 -6.001,-0.152 -2.999,0 -2.999,-0.233 -5.999,-0.233 -3,0 -3,-0.167 -6.001,-0.167 -3.001,0 -3.001,0.24 -6.001,0.24 -3.001,0 -3.001,-0.419 -6.002,-0.419 -3,0 -3,0.167 -6,0.167 -3.002,0 -3.002,0.743 -6.003,0.743 -3.001,0 -3.001,-0.728 -6.003,-0.728 -3.001,0 -3.001,0.703 -6.002,0.703 -3.002,0 -3.002,-0.402 -6.003,-0.402 -3.001,0 -3.001,-0.231 -6.003,-0.231 -2.999,0 -2.999,0.087 -5.998,0.087 -3,0 -3,0.486 -6.001,0.486 -3.001,0 -3.001,-0.627 -6.003,-0.627 -3.001,0 -3.001,0.061 -6.003,0.061 -3.002,0 -3.002,0.696 -6.003,0.696 -3.003,0 -3.003,-0.234 -6.005,-0.234 -3.001,0 -3.001,0.211 -6.002,0.211 -3.004,0 -3.004,-0.731 -6.007,-0.731 -3.006,0 -3.006,0.484 -6.012,0.484 -3.005,0 -3.005,-0.196 -6.01,-0.196 -1.78,0 -3.461,0.458 -4.898,1.289 -1.482,0.857 -2.44,2.268 -3.298,3.751 -0.831,1.436 -1.805,2.952 -1.805,4.731 0,2.997 -0.014,2.997 -0.014,5.994 0,2.999 -0.133,2.999 -0.133,5.997 0,3.001 0.353,3.001 0.353,6.002 0,2.998 0.003,2.998 0.003,5.996 0,2.998 0.459,2.998 0.459,5.996 0,3 -0.409,3 -0.409,5.999 0,3 -0.231,3 -0.231,6 0,2.999 0.686,2.999 0.686,5.997 0,3 -0.167,3 -0.167,5.999 0,3.001 -0.736,3.001 -0.736,6.001 0,2.999 0.887,2.999 0.887,5.998 0,3.001 -0.155,3.001 -0.155,6.002 0,3 0.092,3 0.092,5.999 0,3.001 -0.455,3.001 -0.455,6.001 0,3 -0.065,3 -0.065,6 0,3.002 0.481,3.002 0.481,6.003 0,3 -0.19,3 -0.19,6 0,3.001 -0.272,3.001 -0.272,6.003 0,3.002 -0.264,3.002 -0.264,6.003 0,3.001 0.16,3.001 0.16,6.002 0,3.001 -0.176,3.001 -0.176,6.003 0,3.002 0.343,3.002 0.343,6.003 0,2.999 0.15,2.999 0.15,5.998 0,3.001 -0.503,3.001 -0.503,6.001 0,3.002 0.471,3.002 0.471,6.003 0,3.002 -0.066,3.002 -0.066,6.004 0,3.001 0.394,3.001 0.394,6.003 0,3.002 -0.123,3.002 -0.123,6.005 0,3.001 -0.477,3.001 -0.477,6.002 0,3.003 0.62,3.003 0.62,6.007 0,3.005 -0.627,3.005 -0.627,6.011 0,3.006 0.021,3.006 0.021,6.011 0,1.779 0.446,3.567 1.277,5.004 0.858,1.481 2.224,2.729 3.706,3.587 1.436,0.831 3.181,1.193 4.961,1.193 2.997,0 2.997,-0.034 5.994,-0.034 2.998,0 2.998,0.432 5.997,0.432 3.001,0 3.001,-0.588 6.002,-0.588 2.999,0 2.999,0.405 5.997,0.405 2.998,0 2.998,-0.55 5.995,-0.55 2.999,0 2.999,0.083 5.999,0.083 3,0 3,0.358 6,0.358 2.998,0 2.998,0.361 5.997,0.361 2.999,0 2.999,-0.606 5.999,-0.606 3,0 3,-0.117 6.001,-0.117 2.999,0 2.999,0.004 5.998,0.004 3.001,0 3.001,0.273 6.002,0.273 2.999,0 2.999,0.134 5.999,0.134 3,0 3,-0.209 6.001,-0.209 3.001,0 3.001,0.493 6.001,0.493 3.001,0 3.001,-0.147 6.002,-0.147 3,0 3,0.173 6,0.173 3.002,0 3.002,-0.872 6.003,-0.872 3.001,0 3.001,0.423 6.003,0.423 l 6.003,0 c 3.001,0 3.001,0.382 6.002,0.382 3.001,0 3.001,-0.73 6.003,-0.73 2.999,0 2.999,0.268 5.998,0.268 3,0 3,-0.096 6.001,-0.096 3.001,0 3.001,-0.03 6.003,-0.03 3.001,0 3.001,0.657 6.003,0.657 3.002,0 3.002,-0.005 6.003,-0.005 3.003,0 3.003,-0.84 6.005,-0.84 3.001,0 3.001,0.6 6.002,0.6 3.004,0 3.004,-0.027 6.007,-0.027 3.006,0 3.006,0.275 6.012,0.275 3.005,0 3.005,-0.256 6.01,-0.256 1.78,0 3.582,-0.478 5.018,-1.31 1.481,-0.857 2.284,-2.497 3.142,-3.979 0.831,-1.436 1.911,-2.93 1.911,-4.709 0,-2.997 -0.271,-2.997 -0.271,-5.994 0,-2.999 -0.329,-2.999 -0.329,-5.997 0,-3.001 0.712,-3.001 0.712,-6.002 0,-2.998 0.049,-2.998 0.049,-5.996 0,-2.998 -0.377,-2.998 -0.377,-5.996 0,-3 0.366,-3 0.366,-5.999 0,-3 -0.611,-3 -0.611,-6 0,-2.999 -0.018,-2.999 -0.018,-5.997 0,-3 0.196,-3 0.196,-6 0,-3 -0.116,-3 -0.116,-6 0,-3 0.132,-3 0.132,-5.999 0,-3 -0.136,-3 -0.136,-6.001 0,-3 -0.325,-3 -0.325,-5.999 0,-3.001 0.392,-3.001 0.392,-6.001 0,-3 0.135,-3 0.135,-6.001 0,-3.001 -0.229,-3.001 -0.229,-6.002 0,-3 0.178,-3 0.178,-6 0,-3.001 0.343,-3.001 0.343,-6.003 0,-3.002 -0.292,-3.002 -0.292,-6.003 0,-3.001 0.034,-3.001 0.034,-6.003 0,-3.001 0.274,-3.001 0.274,-6.002 0,-3.002 -0.87,-3.002 -0.87,-6.004 0,-2.998 0.22,-2.998 0.22,-5.997 0,-3.001 0.055,-3.001 0.055,-6.001 0,-3.002 0.525,-3.002 0.525,-6.003 0,-3.002 -0.103,-3.002 -0.103,-6.004 0,-3.001 0.22,-3.001 0.22,-6.003 0,-3.002 -0.298,-3.002 -0.298,-6.005 0,-3.001 -0.102,-3.001 -0.102,-6.002 0,-3.003 -0.133,-3.003 -0.133,-6.007 C 0.005,9.017 -0.363,9.021 -0.39,6.015 -0.416,3.009 0,3.005 0,0"
         style="fill:#2269d0;fill-opacity:1;fill-rule:evenodd;stroke:none"
         id="path182"
         inkscape:connector-curvature="0" />
    </g>
    <g
       id="g184"
       transform="matrix(1.25,0,0,-1.25,634.96589,463.8139)">
      <path
         d="m 0,0 c 0,-1.779 -0.028,-3.66 -0.859,-5.097 -0.858,-1.482 -2.523,-2.401 -4.003,-3.258 -1.438,-0.832 -3.045,-1.497 -4.825,-1.497 -2.997,0 -2.997,-0.103 -5.994,-0.103 -2.998,0 -2.998,0.101 -5.997,0.101 -3.001,0 -3.001,-0.166 -6.002,-0.166 -2.999,0 -2.999,-0.238 -5.997,-0.238 -2.998,0 -2.998,0.182 -5.995,0.182 -2.999,0 -2.999,0.653 -5.999,0.653 -3,0 -3,-0.836 -6,-0.836 -2.999,0 -2.999,0.614 -5.998,0.614 -2.999,0 -2.999,-0.482 -5.998,-0.482 -3,0 -3,0.643 -6.001,0.643 -2.999,0 -2.999,-0.045 -5.999,-0.045 -3,0 -3,-0.152 -6.001,-0.152 -2.999,0 -2.999,-0.233 -5.999,-0.233 -3,0 -3,-0.167 -6.001,-0.167 -3.001,0 -3.001,0.24 -6.001,0.24 -3.001,0 -3.001,-0.419 -6.002,-0.419 -3,0 -3,0.167 -6,0.167 -3.002,0 -3.002,0.743 -6.003,0.743 -3.001,0 -3.001,-0.728 -6.003,-0.728 -3.001,0 -3.001,0.703 -6.002,0.703 -3.002,0 -3.002,-0.402 -6.003,-0.402 -3.001,0 -3.001,-0.231 -6.003,-0.231 -2.999,0 -2.999,0.087 -5.998,0.087 -3,0 -3,0.486 -6.001,0.486 -3.001,0 -3.001,-0.627 -6.003,-0.627 -3.001,0 -3.001,0.061 -6.003,0.061 -3.002,0 -3.002,0.696 -6.003,0.696 -3.003,0 -3.003,-0.234 -6.005,-0.234 -3.001,0 -3.001,0.211 -6.002,0.211 -3.004,0 -3.004,-0.731 -6.007,-0.731 -3.006,0 -3.006,0.484 -6.012,0.484 -3.005,0 -3.005,-0.196 -6.01,-0.196 -1.78,0 -3.461,0.458 -4.898,1.289 -1.482,0.857 -2.44,2.268 -3.298,3.751 -0.831,1.436 -1.805,2.952 -1.805,4.731 0,2.997 -0.014,2.997 -0.014,5.994 0,2.999 -0.133,2.999 -0.133,5.997 0,3.001 0.353,3.001 0.353,6.002 0,2.998 0.003,2.998 0.003,5.996 0,2.998 0.459,2.998 0.459,5.996 0,3 -0.409,3 -0.409,5.999 0,3 -0.231,3 -0.231,6 0,2.999 0.686,2.999 0.686,5.997 0,3 -0.167,3 -0.167,5.999 0,3.001 -0.736,3.001 -0.736,6.001 0,2.999 0.887,2.999 0.887,5.998 0,3.001 -0.155,3.001 -0.155,6.002 0,3 0.092,3 0.092,5.999 0,3.001 -0.455,3.001 -0.455,6.001 0,3 -0.065,3 -0.065,6 0,3.002 0.481,3.002 0.481,6.003 0,3 -0.19,3 -0.19,6 0,3.001 -0.272,3.001 -0.272,6.003 0,3.002 -0.264,3.002 -0.264,6.003 0,3.001 0.16,3.001 0.16,6.002 0,3.001 -0.176,3.001 -0.176,6.003 0,3.002 0.343,3.002 0.343,6.003 0,2.999 0.15,2.999 0.15,5.998 0,3.001 -0.503,3.001 -0.503,6.001 0,3.002 0.471,3.002 0.471,6.003 0,3.002 -0.066,3.002 -0.066,6.004 0,3.001 0.394,3.001 0.394,6.003 0,3.002 -0.123,3.002 -0.123,6.005 0,3.001 -0.477,3.001 -0.477,6.002 0,3.003 0.62,3.003 0.62,6.007 0,3.005 -0.627,3.005 -0.627,6.011 0,3.006 0.021,3.006 0.021,6.011 0,1.779 0.446,3.567 1.277,5.004 0.858,1.481 2.224,2.729 3.706,3.587 1.436,0.831 3.181,1.193 4.961,1.193 2.997,0 2.997,-0.034 5.994,-0.034 2.998,0 2.998,0.432 5.997,0.432 3.001,0 3.001,-0.588 6.002,-0.588 2.999,0 2.999,0.405 5.997,0.405 2.998,0 2.998,-0.55 5.995,-0.55 2.999,0 2.999,0.083 5.999,0.083 3,0 3,0.358 6,0.358 2.998,0 2.998,0.361 5.997,0.361 2.999,0 2.999,-0.606 5.999,-0.606 3,0 3,-0.117 6.001,-0.117 2.999,0 2.999,0.004 5.998,0.004 3.001,0 3.001,0.273 6.002,0.273 2.999,0 2.999,0.134 5.999,0.134 3,0 3,-0.209 6.001,-0.209 3.001,0 3.001,0.493 6.001,0.493 3.001,0 3.001,-0.147 6.002,-0.147 3,0 3,0.173 6,0.173 3.002,0 3.002,-0.872 6.003,-0.872 3.001,0 3.001,0.423 6.003,0.423 l 6.003,0 c 3.001,0 3.001,0.382 6.002,0.382 3.001,0 3.001,-0.73 6.003,-0.73 2.999,0 2.999,0.268 5.998,0.268 3,0 3,-0.096 6.001,-0.096 3.001,0 3.001,-0.03 6.003,-0.03 3.001,0 3.001,0.657 6.003,0.657 3.002,0 3.002,-0.005 6.003,-0.005 3.003,0 3.003,-0.84 6.005,-0.84 3.001,0 3.001,0.6 6.002,0.6 3.004,0 3.004,-0.027 6.007,-0.027 3.006,0 3.006,0.275 6.012,0.275 3.005,0 3.005,-0.256 6.01,-0.256 1.78,0 3.582,-0.478 5.018,-1.31 1.481,-0.857 2.284,-2.497 3.142,-3.979 0.831,-1.436 1.911,-2.93 1.911,-4.709 0,-2.997 -0.271,-2.997 -0.271,-5.994 0,-2.999 -0.329,-2.999 -0.329,-5.997 0,-3.001 0.712,-3.001 0.712,-6.002 0,-2.998 0.049,-2.998 0.049,-5.996 0,-2.998 -0.377,-2.998 -0.377,-5.996 0,-3 0.366,-3 0.366,-5.999 0,-3 -0.611,-3 -0.611,-6 0,-2.999 -0.018,-2.999 -0.018,-5.997 0,-3 0.196,-3 0.196,-6 0,-3 -0.116,-3 -0.116,-6 0,-3 0.132,-3 0.132,-5.999 0,-3 -0.136,-3 -0.136,-6.001 0,-3 -0.325,-3 -0.325,-5.999 0,-3.001 0.392,-3.001 0.392,-6.001 0,-3 0.135,-3 0.135,-6.001 0,-3.001 -0.229,-3.001 -0.229,-6.002 0,-3 0.178,-3 0.178,-6 0,-3.001 0.343,-3.001 0.343,-6.003 0,-3.002 -0.292,-3.002 -0.292,-6.003 0,-3.001 0.034,-3.001 0.034,-6.003 0,-3.001 0.274,-3.001 0.274,-6.002 0,-3.002 -0.87,-3.002 -0.87,-6.004 0,-2.998 0.22,-2.998 0.22,-5.997 0,-3.001 0.055,-3.001 0.055,-6.001 0,-3.002 0.525,-3.002 0.525,-6.003 0,-3.002 -0.103,-3.002 -0.103,-6.004 0,-3.001 0.22,-3.001 0.22,-6.003 0,-3.002 -0.298,-3.002 -0.298,-6.005 0,-3.001 -0.102,-3.001 -0.102,-6.002 0,-3.003 -0.133,-3.003 -0.133,-6.007 C 0.005,9.017 -0.363,9.021 -0.39,6.015 -0.416,3.009 0,3.005 0,0 Z"
         style="fill:none;stroke:#000000;stroke-width:4;stroke-linecap:round;stroke-linejoin:round;stroke-miterlimit:10;stroke-dasharray:none;stroke-opacity:1"
         id="path186"
         inkscape:connector-curvature="0" />
    </g>
    <g
       id="g188"
       transform="matrix(1.25,0,0,-1.25,511.35752,331.90353)">
      <path
         d="m 0,0 1.485,1.361 1.564,2.263 1.938,1.959 1.874,2.12 2.461,1.359 2.561,0.852 2.471,0.976 2.458,1.218 2.665,0.577 2.719,0.203 2.786,-0.252 2.781,-0.137 2.677,-0.854 2.832,-10e-4 2.573,-1.1 2.805,-1.15 2.54,-1.65 2.682,-1.55 2.039,-2.318 1.071,-2.94 1.706,-2.586 0.92,-2.957 1.051,-2.922 0.202,-3.115 1.14,-2.495 0.478,-2.615 -0.548,-2.677 0.269,-2.774 0.471,-2.775 -0.22,-2.783 0.186,-2.78 0.025,-2.78 -0.342,-2.781 0.244,-2.78 0.249,-2.779 -0.708,-2.858 -0.193,-2.857 0.002,-2.857 0.133,-2.857 0.319,-2.856 -0.339,-2.857 0.3,-2.857 0.133,-2.857 0.095,-2.857 -0.469,-0.901 -0.792,0.18 -2.781,0.031 -2.783,-0.039 -2.782,-0.136 -2.781,-0.056 -2.782,-0.148 -2.782,0.382 -2.782,-0.12 -2.782,-0.003 -1.169,0.907 0.309,2.898 0.014,2.898 -0.133,2.898 -0.513,2.898 0.535,2.899 -0.387,2.897 0.593,2.899 -0.278,2.898 0.054,2.899 -0.656,2.897 0.35,2.899 -0.319,2.898 0.238,2.898 0.591,2.9 -0.472,2.66 -0.034,2.687 -0.76,2.581 -1.374,2.308 -0.694,2.9 -2.606,1.412 -2.277,1.721 -2.824,0.56 -2.831,0.151 -2.879,-0.051 -2.483,-1.554 -2.59,-1.358 -1.943,-2.183 -2.163,-2.236 -0.673,-3.017 -1.042,-2.923 -0.155,-3.091 0.079,-2.938 0.361,-2.939 0.267,-2.938 -0.041,-2.937 -0.031,-2.937 0.182,-2.939 -0.238,-2.935 -0.591,-2.936 0.834,-2.939 -0.676,-2.936 0.443,-2.938 -0.5,-2.936 0.631,-2.939 -0.294,-2.937 -1.336,-1.12 -2.762,0.307 -2.762,-0.389 -2.762,-0.155 -2.761,0.192 -2.761,0.071 -2.762,-0.06 -2.761,0.018 -2.762,0.049 -1.169,0.894 0.273,2.927 -0.646,2.925 0.695,2.927 -0.29,2.926 -0.251,2.927 0.797,2.926 -0.928,2.926 0.708,2.927 0.035,2.927 -0.518,2.926 0.13,2.926 0.486,2.927 -0.671,2.926 -0.115,2.927 0.524,2.925 0.172,2.927 -0.361,2.927 0.505,2.927 -0.342,2.925 0.145,2.927 -0.018,2.927 0.164,2.926 -0.314,2.926 0.337,2.927 -0.875,2.926 0.073,2.927 1.448,1.332 3.03,-0.1 3.031,-0.476 3.03,0.227 3.03,0.262 3.03,0.249 3.031,-0.787 3.03,-0.1 L 0.145,9.597 0.18,6.678 -0.063,3.759 -0.316,0.84 -0.359,-0.034 0,0 Z"
         style="fill:#ffffff;fill-opacity:1;fill-rule:evenodd;stroke:none"
         id="path190"
         inkscape:connector-curvature="0" />
    </g>
    <g
       id="g192"
       transform="matrix(1.25,0,0,-1.25,511.35752,331.90353)">
      <path
         d="m 0,0 1.485,1.361 1.564,2.263 1.938,1.959 1.874,2.12 2.461,1.359 2.561,0.852 2.471,0.976 2.458,1.218 2.665,0.577 2.719,0.203 2.786,-0.252 2.781,-0.137 2.677,-0.854 2.832,-10e-4 2.573,-1.1 2.805,-1.15 2.54,-1.65 2.682,-1.55 2.039,-2.318 1.071,-2.94 1.706,-2.586 0.92,-2.957 1.051,-2.922 0.202,-3.115 1.14,-2.495 0.478,-2.615 -0.548,-2.677 0.269,-2.774 0.471,-2.775 -0.22,-2.783 0.186,-2.78 0.025,-2.78 -0.342,-2.781 0.244,-2.78 0.249,-2.779 -0.708,-2.858 -0.193,-2.857 0.002,-2.857 0.133,-2.857 0.319,-2.856 -0.339,-2.857 0.3,-2.857 0.133,-2.857 0.095,-2.857 -0.469,-0.901 -0.792,0.18 -2.781,0.031 -2.783,-0.039 -2.782,-0.136 -2.781,-0.056 -2.782,-0.148 -2.782,0.382 -2.782,-0.12 -2.782,-0.003 -1.169,0.907 0.309,2.898 0.014,2.898 -0.133,2.898 -0.513,2.898 0.535,2.899 -0.387,2.897 0.593,2.899 -0.278,2.898 0.054,2.899 -0.656,2.897 0.35,2.899 -0.319,2.898 0.238,2.898 0.591,2.9 -0.472,2.66 -0.034,2.687 -0.76,2.581 -1.374,2.308 -0.694,2.9 -2.606,1.412 -2.277,1.721 -2.824,0.56 -2.831,0.151 -2.879,-0.051 -2.483,-1.554 -2.59,-1.358 -1.943,-2.183 -2.163,-2.236 -0.673,-3.017 -1.042,-2.923 -0.155,-3.091 0.079,-2.938 0.361,-2.939 0.267,-2.938 -0.041,-2.937 -0.031,-2.937 0.182,-2.939 -0.238,-2.935 -0.591,-2.936 0.834,-2.939 -0.676,-2.936 0.443,-2.938 -0.5,-2.936 0.631,-2.939 -0.294,-2.937 -1.336,-1.12 -2.762,0.307 -2.762,-0.389 -2.762,-0.155 -2.761,0.192 -2.761,0.071 -2.762,-0.06 -2.761,0.018 -2.762,0.049 -1.169,0.894 0.273,2.927 -0.646,2.925 0.695,2.927 -0.29,2.926 -0.251,2.927 0.797,2.926 -0.928,2.926 0.708,2.927 0.035,2.927 -0.518,2.926 0.13,2.926 0.486,2.927 -0.671,2.926 -0.115,2.927 0.524,2.925 0.172,2.927 -0.361,2.927 0.505,2.927 -0.342,2.925 0.145,2.927 -0.018,2.927 0.164,2.926 -0.314,2.926 0.337,2.927 -0.875,2.926 0.073,2.927 1.448,1.332 3.03,-0.1 3.031,-0.476 3.03,0.227 3.03,0.262 3.03,0.249 3.031,-0.787 3.03,-0.1 L 0.145,9.597 0.18,6.678 -0.063,3.759 -0.316,0.84 -0.359,-0.034 0,0 Z"
         style="fill:none;stroke:#000000;stroke-width:4;stroke-linecap:round;stroke-linejoin:round;stroke-miterlimit:10;stroke-dasharray:none;stroke-opacity:1"
         id="path194"
         inkscape:connector-curvature="0" />
    </g>
    <g
       id="g196"
       transform="matrix(1.25,0,0,-1.25,432.85777,415.98915)">
      <path
         d="m 0,0 -0.514,0.823 -0.095,2.927 0.273,2.927 -0.35,2.927 0.602,2.926 0.082,2.926 -0.555,2.927 -0.112,2.927 0.15,2.926 0.113,2.927 0.472,2.926 -0.137,2.927 -0.108,2.926 -0.279,2.927 0.255,2.926 -0.478,2.927 0.856,2.926 0.012,2.927 -0.042,2.926 -0.715,2.927 0.809,2.926 -0.561,2.927 0.198,2.927 -0.153,2.926 -0.146,2.927 0.616,2.926 0.047,2.927 0.653,1.204 2.761,-0.129 2.762,0.376 2.762,0.023 2.761,0.012 2.762,-0.773 2.763,0.602 2.762,0.11 2.762,-0.254 0.959,-1.259 0.146,-2.92 -0.321,-2.921 0.147,-2.92 0.594,-2.919 -0.367,-2.92 0.017,-2.921 -0.487,-2.92 0.45,-2.921 -0.218,-2.92 0.254,-2.92 0.403,-2.921 -0.114,-2.92 -0.649,-2.921 0.812,-2.92 -0.209,-2.92 -0.593,-2.92 -0.146,-2.92 0.162,-2.92 0.445,-2.921 0.291,-2.92 -0.563,-2.92 -0.247,-2.921 0.884,-2.92 -0.701,-2.921 0.258,-2.92 0,-2.92 L 23.072,-0.556 20.29,-0.709 17.509,-0.506 14.727,-0.71 11.944,-0.497 9.162,-0.116 6.38,-0.513 3.599,0.216 0.816,-0.154 0,0 Z"
         style="fill:#ffffff;fill-opacity:1;fill-rule:evenodd;stroke:none"
         id="path198"
         inkscape:connector-curvature="0" />
    </g>
    <g
       id="g200"
       transform="matrix(1.25,0,0,-1.25,432.85777,415.98915)">
      <path
         d="m 0,0 -0.514,0.823 -0.095,2.927 0.273,2.927 -0.35,2.927 0.602,2.926 0.082,2.926 -0.555,2.927 -0.112,2.927 0.15,2.926 0.113,2.927 0.472,2.926 -0.137,2.927 -0.108,2.926 -0.279,2.927 0.255,2.926 -0.478,2.927 0.856,2.926 0.012,2.927 -0.042,2.926 -0.715,2.927 0.809,2.926 -0.561,2.927 0.198,2.927 -0.153,2.926 -0.146,2.927 0.616,2.926 0.047,2.927 0.653,1.204 2.761,-0.129 2.762,0.376 2.762,0.023 2.761,0.012 2.762,-0.773 2.763,0.602 2.762,0.11 2.762,-0.254 0.959,-1.259 0.146,-2.92 -0.321,-2.921 0.147,-2.92 0.594,-2.919 -0.367,-2.92 0.017,-2.921 -0.487,-2.92 0.45,-2.921 -0.218,-2.92 0.254,-2.92 0.403,-2.921 -0.114,-2.92 -0.649,-2.921 0.812,-2.92 -0.209,-2.92 -0.593,-2.92 -0.146,-2.92 0.162,-2.92 0.445,-2.921 0.291,-2.92 -0.563,-2.92 -0.247,-2.921 0.884,-2.92 -0.701,-2.921 0.258,-2.92 0,-2.92 L 23.072,-0.556 20.29,-0.709 17.509,-0.506 14.727,-0.71 11.944,-0.497 9.162,-0.116 6.38,-0.513 3.599,0.216 0.816,-0.154 0,0 Z"
         style="fill:none;stroke:#000000;stroke-width:4;stroke-linecap:round;stroke-linejoin:round;stroke-miterlimit:10;stroke-dasharray:none;stroke-opacity:1"
         id="path202"
         inkscape:connector-curvature="0" />
    </g>
    <g
       id="g204"
       transform="matrix(1.25,0,0,-1.25,429.93052,287.6579)">
      <path
         d="m 0,0 0.329,2.793 1.227,2.513 0.695,2.801 2.436,1.589 1.829,2.105 2.339,1.615 2.862,0.178 2.72,0.508 2.754,-0.267 2.82,-0.402 2.028,-2.083 2.477,-1.3 2.014,-1.997 0.748,-2.762 0.624,-2.638 0.181,-2.68 -0.204,-2.715 -0.611,-2.672 -1.304,-2.42 -1.463,-2.397 -2.061,-1.976 -2.525,-1.372 -2.851,-0.331 -2.775,-0.388 -2.758,0.405 -2.554,1.027 -2.472,1.165 L 4.351,-9.989 2.774,-7.743 1.049,-5.518 0.102,-2.839 0,0 Z"
         style="fill:#ffffff;fill-opacity:1;fill-rule:evenodd;stroke:none"
         id="path206"
         inkscape:connector-curvature="0" />
    </g>
    <g
       id="g208"
       transform="matrix(1.25,0,0,-1.25,429.93052,287.6579)">
      <path
         d="m 0,0 0.329,2.793 1.227,2.513 0.695,2.801 2.436,1.589 1.829,2.105 2.339,1.615 2.862,0.178 2.72,0.508 2.754,-0.267 2.82,-0.402 2.028,-2.083 2.477,-1.3 2.014,-1.997 0.748,-2.762 0.624,-2.638 0.181,-2.68 -0.204,-2.715 -0.611,-2.672 -1.304,-2.42 -1.463,-2.397 -2.061,-1.976 -2.525,-1.372 -2.851,-0.331 -2.775,-0.388 -2.758,0.405 -2.554,1.027 -2.472,1.165 L 4.351,-9.989 2.774,-7.743 1.049,-5.518 0.102,-2.839 0,0 Z"
         style="fill:none;stroke:#000000;stroke-width:4;stroke-linecap:round;stroke-linejoin:round;stroke-miterlimit:10;stroke-dasharray:none;stroke-opacity:1"
         id="path210"
         inkscape:connector-curvature="0" />
    </g>
    <g
       id="g212"
       transform="matrix(1.25,0,0,-1.25,384.72177,440.63265)">
      <path
         d="m 0,0 2.624,0.516 2.293,-1.303 1.77,-1.876 2.253,-1.413 1.559,-2.085 1.913,-1.743 1.508,-2.126 2.278,-1.913 1.558,-2.586 1.378,-3.163 -3.786,0.668 -2.602,2.373 -2.464,2.497 -1.714,2.428 -2.091,2.08 L 4.716,-5.264 2.478,-3.313 0,0 Z"
         style="fill:#000000;fill-opacity:1;fill-rule:evenodd;stroke:none"
         id="path214"
         inkscape:connector-curvature="0" />
    </g>
    <g
       id="g216"
       transform="matrix(1.25,0,0,-1.25,397.65515,436.4359)">
      <path
         d="M 0,0 2.66,-1.174 4.605,-3.29 6.486,-5.399 8.438,-7.437 10.943,-8.888 10.727,-11.767 7.896,-12.639 6.757,-11.26 4.4,-9.736 3.384,-7.109 1.601,-5.111 -0.038,-2.996 0,0 Z"
         style="fill:#000000;fill-opacity:1;fill-rule:evenodd;stroke:none"
         id="path218"
         inkscape:connector-curvature="0" />
    </g>
    <g
       id="g220"
       transform="matrix(1.25,0,0,-1.25,382.13389,449.94177)">
      <path
         d="m 0,0 2.756,-0.677 2.32,-1.968 1.704,-2.532 1.86,-2.299 1.231,-2.328 -1.616,-1.03 -1.798,1.146 -2.059,1.913 -2.485,1.569 -1.548,2.402 -1.31,1.933 L 0,0 Z"
         style="fill:#000000;fill-opacity:1;fill-rule:evenodd;stroke:none"
         id="path222"
         inkscape:connector-curvature="0" />
    </g>
    <g
       id="g224"
       transform="matrix(1.25,0,0,-1.25,598.09452,225.82678)">
      <path
         d="m 0,0 2.625,0.517 2.293,-1.303 1.771,-1.877 2.253,-1.413 1.557,-2.085 1.913,-1.742 1.51,-2.126 2.277,-1.914 1.559,-2.586 1.377,-3.162 -3.785,0.667 -2.604,2.373 -2.463,2.497 L 8.569,-9.727 6.478,-7.646 4.717,-5.264 2.479,-3.313 0,0 Z"
         style="fill:#000000;fill-opacity:1;fill-rule:evenodd;stroke:none"
         id="path226"
         inkscape:connector-curvature="0" />
    </g>
    <g
       id="g228"
       transform="matrix(1.25,0,0,-1.25,611.02789,221.63002)">
      <path
         d="m 0,0 2.66,-1.174 1.947,-2.116 1.88,-2.11 1.952,-2.037 2.506,-1.451 -0.216,-2.878 -2.832,-0.873 -1.139,1.38 -2.357,1.524 -1.016,2.626 -1.783,1.997 -1.638,2.116 L 0,0 Z"
         style="fill:#000000;fill-opacity:1;fill-rule:evenodd;stroke:none"
         id="path230"
         inkscape:connector-curvature="0" />
    </g>
  </g>
</svg>
