<?xml version="1.0" encoding="UTF-8" standalone="no"?>
<svg
   xmlns:dc="http://purl.org/dc/elements/1.1/"
   xmlns:cc="http://creativecommons.org/ns#"
   xmlns:rdf="http://www.w3.org/1999/02/22-rdf-syntax-ns#"
   xmlns:svg="http://www.w3.org/2000/svg"
   xmlns="http://www.w3.org/2000/svg"
   version="1.1"
   id="svg4207"
   viewBox="0 0 270.5775 270.65749"
   height="76.385559mm"
   width="76.362984mm">
  <defs
     id="defs4209" />
  <metadata
     id="metadata4212">
    <rdf:RDF>
      <cc:Work
         rdf:about="">
        <dc:format>image/svg+xml</dc:format>
        <dc:type
           rdf:resource="http://purl.org/dc/dcmitype/StillImage" />
        <dc:title></dc:title>
      </cc:Work>
    </rdf:RDF>
  </metadata>
  <g
     transform="translate(-250.42554,-305.60488)"
     id="layer1">
    <g
       transform="matrix(1.25,0,0,-1.25,517.50929,560.98988)"
       id="g20">
      <path
         id="path22"
         style="fill:#2269d0;fill-opacity:1;fill-rule:evenodd;stroke:none"
         d="m 0,0 c 0,-1.779 -0.354,-3.283 -1.185,-4.72 -0.857,-1.482 -1.614,-3.22 -3.096,-4.078 -1.436,-0.831 -3.301,-0.5 -5.08,-0.5 -2.997,0 -2.997,-0.826 -5.994,-0.826 -2.999,0 -2.999,0.627 -5.997,0.627 -3.001,0 -3.001,-0.572 -6.002,-0.572 -2.998,0 -2.998,0.69 -5.997,0.69 -2.998,0 -2.998,-0.389 -5.996,-0.389 -2.999,0 -2.999,0.462 -5.998,0.462 -3,0 -3,-0.791 -6.001,-0.791 -2.998,0 -2.998,0.555 -5.997,0.555 -2.999,0 -2.999,-0.455 -5.999,-0.455 -3,0 -3,0.618 -6.001,0.618 -2.999,0 -2.999,-0.593 -5.998,-0.593 -3.001,0 -3.001,0.413 -6.001,0.413 -3,0 -3,-0.508 -6,-0.508 -3.001,0 -3.001,0.637 -6.001,0.637 -3,0 -3,-0.34 -6,-0.34 -3.001,0 -3.001,0.416 -6.003,0.416 -3,0 -3,0.057 -6,0.057 -3.001,0 -3.001,-0.125 -6.003,-0.125 -3.001,0 -3.001,0.155 -6.003,0.155 -3.001,0 -3.001,-0.789 -6.002,-0.789 -3.002,0 -3.002,0.016 -6.003,0.016 -3.001,0 -3.001,-0.178 -6.003,-0.178 -2.999,0 -2.999,0.122 -5.998,0.122 -3,0 -3,0.679 -6.001,0.679 -3.002,0 -3.002,-0.47 -6.003,-0.47 -3.002,0 -3.002,-0.103 -6.004,-0.103 -3.002,0 -3.002,0.294 -6.003,0.294 -3.003,0 -3.003,-0.304 -6.005,-0.304 -3.001,0 -3.001,0.605 -6.002,0.605 -3.003,0 -3.003,-0.652 -6.007,-0.652 -3.005,0 -3.005,0.417 -6.011,0.417 -3.006,0 -3.006,-0.429 -6.011,-0.429 -1.78,0 -3.617,0.476 -5.053,1.308 -1.483,0.857 -2.956,2.15 -3.813,3.632 -0.831,1.437 -1.396,3.34 -1.396,5.119 0,2.997 0.764,2.997 0.764,5.995 0,2.998 -0.648,2.998 -0.648,5.996 0,3.001 0.583,3.001 0.583,6.002 0,2.998 0.214,2.998 0.214,5.997 0,2.998 -0.48,2.998 -0.48,5.996 0,2.999 -0.373,2.999 -0.373,5.998 0,3 -0.012,3 -0.012,6.001 0,2.998 0.639,2.998 0.639,5.997 0,2.999 0.046,2.999 0.046,5.999 0,3 -0.587,3 -0.587,6.001 0,2.999 0.514,2.999 0.514,5.998 0,3 0.047,3 0.047,6.001 0,3 -0.149,3 -0.149,6 0,3 -0.215,3 -0.215,6.001 0,3 0.298,3 0.298,6 0,3.001 0.289,3.001 0.289,6.002 0,3.001 -0.134,3.001 -0.134,6.001 0,3.001 -0.103,3.001 -0.103,6.003 0,3.001 -0.18,3.001 -0.18,6.003 0,3.001 -0.171,3.001 -0.171,6.002 0,3.001 -0.005,3.001 -0.005,6.003 0,3.001 -0.244,3.001 -0.244,6.003 0,2.999 0.009,2.999 0.009,5.998 0,3 0.255,3 0.255,6.001 0,3.001 -0.311,3.001 -0.311,6.003 0,3.002 0.257,3.002 0.257,6.003 0,3.002 0.451,3.002 0.451,6.004 0,3.002 -0.132,3.002 -0.132,6.005 0,3.001 0.192,3.001 0.192,6.002 0,3.003 -0.406,3.003 -0.406,6.006 0,3.006 0.329,3.006 0.329,6.012 0,3.005 -0.547,3.005 -0.547,6.011 0,1.779 0.583,3.562 1.414,4.999 0.857,1.482 2.269,2.643 3.751,3.5 1.437,0.831 3.127,1.605 4.907,1.605 2.997,0 2.997,-0.382 5.994,-0.382 2.998,0 2.998,0.311 5.997,0.311 3,0 3,-0.221 6.001,-0.221 2.999,0 2.999,0.203 5.997,0.203 2.999,0 2.999,-0.156 5.997,-0.156 2.999,0 2.999,-0.139 5.998,-0.139 3.001,0 3.001,0.01 6.001,0.01 2.998,0 2.998,0.179 5.997,0.179 2.999,0 2.999,-0.516 5.999,-0.516 3,0 3,0.551 6.001,0.551 2.999,0 2.999,-0.064 5.998,-0.064 3.001,0 3.001,-0.106 6.001,-0.106 3,0 3,-0.257 6,-0.257 3.001,0 3.001,0.507 6.001,0.507 3,0 3,-0.505 6,-0.505 3.002,0 3.002,-0.026 6.003,-0.026 3,0 3,0.144 6,0.144 3.002,0 3.002,-0.35 6.003,-0.35 3.001,0 3.001,0.796 6.003,0.796 3.001,0 3.001,-0.427 6.002,-0.427 3.001,0 3.001,-0.042 6.003,-0.042 3.001,0 3.001,0.297 6.003,0.297 2.999,0 2.999,-0.468 5.998,-0.468 3,0 3,-0.143 6.001,-0.143 3.001,0 3.001,0.552 6.003,0.552 3.002,0 3.002,0.111 6.004,0.111 3.001,0 3.001,-0.007 6.003,-0.007 3.002,0 3.002,-0.248 6.005,-0.248 3.001,0 3.001,0.556 6.002,0.556 3.003,0 3.003,-0.25 6.007,-0.25 3.006,0 3.006,-0.412 6.011,-0.412 3.005,0 3.005,0.346 6.011,0.346 1.779,0 3.384,-0.765 4.821,-1.597 1.482,-0.857 3.202,-1.742 4.06,-3.224 0.831,-1.436 1.098,-3.348 1.098,-5.127 0,-2.997 -0.691,-2.997 -0.691,-5.995 0,-2.998 0.182,-2.998 0.182,-5.996 0,-3.001 0.028,-3.001 0.028,-6.002 0,-2.998 -0.058,-2.998 -0.058,-5.997 0,-2.998 0.716,-2.998 0.716,-5.996 0,-2.999 -0.441,-2.999 -0.441,-5.998 0,-3 0.307,-3 0.307,-6.001 0,-2.998 0.129,-2.998 0.129,-5.997 0,-3 -0.351,-3 -0.351,-5.999 0,-3.001 -0.198,-3.001 -0.198,-6.001 0,-2.999 -0.025,-2.999 -0.025,-5.998 0,-3.001 -0.211,-3.001 -0.211,-6.001 0,-3 -0.071,-3 -0.071,-6 0,-3 0.64,-3 0.64,-6.001 0,-3 -0.381,-3 -0.381,-6 0,-3.001 0.12,-3.001 0.12,-6.002 0,-3.001 0.387,-3.001 0.387,-6.001 0,-3.001 -0.076,-3.001 -0.076,-6.003 0,-3.001 -0.33,-3.001 -0.33,-6.003 0,-3.001 -0.136,-3.001 -0.136,-6.002 0,-3.001 0.039,-3.001 0.039,-6.003 0,-3.001 -0.094,-3.001 -0.094,-6.003 0,-2.999 0.543,-2.999 0.543,-5.998 0,-3 -0.234,-3 -0.234,-6.001 0,-3.001 -0.488,-3.001 -0.488,-6.003 0,-3.002 0.347,-3.002 0.347,-6.003 0,-3.002 0.469,-3.002 0.469,-6.004 0,-3.002 -0.467,-3.002 -0.467,-6.005 0,-3.001 0.137,-3.001 0.137,-6.002 0,-3.003 0.291,-3.003 0.291,-6.007 C 0.701,9.017 0.268,9.026 0.133,6.023 -0.001,3.011 0,3.006 0,0" />
    </g>
    <g
       transform="matrix(1.25,0,0,-1.25,517.50929,560.98988)"
       id="g24">
      <path
         id="path26"
         style="fill:none;stroke:#000000;stroke-width:4;stroke-linecap:round;stroke-linejoin:round;stroke-miterlimit:10;stroke-dasharray:none;stroke-opacity:1"
         d="m 0,0 c 0,-1.779 -0.354,-3.283 -1.185,-4.72 -0.857,-1.482 -1.614,-3.22 -3.096,-4.078 -1.436,-0.831 -3.301,-0.5 -5.08,-0.5 -2.997,0 -2.997,-0.826 -5.994,-0.826 -2.999,0 -2.999,0.627 -5.997,0.627 -3.001,0 -3.001,-0.572 -6.002,-0.572 -2.998,0 -2.998,0.69 -5.997,0.69 -2.998,0 -2.998,-0.389 -5.996,-0.389 -2.999,0 -2.999,0.462 -5.998,0.462 -3,0 -3,-0.791 -6.001,-0.791 -2.998,0 -2.998,0.555 -5.997,0.555 -2.999,0 -2.999,-0.455 -5.999,-0.455 -3,0 -3,0.618 -6.001,0.618 -2.999,0 -2.999,-0.593 -5.998,-0.593 -3.001,0 -3.001,0.413 -6.001,0.413 -3,0 -3,-0.508 -6,-0.508 -3.001,0 -3.001,0.637 -6.001,0.637 -3,0 -3,-0.34 -6,-0.34 -3.001,0 -3.001,0.416 -6.003,0.416 -3,0 -3,0.057 -6,0.057 -3.001,0 -3.001,-0.125 -6.003,-0.125 -3.001,0 -3.001,0.155 -6.003,0.155 -3.001,0 -3.001,-0.789 -6.002,-0.789 -3.002,0 -3.002,0.016 -6.003,0.016 -3.001,0 -3.001,-0.178 -6.003,-0.178 -2.999,0 -2.999,0.122 -5.998,0.122 -3,0 -3,0.679 -6.001,0.679 -3.002,0 -3.002,-0.47 -6.003,-0.47 -3.002,0 -3.002,-0.103 -6.004,-0.103 -3.002,0 -3.002,0.294 -6.003,0.294 -3.003,0 -3.003,-0.304 -6.005,-0.304 -3.001,0 -3.001,0.605 -6.002,0.605 -3.003,0 -3.003,-0.652 -6.007,-0.652 -3.005,0 -3.005,0.417 -6.011,0.417 -3.006,0 -3.006,-0.429 -6.011,-0.429 -1.78,0 -3.617,0.476 -5.053,1.308 -1.483,0.857 -2.956,2.15 -3.813,3.632 -0.831,1.437 -1.396,3.34 -1.396,5.119 0,2.997 0.764,2.997 0.764,5.995 0,2.998 -0.648,2.998 -0.648,5.996 0,3.001 0.583,3.001 0.583,6.002 0,2.998 0.214,2.998 0.214,5.997 0,2.998 -0.48,2.998 -0.48,5.996 0,2.999 -0.373,2.999 -0.373,5.998 0,3 -0.012,3 -0.012,6.001 0,2.998 0.639,2.998 0.639,5.997 0,2.999 0.046,2.999 0.046,5.999 0,3 -0.587,3 -0.587,6.001 0,2.999 0.514,2.999 0.514,5.998 0,3 0.047,3 0.047,6.001 0,3 -0.149,3 -0.149,6 0,3 -0.215,3 -0.215,6.001 0,3 0.298,3 0.298,6 0,3.001 0.289,3.001 0.289,6.002 0,3.001 -0.134,3.001 -0.134,6.001 0,3.001 -0.103,3.001 -0.103,6.003 0,3.001 -0.18,3.001 -0.18,6.003 0,3.001 -0.171,3.001 -0.171,6.002 0,3.001 -0.005,3.001 -0.005,6.003 0,3.001 -0.244,3.001 -0.244,6.003 0,2.999 0.009,2.999 0.009,5.998 0,3 0.255,3 0.255,6.001 0,3.001 -0.311,3.001 -0.311,6.003 0,3.002 0.257,3.002 0.257,6.003 0,3.002 0.451,3.002 0.451,6.004 0,3.002 -0.132,3.002 -0.132,6.005 0,3.001 0.192,3.001 0.192,6.002 0,3.003 -0.406,3.003 -0.406,6.006 0,3.006 0.329,3.006 0.329,6.012 0,3.005 -0.547,3.005 -0.547,6.011 0,1.779 0.583,3.562 1.414,4.999 0.857,1.482 2.269,2.643 3.751,3.5 1.437,0.831 3.127,1.605 4.907,1.605 2.997,0 2.997,-0.382 5.994,-0.382 2.998,0 2.998,0.311 5.997,0.311 3,0 3,-0.221 6.001,-0.221 2.999,0 2.999,0.203 5.997,0.203 2.999,0 2.999,-0.156 5.997,-0.156 2.999,0 2.999,-0.139 5.998,-0.139 3.001,0 3.001,0.01 6.001,0.01 2.998,0 2.998,0.179 5.997,0.179 2.999,0 2.999,-0.516 5.999,-0.516 3,0 3,0.551 6.001,0.551 2.999,0 2.999,-0.064 5.998,-0.064 3.001,0 3.001,-0.106 6.001,-0.106 3,0 3,-0.257 6,-0.257 3.001,0 3.001,0.507 6.001,0.507 3,0 3,-0.505 6,-0.505 3.002,0 3.002,-0.026 6.003,-0.026 3,0 3,0.144 6,0.144 3.002,0 3.002,-0.35 6.003,-0.35 3.001,0 3.001,0.796 6.003,0.796 3.001,0 3.001,-0.427 6.002,-0.427 3.001,0 3.001,-0.042 6.003,-0.042 3.001,0 3.001,0.297 6.003,0.297 2.999,0 2.999,-0.468 5.998,-0.468 3,0 3,-0.143 6.001,-0.143 3.001,0 3.001,0.552 6.003,0.552 3.002,0 3.002,0.111 6.004,0.111 3.001,0 3.001,-0.007 6.003,-0.007 3.002,0 3.002,-0.248 6.005,-0.248 3.001,0 3.001,0.556 6.002,0.556 3.003,0 3.003,-0.25 6.007,-0.25 3.006,0 3.006,-0.412 6.011,-0.412 3.005,0 3.005,0.346 6.011,0.346 1.779,0 3.384,-0.765 4.821,-1.597 1.482,-0.857 3.202,-1.742 4.06,-3.224 0.831,-1.436 1.098,-3.348 1.098,-5.127 0,-2.997 -0.691,-2.997 -0.691,-5.995 0,-2.998 0.182,-2.998 0.182,-5.996 0,-3.001 0.028,-3.001 0.028,-6.002 0,-2.998 -0.058,-2.998 -0.058,-5.997 0,-2.998 0.716,-2.998 0.716,-5.996 0,-2.999 -0.441,-2.999 -0.441,-5.998 0,-3 0.307,-3 0.307,-6.001 0,-2.998 0.129,-2.998 0.129,-5.997 0,-3 -0.351,-3 -0.351,-5.999 0,-3.001 -0.198,-3.001 -0.198,-6.001 0,-2.999 -0.025,-2.999 -0.025,-5.998 0,-3.001 -0.211,-3.001 -0.211,-6.001 0,-3 -0.071,-3 -0.071,-6 0,-3 0.64,-3 0.64,-6.001 0,-3 -0.381,-3 -0.381,-6 0,-3.001 0.12,-3.001 0.12,-6.002 0,-3.001 0.387,-3.001 0.387,-6.001 0,-3.001 -0.076,-3.001 -0.076,-6.003 0,-3.001 -0.33,-3.001 -0.33,-6.003 0,-3.001 -0.136,-3.001 -0.136,-6.002 0,-3.001 0.039,-3.001 0.039,-6.003 0,-3.001 -0.094,-3.001 -0.094,-6.003 0,-2.999 0.543,-2.999 0.543,-5.998 0,-3 -0.234,-3 -0.234,-6.001 0,-3.001 -0.488,-3.001 -0.488,-6.003 0,-3.002 0.347,-3.002 0.347,-6.003 0,-3.002 0.469,-3.002 0.469,-6.004 0,-3.002 -0.467,-3.002 -0.467,-6.005 0,-3.001 0.137,-3.001 0.137,-6.002 0,-3.003 0.291,-3.003 0.291,-6.007 C 0.701,9.017 0.268,9.026 0.133,6.023 -0.001,3.011 0,3.006 0,0 Z" />
    </g>
    <g
       transform="matrix(1.25,0,0,-1.25,424.57654,438.86888)"
       id="g28">
      <path
         id="path30"
         style="fill:#ffffff;fill-opacity:1;fill-rule:nonzero;stroke:none"
         d="m 0,0 -1.588,-2.111 -2.26,-1.403 -2.612,0.162 -2.612,0.163 -2.613,0.176 -2.616,-0.872 -2.617,0.531 -2.165,-1.296 -1.104,-2.168 -0.472,-2.912 0.246,-2.914 0.452,-2.913 -0.396,-2.912 0.333,-2.911 -0.628,-2.91 -0.104,-2.911 0.859,-2.913 -0.682,-2.911 0.198,-2.914 -0.126,-2.914 0.011,-2.915 0.352,-2.913 0.009,-2.915 -0.581,-2.917 0.295,-2.916 0.069,-2.913 -0.368,-2.917 0.789,-2.916 0.182,-2.917 -0.531,-2.923 -0.299,-2.923 -0.972,-2.092 -2.091,-1.073 -2.832,-0.518 -2.834,0.497 -2.829,-0.207 -2.833,-0.002 -2.833,-0.168 -2.834,-0.224 -2.84,0.564 -2.837,-0.534 -2.721,1.001 -0.654,2.718 -0.511,2.912 0.783,2.915 -0.806,2.911 0.719,2.913 -0.082,2.911 0.023,2.909 0.247,2.911 -0.392,2.914 -0.002,2.911 -0.035,2.914 -0.026,2.913 -0.499,2.915 0.851,2.914 -0.297,2.915 0.191,2.917 -0.528,2.915 0.051,2.913 -0.249,2.916 0.314,2.917 0.099,2.918 10e-4,2.922 -0.21,2.922 -0.898,2.278 -2.282,0.641 -2.399,0.867 -2.402,-0.835 -2.404,0.724 -2.137,0.99 -1.233,2.135 0.268,3.035 -0.23,3.038 0.199,3.039 0.102,3.04 -0.067,3.044 0.155,3.045 0.302,2.611 2.61,1.128 2.4,0.044 2.403,-0.205 2.404,0 2.518,0.737 0.925,2.521 -0.418,3.198 0.323,3.199 -0.397,3.203 0.149,3.204 0.068,2.82 0.751,2.74 0.412,2.765 0.55,2.76 1.048,2.612 1.155,2.566 1.516,2.371 1.539,2.38 2.476,1.492 2.127,1.745 2.105,1.875 2.484,1.328 2.768,0.579 2.742,0.457 2.623,1.227 2.808,0.309 2.826,-0.014 3.066,-0.449 3.069,-0.213 3.072,0.399 3.072,-0.067 3.077,0.327 3.074,-0.746 L 0.82,66.693 1.988,64.146 1.214,61.232 1.68,58.317 1.68,55.4 1.795,52.483 2.026,49.563 1.52,46.64 0.958,43.985 -1.695,42.868 -4.802,43.226 -7.91,43.08 l -3.112,-0.223 -3.112,0.146 -2.458,-0.541 -2.086,-1.33 -1.317,-2.173 0.011,-2.585 -0.723,-2.833 0.416,-2.833 -0.511,-2.838 0.912,-2.837 0.791,-2.141 2.144,-1.18 3.128,-0.022 3.129,-0.405 3.129,0.168 3.134,-0.214 3.133,0.383 L 0.96,20.619 2,18.24 1.305,15.242 1.354,12.165 0.786,9.15 0.618,6.094 0.548,3.027 0,0 Z" />
    </g>
    <g
       transform="matrix(1.25,0,0,-1.25,424.57654,438.86888)"
       id="g32">
      <path
         id="path34"
         style="fill:none;stroke:#000000;stroke-width:4;stroke-linecap:round;stroke-linejoin:round;stroke-miterlimit:10;stroke-dasharray:none;stroke-opacity:1"
         d="m 0,0 -1.588,-2.111 -2.26,-1.403 -2.612,0.162 -2.612,0.163 -2.613,0.176 -2.616,-0.872 -2.617,0.531 -2.165,-1.296 -1.104,-2.168 -0.472,-2.912 0.246,-2.914 0.452,-2.913 -0.396,-2.912 0.333,-2.911 -0.628,-2.91 -0.104,-2.911 0.859,-2.913 -0.682,-2.911 0.198,-2.914 -0.126,-2.914 0.011,-2.915 0.352,-2.913 0.009,-2.915 -0.581,-2.917 0.295,-2.916 0.069,-2.913 -0.368,-2.917 0.789,-2.916 0.182,-2.917 -0.531,-2.923 -0.299,-2.923 -0.972,-2.092 -2.091,-1.073 -2.832,-0.518 -2.834,0.497 -2.829,-0.207 -2.833,-0.002 -2.833,-0.168 -2.834,-0.224 -2.84,0.564 -2.837,-0.534 -2.721,1.001 -0.654,2.718 -0.511,2.912 0.783,2.915 -0.806,2.911 0.719,2.913 -0.082,2.911 0.023,2.909 0.247,2.911 -0.392,2.914 -0.002,2.911 -0.035,2.914 -0.026,2.913 -0.499,2.915 0.851,2.914 -0.297,2.915 0.191,2.917 -0.528,2.915 0.051,2.913 -0.249,2.916 0.314,2.917 0.099,2.918 10e-4,2.922 -0.21,2.922 -0.898,2.278 -2.282,0.641 -2.399,0.867 -2.402,-0.835 -2.404,0.724 -2.137,0.99 -1.233,2.135 0.268,3.035 -0.23,3.038 0.199,3.039 0.102,3.04 -0.067,3.044 0.155,3.045 0.302,2.611 2.61,1.128 2.4,0.044 2.403,-0.205 2.404,0 2.518,0.737 0.925,2.521 -0.418,3.198 0.323,3.199 -0.397,3.203 0.149,3.204 0.068,2.82 0.751,2.74 0.412,2.765 0.55,2.76 1.048,2.612 1.155,2.566 1.516,2.371 1.539,2.38 2.476,1.492 2.127,1.745 2.105,1.875 2.484,1.328 2.768,0.579 2.742,0.457 2.623,1.227 2.808,0.309 2.826,-0.014 3.066,-0.449 3.069,-0.213 3.072,0.399 3.072,-0.067 3.077,0.327 3.074,-0.746 L 0.82,66.693 1.988,64.146 1.214,61.232 1.68,58.317 1.68,55.4 1.795,52.483 2.026,49.563 1.52,46.64 0.958,43.985 -1.695,42.868 -4.802,43.226 -7.91,43.08 l -3.112,-0.223 -3.112,0.146 -2.458,-0.541 -2.086,-1.33 -1.317,-2.173 0.011,-2.585 -0.723,-2.833 0.416,-2.833 -0.511,-2.838 0.912,-2.837 0.791,-2.141 2.144,-1.18 3.128,-0.022 3.129,-0.405 3.129,0.168 3.134,-0.214 3.133,0.383 L 0.96,20.619 2,18.24 1.305,15.242 1.354,12.165 0.786,9.15 0.618,6.094 0.548,3.027 0,0 Z" />
    </g>
    <g
       transform="matrix(1.25,0,0,-1.25,267.67104,539.03801)"
       id="g36">
      <path
         id="path38"
         style="fill:#000000;fill-opacity:1;fill-rule:evenodd;stroke:none"
         d="m 0,0 2.625,0.517 2.292,-1.303 1.771,-1.877 2.253,-1.413 1.558,-2.085 1.913,-1.742 1.509,-2.126 2.277,-1.913 1.559,-2.586 1.377,-3.164 -3.786,0.668 -2.602,2.373 -2.464,2.497 -1.713,2.428 -2.092,2.08 -1.76,2.382 L 2.479,-3.313 0,0 Z" />
    </g>
    <g
       transform="matrix(1.25,0,0,-1.25,280.60441,534.84113)"
       id="g40">
      <path
         id="path42"
         style="fill:#000000;fill-opacity:1;fill-rule:evenodd;stroke:none"
         d="m 0,0 2.66,-1.174 1.946,-2.116 1.881,-2.109 1.951,-2.038 2.506,-1.451 -0.216,-2.878 -2.832,-0.872 -1.139,1.379 -2.356,1.524 -1.017,2.626 -1.783,1.997 -1.638,2.117 L 0,0 Z" />
    </g>
    <g
       transform="matrix(1.25,0,0,-1.25,265.08379,548.34825)"
       id="g44">
      <path
         id="path46"
         style="fill:#000000;fill-opacity:1;fill-rule:evenodd;stroke:none"
         d="m 0,0 2.756,-0.676 2.32,-1.967 1.704,-2.533 1.859,-2.299 1.232,-2.327 -1.616,-1.031 -1.797,1.145 -2.06,1.913 -2.484,1.571 -1.549,2.401 -1.31,1.934 L 0,0 Z" />
    </g>
    <g
       transform="matrix(1.25,0,0,-1.25,481.04504,324.23201)"
       id="g48">
      <path
         id="path50"
         style="fill:#000000;fill-opacity:1;fill-rule:evenodd;stroke:none"
         d="m 0,0 2.625,0.517 2.292,-1.303 1.771,-1.876 2.253,-1.414 1.558,-2.084 1.913,-1.743 1.509,-2.126 2.277,-1.913 1.559,-2.586 1.377,-3.163 -3.786,0.667 -2.602,2.374 -2.464,2.496 -1.713,2.428 -2.092,2.08 L 4.716,-5.264 2.479,-3.313 0,0 Z" />
    </g>
    <g
       transform="matrix(1.25,0,0,-1.25,493.97841,320.03526)"
       id="g52">
      <path
         id="path54"
         style="fill:#000000;fill-opacity:1;fill-rule:evenodd;stroke:none"
         d="m 0,0 2.66,-1.174 1.946,-2.116 1.881,-2.109 1.951,-2.037 2.506,-1.451 -0.216,-2.879 -2.832,-0.872 -1.139,1.379 -2.356,1.524 -1.017,2.626 -1.783,1.998 -1.638,2.116 L 0,0 Z" />
    </g>
  </g>
</svg>
