<?xml version="1.0" encoding="UTF-8" standalone="no"?>
<svg
   xmlns:dc="http://purl.org/dc/elements/1.1/"
   xmlns:cc="http://creativecommons.org/ns#"
   xmlns:rdf="http://www.w3.org/1999/02/22-rdf-syntax-ns#"
   xmlns:svg="http://www.w3.org/2000/svg"
   xmlns="http://www.w3.org/2000/svg"
   xmlns:sodipodi="http://sodipodi.sourceforge.net/DTD/sodipodi-0.dtd"
   xmlns:inkscape="http://www.inkscape.org/namespaces/inkscape"
   width="86.080475"
   height="67.964294"
   id="svg2"
   version="1.1"
   inkscape:version="0.91 r13725"
   sodipodi:docname="menu-open.svg">
  <metadata
     id="metadata13">
    <rdf:RDF>
      <cc:Work
         rdf:about="">
        <dc:format>image/svg+xml</dc:format>
        <dc:type
           rdf:resource="http://purl.org/dc/dcmitype/StillImage" />
        <dc:title></dc:title>
      </cc:Work>
    </rdf:RDF>
  </metadata>
  <defs
     id="defs11" />
  <sodipodi:namedview
     pagecolor="#ffffff"
     bordercolor="#666666"
     borderopacity="1"
     objecttolerance="10"
     gridtolerance="10"
     guidetolerance="10"
     inkscape:pageopacity="0"
     inkscape:pageshadow="2"
     inkscape:window-width="1920"
     inkscape:window-height="1017"
     id="namedview9"
     showgrid="false"
     fit-margin-top="0"
     fit-margin-left="0"
     fit-margin-right="0"
     fit-margin-bottom="0"
     inkscape:zoom="2.1071429"
     inkscape:cx="-149.06089"
     inkscape:cy="0.91440762"
     inkscape:window-x="1358"
     inkscape:window-y="-8"
     inkscape:window-maximized="1"
     inkscape:current-layer="svg2" />
  <g
     id="g4"
     style="fill:none;fill-opacity:1;stroke:#3e3231;stroke-opacity:1"
     transform="matrix(0.93766208,0,0,0.86815021,-17.062355,-11.037376)">
    <path
       class="line-global top"
       d="m 22.5,20.5 c 1,0 2,0 3,0 1,0 2,0 4,0 2,0 7,0 12,0 8,0 11,0 14,0 2,0 5,0 11,0 3,0 15.03746,-0.61092 20,0 4.09222,0.50377 9,1 13,1 2,0 3,0 3,-1 l 1,0"
       id="svg_17"
       style="fill:none;fill-opacity:1;stroke:#3e3231;stroke-width:15;stroke-opacity:1"
       inkscape:connector-curvature="0" />
    <path
       class="line-global middle"
       d="m 23.5,48.5 c 1,1 2.05165,0.35927 6,1 3.12144,0.50654 4.69344,1.45881 6,2 1.84776,0.76537 4,0 8,0 3,0 8,-1 9,-1 4,0 6,0 10,0 1,0 4,0 7,0 3,0 6,0 8,0 2,0 4,0 6,0 2,0 3,0 5,0 3,0 6,0 9,0 1,0 2,0 3,0 1,0 2,0 3,0 l 1,0 1,0"
       id="svg_18"
       style="fill:none;fill-opacity:1;stroke:#3e3231;stroke-width:15;stroke-opacity:1"
       inkscape:connector-curvature="0" />
    <path
       class="line-global bottom"
       d="m 20.5,81.5 c 1,0 5,-1 11,-1 6,0 12,0 17,0 5,0 8,1 10,1 7,0 12.02433,-0.49269 17,0 5.0742,0.50245 9,1 12,1 2,0 4,0 5,0 1,0 3.22836,-1.14805 6,0 1.30656,0.5412 3,1 4,1 l 1,0"
       id="svg_19"
       style="fill:none;fill-opacity:1;stroke:#3e3231;stroke-width:15;stroke-opacity:1"
       inkscape:connector-curvature="0" />
  </g>
</svg>
